<svg preserveAspectRatio="none" width="100%" height="100%" overflow="visible" style="display: block;" viewBox="0 0 180.628 103.639" fill="none" xmlns="http://www.w3.org/2000/svg">
<g id="Group 26273">
<path id="Vector" d="M138.362 1.08428C147.943 0.660795 160.186 1.856 169.388 4.14888C172.834 5.00274 176.145 6.32428 179.593 7.17207C179.46 10.2468 179.575 14.1627 179.576 17.3001L179.577 36.639L179.573 96.4343C178.173 95.9618 176.751 95.4727 175.347 95.0345C135.377 82.584 94.6832 98.0673 54.6969 101.84C50.6214 102.225 46.6024 102.418 42.4877 102.582C31.8857 102.894 20.9239 101.935 10.6269 99.3651C7.26311 98.5252 4.34098 97.5531 1.08373 96.4666C0.911897 93.9521 1.05687 89.6819 1.05708 87.0051L1.05823 68.2215L1.03804 7.21193C1.7189 7.50262 3.21779 7.9542 3.95642 8.19316C7.01343 9.17969 10.1143 10.0243 13.2492 10.7245C46.1165 18.1553 80.1557 8.15766 112.644 3.42067C121.16 2.11337 129.749 1.33312 138.362 1.08428Z" fill="var(--fill-0, #FFFCEB)" stroke="var(--stroke-0, #C8E6D0)" stroke-width="2"/>
<path id="Vector_2" d="M137.623 11.8044C140.938 11.6063 145.5 11.7568 148.786 11.8758C146.012 22.229 152.416 31.2676 162.391 34.0662C164.613 34.6896 166.6 34.7759 168.882 34.7763C168.703 41.3303 168.973 48.0424 168.859 54.6141C168.815 57.1254 168.748 60.052 168.894 62.5467C165.772 60.867 162.162 60.0812 158.654 60.8295C155.34 61.5424 152.446 63.5448 150.611 66.3934C147.797 70.7864 147.685 74.7309 148.748 79.6849C148.027 79.6162 147.276 79.6411 146.549 79.6193C115.648 78.6837 85.7769 88.1233 55.2333 91.0957C51.2505 91.4829 47.302 91.6608 43.3118 91.87C39.4581 91.9689 35.6022 91.9429 31.7501 91.792C32.2446 90.2339 32.4818 88.4699 32.4859 86.839C32.4744 82.4106 30.7007 78.1695 27.5565 75.0514C22.9884 70.4669 18.0417 68.8912 11.7295 68.8922C11.9019 65.7148 11.769 61.3957 11.7698 58.1142C11.7975 52.4762 11.7842 46.8379 11.7297 41.2C13.6763 41.9485 15.1433 42.6733 17.265 42.9734C22.4976 43.7132 27.3778 41.4835 30.1841 36.9598C32.728 32.8591 32.9348 28.6392 31.8342 24.0026C59.9031 25.0399 83.6812 18.4683 110.933 14.3884C119.773 13.0113 128.685 12.1486 137.623 11.8044Z" fill="url(#paint0_linear_0_1102)" stroke="var(--stroke-0, #C8E6D0)" stroke-width="2"/>
<path id="Vector_3" d="M92.6137 26.9939C92.6824 26.9836 92.7511 26.9732 92.8208 26.9629C104.026 25.952 113.705 33.8415 114.703 45.2165C115.293 52.594 112.955 59.9072 108.196 65.5751C103.057 71.6791 95.9972 75.9587 87.948 76.6571C82.9992 77.2399 77.3484 75.7131 73.4591 72.5783C69.1721 69.1418 66.4599 64.116 65.9408 58.6458C64.3046 42.9385 77.207 28.6017 92.6137 26.9939Z" fill="var(--fill-0, #FFFCF2)" stroke="var(--stroke-0, #C8E6D0)" stroke-width="2"/>
<g id="Subtract">
<mask id="path-4-inside-1_0_1102" fill="white">
<path d="M90.8114 31.0083C92.5788 30.9869 92.9269 32.3079 92.9071 33.7671C95.1366 33.7361 103.476 34.6167 101.25 38.5669C100.732 39.4864 99.8163 39.773 98.8651 40.0298C96.1687 39.1812 96.191 38.5258 92.7586 38.1138C92.6036 41.3038 92.7068 45.2698 92.7079 48.4917C95.0901 48.6605 96.8721 48.817 99.0858 49.9009C103.184 51.9075 103.528 56.8691 101.63 60.5825C99.8376 64.0857 96.4985 66.0758 92.8163 67.23C92.9453 69.1886 93.1661 72.2109 90.4247 72.4204C89.8823 72.462 89.5144 72.154 89.1307 71.8169C88.5935 70.8834 88.7572 68.9682 88.7743 67.8452C85.6352 67.9951 82.5241 67.402 79.7469 65.9107C78.7559 65.2998 77.8893 64.8072 77.91 63.5347C77.7174 62.2889 79.9254 60.4369 81.0077 61.0425C84.0256 62.7326 85.3612 63.2977 88.8622 63.6089C88.9154 60.0933 88.8931 56.5066 88.8866 52.9878C85.4196 52.7999 80.4328 51.7953 79.3885 47.9429C77.5229 41.0584 82.8703 36.2646 88.7616 34.3765C88.732 32.5144 89.0993 31.8502 90.8114 31.0083ZM92.7176 53.1294C92.6458 56.3853 92.6975 59.767 92.7069 63.0327C94.2689 62.5145 94.9616 62.1727 96.2333 61.1206C97.4135 59.93 98.0246 58.837 98.0506 57.1021C98.0985 53.9591 95.0957 53.5546 92.7176 53.1294ZM88.7489 38.6206C86.8489 39.3748 84.9513 40.3535 84.1141 42.3228C83.4404 43.9078 83.4854 46.1016 85.0399 47.1333C86.3331 47.8543 87.4057 48.0285 88.8573 48.3111C88.8677 47.0575 88.998 39.0264 88.7489 38.6206Z"/>
</mask>
<path d="M90.8114 31.0083C92.5788 30.9869 92.9269 32.3079 92.9071 33.7671C95.1366 33.7361 103.476 34.6167 101.25 38.5669C100.732 39.4864 99.8163 39.773 98.8651 40.0298C96.1687 39.1812 96.191 38.5258 92.7586 38.1138C92.6036 41.3038 92.7068 45.2698 92.7079 48.4917C95.0901 48.6605 96.8721 48.817 99.0858 49.9009C103.184 51.9075 103.528 56.8691 101.63 60.5825C99.8376 64.0857 96.4985 66.0758 92.8163 67.23C92.9453 69.1886 93.1661 72.2109 90.4247 72.4204C89.8823 72.462 89.5144 72.154 89.1307 71.8169C88.5935 70.8834 88.7572 68.9682 88.7743 67.8452C85.6352 67.9951 82.5241 67.402 79.7469 65.9107C78.7559 65.2998 77.8893 64.8072 77.91 63.5347C77.7174 62.2889 79.9254 60.4369 81.0077 61.0425C84.0256 62.7326 85.3612 63.2977 88.8622 63.6089C88.9154 60.0933 88.8931 56.5066 88.8866 52.9878C85.4196 52.7999 80.4328 51.7953 79.3885 47.9429C77.5229 41.0584 82.8703 36.2646 88.7616 34.3765C88.732 32.5144 89.0993 31.8502 90.8114 31.0083ZM92.7176 53.1294C92.6458 56.3853 92.6975 59.767 92.7069 63.0327C94.2689 62.5145 94.9616 62.1727 96.2333 61.1206C97.4135 59.93 98.0246 58.837 98.0506 57.1021C98.0985 53.9591 95.0957 53.5546 92.7176 53.1294ZM88.7489 38.6206C86.8489 39.3748 84.9513 40.3535 84.1141 42.3228C83.4404 43.9078 83.4854 46.1016 85.0399 47.1333C86.3331 47.8543 87.4057 48.0285 88.8573 48.3111C88.8677 47.0575 88.998 39.0264 88.7489 38.6206Z" fill="var(--fill-0, #FFFCF2)"/>
<path d="M90.8114 31.0083L90.775 28.0085L90.0965 28.0168L89.4876 28.3162L90.8114 31.0083ZM92.9071 33.7671L89.9074 33.7265L89.8656 36.8096L92.9488 36.7668L92.9071 33.7671ZM101.25 38.5669L103.863 40.04L103.863 40.0397L101.25 38.5669ZM98.8651 40.0298L97.9645 42.8914L98.8006 43.1546L99.6469 42.9262L98.8651 40.0298ZM92.7586 38.1138L93.1162 35.1352L89.9185 34.7513L89.7622 37.9682L92.7586 38.1138ZM92.7079 48.4917L89.7079 48.4927L89.7088 51.2867L92.4958 51.4842L92.7079 48.4917ZM99.0858 49.9009L97.7665 52.5952L97.7666 52.5953L99.0858 49.9009ZM101.63 60.5825L104.301 61.9489L104.301 61.948L101.63 60.5825ZM92.8163 67.23L91.919 64.3673L89.6676 65.073L89.8228 67.4272L92.8163 67.23ZM90.4247 72.4204L90.1961 69.4291L90.1951 69.4292L90.4247 72.4204ZM89.1307 71.8169L86.5305 73.3133L86.778 73.7433L87.1507 74.0707L89.1307 71.8169ZM88.7743 67.8452L91.7739 67.8909L91.8225 64.6963L88.6312 64.8486L88.7743 67.8452ZM79.7469 65.9107L78.1727 68.4645L78.2488 68.5114L78.3276 68.5537L79.7469 65.9107ZM77.91 63.5347L80.9096 63.5835L80.9138 63.3284L80.8748 63.0762L77.91 63.5347ZM81.0077 61.0425L82.4736 58.425L82.4726 58.4245L81.0077 61.0425ZM88.8622 63.6089L88.5965 66.5971L91.8129 66.883L91.8618 63.6544L88.8622 63.6089ZM88.8866 52.9878L91.8866 52.9822L91.8813 50.1458L89.049 49.9922L88.8866 52.9878ZM79.3885 47.9429L76.493 48.7276L76.493 48.7278L79.3885 47.9429ZM88.7616 34.3765L89.6772 37.2333L91.7965 36.5541L91.7612 34.3289L88.7616 34.3765ZM92.7176 53.1294L93.2456 50.1762L89.7956 49.5595L89.7184 53.0633L92.7176 53.1294ZM92.7069 63.0327L89.7069 63.0413L89.7188 67.1849L93.6516 65.8801L92.7069 63.0327ZM96.2333 61.1206L98.1456 63.4321L98.2596 63.3378L98.3639 63.2326L96.2333 61.1206ZM98.0506 57.1021L95.051 57.0564L95.051 57.0571L98.0506 57.1021ZM88.7489 38.6206L91.3053 37.0508L89.9858 34.9019L87.642 35.8323L88.7489 38.6206ZM84.1141 42.3228L81.3532 41.149L81.3532 41.1492L84.1141 42.3228ZM85.0399 47.1333L83.381 49.6329L83.4776 49.6971L83.579 49.7536L85.0399 47.1333ZM88.8573 48.3111L88.2842 51.2558L91.8272 51.9454L91.8572 48.336L88.8573 48.3111ZM90.8114 31.0083L90.8478 34.0081C90.9173 34.0073 90.7662 34.0214 90.5213 33.8961C90.2559 33.7604 90.0642 33.5551 89.9558 33.374C89.8653 33.2229 89.866 33.1462 89.8813 33.234C89.8961 33.3182 89.9108 33.4748 89.9074 33.7265L92.9071 33.7671L95.9068 33.8078C95.9184 32.9543 95.8562 31.5482 95.103 30.2909C94.1646 28.7242 92.5511 27.987 90.775 28.0085L90.8114 31.0083ZM92.9071 33.7671L92.9488 36.7668C93.834 36.7545 96.114 36.9459 97.7823 37.5139C98.6772 37.8187 98.893 38.0667 98.8448 38.0056C98.7684 37.909 98.6404 37.6817 98.6254 37.3694C98.6115 37.0796 98.7074 36.9679 98.6363 37.0941L101.25 38.5669L103.863 40.0397C104.349 39.1784 104.671 38.1751 104.618 37.0811C104.565 35.9646 104.133 35.0207 103.553 34.2865C102.498 32.9503 100.907 32.2395 99.7163 31.8342C97.2141 30.9822 94.2097 30.7487 92.8654 30.7674L92.9071 33.7671ZM101.25 38.5669L98.6364 37.0938C98.6638 37.0453 98.7063 36.9901 98.7576 36.9428C98.8051 36.899 98.8336 36.8863 98.8146 36.8963C98.7912 36.9088 98.7292 36.9381 98.6011 36.9817C98.4692 37.0265 98.3109 37.072 98.0833 37.1335L98.8651 40.0298L99.6469 42.9262C100.504 42.6947 102.659 42.1764 103.863 40.04L101.25 38.5669ZM98.8651 40.0298L99.7657 37.1682C98.5947 36.7996 98.2701 36.5735 97.2557 36.1447C96.1966 35.6971 95.0647 35.3691 93.1162 35.1352L92.7586 38.1138L92.4011 41.0924C93.8849 41.2705 94.458 41.4762 94.92 41.6714C95.4266 41.8856 96.4391 42.4114 97.9645 42.8914L98.8651 40.0298ZM92.7586 38.1138L89.7622 37.9682C89.6024 41.255 89.7069 45.3961 89.7079 48.4927L92.7079 48.4917L95.7079 48.4907C95.7068 45.1434 95.6048 41.3527 95.7551 38.2594L92.7586 38.1138ZM92.7079 48.4917L92.4958 51.4842C94.848 51.6509 96.1173 51.7877 97.7665 52.5952L99.0858 49.9009L100.405 47.2066C97.627 45.8462 95.3323 45.6702 92.9199 45.4992L92.7079 48.4917ZM99.0858 49.9009L97.7666 52.5953C98.8614 53.1313 99.4464 54.0089 99.6563 55.1463C99.8817 56.3671 99.6484 57.8675 98.9585 59.2171L101.63 60.5825L104.301 61.948C105.509 59.5842 106.053 56.747 105.557 54.0571C105.045 51.2836 103.409 48.6771 100.405 47.2065L99.0858 49.9009ZM101.63 60.5825L98.9589 59.2162C97.6807 61.7147 95.21 63.3358 91.919 64.3673L92.8163 67.23L93.7136 70.0927C97.7869 68.8158 101.994 66.4567 104.301 61.9489L101.63 60.5825ZM92.8163 67.23L89.8228 67.4272C89.8564 67.9386 89.8857 68.3832 89.8826 68.8165C89.8795 69.2542 89.8419 69.5427 89.7965 69.7145C89.7527 69.8803 89.7449 69.7747 89.9107 69.6177C90.1162 69.4232 90.2952 69.4216 90.1961 69.4291L90.4247 72.4204L90.6532 75.4117C91.9248 75.3145 93.1043 74.8565 94.0353 73.9752C94.9267 73.1314 95.3697 72.1086 95.5973 71.2478C96.0187 69.6532 95.8654 67.8776 95.8098 67.0328L92.8163 67.23ZM90.4247 72.4204L90.1951 69.4292C90.3758 69.4154 90.5669 69.4301 90.7542 69.4755C90.9366 69.5197 91.0745 69.583 91.161 69.6304C91.242 69.6749 91.2807 69.7071 91.2641 69.6942C91.2431 69.6778 91.2065 69.6473 91.1107 69.5631L89.1307 71.8169L87.1507 74.0707C87.4345 74.32 88.6982 75.5617 90.6542 75.4116L90.4247 72.4204ZM89.1307 71.8169L91.7309 70.3206C91.8331 70.4982 91.8249 70.5733 91.7972 70.4218C91.7735 70.2916 91.7524 70.0896 91.743 69.804C91.7217 69.1532 91.7624 68.6498 91.7739 67.8909L88.7743 67.8452L85.7746 67.7996C85.7691 68.1637 85.7194 69.1794 85.7462 70.0003C85.7708 70.7516 85.8562 72.1415 86.5305 73.3133L89.1307 71.8169ZM88.7743 67.8452L88.6312 64.8486C85.9616 64.9761 83.4031 64.4689 81.1663 63.2677L79.7469 65.9107L78.3276 68.5537C81.645 70.3352 85.3088 71.0141 88.9173 70.8418L88.7743 67.8452ZM79.7469 65.9107L81.3211 63.3568C81.1837 63.2722 81.0824 63.2103 80.9781 63.1448C80.8786 63.0824 80.8034 63.0333 80.7425 62.9913C80.6141 62.9027 80.6011 62.8801 80.6323 62.9132C80.6762 62.9598 80.766 63.0717 80.8346 63.2432C80.9038 63.4164 80.9102 63.5473 80.9096 63.5835L77.91 63.5347L74.9104 63.4858C74.8866 64.9488 75.4234 66.1345 76.2659 67.0284C76.9381 67.7417 77.81 68.2409 78.1727 68.4645L79.7469 65.9107ZM77.91 63.5347L80.8748 63.0762C80.9255 63.4042 80.8836 63.6594 80.8461 63.8031C80.8087 63.946 80.7645 64.0245 80.7557 64.0397C80.7441 64.0597 80.782 63.9968 80.8813 63.9155C80.9865 63.8293 81.0156 63.8403 80.91 63.8723C80.8403 63.8934 80.2526 64.0577 79.5428 63.6605L81.0077 61.0425L82.4726 58.4245C81.2216 57.7245 79.9521 57.8932 79.17 58.1301C78.352 58.378 77.6381 58.8163 77.0802 59.2732C76.5162 59.7349 75.9707 60.3307 75.5654 61.0294C75.1867 61.6825 74.7518 62.7421 74.9453 63.9931L77.91 63.5347ZM81.0077 61.0425L79.5418 63.66C81.0619 64.5113 82.3565 65.1953 83.7862 65.6825C85.2486 66.1808 86.7193 66.4303 88.5965 66.5971L88.8622 63.6089L89.1278 60.6207C87.504 60.4764 86.5565 60.2877 85.7214 60.0031C84.8535 59.7074 83.9714 59.2639 82.4736 58.425L81.0077 61.0425ZM88.8622 63.6089L91.8618 63.6544C91.9156 60.1057 91.8931 56.4821 91.8866 52.9822L88.8866 52.9878L85.8866 52.9934C85.8932 56.5311 85.9153 60.0809 85.8625 63.5634L88.8622 63.6089ZM88.8866 52.9878L89.049 49.9922C87.472 49.9067 85.745 49.6392 84.3852 49.0713C83.0351 48.5074 82.4704 47.8457 82.284 47.158L79.3885 47.9429L76.493 48.7278C77.3509 51.8926 79.8017 53.6593 82.0729 54.6078C84.3342 55.5522 86.8341 55.8809 88.7242 55.9834L88.8866 52.9878ZM79.3885 47.9429L82.2841 47.1582C81.6241 44.7228 82.2109 42.779 83.5068 41.1627C84.8839 39.4451 87.1288 38.0501 89.6772 37.2333L88.7616 34.3765L87.846 31.5196C84.5031 32.591 81.1287 34.537 78.8256 37.4095C76.4414 40.3832 75.2873 44.2786 76.493 48.7276L79.3885 47.9429ZM88.7616 34.3765L91.7612 34.3289C91.7551 33.9452 91.7734 33.7612 91.7866 33.6832C91.7956 33.6304 91.7869 33.7182 91.7065 33.8522C91.6253 33.9876 91.5495 34.0396 91.5851 34.0124C91.6415 33.9694 91.7926 33.8689 92.1352 33.7004L90.8114 31.0083L89.4876 28.3162C88.5097 28.797 87.3254 29.4909 86.5602 30.7674C85.802 32.0324 85.7456 33.3915 85.762 34.4241L88.7616 34.3765ZM92.7176 53.1294L89.7184 53.0633C89.6455 56.369 89.6977 59.8272 89.7069 63.0413L92.7069 63.0327L95.7069 63.0241C95.6974 59.7068 95.6462 56.4016 95.7169 53.1956L92.7176 53.1294ZM92.7069 63.0327L93.6516 65.8801C94.4792 65.6055 95.2364 65.3269 95.9926 64.9229C96.7629 64.5114 97.426 64.0275 98.1456 63.4321L96.2333 61.1206L94.3209 58.8091C93.7689 59.2658 93.4498 59.4788 93.1654 59.6308C92.8668 59.7903 92.4966 59.9417 91.7622 60.1854L92.7069 63.0327ZM96.2333 61.1206L98.3639 63.2326C99.0881 62.502 99.7836 61.6571 100.284 60.6028C100.798 59.5214 101.032 58.3807 101.05 57.1471L98.0506 57.1021L95.051 57.0571C95.0435 57.5583 94.9584 57.8316 94.865 58.0281C94.7588 58.2517 94.5586 58.5486 94.1026 59.0086L96.2333 61.1206ZM98.0506 57.1021L101.05 57.1477C101.07 55.8609 100.772 54.6484 100.097 53.596C99.4349 52.5625 98.5397 51.8874 97.6886 51.4405C96.138 50.6262 94.2368 50.3534 93.2456 50.1762L92.7176 53.1294L92.1897 56.0826C92.839 56.1987 93.3567 56.2844 93.8645 56.4056C94.3639 56.5248 94.6907 56.6432 94.8991 56.7526C95.09 56.8528 95.0852 56.8948 95.0464 56.8343C94.9956 56.7551 95.0553 56.7718 95.051 57.0564L98.0506 57.1021ZM88.7489 38.6206L87.642 35.8323C85.7163 36.5967 82.7135 37.9494 81.3532 41.149L84.1141 42.3228L86.875 43.4965C87.1891 42.7576 87.9816 42.1529 89.8557 41.409L88.7489 38.6206ZM84.1141 42.3228L81.3532 41.1492C80.8303 42.3795 80.5652 43.8711 80.7698 45.3474C80.9796 46.8612 81.7251 48.534 83.381 49.6329L85.0399 47.1333L86.6988 44.6337C86.7261 44.6518 86.7495 44.681 86.7562 44.6929C86.7572 44.6946 86.73 44.6462 86.713 44.5237C86.6749 44.2489 86.7243 43.8511 86.8751 43.4963L84.1141 42.3228ZM85.0399 47.1333L83.579 49.7536C85.3621 50.7478 86.9229 50.9909 88.2842 51.2558L88.8573 48.3111L89.4304 45.3663C87.8885 45.0662 87.3041 44.9609 86.5008 44.5131L85.0399 47.1333ZM88.8573 48.3111L91.8572 48.336C91.8621 47.7432 91.8977 45.3783 91.9004 43.1516C91.9018 42.0366 91.8951 40.9211 91.8713 40.0477C91.8595 39.6164 91.8426 39.2057 91.8165 38.8698C91.8038 38.7069 91.7854 38.5116 91.7553 38.3191C91.7405 38.2246 91.7158 38.084 91.6745 37.9251C91.649 37.8271 91.5531 37.4542 91.3053 37.0508L88.7489 38.6206L86.1924 40.1905C85.9602 39.8124 85.8792 39.4797 85.8678 39.436C85.8406 39.3314 85.8293 39.2591 85.8273 39.246C85.8226 39.2163 85.8269 39.2364 85.8345 39.3344C85.8489 39.5202 85.8626 39.8133 85.8735 40.2115C85.895 40.9973 85.9018 42.044 85.9004 43.1442C85.8977 45.3479 85.8629 47.6253 85.8574 48.2861L88.8573 48.3111Z" fill="var(--stroke-0, #C8E6D0)" mask="url(#path-4-inside-1_0_1102)"/>
</g>
<path id="Vector_4" d="M162.624 69.9799C170.645 70.2037 173.945 82.5918 165.293 83.2194C156.294 82.8177 154.591 70.6908 162.624 69.9799Z" fill="var(--fill-0, #FFFCF2)" stroke="var(--stroke-0, #C8E6D0)" stroke-width="2"/>
<path id="Vector_5" d="M14.5833 78.4848C23.074 77.902 26.6046 89.6022 18.8674 91.5682C10.9382 92.5163 6.19298 80.4071 14.5833 78.4848Z" fill="var(--fill-0, #FFFCF2)" stroke="var(--stroke-0, #C8E6D0)" stroke-width="2"/>
<path id="Vector_6" d="M14.779 20.4173C16.3164 20.3024 17.859 20.7467 19.1817 21.5174C21.061 22.5892 22.4243 24.3783 22.959 26.4747C23.8107 29.8864 22.0709 32.7945 18.6304 33.611C17.1026 33.7486 15.5716 33.3834 14.2705 32.5709C12.3109 31.3518 10.9104 29.4101 10.3718 27.1659C9.55274 23.6296 11.266 21.135 14.779 20.4173Z" fill="var(--fill-0, #FFFCF2)" stroke="var(--stroke-0, #C8E6D0)" stroke-width="2"/>
<path id="Vector_7" d="M162.394 12.003C169.7 11.3965 174.443 24.0145 165.611 25.1692C156.534 25.0853 154.389 13.0476 162.394 12.003Z" fill="var(--fill-0, #FFFCF2)" stroke="var(--stroke-0, #C8E6D0)" stroke-width="2"/>
</g>
<defs>
<linearGradient id="paint0_linear_0_1102" x1="1.04541" y1="47.6967" x2="109.927" y2="36.9685" gradientUnits="userSpaceOnUse">
<stop offset="0.228262" stop-color="#FFFDF3"/>
<stop offset="0.552885" stop-color="#FFEEED"/>
<stop offset="1" stop-color="#FFFDF3"/>
</linearGradient>
</defs>
</svg>
