<svg preserveAspectRatio="none" width="100%" height="100%" overflow="visible" style="display: block;" viewBox="0 0 180.628 103.639" fill="none" xmlns="http://www.w3.org/2000/svg">
<g id="Group 26275">
<path id="Vector" d="M138.362 1.08428C147.943 0.660795 160.186 1.856 169.388 4.14888C172.834 5.00274 176.145 6.32428 179.593 7.17207C179.46 10.2468 179.575 14.1627 179.576 17.3001L179.577 36.639L179.573 96.4343C178.173 95.9618 176.751 95.4727 175.347 95.0345C135.377 82.584 94.6832 98.0673 54.6969 101.84C50.6214 102.225 46.6024 102.418 42.4877 102.582C31.8857 102.894 20.9239 101.935 10.6269 99.3651C7.26311 98.5252 4.34098 97.5531 1.08373 96.4666C0.911897 93.9521 1.05687 89.6819 1.05708 87.0051L1.05823 68.2215L1.03804 7.21193C1.7189 7.50262 3.21779 7.9542 3.95642 8.19316C7.01343 9.17969 10.1143 10.0243 13.2492 10.7245C46.1165 18.1553 80.1557 8.15766 112.644 3.42067C121.16 2.11337 129.749 1.33312 138.362 1.08428Z" fill="var(--fill-0, #FFFCEB)" stroke="var(--stroke-0, #C8E6D0)" stroke-width="2"/>
<path id="Vector_2" d="M137.622 11.8007C140.937 11.6026 145.499 11.7531 148.785 11.8721C146.011 22.2253 152.415 31.2639 162.389 34.0624C164.611 34.6859 166.599 34.7722 168.881 34.7726C168.702 41.3266 168.972 48.0386 168.858 54.6104C168.814 57.1217 168.747 60.0483 168.893 62.543C165.771 60.8632 162.16 60.0775 158.653 60.8258C155.339 61.5387 152.445 63.5411 150.61 66.3897C147.796 70.7827 147.684 74.7272 148.747 79.6812C148.026 79.6125 147.275 79.6374 146.548 79.6156C115.647 78.6799 85.7758 88.1196 55.2322 91.092C51.2493 91.4792 47.3009 91.6571 43.3107 91.8663C39.457 91.9652 35.6011 91.9392 31.749 91.7883C32.2435 90.2302 32.4807 88.4662 32.4848 86.8353C32.4733 82.4069 30.6996 78.1658 27.5554 75.0477C22.9873 70.4632 18.0406 68.8875 11.7284 68.8885C11.9008 65.7111 11.7679 61.392 11.7687 58.1105C11.7964 52.4725 11.7831 46.8342 11.7286 41.1963C13.6752 41.9448 15.1422 42.6696 17.2639 42.9697C22.4965 43.7095 27.3767 41.4798 30.183 36.9561C32.7269 32.8554 32.9337 28.6355 31.8331 23.9989C59.902 25.0362 83.6801 18.4645 110.932 14.3847C119.772 13.0076 128.684 12.1449 137.622 11.8007Z" fill="url(#paint0_linear_0_1027)" stroke="var(--stroke-0, #C8E6D0)" stroke-width="2"/>
<path id="Vector_3" d="M92.6151 26.9954C92.6838 26.9851 92.7525 26.9747 92.8222 26.9644C104.027 25.9535 113.706 33.8431 114.704 45.218C115.294 52.5955 112.957 59.9087 108.197 65.5766C103.058 71.6806 95.9986 75.9602 87.9494 76.6586C83.0006 77.2414 77.3498 75.7146 73.4605 72.5799C69.1735 69.1433 66.4613 64.1175 65.9422 58.6473C64.306 42.94 77.2084 28.6032 92.6151 26.9954Z" fill="var(--fill-0, #FFFCF2)" stroke="var(--stroke-0, #C8E6D0)" stroke-width="2"/>
<g id="Subtract">
<mask id="path-4-inside-1_0_1027" fill="white">
<path d="M90.8086 31.0075C92.576 30.9861 92.9241 32.3071 92.9043 33.7663C95.1336 33.7353 103.473 34.6159 101.247 38.5661C100.729 39.4856 99.8136 39.7732 98.8623 40.03C96.1659 39.1814 96.1888 38.525 92.7569 38.113C92.6018 41.3032 92.7041 45.2698 92.7051 48.4919C95.0873 48.6607 96.8694 48.8163 99.083 49.9001C103.181 51.9067 103.525 56.8684 101.627 60.5817C99.8348 64.0849 96.4957 66.075 92.8135 67.2292C92.9425 69.1878 93.1634 72.2102 90.4219 72.4196C89.8794 72.4613 89.5117 72.1533 89.128 71.8161C88.5907 70.8826 88.7544 68.9674 88.7715 67.8444C85.6324 67.9943 82.5213 67.4013 79.7442 65.9099C78.7531 65.299 77.8864 64.8066 77.9073 63.5339C77.7146 62.2882 79.9225 60.4364 81.0049 61.0417C84.0228 62.7318 85.3585 63.2979 88.8594 63.6091C88.9127 60.0935 88.8904 56.5068 88.8838 52.988C85.4167 52.8 80.4299 51.7948 79.3858 47.9421C77.5201 41.0576 82.8676 36.2638 88.7588 34.3757C88.7293 32.5136 89.0965 31.8494 90.8086 31.0075ZM92.7051 53.1296C92.6333 56.3855 92.685 59.7671 92.6944 63.0329C94.2565 62.5146 94.949 62.1729 96.2207 61.1208C97.4008 59.9303 98.0111 58.837 98.0371 57.1022C98.0848 53.9596 95.0831 53.5547 92.7051 53.1296ZM88.7412 38.6228C86.8412 39.377 84.9437 40.3556 84.1065 42.3249C83.4327 43.91 83.4776 46.1038 85.0323 47.1355C86.3255 47.8565 87.398 48.0307 88.8496 48.3132C88.86 47.0596 88.9904 39.0287 88.7412 38.6228Z"/>
</mask>
<path d="M90.8086 31.0075C92.576 30.9861 92.9241 32.3071 92.9043 33.7663C95.1336 33.7353 103.473 34.6159 101.247 38.5661C100.729 39.4856 99.8136 39.7732 98.8623 40.03C96.1659 39.1814 96.1888 38.525 92.7569 38.113C92.6018 41.3032 92.7041 45.2698 92.7051 48.4919C95.0873 48.6607 96.8694 48.8163 99.083 49.9001C103.181 51.9067 103.525 56.8684 101.627 60.5817C99.8348 64.0849 96.4957 66.075 92.8135 67.2292C92.9425 69.1878 93.1634 72.2102 90.4219 72.4196C89.8794 72.4613 89.5117 72.1533 89.128 71.8161C88.5907 70.8826 88.7544 68.9674 88.7715 67.8444C85.6324 67.9943 82.5213 67.4013 79.7442 65.9099C78.7531 65.299 77.8864 64.8066 77.9073 63.5339C77.7146 62.2882 79.9225 60.4364 81.0049 61.0417C84.0228 62.7318 85.3585 63.2979 88.8594 63.6091C88.9127 60.0935 88.8904 56.5068 88.8838 52.988C85.4167 52.8 80.4299 51.7948 79.3858 47.9421C77.5201 41.0576 82.8676 36.2638 88.7588 34.3757C88.7293 32.5136 89.0965 31.8494 90.8086 31.0075ZM92.7051 53.1296C92.6333 56.3855 92.685 59.7671 92.6944 63.0329C94.2565 62.5146 94.949 62.1729 96.2207 61.1208C97.4008 59.9303 98.0111 58.837 98.0371 57.1022C98.0848 53.9596 95.0831 53.5547 92.7051 53.1296ZM88.7412 38.6228C86.8412 39.377 84.9437 40.3556 84.1065 42.3249C83.4327 43.91 83.4776 46.1038 85.0323 47.1355C86.3255 47.8565 87.398 48.0307 88.8496 48.3132C88.86 47.0596 88.9904 39.0287 88.7412 38.6228Z" fill="var(--fill-0, #FFFCF2)"/>
<path d="M90.8086 31.0075L90.7722 28.0077L90.0937 28.016L89.4848 28.3154L90.8086 31.0075ZM92.9043 33.7663L89.9046 33.7257L89.8628 36.8089L92.946 36.766L92.9043 33.7663ZM101.247 38.5661L103.861 40.0392L103.861 40.0388L101.247 38.5661ZM98.8623 40.03L97.9617 42.8916L98.7978 43.1547L99.6441 42.9263L98.8623 40.03ZM92.7569 38.113L93.1145 35.1344L89.9168 34.7505L89.7604 37.9673L92.7569 38.113ZM92.7051 48.4919L89.7051 48.4929L89.706 51.2869L92.4931 51.4844L92.7051 48.4919ZM99.083 49.9001L97.7638 52.5945L97.7638 52.5945L99.083 49.9001ZM101.627 60.5817L104.298 61.9481L104.298 61.9472L101.627 60.5817ZM92.8135 67.2292L91.9162 64.3665L89.6649 65.0722L89.82 67.4264L92.8135 67.2292ZM90.4219 72.4196L90.1934 69.4283L90.1924 69.4284L90.4219 72.4196ZM89.128 71.8161L86.5278 73.3125L86.7752 73.7425L87.148 74.0699L89.128 71.8161ZM88.7715 67.8444L91.7712 67.89L91.8197 64.6955L88.6284 64.8478L88.7715 67.8444ZM79.7442 65.9099L78.17 68.4637L78.2461 68.5106L78.3248 68.5529L79.7442 65.9099ZM77.9073 63.5339L80.9068 63.583L80.911 63.3277L80.872 63.0754L77.9073 63.5339ZM81.0049 61.0417L82.4708 58.4242L82.4691 58.4233L81.0049 61.0417ZM88.8594 63.6091L88.5938 66.5973L91.8101 66.8832L91.8591 63.6546L88.8594 63.6091ZM88.8838 52.988L91.8838 52.9824L91.8785 50.1459L89.0462 49.9924L88.8838 52.988ZM79.3858 47.9421L76.4902 48.7268L76.4902 48.7268L79.3858 47.9421ZM88.7588 34.3757L89.6744 37.2325L91.7937 36.5533L91.7584 34.3281L88.7588 34.3757ZM92.7051 53.1296L93.233 50.1764L89.7831 49.5597L89.7058 53.0634L92.7051 53.1296ZM92.6944 63.0329L89.6944 63.0415L89.7063 67.1851L93.6391 65.8803L92.6944 63.0329ZM96.2207 61.1208L98.1331 63.4323L98.2471 63.3379L98.3514 63.2327L96.2207 61.1208ZM98.0371 57.1022L95.0375 57.0567L95.0375 57.0572L98.0371 57.1022ZM88.7412 38.6228L91.2981 37.0535L89.9787 34.9038L87.6344 35.8344L88.7412 38.6228ZM84.1065 42.3249L81.3456 41.1512L81.3455 41.1514L84.1065 42.3249ZM85.0323 47.1355L83.3734 49.6351L83.47 49.6992L83.5713 49.7557L85.0323 47.1355ZM88.8496 48.3132L88.2765 51.2579L91.8196 51.9475L91.8495 48.3381L88.8496 48.3132ZM90.8086 31.0075L90.845 34.0073C90.9146 34.0065 90.7634 34.0206 90.5186 33.8953C90.2532 33.7596 90.0615 33.5543 89.953 33.3732C89.8625 33.2221 89.8632 33.1454 89.8786 33.2332C89.8933 33.3174 89.908 33.474 89.9046 33.7257L92.9043 33.7663L95.904 33.807C95.9156 32.9535 95.8534 31.5474 95.1003 30.2901C94.1618 28.7234 92.5483 27.9862 90.7722 28.0077L90.8086 31.0075ZM92.9043 33.7663L92.946 36.766C93.8311 36.7537 96.111 36.945 97.7794 37.5131C98.6742 37.8179 98.8901 38.0659 98.8419 38.0049C98.7656 37.9083 98.6376 37.6811 98.6226 37.3688C98.6086 37.0789 98.7045 36.9672 98.6334 37.0934L101.247 38.5661L103.861 40.0388C104.346 39.1775 104.668 38.1741 104.616 37.0801C104.562 35.9637 104.13 35.0199 103.55 34.2857C102.495 32.9495 100.904 32.2387 99.7134 31.8334C97.2112 30.9814 94.2069 30.7479 92.8626 30.7666L92.9043 33.7663ZM101.247 38.5661L98.6337 37.093C98.6609 37.0447 98.7032 36.9898 98.7542 36.9428C98.8014 36.8992 98.8297 36.8866 98.8106 36.8967C98.7872 36.9091 98.7252 36.9385 98.5973 36.982C98.4657 37.0268 98.3076 37.0724 98.0806 37.1336L98.8623 40.03L99.6441 42.9263C100.504 42.6942 102.657 42.1746 103.861 40.0392L101.247 38.5661ZM98.8623 40.03L99.7629 37.1683C98.5927 36.8001 98.2681 36.5737 97.2543 36.1449C96.1953 35.6968 95.0633 35.3683 93.1145 35.1344L92.7569 38.113L92.3993 41.0916C93.8824 41.2697 94.455 41.4754 94.9165 41.6707C95.4235 41.8852 96.4355 42.4113 97.9617 42.8916L98.8623 40.03ZM92.7569 38.113L89.7604 37.9673C89.6006 41.2544 89.7041 45.3949 89.7051 48.4929L92.7051 48.4919L95.7051 48.4909C95.704 45.1446 95.603 41.352 95.7533 38.2586L92.7569 38.113ZM92.7051 48.4919L92.4931 51.4844C94.8464 51.6512 96.1151 51.7872 97.7638 52.5945L99.083 49.9001L100.402 47.2057C97.6238 45.8453 95.3282 45.6702 92.9172 45.4994L92.7051 48.4919ZM99.083 49.9001L97.7638 52.5945C98.8585 53.1305 99.4436 54.0081 99.6535 55.1455C99.8789 56.3664 99.6455 57.8668 98.9557 59.2163L101.627 60.5817L104.298 61.9472C105.507 59.5833 106.05 56.7462 105.554 54.0563C105.042 51.2829 103.406 48.6763 100.402 47.2057L99.083 49.9001ZM101.627 60.5817L98.9562 59.2154C97.678 61.7139 95.2072 63.335 91.9162 64.3665L92.8135 67.2292L93.7108 70.0919C97.7842 68.8151 101.992 66.4559 104.298 61.9481L101.627 60.5817ZM92.8135 67.2292L89.82 67.4264C89.8537 67.9378 89.8829 68.3825 89.8799 68.8158C89.8767 69.2535 89.8392 69.542 89.7938 69.7138C89.7499 69.8795 89.7422 69.7739 89.908 69.6169C90.1135 69.4224 90.2925 69.4208 90.1934 69.4283L90.4219 72.4196L90.6504 75.4109C91.922 75.3138 93.1015 74.8558 94.0326 73.9745C94.924 73.1307 95.367 72.1078 95.5946 71.247C96.016 69.6524 95.8627 67.8768 95.807 67.032L92.8135 67.2292ZM90.4219 72.4196L90.1924 69.4284C90.3729 69.4146 90.564 69.4293 90.7513 69.4747C90.9337 69.5189 91.0717 69.5822 91.1582 69.6297C91.2394 69.6742 91.278 69.7064 91.2615 69.6935C91.2405 69.6771 91.2038 69.6465 91.1079 69.5623L89.128 71.8161L87.148 74.0699C87.4318 74.3193 88.6953 75.5609 90.6514 75.4108L90.4219 72.4196ZM89.128 71.8161L91.7281 70.3198C91.8304 70.4974 91.8221 70.5724 91.7945 70.421C91.7707 70.2908 91.7496 70.0888 91.7403 69.8031C91.719 69.1523 91.7596 68.6491 91.7712 67.89L88.7715 67.8444L85.7719 67.7988C85.7663 68.1628 85.7166 69.1786 85.7435 69.9995C85.7681 70.7507 85.8534 72.1406 86.5278 73.3125L89.128 71.8161ZM88.7715 67.8444L88.6284 64.8478C85.9588 64.9753 83.4004 64.4681 81.1635 63.2669L79.7442 65.9099L78.3248 68.5529C81.6422 70.3344 85.306 71.0133 88.9146 70.841L88.7715 67.8444ZM79.7442 65.9099L81.3183 63.356C81.1809 63.2713 81.0796 63.2095 80.9752 63.1439C80.8757 63.0815 80.8005 63.0324 80.7395 62.9904C80.6112 62.9018 80.5981 62.8792 80.6293 62.9124C80.6733 62.959 80.7632 63.0709 80.8318 63.2426C80.9011 63.4159 80.9074 63.5468 80.9068 63.583L77.9073 63.5339L74.9077 63.4848C74.8837 64.9479 75.4205 66.1337 76.2632 67.0278C76.9354 67.741 77.8074 68.2402 78.17 68.4637L79.7442 65.9099ZM77.9073 63.5339L80.872 63.0754C80.9227 63.4035 80.8808 63.6586 80.8433 63.8024C80.806 63.9454 80.7617 64.0239 80.7528 64.0391C80.7412 64.0591 80.7792 63.9962 80.8785 63.9149C80.9837 63.8287 81.0128 63.8397 80.9073 63.8716C80.8378 63.8927 80.2504 64.057 79.5407 63.6601L81.0049 61.0417L82.4691 58.4233C81.2182 57.7238 79.9489 57.8926 79.167 58.1295C78.3492 58.3774 77.6354 58.8156 77.0774 59.2725C76.5135 59.7342 75.968 60.33 75.5627 61.0286C75.1839 61.6817 74.749 62.7413 74.9425 63.9923L77.9073 63.5339ZM81.0049 61.0417L79.539 63.6592C81.0588 64.5103 82.3534 65.1946 83.7829 65.682C85.2454 66.1806 86.7162 66.4304 88.5938 66.5973L88.8594 63.6091L89.125 60.6209C87.5016 60.4766 86.5542 60.2877 85.7191 60.003C84.8511 59.707 83.9689 59.2632 82.4708 58.4242L81.0049 61.0417ZM88.8594 63.6091L91.8591 63.6546C91.9128 60.1059 91.8903 56.4823 91.8838 52.9824L88.8838 52.988L85.8838 52.9936C85.8904 56.5313 85.9125 60.0811 85.8597 63.5636L88.8594 63.6091ZM88.8838 52.988L89.0462 49.9924C87.4695 49.9069 85.7424 49.6392 84.3826 49.0711C83.0325 48.5072 82.4677 47.8452 82.2813 47.1574L79.3858 47.9421L76.4902 48.7268C77.3479 51.8916 79.7986 53.6587 82.0698 54.6075C84.3311 55.5522 86.8311 55.8811 88.7214 55.9836L88.8838 52.988ZM79.3858 47.9421L82.2813 47.1574C81.6213 44.722 82.2082 42.7782 83.504 41.1619C84.8811 39.4443 87.1261 38.0493 89.6744 37.2325L88.7588 34.3757L87.8432 31.5188C84.5003 32.5902 81.1259 34.5362 78.8229 37.4087C76.4386 40.3824 75.2845 44.2778 76.4902 48.7268L79.3858 47.9421ZM88.7588 34.3757L91.7584 34.3281C91.7523 33.9444 91.7707 33.7604 91.7839 33.6824C91.7928 33.6296 91.7841 33.7174 91.7037 33.8514C91.6226 33.9868 91.5467 34.0388 91.5824 34.0116C91.6388 33.9686 91.7898 33.8681 92.1324 33.6996L90.8086 31.0075L89.4848 28.3154C88.507 28.7962 87.3226 29.4901 86.5575 30.7666C85.7992 32.0316 85.7428 33.3907 85.7592 34.4233L88.7588 34.3757ZM92.7051 53.1296L89.7058 53.0634C89.6329 56.3692 89.6852 59.8273 89.6944 63.0415L92.6944 63.0329L95.6943 63.0243C95.6848 59.7069 95.6337 56.4018 95.7044 53.1957L92.7051 53.1296ZM92.6944 63.0329L93.6391 65.8803C94.4667 65.6057 95.2238 65.3271 95.98 64.9231C96.7504 64.5116 97.4134 64.0277 98.1331 63.4323L96.2207 61.1208L94.3084 58.8093C93.7563 59.2661 93.4372 59.479 93.1529 59.631C92.8543 59.7904 92.4842 59.9418 91.7497 60.1855L92.6944 63.0329ZM96.2207 61.1208L98.3514 63.2327C99.0759 62.5018 99.7712 61.6567 100.272 60.6022C100.785 59.5208 101.018 58.3802 101.037 57.1473L98.0371 57.1022L95.0375 57.0572C95.0299 57.5591 94.9449 57.8325 94.8516 58.0291C94.7455 58.2525 94.5456 58.5493 94.0901 59.0089L96.2207 61.1208ZM98.0371 57.1022L101.037 57.1478C101.056 55.8611 100.759 54.6488 100.084 53.5966C99.4218 52.5631 98.5268 51.8879 97.6758 51.4409C96.1254 50.6265 94.2245 50.3536 93.233 50.1764L92.7051 53.1296L92.1772 56.0828C92.8263 56.1988 93.3439 56.2845 93.8515 56.4057C94.3508 56.5249 94.6774 56.6433 94.8857 56.7527C95.0764 56.8529 95.0716 56.8948 95.0328 56.8344C94.9821 56.7552 95.0418 56.772 95.0375 57.0567L98.0371 57.1022ZM88.7412 38.6228L87.6344 35.8344C85.7086 36.5988 82.7059 37.9515 81.3456 41.1512L84.1065 42.3249L86.8673 43.4986C87.1815 42.7597 87.9739 42.1551 89.8481 41.4111L88.7412 38.6228ZM84.1065 42.3249L81.3455 41.1514C80.8226 42.3816 80.5575 43.8732 80.7621 45.3495C80.9719 46.8634 81.7175 48.5362 83.3734 49.6351L85.0323 47.1355L86.6911 44.6358C86.7184 44.6539 86.7418 44.6831 86.7485 44.695C86.7495 44.6967 86.7223 44.6483 86.7053 44.5259C86.6673 44.2511 86.7166 43.8533 86.8674 43.4984L84.1065 42.3249ZM85.0323 47.1355L83.5713 49.7557C85.3545 50.7499 86.9152 50.993 88.2765 51.2579L88.8496 48.3132L89.4227 45.3684C87.8808 45.0683 87.2965 44.9631 86.4932 44.5152L85.0323 47.1355ZM88.8496 48.3132L91.8495 48.3381C91.8545 47.7454 91.89 45.3805 91.8928 43.1538C91.8941 42.0388 91.8875 40.9234 91.8636 40.05C91.8518 39.6187 91.8349 39.208 91.8088 38.872C91.7962 38.7091 91.7777 38.5138 91.7476 38.3214C91.7328 38.2268 91.7082 38.0862 91.6669 37.9274C91.6414 37.8294 91.5456 37.4568 91.2981 37.0535L88.7412 38.6228L86.1844 40.192C85.9525 39.8141 85.8715 39.4817 85.8601 39.438C85.8329 39.3335 85.8217 39.2612 85.8196 39.248C85.815 39.2185 85.8192 39.2385 85.8269 39.3365C85.8413 39.5224 85.855 39.8155 85.8659 40.2137C85.8873 40.9995 85.8941 42.0462 85.8928 43.1464C85.89 45.3501 85.8552 47.6274 85.8497 48.2883L88.8496 48.3132Z" fill="var(--stroke-0, #C8E6D0)" mask="url(#path-4-inside-1_0_1027)"/>
</g>
<path id="Vector_4" d="M162.626 69.978C170.647 70.2018 173.947 82.5899 165.296 83.2175C156.296 82.8157 154.594 70.6888 162.626 69.978Z" fill="var(--fill-0, #FFFCF2)" stroke="var(--stroke-0, #C8E6D0)" stroke-width="2"/>
<path id="Vector_5" d="M14.5795 78.4823C23.0702 77.8995 26.6007 89.5997 18.8635 91.5656C10.9343 92.5138 6.18912 80.4046 14.5795 78.4823Z" fill="var(--fill-0, #FFFCF2)" stroke="var(--stroke-0, #C8E6D0)" stroke-width="2"/>
<path id="Vector_6" d="M14.7827 20.4115C16.3201 20.2966 17.8627 20.7409 19.1854 21.5116C21.0647 22.5833 22.428 24.3725 22.9627 26.4689C23.8144 29.8806 22.0747 32.7887 18.6341 33.6052C17.1063 33.7427 15.5753 33.3775 14.2742 32.5651C12.3147 31.346 10.9141 29.4042 10.3755 27.1601C9.55645 23.6238 11.2697 21.1292 14.7827 20.4115Z" fill="var(--fill-0, #FFFCF2)" stroke="var(--stroke-0, #C8E6D0)" stroke-width="2"/>
<path id="Vector_7" d="M162.397 11.9991C169.703 11.3926 174.446 24.0106 165.614 25.1652C156.538 25.0814 154.393 13.0437 162.397 11.9991Z" fill="var(--fill-0, #FFFCF2)" stroke="var(--stroke-0, #C8E6D0)" stroke-width="2"/>
</g>
<defs>
<linearGradient id="paint0_linear_0_1027" x1="1.04431" y1="47.693" x2="109.926" y2="36.9648" gradientUnits="userSpaceOnUse">
<stop offset="0.228262" stop-color="#FFFDF3"/>
<stop offset="0.552885" stop-color="#FFEEED"/>
<stop offset="1" stop-color="#FFFDF3"/>
</linearGradient>
</defs>
</svg>
