<svg preserveAspectRatio="none" width="100%" height="100%" overflow="visible" style="display: block;" viewBox="0 0 262.353 150.149" fill="none" xmlns="http://www.w3.org/2000/svg">
<g id="Bill">
<path id="Vector" d="M201.219 1.12285C215.184 0.505583 233.031 2.24771 246.442 5.58983C251.466 6.83442 256.293 8.7607 261.318 9.99645C261.124 14.4781 261.291 20.186 261.292 24.7591L261.294 52.9475L261.289 140.105C259.248 139.417 257.175 138.704 255.129 138.065C196.868 119.917 137.553 142.486 79.2689 147.985C73.3284 148.546 67.4703 148.827 61.4727 149.066C46.0192 149.521 30.0412 148.123 15.0324 144.377C10.1292 143.153 5.86994 141.736 1.12216 140.152C0.871705 136.487 1.08302 130.263 1.08333 126.361L1.085 98.9823L1.05557 10.0545C2.04799 10.4782 4.23279 11.1365 5.30941 11.4848C9.76532 12.9228 14.2851 14.1538 18.8546 15.1744C66.7621 26.0056 116.378 11.433 163.732 4.52838C176.146 2.62287 188.666 1.48557 201.219 1.12285Z" fill="var(--fill-0, #FFFCEB)" stroke="var(--stroke-0, #C8E6D0)" stroke-width="2"/>
<path id="Vector_2" d="M200.143 16.7449C204.976 16.4562 211.626 16.6755 216.415 16.8489C212.372 31.9398 221.706 45.1144 236.245 49.1937C239.484 50.1023 242.381 50.2283 245.707 50.2287C245.446 59.7819 245.84 69.5654 245.673 79.1444C245.61 82.805 245.512 87.0708 245.725 90.7071C241.174 88.2586 235.911 87.1133 230.799 88.204C225.969 89.2431 221.75 92.1619 219.076 96.3139C214.974 102.717 214.81 108.467 216.36 115.688C215.309 115.588 214.214 115.624 213.155 115.592C168.113 114.228 124.573 127.988 80.0524 132.32C74.2469 132.884 68.4917 133.144 62.6755 133.449C57.0583 133.593 51.4379 133.555 45.8232 133.335C46.5439 131.064 46.8896 128.493 46.8957 126.116C46.8789 119.661 44.2936 113.479 39.7106 108.934C33.0521 102.251 25.8418 99.9547 16.6411 99.9563C16.8923 95.3248 16.6986 89.0292 16.6998 84.2461C16.7402 76.0282 16.7208 67.8098 16.6414 59.592C19.4787 60.683 21.617 61.7395 24.7096 62.1768C32.3367 63.2553 39.4501 60.0052 43.5405 53.4114C47.2486 47.4342 47.55 41.2834 45.9458 34.525C86.859 36.037 121.518 26.4581 161.241 20.5113C174.125 18.504 187.115 17.2465 200.143 16.7449Z" fill="url(#paint0_linear_0_923)" stroke="var(--stroke-0, #C8E6D0)" stroke-width="2"/>
<path id="Vector_3" d="M134.533 38.8899C134.633 38.8749 134.733 38.8597 134.835 38.8447C151.167 37.3713 165.275 48.8711 166.73 65.4512C167.59 76.2047 164.183 86.8644 157.246 95.126C149.755 104.023 139.465 110.261 127.732 111.279C120.519 112.129 112.282 109.903 106.613 105.334C100.365 100.325 96.4114 92.9992 95.6547 85.0258C93.2698 62.1308 112.076 41.2334 134.533 38.8899Z" fill="var(--fill-0, #FFFCF2)" stroke="var(--stroke-0, #C8E6D0)" stroke-width="2"/>
<path id="Subtract" d="M131.912 44.739C134.488 44.7078 134.994 46.6325 134.965 48.7595C138.215 48.7143 150.37 49.9984 147.126 55.7565C146.37 57.0965 145.036 57.5151 143.65 57.8893C139.72 56.6524 139.753 55.696 134.75 55.0954C134.524 59.7455 134.674 65.5267 134.675 70.2233C138.148 70.4694 140.746 70.6971 143.972 72.277C149.946 75.2021 150.446 82.4338 147.679 87.8464C145.067 92.9526 140.201 95.8535 134.834 97.5358C135.022 100.391 135.343 104.796 131.346 105.101C130.556 105.162 130.02 104.713 129.461 104.221C128.677 102.861 128.916 100.069 128.941 98.4323C124.365 98.6507 119.832 97.7858 115.784 95.612C114.339 94.7216 113.076 94.0042 113.106 92.1491C112.825 90.3333 116.043 87.6348 117.621 88.5173C122.02 90.9808 123.967 91.8049 129.07 92.2585C129.148 87.1341 129.115 81.9061 129.105 76.777C124.051 76.5031 116.782 75.0382 115.26 69.4225C112.541 59.3877 120.336 52.4003 128.923 49.6481C128.88 46.9338 129.416 45.9662 131.912 44.739ZM134.689 76.9821C134.584 81.728 134.66 86.6574 134.673 91.4177C136.95 90.6623 137.96 90.1639 139.813 88.6306C141.533 86.8952 142.424 85.3018 142.462 82.7731C142.532 78.192 138.155 77.6018 134.689 76.9821ZM128.906 55.8386C126.136 56.9379 123.369 58.3643 122.149 61.235C121.167 63.5454 121.233 66.743 123.499 68.2468C125.384 69.2979 126.947 69.5517 129.063 69.9636C129.078 68.1367 129.269 56.4341 128.906 55.8386Z" fill="var(--fill-0, #C8E6D0)"/>
<path id="Vector_4" d="M236.586 101.543C248.278 101.869 253.088 119.926 240.477 120.841C227.36 120.256 224.878 102.579 236.586 101.543Z" fill="var(--fill-0, #FFFCF2)" stroke="var(--stroke-0, #C8E6D0)" stroke-width="2"/>
<path id="Vector_5" d="M20.8006 113.941C33.1766 113.092 38.3228 130.146 27.045 133.011C15.4874 134.393 8.57077 116.743 20.8006 113.941Z" fill="var(--fill-0, #FFFCF2)" stroke="var(--stroke-0, #C8E6D0)" stroke-width="2"/>
<path id="Vector_6" d="M21.0865 29.2991C23.3275 29.1317 25.576 29.7793 27.504 30.9026C30.2432 32.4648 32.2303 35.0727 33.0098 38.1284C34.2512 43.1013 31.7153 47.3402 26.7004 48.5302C24.4734 48.7308 22.2419 48.1985 20.3453 47.0143C17.4891 45.2373 15.4477 42.407 14.6626 39.1359C13.4687 33.9814 15.966 30.3453 21.0865 29.2991Z" fill="var(--fill-0, #FFFCF2)" stroke="var(--stroke-0, #C8E6D0)" stroke-width="2"/>
<path id="Vector_7" d="M236.254 17.0312C246.903 16.1472 253.816 34.5393 240.943 36.2223C227.713 36.1 224.587 18.5538 236.254 17.0312Z" fill="var(--fill-0, #FFFCF2)" stroke="var(--stroke-0, #C8E6D0)" stroke-width="2"/>
</g>
<defs>
<linearGradient id="paint0_linear_0_923" x1="1.06788" y1="69.0616" x2="159.774" y2="53.4242" gradientUnits="userSpaceOnUse">
<stop offset="0.228262" stop-color="#FFFDF3"/>
<stop offset="0.552885" stop-color="#FFEEED"/>
<stop offset="1" stop-color="#FFFDF3"/>
</linearGradient>
</defs>
</svg>
