<svg preserveAspectRatio="none" width="100%" height="100%" overflow="visible" style="display: block;" viewBox="0 0 184.741 105.98" fill="none" xmlns="http://www.w3.org/2000/svg">
<g id="Bill">
<path id="Vector" d="M141.525 1.08622C151.327 0.652983 163.852 1.87571 173.266 4.22141C176.792 5.09493 180.179 6.44691 183.706 7.31422C183.57 10.4597 183.687 14.4659 183.688 17.6755L183.689 37.4598L183.686 98.6322C182.253 98.1488 180.799 97.6484 179.362 97.2002C138.472 84.4629 96.8408 100.303 55.9336 104.162C51.7642 104.556 47.6527 104.753 43.4432 104.922C32.597 105.241 21.3827 104.259 10.8487 101.63C7.40736 100.771 4.41793 99.7768 1.08566 98.6652C0.909875 96.0929 1.05819 91.7243 1.0584 88.9858L1.05957 69.7697L1.03892 7.355C1.73546 7.65238 3.26888 8.11436 4.02451 8.35882C7.15193 9.36807 10.3242 10.2321 13.5313 10.9484C47.1555 18.5504 81.9787 8.32251 115.215 3.47642C123.927 2.13902 132.715 1.3408 141.525 1.08622Z" fill="var(--fill-0, #FFFCEB)" stroke="var(--stroke-0, #C8E6D0)" stroke-width="2"/>
<path id="Vector_2" d="M140.767 12.0509C144.16 11.8483 148.826 12.0023 152.188 12.124C149.35 22.7157 155.901 31.9624 166.106 34.8254C168.379 35.4632 170.413 35.5515 172.746 35.5519C172.563 42.2569 172.84 49.1235 172.723 55.8466C172.678 58.4158 172.61 61.4098 172.759 63.9619C169.565 62.2434 165.871 61.4396 162.283 62.2051C158.893 62.9344 155.932 64.983 154.055 67.8971C151.176 72.3913 151.061 76.4266 152.149 81.4947C151.411 81.4245 150.643 81.45 149.9 81.4276C118.287 80.4705 87.7276 90.1275 56.4806 93.1684C52.406 93.5644 48.3667 93.7465 44.2845 93.9605C40.342 94.0617 36.3973 94.035 32.4566 93.8807C32.9624 92.2868 33.2051 90.4821 33.2093 88.8136C33.1975 84.2832 31.383 79.9445 28.1664 76.7546C23.4931 72.0645 18.4325 70.4525 11.9749 70.4535C12.1512 67.2029 12.0153 62.7843 12.0161 59.4272C12.0444 53.6594 12.0308 47.8913 11.9751 42.1236C13.9665 42.8893 15.4673 43.6308 17.6379 43.9377C22.991 44.6947 27.9836 42.4136 30.8545 37.7857C33.457 33.5905 33.6686 29.2735 32.5426 24.5301C61.2579 25.5913 85.5837 18.8683 113.464 14.6944C122.506 13.2856 131.624 12.4031 140.767 12.0509Z" fill="url(#paint0_linear_0_1212)" stroke="var(--stroke-0, #C8E6D0)" stroke-width="2"/>
<path id="Vector_3" d="M94.7237 27.593C94.794 27.5825 94.8643 27.5718 94.9356 27.5613C106.398 26.5271 116.3 34.5984 117.321 46.2353C117.925 53.7827 115.534 61.2643 110.665 67.0628C105.407 73.3074 98.1852 77.6855 89.9506 78.4C84.8878 78.9962 79.1069 77.4343 75.128 74.2273C70.7423 70.7116 67.9676 65.57 67.4366 59.9739C65.7627 43.9048 78.9622 29.2378 94.7237 27.593Z" fill="var(--fill-0, #FFFCF2)" stroke="var(--stroke-0, #C8E6D0)" stroke-width="2"/>
<path id="Subtract" d="M92.8781 31.7004C94.6862 31.6785 95.0418 33.0298 95.0216 34.5227C97.3022 34.4909 105.834 35.3916 103.557 39.4328C103.027 40.3735 102.09 40.6672 101.117 40.9299C98.3589 40.0618 98.3822 39.3905 94.8712 38.969C94.7126 42.2327 94.8174 46.2907 94.8185 49.5871C97.2555 49.7598 99.0785 49.9188 101.343 51.0275C105.536 53.0804 105.887 58.1573 103.945 61.9563C102.112 65.5398 98.6965 67.5753 94.9298 68.7561C95.0618 70.7598 95.287 73.8513 92.4825 74.0656C91.9275 74.1082 91.551 73.7934 91.1583 73.4484C90.6089 72.4934 90.7766 70.5348 90.7941 69.3859C87.5826 69.5393 84.3998 68.9322 81.5587 67.4065C80.5449 66.7815 79.6586 66.2777 79.6798 64.9758C79.4827 63.7013 81.7415 61.8073 82.8488 62.427C85.9359 64.1559 87.3025 64.7336 90.8839 65.052C90.9384 61.4554 90.915 57.7865 90.9083 54.1867C87.3614 53.9944 82.2596 52.9659 81.1915 49.0246C79.2831 41.9817 84.7545 37.0773 90.7814 35.1457C90.7512 33.2409 91.1267 32.5616 92.8781 31.7004ZM94.8214 54.3342C94.748 57.665 94.8011 61.1241 94.8107 64.465C96.4082 63.935 97.1165 63.5859 98.4171 62.51C99.6245 61.2919 100.25 60.1735 100.276 58.3986C100.325 55.1835 97.2542 54.7691 94.8214 54.3342ZM90.7618 39.4934C88.8181 40.2649 86.8762 41.2658 86.0197 43.2805C85.3304 44.9019 85.3767 47.1459 86.9669 48.2014C88.2901 48.9392 89.387 49.1174 90.8722 49.4065C90.8829 48.1229 91.0167 39.9091 90.7618 39.4934Z" fill="var(--fill-0, #C8E6D0)"/>
<path id="Vector_4" d="M166.344 71.569C174.55 71.798 177.926 84.4714 169.075 85.1134C159.869 84.7024 158.127 72.2963 166.344 71.569Z" fill="var(--fill-0, #FFFCF2)" stroke="var(--stroke-0, #C8E6D0)" stroke-width="2"/>
<path id="Vector_5" d="M14.8962 80.2689C23.5824 79.6726 27.1943 91.6423 19.2789 93.6535C11.1671 94.6235 6.31262 82.2354 14.8962 80.2689Z" fill="var(--fill-0, #FFFCF2)" stroke="var(--stroke-0, #C8E6D0)" stroke-width="2"/>
<path id="Vector_6" d="M15.0961 20.8622C16.6689 20.7446 18.247 21.1992 19.6002 21.9876C21.5227 23.0841 22.9174 24.9144 23.4645 27.0591C24.3357 30.5494 22.556 33.5244 19.0362 34.3597C17.4732 34.5005 15.907 34.1268 14.5758 33.2957C12.5712 32.0485 11.1384 30.062 10.5874 27.7662C9.74945 24.1485 11.5022 21.5964 15.0961 20.8622Z" fill="var(--fill-0, #FFFCF2)" stroke="var(--stroke-0, #C8E6D0)" stroke-width="2"/>
<path id="Vector_7" d="M166.111 12.2551C173.585 11.6347 178.437 24.5433 169.402 25.7245C160.116 25.6387 157.922 13.3238 166.111 12.2551Z" fill="var(--fill-0, #FFFCF2)" stroke="var(--stroke-0, #C8E6D0)" stroke-width="2"/>
</g>
<defs>
<linearGradient id="paint0_linear_0_1212" x1="1.04472" y1="48.7699" x2="112.434" y2="37.7946" gradientUnits="userSpaceOnUse">
<stop offset="0.228262" stop-color="#FFFDF3"/>
<stop offset="0.552885" stop-color="#FFEEED"/>
<stop offset="1" stop-color="#FFFDF3"/>
</linearGradient>
</defs>
</svg>
