<svg preserveAspectRatio="none" width="100%" height="100%" overflow="visible" style="display: block;" viewBox="0 0 184.741 105.98" fill="none" xmlns="http://www.w3.org/2000/svg">
<g id="Bill">
<path id="Vector" d="M141.525 1.08622C151.327 0.652983 163.852 1.87571 173.266 4.22141C176.792 5.09493 180.179 6.44691 183.706 7.31422C183.57 10.4597 183.687 14.4659 183.688 17.6755L183.689 37.4598L183.686 98.6322C182.253 98.1488 180.799 97.6484 179.362 97.2002C138.472 84.4629 96.8408 100.303 55.9336 104.162C51.7642 104.556 47.6527 104.753 43.4432 104.922C32.597 105.241 21.3827 104.259 10.8487 101.63C7.40736 100.771 4.41793 99.7768 1.08566 98.6652C0.909875 96.0929 1.05819 91.7243 1.0584 88.9858L1.05957 69.7697L1.03892 7.355C1.73546 7.65238 3.26888 8.11436 4.02451 8.35882C7.15193 9.36807 10.3242 10.2321 13.5313 10.9484C47.1555 18.5504 81.9787 8.32251 115.215 3.47642C123.927 2.13902 132.715 1.3408 141.525 1.08622Z" fill="var(--fill-0, #FFFCEB)" stroke="var(--stroke-0, #C8E6D0)" stroke-width="2"/>
<path id="Vector_2" d="M140.767 12.0509C144.16 11.8483 148.826 12.0023 152.188 12.124C149.35 22.7157 155.901 31.9624 166.106 34.8254C168.379 35.4632 170.413 35.5515 172.746 35.5519C172.563 42.2569 172.84 49.1235 172.723 55.8466C172.678 58.4158 172.61 61.4098 172.759 63.9619C169.565 62.2434 165.871 61.4396 162.283 62.2051C158.893 62.9344 155.932 64.983 154.055 67.8971C151.176 72.3913 151.061 76.4266 152.149 81.4947C151.411 81.4245 150.643 81.45 149.9 81.4276C118.287 80.4705 87.7276 90.1275 56.4806 93.1684C52.406 93.5644 48.3667 93.7465 44.2845 93.9605C40.342 94.0617 36.3973 94.035 32.4566 93.8807C32.9624 92.2868 33.2051 90.4821 33.2093 88.8136C33.1975 84.2832 31.383 79.9445 28.1664 76.7546C23.4931 72.0645 18.4325 70.4525 11.9749 70.4535C12.1512 67.2029 12.0153 62.7843 12.0161 59.4272C12.0444 53.6594 12.0308 47.8913 11.9751 42.1236C13.9665 42.8893 15.4673 43.6308 17.6379 43.9377C22.991 44.6947 27.9836 42.4136 30.8545 37.7857C33.457 33.5905 33.6686 29.2735 32.5426 24.5301C61.2579 25.5913 85.5837 18.8683 113.464 14.6944C122.506 13.2856 131.624 12.4031 140.767 12.0509Z" fill="url(#paint0_linear_0_1059)" stroke="var(--stroke-0, #C8E6D0)" stroke-width="2"/>
<path id="Vector_3" d="M94.7237 27.593C94.794 27.5825 94.8643 27.5718 94.9356 27.5613C106.398 26.5271 116.3 34.5984 117.321 46.2353C117.925 53.7827 115.534 61.2643 110.665 67.0628C105.407 73.3074 98.1852 77.6855 89.9506 78.4C84.8878 78.9962 79.1069 77.4343 75.128 74.2273C70.7423 70.7116 67.9676 65.57 67.4366 59.9739C65.7627 43.9048 78.9622 29.2378 94.7237 27.593Z" fill="var(--fill-0, #FFFCF2)" stroke="var(--stroke-0, #C8E6D0)" stroke-width="2"/>
<path id="Subtract" d="M92.8786 31.7001C94.6866 31.6783 95.0424 33.0296 95.0222 34.5224C97.3031 34.4907 105.834 35.3923 103.556 39.4335C103.026 40.3736 102.091 40.667 101.118 40.9296C98.3592 40.0615 98.3823 39.3902 94.8708 38.9687C94.7122 42.2324 94.818 46.2905 94.8191 49.5869C97.256 49.7595 99.079 49.9194 101.343 51.0283C105.536 53.0812 105.887 58.1571 103.945 61.956C102.112 65.5397 98.6963 67.576 94.9294 68.7568C95.0615 70.7606 95.2869 73.8523 92.4822 74.0663C91.9271 74.1089 91.5506 73.7932 91.1579 73.4482C90.6087 72.493 90.7762 70.5343 90.7937 69.3857C87.5824 69.539 84.4003 68.9318 81.5593 67.4062C80.5454 66.7812 79.658 66.2776 79.6794 64.9755C79.4824 63.7011 81.7411 61.8073 82.8484 62.4267C85.9359 64.1558 87.3027 64.7333 90.8845 65.0517C90.939 61.4552 90.9156 57.7863 90.9089 54.1865C87.362 53.9942 82.2602 52.9657 81.1921 49.0244C79.2838 41.9816 84.7542 37.0781 90.781 35.1464C90.7507 33.2413 91.1268 32.5615 92.8786 31.7001ZM94.822 54.3339C94.7485 57.6647 94.8017 61.1239 94.8113 64.4648C96.4085 63.9348 97.1171 63.5856 98.4177 62.5097C99.6249 61.2918 100.25 60.1731 100.277 58.3984C100.326 55.1836 97.2547 54.7688 94.822 54.3339ZM90.7624 39.4931C88.8188 40.2646 86.8768 41.2658 86.0202 43.2802C85.331 44.9017 85.3772 47.1456 86.9675 48.2011C88.2906 48.9388 89.3876 49.1171 90.8728 49.4062C90.8835 48.1221 91.0172 39.9096 90.7624 39.4931Z" fill="var(--fill-0, #C8E6D0)"/>
<path id="Vector_4" d="M166.344 71.569C174.55 71.798 177.926 84.4714 169.075 85.1134C159.869 84.7024 158.127 72.2963 166.344 71.569Z" fill="var(--fill-0, #FFFCF2)" stroke="var(--stroke-0, #C8E6D0)" stroke-width="2"/>
<path id="Vector_5" d="M14.8962 80.2689C23.5824 79.6726 27.1943 91.6423 19.2789 93.6535C11.1671 94.6235 6.31262 82.2354 14.8962 80.2689Z" fill="var(--fill-0, #FFFCF2)" stroke="var(--stroke-0, #C8E6D0)" stroke-width="2"/>
<path id="Vector_6" d="M15.0961 20.8622C16.6689 20.7446 18.247 21.1992 19.6002 21.9876C21.5227 23.0841 22.9174 24.9144 23.4645 27.0591C24.3357 30.5494 22.556 33.5244 19.0362 34.3597C17.4732 34.5005 15.907 34.1268 14.5758 33.2957C12.5712 32.0485 11.1384 30.062 10.5874 27.7662C9.74945 24.1485 11.5022 21.5964 15.0961 20.8622Z" fill="var(--fill-0, #FFFCF2)" stroke="var(--stroke-0, #C8E6D0)" stroke-width="2"/>
<path id="Vector_7" d="M166.111 12.2551C173.585 11.6347 178.437 24.5433 169.402 25.7245C160.116 25.6387 157.922 13.3238 166.111 12.2551Z" fill="var(--fill-0, #FFFCF2)" stroke="var(--stroke-0, #C8E6D0)" stroke-width="2"/>
</g>
<defs>
<linearGradient id="paint0_linear_0_1059" x1="1.04472" y1="48.7699" x2="112.434" y2="37.7946" gradientUnits="userSpaceOnUse">
<stop offset="0.228262" stop-color="#FFFDF3"/>
<stop offset="0.552885" stop-color="#FFEEED"/>
<stop offset="1" stop-color="#FFFDF3"/>
</linearGradient>
</defs>
</svg>
