<svg preserveAspectRatio="none" width="100%" height="100%" overflow="visible" style="display: block;" viewBox="0 0 184.741 105.98" fill="none" xmlns="http://www.w3.org/2000/svg">
<g id="Bill">
<path id="Vector" d="M141.525 1.08622C151.327 0.652983 163.852 1.87571 173.266 4.22141C176.792 5.09493 180.179 6.44691 183.706 7.31422C183.57 10.4597 183.687 14.4659 183.688 17.6755L183.689 37.4598L183.686 98.6322C182.253 98.1488 180.799 97.6484 179.362 97.2002C138.472 84.4629 96.8408 100.303 55.9336 104.162C51.7642 104.556 47.6527 104.753 43.4432 104.922C32.597 105.241 21.3827 104.259 10.8487 101.63C7.40736 100.771 4.41793 99.7768 1.08566 98.6652C0.909875 96.0929 1.05819 91.7243 1.0584 88.9858L1.05957 69.7697L1.03892 7.355C1.73546 7.65238 3.26888 8.11436 4.02451 8.35882C7.15193 9.36807 10.3242 10.2321 13.5313 10.9484C47.1555 18.5504 81.9787 8.32251 115.215 3.47642C123.927 2.13902 132.715 1.3408 141.525 1.08622Z" fill="var(--fill-0, #FFFCEB)" stroke="var(--stroke-0, #C8E6D0)" stroke-width="2"/>
<path id="Vector_2" d="M140.767 12.0509C144.16 11.8483 148.826 12.0023 152.188 12.124C149.35 22.7157 155.901 31.9624 166.106 34.8254C168.379 35.4632 170.413 35.5515 172.746 35.5519C172.563 42.2569 172.84 49.1235 172.723 55.8466C172.678 58.4158 172.61 61.4098 172.759 63.9619C169.565 62.2434 165.871 61.4396 162.283 62.2051C158.893 62.9344 155.932 64.983 154.055 67.8971C151.176 72.3913 151.061 76.4266 152.149 81.4947C151.411 81.4245 150.643 81.45 149.9 81.4276C118.287 80.4705 87.7276 90.1275 56.4806 93.1684C52.406 93.5644 48.3667 93.7465 44.2845 93.9605C40.342 94.0617 36.3973 94.035 32.4566 93.8807C32.9624 92.2868 33.2051 90.4821 33.2093 88.8136C33.1975 84.2832 31.383 79.9445 28.1664 76.7546C23.4931 72.0645 18.4325 70.4525 11.9749 70.4535C12.1512 67.2029 12.0153 62.7843 12.0161 59.4272C12.0444 53.6594 12.0308 47.8913 11.9751 42.1236C13.9665 42.8893 15.4673 43.6308 17.6379 43.9377C22.991 44.6947 27.9836 42.4136 30.8545 37.7857C33.457 33.5905 33.6686 29.2735 32.5426 24.5301C61.2579 25.5913 85.5837 18.8683 113.464 14.6944C122.506 13.2856 131.624 12.4031 140.767 12.0509Z" fill="url(#paint0_linear_0_1142)" stroke="var(--stroke-0, #C8E6D0)" stroke-width="2"/>
<path id="Vector_3" d="M94.7237 27.593C94.794 27.5825 94.8643 27.5718 94.9356 27.5613C106.398 26.5271 116.3 34.5984 117.321 46.2353C117.925 53.7827 115.534 61.2643 110.665 67.0628C105.407 73.3074 98.1852 77.6855 89.9506 78.4C84.8878 78.9962 79.1069 77.4343 75.128 74.2273C70.7423 70.7116 67.9676 65.57 67.4366 59.9739C65.7627 43.9048 78.9622 29.2378 94.7237 27.593Z" fill="var(--fill-0, #FFFCF2)" stroke="var(--stroke-0, #C8E6D0)" stroke-width="2"/>
<path id="Subtract" d="M92.8783 31.6999C94.6863 31.6779 95.042 33.0294 95.0218 34.5221C97.3024 34.4904 105.834 35.3919 103.557 39.4333C103.027 40.3739 102.091 40.6677 101.118 40.9303C98.3588 40.0622 98.3819 39.3909 94.8704 38.9694C94.7118 42.233 94.8176 46.2904 94.8187 49.5866C97.2558 49.7593 99.0785 49.9192 101.343 51.028C105.536 53.0809 105.888 58.1568 103.946 61.9557C102.112 65.5396 98.696 67.5757 94.929 68.7565C95.0611 70.7603 95.2867 73.8521 92.4818 74.0661C91.927 74.1085 91.551 73.7937 91.1585 73.4489C90.6089 72.4938 90.7758 70.5343 90.7933 69.3854C87.582 69.5387 84.3999 68.9316 81.5589 67.4059C80.5451 66.781 79.6576 66.2773 79.679 64.9753C79.4823 63.7008 81.7418 61.8068 82.849 62.4264C85.9363 64.1554 87.3025 64.7341 90.8841 65.0524C90.9386 61.4558 90.9152 57.7861 90.9085 54.1862C87.3617 53.9939 82.2599 52.9662 81.1917 49.0251C79.2831 41.982 84.7546 37.0778 90.7816 35.1462C90.7513 33.2411 91.1265 32.5612 92.8783 31.6999ZM94.8216 54.3337C94.7482 57.6643 94.8013 61.1237 94.8109 64.4645C96.4083 63.9345 97.1167 63.5854 98.4173 62.5094C99.6245 61.2915 100.25 60.1729 100.277 58.3981C100.325 55.1833 97.2543 54.7685 94.8216 54.3337ZM90.762 39.4928C88.8184 40.2644 86.8765 41.2655 86.0199 43.28C85.3306 44.9014 85.377 47.1453 86.9671 48.2008C88.2904 48.9387 89.3871 49.1169 90.8724 49.4059C90.8831 48.1209 91.0168 39.9086 90.762 39.4928Z" fill="var(--fill-0, #C8E6D0)"/>
<path id="Vector_4" d="M166.344 71.569C174.55 71.798 177.926 84.4714 169.075 85.1134C159.869 84.7024 158.127 72.2963 166.344 71.569Z" fill="var(--fill-0, #FFFCF2)" stroke="var(--stroke-0, #C8E6D0)" stroke-width="2"/>
<path id="Vector_5" d="M14.8962 80.2689C23.5824 79.6726 27.1943 91.6423 19.2789 93.6535C11.1671 94.6235 6.31262 82.2354 14.8962 80.2689Z" fill="var(--fill-0, #FFFCF2)" stroke="var(--stroke-0, #C8E6D0)" stroke-width="2"/>
<path id="Vector_6" d="M15.0961 20.8622C16.6689 20.7446 18.247 21.1992 19.6002 21.9876C21.5227 23.0841 22.9174 24.9144 23.4645 27.0591C24.3357 30.5494 22.556 33.5244 19.0362 34.3597C17.4732 34.5005 15.907 34.1268 14.5758 33.2957C12.5712 32.0485 11.1384 30.062 10.5874 27.7662C9.74945 24.1485 11.5022 21.5964 15.0961 20.8622Z" fill="var(--fill-0, #FFFCF2)" stroke="var(--stroke-0, #C8E6D0)" stroke-width="2"/>
<path id="Vector_7" d="M166.111 12.2551C173.585 11.6347 178.437 24.5433 169.402 25.7245C160.116 25.6387 157.922 13.3238 166.111 12.2551Z" fill="var(--fill-0, #FFFCF2)" stroke="var(--stroke-0, #C8E6D0)" stroke-width="2"/>
</g>
<defs>
<linearGradient id="paint0_linear_0_1142" x1="1.04472" y1="48.7699" x2="112.434" y2="37.7946" gradientUnits="userSpaceOnUse">
<stop offset="0.228262" stop-color="#FFFDF3"/>
<stop offset="0.552885" stop-color="#FFEEED"/>
<stop offset="1" stop-color="#FFFDF3"/>
</linearGradient>
</defs>
</svg>
