<svg preserveAspectRatio="none" width="100%" height="100%" overflow="visible" style="display: block;" viewBox="0 0 174.95 183.183" fill="none" xmlns="http://www.w3.org/2000/svg">
<path id="Union" fill-rule="evenodd" clip-rule="evenodd" d="M150.034 0.75C154.451 0.750016 158.479 1.85302 162.117 4.05833C165.755 6.26405 168.678 9.18274 170.887 12.8154C173.095 16.4482 174.2 20.4701 174.2 24.8812C174.2 29.2923 173.095 33.3145 170.887 36.9473C168.678 40.5795 165.755 43.4987 162.117 45.704C158.618 47.8252 154.759 48.9258 150.54 49.0071C150.501 49.1377 150.462 49.2692 150.423 49.4017C149.644 52.3857 148.929 54.9804 148.28 57.1862C147.11 61.7269 145.681 66.9164 143.992 72.7549C142.433 78.4634 140.485 84.496 138.146 90.8531C135.807 97.0805 133.014 103.373 129.766 109.73C126.647 115.957 123.009 121.926 118.852 127.634C113.005 135.418 106.054 142.813 97.9988 149.819C90.0736 156.695 81.1736 162.923 71.2992 168.501C61.5546 173.95 50.9661 178.556 39.5324 182.319L13.8075 154.101C26.9296 151.116 38.2332 147.354 47.7177 142.813C57.2022 138.273 65.3875 133.148 72.2736 127.439C79.1596 121.601 85.2013 115.503 90.3982 109.146C94.5559 103.957 98.0636 98.5076 100.922 92.7992C103.78 86.9611 106.119 81.1877 107.938 75.4793C109.757 69.6412 111.056 64.1271 111.836 58.9377H26.0851C21.2778 58.9377 16.4707 59.0673 11.6634 59.3266C6.98636 59.4563 3.34842 59.6513 0.75 59.9106V26.6327C2.82864 26.8924 5.42704 27.1516 8.54519 27.4109C11.6634 27.6707 14.8467 27.9301 18.0947 28.1898C21.3431 28.3195 24.0065 28.3842 26.0851 28.3842H112.031C114.239 28.3842 117.033 28.3195 120.411 28.1898C122.338 28.0417 124.202 27.8085 126.002 27.4916C125.913 26.6371 125.868 25.767 125.868 24.8812C125.868 20.4701 126.972 16.4482 129.181 12.8154C131.389 9.18273 134.313 6.26406 137.951 4.05833C141.588 1.85299 145.617 0.75 150.034 0.75ZM150.034 14.5672C147.175 14.5672 144.707 15.6052 142.628 17.6809C140.679 19.6269 139.705 22.0272 139.705 24.8812C139.705 27.7356 140.679 30.2008 142.628 32.2764C144.707 34.2225 147.175 35.1955 150.034 35.1955C152.892 35.1954 155.296 34.2224 157.244 32.2764C159.324 30.2008 160.363 27.7356 160.363 24.8812C160.363 22.0272 159.324 19.627 157.244 17.6809C155.296 15.6053 152.892 14.5673 150.034 14.5672Z" fill="var(--fill-0, #FFFAFA)" stroke="var(--stroke-2, #FEC4C0)" stroke-width="1.5"/>
</svg>
