<svg preserveAspectRatio="none" width="100%" height="100%" overflow="visible" style="display: block;" viewBox="0 0 60.0633 56" fill="none" xmlns="http://www.w3.org/2000/svg">
<g id="morpho">
<path id="Vector" d="M7.0778 38.0548V54.3534C7.0778 55.3567 7.92695 55.7732 8.19112 55.8678C8.45529 55.9814 9.34215 56.2276 10.1347 55.4892L22.4646 43.6403C23.5146 42.6313 24.528 41.5707 25.2896 40.3298C25.6479 39.7464 25.7966 39.4178 25.7966 39.4178C26.5515 37.8844 26.5515 36.4079 25.8153 34.9313C24.7212 32.7355 21.9283 30.5018 17.7202 28.3816L10.5309 32.3948C8.39872 33.6062 7.0778 35.7454 7.0778 38.0548Z" fill="var(--fill-0, #004EC3)"/>
<path id="Vector_2" d="M0 1.79836V18.892C0 21.0312 1.43412 22.9241 3.47207 23.5299C10.4161 25.5364 22.5115 29.8524 25.4364 36.194C25.8135 37.0268 26.04 37.8409 26.116 38.6927C28.0594 35.1528 28.9462 31.0829 28.5312 26.9562C27.9649 21.1068 24.8701 15.7876 20.0397 12.3991L2.81162 0.340692C2.50967 0.113528 2.15115 9.53674e-06 1.79264 9.53674e-06C1.49069 9.53674e-06 1.22652 0.0567687 0.94349 0.208211C0.37737 0.530059 0 1.11687 0 1.79836Z" fill="var(--fill-0, #2470FF)"/>
<path id="Vector_3" d="M52.9478 38.0548V54.3534C52.9478 55.3567 52.099 55.7732 51.8345 55.8678C51.5707 55.9814 50.6832 56.2276 49.891 55.4892L37.274 43.3646C36.4152 42.5392 35.595 41.6662 34.9482 40.6658C34.4358 39.8741 34.2292 39.4178 34.2292 39.4178C33.4743 37.8844 33.4743 36.4079 34.2099 34.9313C35.3046 32.7355 38.0975 30.5018 42.305 28.3816L49.4945 32.3948C51.6459 33.6062 52.9478 35.7454 52.9478 38.0548Z" fill="var(--fill-0, #004EC3)"/>
<path id="Vector_4" d="M60.0632 1.79836V18.892C60.0632 21.0312 58.6287 22.9241 56.5906 23.5299C49.6469 25.5364 37.5516 29.8525 34.6267 36.1939C34.249 37.027 34.0225 37.8409 33.9471 38.6927C32.0037 35.1529 31.1169 31.0829 31.5319 26.9562C32.0976 21.1068 35.1924 15.7876 40.0234 12.3991L57.2516 0.340692C57.5533 0.113528 57.9118 9.53674e-06 58.2703 9.53674e-06C58.5721 9.53674e-06 58.8367 0.0567687 59.1191 0.208211C59.6854 0.530059 60.0632 1.11687 60.0632 1.79836Z" fill="var(--fill-0, #2470FF)"/>
</g>
</svg>
