<svg preserveAspectRatio="none" width="100%" height="100%" overflow="visible" style="display: block;" viewBox="0 0 35.6317 520.729" fill="none" xmlns="http://www.w3.org/2000/svg">
<g id="Group 26222">
<path id="Vector" d="M9.68093 44.0125C8.13674 44.0125 6.90228 43.6258 5.97644 42.8548C5.0506 42.0838 4.43225 40.7497 4.12477 38.8527C3.81616 36.119 3.59572 33.2746 3.46345 30.3193C3.33119 27.3652 3.26562 24.696 3.26562 22.3151C3.26562 19.9342 3.31989 17.2333 3.43067 14.3436C3.54033 11.4562 3.77207 8.59936 4.12477 5.77752C4.3893 4.45479 4.87426 3.42939 5.57966 2.70132C6.28393 1.97325 7.43134 1.46789 9.01962 1.1796C10.6068 0.893578 12.7671 0.75 15.5016 0.75C19.1609 0.75 22.2482 1.26892 24.7623 2.3045C27.2753 3.3412 29.171 4.86291 30.4507 6.8685C31.7292 8.87634 32.3691 11.3782 32.3691 14.3764C32.3691 17.3746 31.7405 19.8562 30.4835 21.9511C29.2264 24.046 27.429 25.6457 25.0924 26.7468C22.7546 27.8491 19.9997 28.4008 16.8242 28.4008H14.9059C14.3768 28.4008 14.023 28.5659 13.8478 28.8971C13.6714 29.2272 13.5832 29.658 13.5832 30.1871C13.5832 31.2023 13.5934 32.1282 13.616 32.9648C13.6375 33.8037 13.6714 34.7296 13.7155 35.7437C13.7585 36.7589 13.7811 38.015 13.7811 39.5141C13.7811 40.3077 13.6703 41.0584 13.4499 41.7627C13.2283 42.4693 12.8213 43.0199 12.2267 43.4167C11.631 43.8135 10.782 44.0125 9.6798 44.0125H9.68093ZM14.5091 20.7934C17.507 20.7934 19.6899 20.2971 21.0578 19.3056C22.4245 18.313 23.1084 16.7811 23.1084 14.7077C23.1084 12.6343 22.4471 11.2019 21.1245 10.4082C19.8019 9.61459 17.6404 9.21777 14.6425 9.21777C14.2016 9.21777 13.8489 9.27316 13.5844 9.38283C13.3199 9.49362 13.1096 9.74686 12.9558 10.1437C12.801 10.5405 12.7015 11.2132 12.6585 12.1617C12.6145 13.1102 12.5918 14.4002 12.5918 16.0315C12.5918 17.4866 12.6348 18.556 12.7241 19.24C12.8123 19.924 12.9886 20.3536 13.2532 20.53C13.5177 20.7063 13.9359 20.7945 14.5102 20.7945L14.5091 20.7934Z" fill="var(--fill-0, #FFFAFA)" stroke="var(--stroke-2, #FEC4C0)" stroke-width="1.5"/>
<path id="Vector_2" d="M17.882 123.25C13.8689 123.25 10.5951 122.447 8.05949 120.836C5.52276 119.227 3.67108 116.923 2.50332 113.923C1.33444 110.925 0.75 107.374 0.75 103.274C0.75 100.187 0.782784 97.2875 0.84948 94.5754C0.915046 91.8632 1.06992 89.4823 1.31296 87.4315C1.55488 85.3807 1.94149 83.8262 2.47054 82.768C2.86733 81.8421 3.39638 81.1468 4.05769 80.6844C4.71901 80.2209 5.57929 79.9902 6.63739 79.9902C8.18045 79.9902 9.3595 80.4097 10.1757 81.2474C10.9907 82.0851 11.3988 83.4531 11.3988 85.349C11.3988 86.9363 11.3762 88.6457 11.3333 90.476C11.2892 92.3064 11.244 94.3685 11.201 96.6612C11.1569 98.9551 11.1354 101.601 11.1354 104.599C11.1354 107.597 11.7312 109.848 12.9216 111.346C14.1119 112.846 15.7872 113.594 17.9487 113.594C20.1101 113.594 21.7074 112.845 22.8763 111.346C24.0441 109.847 24.6296 107.598 24.6296 104.599C24.6296 101.599 24.6183 98.954 24.5969 96.6612C24.5742 94.3685 24.5415 92.3064 24.4974 90.476C24.4533 88.6468 24.4307 86.9374 24.4307 85.349C24.4307 83.4531 24.8275 82.0863 25.621 81.2474C26.4146 80.4097 27.5824 79.9902 29.1266 79.9902C30.0524 79.9902 30.8561 80.2005 31.5412 80.6188C32.224 81.0382 32.7417 81.6668 33.0956 82.5046C33.7128 83.695 34.1311 85.3162 34.3526 87.367C34.5731 89.4178 34.7166 91.7886 34.7822 94.4781C34.8478 97.1688 34.8817 100.101 34.8817 103.276C34.8817 107.378 34.2859 110.928 33.0956 113.926C31.9052 116.925 30.075 119.229 27.6061 120.838C25.1361 122.448 21.8951 123.253 17.8831 123.253L17.882 123.25Z" fill="var(--fill-0, #FFFAFA)" stroke="var(--stroke-2, #FEC4C0)" stroke-width="1.5"/>
<path id="Vector_3" d="M8.43454 202.491C6.97965 202.491 5.76555 202.116 4.79676 201.366C3.82683 200.617 3.2096 199.294 2.94508 197.397C2.59125 194.663 2.36063 191.807 2.25098 188.831C2.14019 185.854 2.08594 183.175 2.08594 180.794C2.08594 178.413 2.12889 175.733 2.21819 172.889C2.30637 170.044 2.57089 167.211 3.01177 164.388C3.18699 163.021 3.66179 161.973 4.43388 161.247C5.20485 160.518 6.39521 160.001 8.00611 159.692C9.61474 159.385 11.8089 159.229 14.5876 159.229C18.5566 159.229 21.7309 159.715 24.1128 160.684C26.4935 161.655 28.214 163.054 29.2721 164.883C30.3302 166.714 30.8593 168.908 30.8593 171.466C30.8593 173.714 30.3732 175.623 29.4044 177.187C28.4333 178.753 27.243 180.021 25.8322 180.99C25.6558 181.167 25.5123 181.344 25.4026 181.519C25.2918 181.696 25.2376 181.895 25.2376 182.115C25.2376 182.469 25.2918 182.766 25.4026 183.008C25.5123 183.251 25.6343 183.483 25.7666 183.703C26.3386 184.496 27.0237 185.479 27.8172 186.646C28.6108 187.815 29.4044 189.051 30.198 190.351C30.9915 191.652 31.6969 192.91 32.3153 194.122C32.9325 195.335 33.3078 196.383 33.4401 197.263C33.7046 198.808 33.4073 200.086 32.547 201.1C31.6868 202.115 30.4636 202.622 28.8765 202.622C27.5086 202.622 26.3635 202.214 25.4365 201.399C24.5095 200.584 23.7601 199.58 23.188 198.389C21.6009 195.523 20.3325 193.208 19.3852 191.443C18.4368 189.68 17.676 188.268 17.1028 187.209C16.5297 186.151 16.0662 185.467 15.7135 185.159C15.3597 184.851 14.8091 184.695 14.0597 184.695C13.3102 184.695 12.8365 184.871 12.6376 185.224C12.4386 185.578 12.3402 186.04 12.3402 186.614C12.3402 187.848 12.3617 188.973 12.4058 189.987C12.4488 191.002 12.494 192.116 12.5381 193.328C12.581 194.541 12.6036 196.096 12.6036 197.991C12.6036 199.182 12.2611 200.23 11.5783 201.133C10.8944 202.038 9.8476 202.489 8.4368 202.489L8.43454 202.491ZM14.4542 177.817C16.3499 177.817 17.8048 177.552 18.82 177.023C19.834 176.494 20.5496 175.789 20.9701 174.907C21.3884 174.025 21.5986 173.078 21.5986 172.062C21.5986 170.122 21.0583 168.777 19.9776 168.028C18.8969 167.278 17.078 166.903 14.5209 166.903C13.7273 166.903 13.1316 166.992 12.7348 167.167C12.338 167.344 12.0735 167.786 11.9412 168.49C11.8089 169.195 11.7434 170.32 11.7434 171.863C11.7434 173.672 11.7976 174.995 11.9084 175.833C12.0181 176.672 12.2724 177.212 12.6692 177.454C13.066 177.697 13.6617 177.818 14.4553 177.818L14.4542 177.817Z" fill="var(--fill-0, #FFFAFA)" stroke="var(--stroke-2, #FEC4C0)" stroke-width="1.5"/>
<path id="Vector_4" d="M17.8536 281.73C15.9567 281.73 14.59 280.981 13.7523 279.48C13.4437 278.819 13.1905 277.717 12.9915 276.172C12.7937 274.629 12.649 272.524 12.562 269.855C12.4726 267.187 12.4297 263.891 12.4297 259.965C12.4297 256.039 12.4738 252.679 12.562 250.142C12.6501 247.606 12.7937 245.6 12.9915 244.121C13.1893 242.645 13.4426 241.574 13.7523 240.913C14.59 239.37 15.9567 238.598 17.8536 238.598C19.7505 238.598 21.0946 239.37 21.8882 240.913C22.2409 241.574 22.5054 242.633 22.6817 244.089C22.8581 245.544 22.9892 247.552 23.0785 250.109C23.1667 252.667 23.2108 255.953 23.2108 259.965C23.2108 263.977 23.1667 267.419 23.0785 270.02C22.9892 272.622 22.857 274.662 22.6817 276.138C22.5054 277.616 22.2194 278.73 21.8215 279.479C21.1149 280.979 19.7923 281.729 17.8525 281.729L17.8536 281.73Z" fill="var(--fill-0, #FFFAFA)" stroke="var(--stroke-2, #FEC4C0)" stroke-width="1.5"/>
<path id="Vector_5" d="M6.47524 361.038C5.41714 361.038 4.52407 360.718 3.79606 360.078C3.06805 359.44 2.57293 358.458 2.3084 357.134C1.86752 355.371 1.56908 353 1.41534 350.023C1.26047 347.047 1.18359 343.464 1.18359 339.274C1.18359 335.394 1.27178 331.998 1.44813 329.087C1.62335 326.176 1.91161 323.839 2.3084 322.075C2.88041 320.488 3.76329 319.363 4.95366 318.702C6.14402 318.04 7.75378 317.709 9.78181 317.709C10.884 317.709 11.9206 317.864 12.8905 318.173C13.8605 318.481 14.7761 319.165 15.6353 320.223C16.4956 321.281 17.3547 322.925 18.215 325.151C19.0752 327.379 19.9898 330.411 20.9597 334.247C21.7974 337.378 22.4485 339.836 22.9109 341.622C23.3743 343.408 23.7383 344.743 24.0029 345.624C24.2674 346.507 24.4878 347.058 24.6642 347.278C24.8405 347.5 25.0169 347.608 25.1932 347.608C25.4137 347.608 25.5572 347.487 25.6228 347.244C25.6884 347.002 25.7223 346.638 25.7223 346.153C25.7223 344.566 25.711 342.978 25.6895 341.39C25.6669 339.803 25.6341 338.149 25.59 336.43C25.5459 334.71 25.5131 332.824 25.4905 330.774C25.4679 328.723 25.4578 326.44 25.4578 323.927C25.4578 321.767 25.8545 320.222 26.6481 319.296C27.4417 318.37 28.4342 317.907 29.6246 317.907C30.4623 317.907 31.2332 318.128 31.9398 318.568C32.644 319.009 33.1731 319.869 33.5269 321.148C33.7914 322.735 34.0119 324.974 34.1882 327.862C34.3646 330.751 34.4527 334.555 34.4527 339.273C34.4527 343.463 34.3635 347.112 34.1882 350.221C34.0119 353.33 33.7021 355.657 33.2624 357.2C32.7763 358.655 31.9725 359.692 30.8477 360.309C29.7229 360.926 28.2127 361.235 26.3169 361.235C25.3458 361.235 24.4652 361.103 23.6705 360.838C22.8769 360.574 22.1162 360.044 21.3881 359.251C20.6601 358.457 19.9332 357.344 19.2052 355.91C18.4772 354.478 17.739 352.602 16.9896 350.287C16.2389 347.971 15.4024 345.117 14.4766 341.721C13.7712 339.075 13.2195 336.99 12.8227 335.47C12.4259 333.948 12.1173 332.824 11.8969 332.096C11.6753 331.368 11.5001 330.906 11.3678 330.707C11.2356 330.508 11.1033 330.41 10.971 330.41C10.7947 330.41 10.6511 330.499 10.5415 330.674C10.4307 330.85 10.3764 331.27 10.3764 331.931C10.3764 333.872 10.3979 336.131 10.442 338.711C10.4861 341.291 10.5189 343.97 10.5415 346.748C10.5629 349.526 10.5743 352.217 10.5743 354.819C10.5743 357.025 10.2102 358.612 9.48223 359.582C8.75422 360.553 7.75151 361.037 6.47298 361.037L6.47524 361.038Z" fill="var(--fill-0, #FFFAFA)" stroke="var(--stroke-2, #FEC4C0)" stroke-width="1.5"/>
<path id="Vector_6" d="M17.8827 440.475C16.8246 440.475 15.8987 440.276 15.104 439.879C14.3104 439.482 13.6819 438.81 13.2184 437.861C12.7549 436.913 12.5243 435.623 12.5243 433.991V430.353C12.5243 428.854 12.5345 427.211 12.5571 425.425C12.5786 423.639 12.6001 421.831 12.6227 420C12.6441 418.171 12.6656 416.439 12.6882 414.808C12.7097 413.176 12.721 411.754 12.721 410.541V407.994C12.721 407.333 12.6215 406.88 12.4237 406.639C12.2248 406.397 11.8381 406.274 11.2661 406.274H7.23153C6.30569 406.274 5.4669 405.988 4.71854 405.414C3.96792 404.842 3.59375 403.739 3.59375 402.106C3.59375 401.18 3.75881 400.398 4.09003 399.758C4.42126 399.119 5.08255 398.612 6.07395 398.236C7.06649 397.862 8.51008 397.598 10.407 397.443C12.3027 397.289 14.7502 397.211 17.7492 397.211C20.7483 397.211 23.3156 397.288 25.191 397.443C27.0653 397.598 28.5089 397.862 29.524 398.236C30.538 398.612 31.2107 399.119 31.5419 399.758C31.8731 400.398 32.0382 401.18 32.0382 402.106C32.0382 403.739 31.6741 404.841 30.9461 405.414C30.2181 405.987 29.3691 406.274 28.3992 406.274H24.3646C23.8356 406.274 23.4388 406.397 23.1743 406.639C22.9098 406.882 22.7775 407.333 22.7775 407.994C22.7775 408.48 22.7877 409.328 22.8103 410.541C22.8318 411.754 22.8431 413.176 22.8431 414.808C22.8431 416.439 22.8645 418.171 22.9086 420C22.9516 421.831 22.9742 423.639 22.9742 425.425C22.9742 427.211 22.9844 428.854 23.007 430.353C23.0285 431.853 23.0398 433.065 23.0398 433.991C23.0398 435.623 22.8182 436.913 22.3784 437.861C21.9376 438.809 21.3418 439.482 20.5923 439.879C19.8417 440.276 18.9385 440.475 17.8804 440.475H17.8827Z" fill="var(--fill-0, #FFFAFA)" stroke="var(--stroke-2, #FEC4C0)" stroke-width="1.5"/>
<path id="Vector_7" d="M5.97603 519.977C4.78566 519.977 3.82592 519.745 3.09904 519.283C2.37103 518.819 1.84197 518.158 1.51188 517.299C1.18179 516.438 1.01562 515.37 1.01562 514.09C1.01562 512.635 1.18066 510.782 1.51188 508.534C1.8431 506.284 2.30546 503.836 2.90121 501.191C3.49696 498.545 4.16845 495.921 4.91907 493.319C5.93309 490.056 6.8917 487.344 7.79606 485.182C8.69929 483.022 9.64773 481.291 10.6403 479.99C11.6328 478.69 12.7124 477.774 13.8813 477.245C15.049 476.716 16.3615 476.451 17.8175 476.451C19.3606 476.451 20.7047 476.738 21.8521 477.312C22.9983 477.885 24.0678 478.823 25.0603 480.123C26.0528 481.424 26.9674 483.156 27.805 485.316C28.6427 487.477 29.5244 490.123 30.4503 493.254C31.2879 495.9 32.0148 498.569 32.6332 501.259C33.2504 503.949 33.7354 506.43 34.0881 508.701C34.4408 510.973 34.6171 512.814 34.6171 514.225C34.6171 515.415 34.4521 516.452 34.1208 517.334C33.7907 518.217 33.2832 518.878 32.5993 519.318C31.9153 519.758 30.9556 519.979 29.7223 519.979C28.7512 519.979 27.9463 519.803 27.3076 519.45C26.6678 519.098 26.1602 518.568 25.786 517.863C25.4107 517.157 25.0919 516.32 24.8263 515.35C24.5618 513.674 24.3074 512.363 24.0655 511.414C23.8224 510.467 23.6246 509.706 23.4697 509.132C23.3149 508.559 23.1272 508.139 22.9079 507.875C22.7316 507.61 22.5213 507.401 22.2794 507.246C22.0363 507.092 21.5853 506.981 20.924 506.915C20.2627 506.849 19.2046 506.815 17.7485 506.815C16.3807 506.815 15.3339 506.848 14.607 506.915C13.879 506.98 13.4053 507.091 13.1849 507.246C12.9633 507.401 12.7655 507.654 12.5892 508.007C12.3676 508.404 12.1698 508.856 11.9934 509.362C11.8171 509.87 11.6396 510.575 11.4644 511.479C11.288 512.383 11.045 513.673 10.7364 515.349C10.5148 516.364 10.2073 517.212 9.8105 517.896C9.41372 518.58 8.92764 519.098 8.35563 519.45C7.78249 519.803 6.98891 519.979 5.9749 519.979L5.97603 519.977ZM17.9486 499.206H19.503C19.9654 499.206 20.3961 499.184 20.7928 499.14C21.3219 499.097 21.6859 498.986 21.8837 498.809C22.0827 498.634 22.181 498.324 22.181 497.883C22.181 497.177 22.0375 496.328 21.7515 495.336C21.4643 494.343 21.1444 493.252 20.7928 492.062C20.2638 490.298 19.8218 488.975 19.4702 488.092C19.1164 487.211 18.8191 486.627 18.5772 486.34C18.3341 486.054 18.0368 485.91 17.6841 485.91C17.4196 485.91 17.1551 486.065 16.8905 486.374C16.626 486.683 16.3389 487.257 16.0302 488.094C15.7216 488.932 15.3022 490.234 14.7732 491.996C14.4646 493.054 14.1661 494.125 13.8801 495.205C13.593 496.285 13.4506 497.179 13.4506 497.884C13.4506 498.325 13.5387 498.635 13.7151 498.81C13.8903 498.986 14.2656 499.097 14.8399 499.141C15.4119 499.185 15.9421 499.207 16.427 499.207H17.9486V499.206Z" fill="var(--fill-0, #FFFAFA)" stroke="var(--stroke-2, #FEC4C0)" stroke-width="1.5"/>
</g>
</svg>
