<svg preserveAspectRatio="none" width="100%" height="100%" overflow="visible" style="display: block;" viewBox="0 0 1919.99 940.293" fill="none" xmlns="http://www.w3.org/2000/svg">
<g id="Bottom squares">
<path id="Union" d="M918.651 886.258C918.651 881.622 921.903 879.742 925.914 882.058L949.258 895.535C953.269 897.851 956.521 903.486 956.521 908.122V935.102C956.52 939.737 953.269 941.617 949.258 939.302L925.914 925.824C921.903 923.508 918.651 917.873 918.651 913.237V886.258ZM994.093 882.058C998.104 879.742 1001.35 881.622 1001.35 886.258V913.237C1001.35 917.873 998.104 923.508 994.093 925.824L970.748 939.302C966.737 941.617 963.486 939.737 963.485 935.102V908.122C963.485 903.487 966.737 897.851 970.748 895.535L994.093 882.058ZM875.076 861.1C875.076 856.464 878.328 854.584 882.339 856.899L905.683 870.377C909.694 872.693 912.945 878.328 912.945 882.964V909.942C912.945 914.578 909.694 916.459 905.683 914.144L882.339 900.666C878.328 898.35 875.076 892.715 875.076 888.079V861.1ZM1037.67 856.899C1041.68 854.584 1044.93 856.464 1044.93 861.1V888.079C1044.93 892.715 1041.68 898.35 1037.67 900.666L1014.32 914.144C1010.31 916.459 1007.06 914.578 1007.06 909.942V882.964C1007.06 878.328 1010.31 872.693 1014.32 870.377L1037.67 856.899ZM831.501 835.941C831.501 831.306 834.752 829.426 838.763 831.741L862.107 845.219C866.118 847.535 869.37 853.17 869.37 857.806V884.784C869.37 889.42 866.118 891.301 862.107 888.985L838.763 875.507C834.752 873.191 831.501 867.556 831.501 862.921V835.941ZM1081.24 831.741C1085.25 829.425 1088.51 831.306 1088.51 835.941V862.921C1088.51 867.556 1085.25 873.191 1081.24 875.507L1057.9 888.985C1053.89 891.301 1050.64 889.42 1050.64 884.784V857.806C1050.64 853.17 1053.89 847.535 1057.9 845.219L1081.24 831.741ZM918.651 835.896C918.651 831.261 921.903 829.381 925.914 831.696L949.258 845.174C953.269 847.49 956.521 853.125 956.521 857.761V884.74C956.52 889.376 953.269 891.256 949.258 888.94L925.914 875.463C921.903 873.147 918.651 867.512 918.651 862.876V835.896ZM994.093 831.696C998.104 829.381 1001.35 831.261 1001.35 835.896V862.876C1001.35 867.512 998.104 873.147 994.093 875.463L970.748 888.94C966.737 891.256 963.486 889.375 963.485 884.74V857.761C963.485 853.125 966.737 847.49 970.748 845.174L994.093 831.696ZM787.925 810.783C787.925 806.148 791.176 804.267 795.188 806.583L818.531 820.061C822.542 822.376 825.794 828.011 825.794 832.646V859.626C825.794 864.262 822.542 866.142 818.531 863.826L795.188 850.349C791.177 848.033 787.925 842.398 787.925 837.763V810.783ZM1124.82 806.583C1128.83 804.267 1132.08 806.148 1132.08 810.783V837.763C1132.08 842.398 1128.83 848.033 1124.82 850.349L1101.47 863.826C1097.46 866.142 1094.21 864.262 1094.21 859.626V832.646C1094.21 828.011 1097.46 822.376 1101.47 820.061L1124.82 806.583ZM875.076 810.738C875.076 806.103 878.328 804.222 882.339 806.538L905.683 820.016C909.694 822.331 912.945 827.967 912.945 832.603V859.581C912.945 864.217 909.694 866.098 905.683 863.782L882.339 850.305C878.328 847.989 875.076 842.353 875.076 837.718V810.738ZM1037.67 806.538C1041.68 804.222 1044.93 806.103 1044.93 810.738V837.718C1044.93 842.353 1041.68 847.989 1037.67 850.305L1014.32 863.782C1010.31 866.098 1007.06 864.217 1007.06 859.581V832.603C1007.06 827.967 1010.31 822.331 1014.32 820.016L1037.67 806.538ZM831.501 785.58C831.501 780.945 834.752 779.064 838.763 781.38L862.107 794.857C866.118 797.173 869.37 802.809 869.37 807.444V834.423C869.37 839.058 866.118 840.939 862.107 838.624L838.763 825.146C834.752 822.83 831.501 817.195 831.501 812.56V785.58ZM1081.24 781.38C1085.25 779.064 1088.51 780.944 1088.51 785.58V812.56C1088.51 817.195 1085.25 822.83 1081.24 825.146L1057.9 838.624C1053.89 840.94 1050.64 839.058 1050.64 834.423V807.444C1050.64 802.809 1053.89 797.173 1057.9 794.857L1081.24 781.38ZM743.154 785.571C743.154 780.936 746.406 779.055 750.417 781.37L773.761 794.848C777.772 797.163 781.023 802.799 781.023 807.435V834.414C781.023 839.05 777.772 840.93 773.761 838.614L750.417 825.137C746.406 822.821 743.154 817.185 743.154 812.55V785.571ZM1169.59 781.37C1173.6 779.055 1176.85 780.936 1176.85 785.571V812.55C1176.85 817.185 1173.6 822.821 1169.59 825.137L1146.25 838.614C1142.23 840.93 1138.98 839.05 1138.98 834.414V807.435C1138.98 802.799 1142.23 797.163 1146.25 794.848L1169.59 781.37ZM918.651 785.535C918.651 780.9 921.903 779.019 925.914 781.335L949.258 794.812C953.269 797.128 956.521 802.764 956.521 807.399V834.379C956.52 839.014 953.269 840.895 949.258 838.579L925.914 825.102C921.903 822.786 918.651 817.15 918.651 812.515V785.535ZM994.093 781.335C998.104 779.02 1001.35 780.9 1001.35 785.535V812.515C1001.35 817.15 998.104 822.786 994.093 825.102L970.748 838.579C966.737 840.895 963.486 839.014 963.485 834.379V807.399C963.485 802.764 966.737 797.128 970.748 794.812L994.093 781.335ZM787.925 760.422C787.925 755.786 791.176 753.906 795.188 756.222L818.531 769.699C822.542 772.015 825.794 777.65 825.794 782.285V809.265C825.794 813.9 822.542 815.781 818.531 813.465L795.188 799.987C791.177 797.672 787.925 792.037 787.925 787.401V760.422ZM1124.82 756.222C1128.83 753.906 1132.08 755.786 1132.08 760.422V787.401C1132.08 792.037 1128.83 797.671 1124.82 799.987L1101.47 813.465C1097.46 815.781 1094.21 813.9 1094.21 809.265V782.285C1094.21 777.65 1097.46 772.015 1101.47 769.699L1124.82 756.222ZM699.579 760.412C699.579 755.777 702.831 753.896 706.842 756.212L730.186 769.689C734.197 772.005 737.448 777.641 737.448 782.276V809.256C737.448 813.891 734.196 815.772 730.186 813.456L706.842 799.979C702.831 797.663 699.579 792.027 699.579 787.392V760.412ZM1213.17 756.212C1217.18 753.896 1220.43 755.777 1220.43 760.412V787.392C1220.43 792.027 1217.18 797.663 1213.17 799.979L1189.82 813.456C1185.81 815.772 1182.56 813.891 1182.56 809.256V782.276C1182.56 777.641 1185.81 772.005 1189.82 769.689L1213.17 756.212ZM875.076 760.377C875.076 755.741 878.328 753.861 882.339 756.177L905.683 769.654C909.694 771.97 912.945 777.606 912.945 782.241V809.22C912.945 813.855 909.694 815.737 905.683 813.421L882.339 799.943C878.328 797.628 875.076 791.992 875.076 787.356V760.377ZM1037.67 756.177C1041.68 753.861 1044.93 755.741 1044.93 760.377V787.356C1044.93 791.992 1041.68 797.628 1037.67 799.943L1014.32 813.421C1010.31 815.737 1007.06 813.855 1007.06 809.22V782.241C1007.06 777.606 1010.31 771.97 1014.32 769.654L1037.67 756.177ZM656.003 735.254C656.003 730.618 659.255 728.738 663.266 731.054L686.61 744.531C690.621 746.847 693.873 752.483 693.873 757.118V784.098C693.873 788.733 690.621 790.613 686.61 788.298L663.266 774.82C659.255 772.505 656.003 766.869 656.003 762.233V735.254ZM1256.74 731.054C1260.75 728.738 1264 730.618 1264 735.254V762.233C1264 766.869 1260.75 772.505 1256.74 774.82L1233.4 788.298C1229.39 790.613 1226.13 788.733 1226.13 784.098V757.118C1226.13 752.483 1229.39 746.847 1233.4 744.531L1256.74 731.054ZM831.501 735.219C831.501 730.583 834.752 728.703 838.763 731.019L862.107 744.496C866.118 746.812 869.37 752.447 869.37 757.083V784.062C869.37 788.697 866.118 790.578 862.107 788.263L838.763 774.784C834.752 772.468 831.501 766.834 831.501 762.198V735.219ZM1081.24 731.019C1085.25 728.703 1088.51 730.583 1088.51 735.219V762.198C1088.51 766.834 1085.25 772.468 1081.24 774.784L1057.9 788.263C1053.89 790.578 1050.64 788.697 1050.64 784.062V757.083C1050.64 752.447 1053.89 746.812 1057.9 744.496L1081.24 731.019ZM743.154 735.21C743.154 730.574 746.406 728.693 750.417 731.009L773.761 744.486C777.772 746.802 781.023 752.438 781.023 757.073V784.053C781.023 788.688 777.772 790.569 773.761 788.253L750.417 774.775C746.406 772.46 743.154 766.824 743.154 762.188V735.21ZM1169.59 731.009C1173.6 728.693 1176.85 730.575 1176.85 735.21V762.188C1176.85 766.824 1173.6 772.459 1169.59 774.775L1146.25 788.253C1142.23 790.569 1138.98 788.688 1138.98 784.053V757.073C1138.98 752.438 1142.23 746.802 1146.25 744.486L1169.59 731.009ZM918.651 735.174C918.652 730.538 921.903 728.658 925.914 730.974L949.258 744.451C953.269 746.767 956.521 752.402 956.521 757.038V784.018C956.52 788.653 953.269 790.533 949.258 788.218L925.914 774.74C921.903 772.424 918.651 766.789 918.651 762.153V735.174ZM994.093 730.974C998.104 728.658 1001.35 730.539 1001.35 735.174V762.153C1001.35 766.789 998.104 772.424 994.093 774.74L970.748 788.218C966.737 790.533 963.486 788.653 963.485 784.018V757.038C963.485 752.403 966.737 746.767 970.748 744.451L994.093 730.974ZM612.428 710.096C612.428 705.46 615.679 703.58 619.69 705.896L643.034 719.373C647.045 721.689 650.297 727.324 650.297 731.96V758.938C650.297 763.574 647.045 765.455 643.034 763.14L619.69 749.661C615.68 747.345 612.428 741.711 612.428 737.075V710.096ZM1300.32 705.896C1304.33 703.58 1307.58 705.46 1307.58 710.096V737.075C1307.58 741.711 1304.33 747.345 1300.32 749.661L1276.97 763.14C1272.96 765.455 1269.71 763.574 1269.71 758.938V731.96C1269.71 727.324 1272.96 721.689 1276.97 719.373L1300.32 705.896ZM787.925 710.061C787.925 705.425 791.176 703.545 795.188 705.86L818.531 719.338C822.542 721.654 825.794 727.288 825.794 731.924V758.903C825.794 763.539 822.542 765.419 818.531 763.104L795.188 749.626C791.177 747.31 787.925 741.676 787.925 737.04V710.061ZM1124.82 705.86C1128.83 703.545 1132.08 705.425 1132.08 710.061V737.04C1132.08 741.675 1128.83 747.31 1124.82 749.626L1101.47 763.104C1097.46 765.419 1094.21 763.539 1094.21 758.903V731.924C1094.21 727.288 1097.46 721.654 1101.47 719.338L1124.82 705.86ZM699.579 710.051C699.579 705.415 702.831 703.535 706.842 705.851L730.186 719.328C734.197 721.644 737.448 727.279 737.448 731.915V758.895C737.448 763.53 734.196 765.41 730.186 763.095L706.842 749.617C702.831 747.301 699.579 741.666 699.579 737.03V710.051ZM1213.17 705.851C1217.18 703.535 1220.43 705.416 1220.43 710.051V737.03C1220.43 741.666 1217.18 747.301 1213.17 749.617L1189.82 763.095C1185.81 765.41 1182.56 763.53 1182.56 758.895V731.915C1182.56 727.279 1185.81 721.644 1189.82 719.328L1213.17 705.851ZM875.076 710.016C875.076 705.38 878.328 703.5 882.339 705.815L905.683 719.293C909.694 721.609 912.945 727.244 912.945 731.88V758.858C912.945 763.494 909.694 765.375 905.683 763.06L882.339 749.582C878.328 747.266 875.076 741.631 875.076 736.995V710.016ZM1037.67 705.815C1041.68 703.5 1044.93 705.38 1044.93 710.016V736.995C1044.93 741.631 1041.68 747.266 1037.67 749.582L1014.32 763.06C1010.31 765.375 1007.06 763.494 1007.06 758.858V731.88C1007.06 727.244 1010.31 721.609 1014.32 719.293L1037.67 705.815ZM1343.9 680.724C1347.91 678.408 1351.16 680.288 1351.16 684.924V711.903C1351.16 716.539 1347.91 722.174 1343.9 724.49L1320.56 737.968C1316.55 740.283 1313.29 738.402 1313.29 733.767V706.788C1313.29 702.152 1316.55 696.517 1320.56 694.201L1343.9 680.724ZM568.879 684.895C568.879 680.259 572.131 678.379 576.142 680.694L599.485 694.172C603.496 696.488 606.748 702.123 606.748 706.759V733.737C606.748 738.373 603.496 740.254 599.485 737.938L576.142 724.461C572.131 722.145 568.879 716.51 568.879 711.874V684.895ZM656.003 684.893C656.003 680.257 659.255 678.377 663.266 680.692L686.61 694.17C690.621 696.486 693.873 702.121 693.873 706.757V733.736C693.873 738.372 690.621 740.252 686.61 737.937L663.266 724.459C659.255 722.143 656.003 716.508 656.003 711.872V684.893ZM1256.74 680.692C1260.75 678.377 1264 680.257 1264 684.893V711.872C1264 716.508 1260.75 722.143 1256.74 724.459L1233.4 737.937C1229.39 740.252 1226.13 738.372 1226.13 733.736V706.757C1226.13 702.121 1229.39 696.486 1233.4 694.17L1256.74 680.692ZM831.501 684.857C831.501 680.222 834.752 678.342 838.763 680.657L862.107 694.135C866.118 696.451 869.37 702.086 869.37 706.722V733.7C869.37 738.336 866.118 740.217 862.107 737.901L838.763 724.423C834.752 722.107 831.501 716.472 831.501 711.837V684.857ZM1081.24 680.657C1085.25 678.341 1088.51 680.222 1088.51 684.857V711.837C1088.51 716.472 1085.25 722.107 1081.24 724.423L1057.9 737.901C1053.89 740.217 1050.64 738.336 1050.64 733.7V706.722C1050.64 702.086 1053.89 696.451 1057.9 694.135L1081.24 680.657ZM743.154 684.849C743.154 680.213 746.406 678.332 750.417 680.647L773.761 694.125C777.772 696.441 781.023 702.076 781.023 706.712V733.691C781.023 738.327 777.772 740.207 773.761 737.892L750.417 724.414C746.406 722.098 743.154 716.463 743.154 711.827V684.849ZM1169.59 680.647C1173.6 678.332 1176.85 680.213 1176.85 684.849V711.827C1176.85 716.463 1173.6 722.098 1169.59 724.414L1146.25 737.892C1142.23 740.207 1138.98 738.327 1138.98 733.691V706.712C1138.98 702.076 1142.23 696.441 1146.25 694.125L1169.59 680.647ZM918.651 684.812C918.652 680.177 921.903 678.297 925.914 680.612L949.258 694.09C953.269 696.406 956.521 702.041 956.521 706.677V733.656C956.52 738.292 953.269 740.172 949.258 737.856L925.914 724.379C921.903 722.063 918.651 716.428 918.651 711.792V684.812ZM994.093 680.612C998.104 678.297 1001.35 680.177 1001.35 684.812V711.792C1001.35 716.428 998.104 722.063 994.093 724.379L970.748 737.856C966.737 740.172 963.486 738.292 963.485 733.656V706.677C963.485 702.041 966.737 696.406 970.748 694.09L994.093 680.612ZM1387.48 655.565C1391.49 653.25 1394.74 655.13 1394.74 659.766V686.745C1394.74 691.38 1391.49 697.015 1387.48 699.331L1364.13 712.81C1360.12 715.125 1356.87 713.244 1356.87 708.608V681.629C1356.87 676.993 1360.12 671.359 1364.13 669.043L1387.48 655.565ZM525.304 659.736C525.304 655.101 528.555 653.221 532.565 655.536L555.91 669.014C559.921 671.329 563.173 676.964 563.173 681.6V708.579C563.173 713.215 559.921 715.096 555.91 712.78L532.565 699.302C528.555 696.986 525.304 691.351 525.304 686.716V659.736ZM612.428 659.734C612.428 655.099 615.679 653.218 619.69 655.534L643.034 669.012C647.045 671.327 650.297 676.963 650.297 681.599V708.577C650.297 713.213 647.045 715.094 643.034 712.778L619.69 699.3C615.68 696.984 612.428 691.349 612.428 686.714V659.734ZM1300.32 655.534C1304.33 653.218 1307.58 655.099 1307.58 659.734V686.714C1307.58 691.349 1304.33 696.984 1300.32 699.3L1276.97 712.778C1272.96 715.094 1269.71 713.213 1269.71 708.577V681.599C1269.71 676.963 1272.96 671.328 1276.97 669.012L1300.32 655.534ZM787.925 659.699C787.925 655.064 791.176 653.183 795.188 655.499L818.531 668.977C822.542 671.292 825.794 676.927 825.794 681.562V708.542C825.794 713.178 822.542 715.059 818.531 712.743L795.188 699.265C791.177 696.949 787.925 691.314 787.925 686.679V659.699ZM1124.82 655.499C1128.83 653.183 1132.08 655.064 1132.08 659.699V686.679C1132.08 691.314 1128.83 696.949 1124.82 699.265L1101.47 712.743C1097.46 715.059 1094.21 713.177 1094.21 708.542V681.562C1094.21 676.927 1097.46 671.292 1101.47 668.977L1124.82 655.499ZM699.579 659.689C699.579 655.054 702.831 653.174 706.842 655.489L730.186 668.967C734.197 671.283 737.448 676.918 737.448 681.554V708.533C737.448 713.169 734.197 715.049 730.186 712.733L706.842 699.256C702.831 696.94 699.579 691.305 699.579 686.669V659.689ZM1213.17 655.489C1217.18 653.174 1220.43 655.054 1220.43 659.689V686.669C1220.43 691.305 1217.18 696.94 1213.17 699.256L1189.82 712.733C1185.81 715.049 1182.56 713.169 1182.56 708.533V681.554C1182.56 676.918 1185.81 671.283 1189.82 668.967L1213.17 655.489ZM875.076 659.654C875.076 655.019 878.328 653.138 882.339 655.454L905.683 668.932C909.694 671.247 912.945 676.883 912.945 681.519V708.497C912.945 713.133 909.694 715.014 905.683 712.698L882.339 699.221C878.328 696.905 875.076 691.269 875.076 686.634V659.654ZM1037.67 655.454C1041.68 653.138 1044.93 655.019 1044.93 659.654V686.634C1044.93 691.269 1041.68 696.905 1037.67 699.221L1014.32 712.698C1010.31 715.014 1007.06 713.133 1007.06 708.497V681.519C1007.06 676.883 1010.31 671.247 1014.32 668.932L1037.67 655.454ZM1431.05 630.407C1435.06 628.091 1438.32 629.972 1438.32 634.607V661.587C1438.32 666.222 1435.06 671.857 1431.05 674.173L1407.71 687.65C1403.7 689.966 1400.45 688.086 1400.45 683.45V656.471C1400.45 651.835 1403.7 646.2 1407.71 643.885L1431.05 630.407ZM481.728 634.578C481.728 629.942 484.979 628.062 488.99 630.378L512.334 643.855C516.345 646.171 519.597 651.806 519.597 656.441V683.421C519.597 688.057 516.345 689.937 512.334 687.621L488.99 674.144C484.979 671.828 481.728 666.193 481.728 661.558V634.578ZM1343.9 630.362C1347.91 628.047 1351.16 629.927 1351.16 634.562V661.542C1351.16 666.178 1347.91 671.813 1343.9 674.129L1320.56 687.606C1316.55 689.922 1313.29 688.041 1313.29 683.405V656.427C1313.29 651.791 1316.55 646.156 1320.56 643.84L1343.9 630.362ZM568.879 634.533C568.879 629.898 572.131 628.017 576.142 630.333L599.485 643.811C603.496 646.126 606.748 651.762 606.748 656.397V683.376C606.748 688.012 603.496 689.893 599.485 687.577L576.142 674.1C572.131 671.784 568.879 666.148 568.879 661.513V634.533ZM656.003 634.531C656.003 629.896 659.255 628.015 663.266 630.331L686.61 643.809C690.621 646.124 693.873 651.76 693.873 656.396V683.375C693.873 688.01 690.621 689.891 686.61 687.575L663.266 674.098C659.255 671.782 656.003 666.146 656.003 661.511V634.531ZM1256.74 630.331C1260.75 628.015 1264 629.896 1264 634.531V661.511C1264 666.146 1260.75 671.782 1256.74 674.098L1233.4 687.575C1229.39 689.891 1226.13 688.01 1226.13 683.375V656.396C1226.13 651.76 1229.39 646.124 1233.4 643.809L1256.74 630.331ZM831.501 634.496C831.501 629.861 834.752 627.98 838.763 630.296L862.107 643.773C866.118 646.089 869.37 651.725 869.37 656.36V683.339C869.37 687.974 866.118 689.855 862.107 687.54L838.763 674.062C834.752 671.747 831.501 666.111 831.501 661.476V634.496ZM1081.24 630.296C1085.25 627.98 1088.51 629.86 1088.51 634.496V661.476C1088.51 666.111 1085.25 671.747 1081.24 674.062L1057.9 687.54C1053.89 689.856 1050.64 687.974 1050.64 683.339V656.36C1050.64 651.725 1053.89 646.089 1057.9 643.773L1081.24 630.296ZM743.154 634.487C743.154 629.852 746.406 627.971 750.417 630.286L773.761 643.765C777.772 646.08 781.023 651.715 781.023 656.351V683.33C781.023 687.966 777.772 689.846 773.761 687.53L750.417 674.053C746.406 671.737 743.154 666.101 743.154 661.466V634.487ZM1169.59 630.286C1173.6 627.971 1176.85 629.852 1176.85 634.487V661.466C1176.85 666.101 1173.6 671.737 1169.59 674.053L1146.25 687.53C1142.23 689.846 1138.98 687.966 1138.98 683.33V656.351C1138.98 651.715 1142.23 646.081 1146.25 643.765L1169.59 630.286ZM918.651 634.451C918.652 629.816 921.903 627.935 925.914 630.251L949.258 643.729C953.269 646.044 956.521 651.68 956.521 656.315V683.295C956.52 687.93 953.269 689.811 949.258 687.495L925.914 674.018C921.903 671.702 918.651 666.066 918.651 661.431V634.451ZM994.093 630.251C998.104 627.936 1001.35 629.816 1001.35 634.451V661.431C1001.35 666.066 998.104 671.702 994.093 674.018L970.748 687.495C966.737 689.811 963.486 687.93 963.485 683.295V656.315C963.485 651.68 966.737 646.044 970.748 643.729L994.093 630.251ZM1387.48 605.204C1391.49 602.889 1394.74 604.769 1394.74 609.404V636.384C1394.74 641.019 1391.49 646.654 1387.48 648.97L1364.13 662.448C1360.12 664.764 1356.87 662.883 1356.87 658.247V631.268C1356.87 626.632 1360.12 620.997 1364.13 618.682L1387.48 605.204ZM1475.82 605.194C1479.83 602.879 1483.09 604.76 1483.09 609.396V636.374C1483.09 641.01 1479.83 646.645 1475.82 648.961L1452.48 662.438C1448.47 664.754 1445.22 662.874 1445.22 658.238V631.259C1445.22 626.623 1448.47 620.988 1452.48 618.672L1475.82 605.194ZM525.304 609.375C525.304 604.739 528.555 602.859 532.565 605.175L555.91 618.652C559.921 620.968 563.173 626.603 563.173 631.238V658.218C563.173 662.853 559.921 664.734 555.91 662.419L532.565 648.94C528.555 646.625 525.304 640.99 525.304 636.354V609.375ZM612.428 609.373C612.428 604.737 615.679 602.857 619.69 605.173L643.034 618.65C647.045 620.966 650.297 626.602 650.297 631.237V658.216C650.297 662.851 647.045 664.733 643.034 662.417L619.69 648.939C615.679 646.624 612.428 640.988 612.428 636.353V609.373ZM1300.32 605.173C1304.33 602.857 1307.58 604.737 1307.58 609.373V636.353C1307.58 640.988 1304.33 646.624 1300.32 648.939L1276.97 662.417C1272.96 664.732 1269.71 662.851 1269.71 658.216V631.237C1269.71 626.602 1272.96 620.966 1276.97 618.65L1300.32 605.173ZM436.957 609.366C436.957 604.731 440.209 602.85 444.22 605.165L467.563 618.643C471.574 620.958 474.826 626.594 474.826 631.229V658.209C474.826 662.845 471.574 664.725 467.563 662.409L444.22 648.932C440.209 646.616 436.957 640.98 436.957 636.345V609.366ZM787.925 609.338C787.925 604.702 791.176 602.822 795.188 605.138L818.531 618.615C822.542 620.931 825.794 626.566 825.794 631.201V658.181C825.794 662.816 822.542 664.697 818.531 662.381L795.188 648.903C791.177 646.588 787.925 640.953 787.925 636.317V609.338ZM1124.82 605.138C1128.83 602.822 1132.08 604.702 1132.08 609.338V636.317C1132.08 640.953 1128.83 646.587 1124.82 648.903L1101.47 662.381C1097.46 664.697 1094.21 662.816 1094.21 658.181V631.201C1094.21 626.566 1097.46 620.931 1101.47 618.615L1124.82 605.138ZM699.579 609.329C699.579 604.693 702.831 602.812 706.842 605.128L730.186 618.605C734.197 620.921 737.448 626.557 737.448 631.192V658.172C737.448 662.807 734.197 664.688 730.186 662.372L706.842 648.895C702.831 646.579 699.579 640.943 699.579 636.308V609.329ZM1213.17 605.128C1217.18 602.812 1220.43 604.694 1220.43 609.329V636.308C1220.43 640.943 1217.18 646.579 1213.17 648.895L1189.82 662.372C1185.81 664.688 1182.56 662.807 1182.56 658.172V631.192C1182.56 626.557 1185.81 620.921 1189.82 618.605L1213.17 605.128ZM875.076 609.293C875.076 604.657 878.328 602.777 882.339 605.093L905.683 618.57C909.694 620.886 912.945 626.522 912.945 631.157V658.136C912.945 662.771 909.694 664.653 905.683 662.337L882.339 648.859C878.328 646.544 875.076 640.908 875.076 636.272V609.293ZM1037.67 605.093C1041.68 602.777 1044.93 604.657 1044.93 609.293V636.272C1044.93 640.908 1041.68 646.544 1037.67 648.859L1014.32 662.337C1010.31 664.653 1007.06 662.771 1007.06 658.136V631.157C1007.06 626.522 1010.31 620.886 1014.32 618.57L1037.67 605.093ZM1431.05 580.046C1435.06 577.73 1438.32 579.61 1438.32 584.246V611.226C1438.32 615.861 1435.06 621.496 1431.05 623.812L1407.71 637.289C1403.7 639.605 1400.45 637.724 1400.45 633.089V606.109C1400.45 601.474 1403.7 595.839 1407.71 593.523L1431.05 580.046ZM1519.4 580.036C1523.41 577.72 1526.66 579.601 1526.66 584.236V611.216C1526.66 615.851 1523.41 621.487 1519.4 623.803L1496.05 637.28C1492.04 639.596 1488.79 637.716 1488.79 633.08V606.101C1488.79 601.465 1492.04 595.829 1496.05 593.514L1519.4 580.036ZM481.728 584.217C481.728 579.581 484.979 577.701 488.99 580.017L512.334 593.494C516.345 595.81 519.597 601.445 519.597 606.08V633.06C519.597 637.695 516.345 639.576 512.334 637.26L488.99 623.782C484.979 621.466 481.728 615.832 481.728 611.196V584.217ZM393.382 584.207C393.382 579.572 396.634 577.691 400.645 580.007L423.988 593.484C427.999 595.8 431.251 601.436 431.251 606.071V633.051C431.251 637.686 427.999 639.567 423.988 637.251L400.645 623.773C396.634 621.458 393.382 615.822 393.382 611.187V584.207ZM1343.9 580.001C1347.91 577.685 1351.16 579.566 1351.16 584.201V611.181C1351.16 615.816 1347.91 621.452 1343.9 623.768L1320.56 637.245C1316.55 639.561 1313.29 637.68 1313.29 633.044V606.065C1313.29 601.43 1316.55 595.794 1320.56 593.479L1343.9 580.001ZM568.879 584.172C568.879 579.536 572.131 577.656 576.142 579.972L599.485 593.449C603.496 595.765 606.748 601.401 606.748 606.036V633.015C606.748 637.65 603.496 639.532 599.485 637.216L576.142 623.738C572.131 621.423 568.879 615.787 568.879 611.151V584.172ZM656.003 584.17C656.003 579.535 659.255 577.654 663.266 579.97L686.61 593.447C690.621 595.763 693.873 601.399 693.873 606.034V633.014C693.873 637.649 690.621 639.529 686.61 637.214L663.266 623.736C659.255 621.421 656.003 615.785 656.003 611.149V584.17ZM1256.74 579.97C1260.75 577.654 1264 579.534 1264 584.17V611.149C1264 615.785 1260.75 621.421 1256.74 623.736L1233.4 637.214C1229.39 639.529 1226.13 637.649 1226.13 633.014V606.034C1226.13 601.399 1229.39 595.763 1233.4 593.447L1256.74 579.97ZM831.501 584.135C831.501 579.499 834.752 577.619 838.763 579.935L862.107 593.412C866.118 595.728 869.37 601.363 869.37 605.999V632.978C869.37 637.613 866.118 639.494 862.107 637.179L838.763 623.701C834.752 621.385 831.501 615.75 831.501 611.114V584.135ZM1081.24 579.935C1085.25 577.619 1088.51 579.499 1088.51 584.135V611.114C1088.51 615.75 1085.25 621.385 1081.24 623.701L1057.9 637.179C1053.89 639.494 1050.64 637.613 1050.64 632.978V605.999C1050.64 601.363 1053.89 595.728 1057.9 593.412L1081.24 579.935ZM743.154 584.126C743.154 579.49 746.406 577.609 750.417 579.925L773.761 593.403C777.772 595.719 781.023 601.354 781.023 605.989V632.969C781.023 637.604 777.772 639.485 773.761 637.169L750.417 623.691C746.406 621.376 743.154 615.74 743.154 611.104V584.126ZM1169.59 579.925C1173.6 577.61 1176.85 579.491 1176.85 584.126V611.104C1176.85 615.74 1173.6 621.375 1169.59 623.691L1146.25 637.169C1142.23 639.485 1138.98 637.604 1138.98 632.969V605.989C1138.98 601.354 1142.23 595.719 1146.25 593.403L1169.59 579.925ZM918.651 584.09C918.652 579.454 921.903 577.574 925.914 579.89L949.258 593.367C953.269 595.683 956.521 601.318 956.521 605.954V632.934C956.52 637.569 953.269 639.449 949.258 637.134L925.914 623.656C921.903 621.34 918.651 615.705 918.651 611.069V584.09ZM994.093 579.89C998.104 577.574 1001.35 579.455 1001.35 584.09V611.069C1001.35 615.705 998.104 621.34 994.093 623.656L970.748 637.134C966.737 639.449 963.486 637.569 963.485 632.934V605.954C963.485 601.319 966.737 595.683 970.748 593.367L994.093 579.89ZM1562.97 554.878C1566.99 552.562 1570.24 554.443 1570.24 559.078V586.058C1570.24 590.693 1566.99 596.329 1562.97 598.645L1539.63 612.122C1535.62 614.437 1532.37 612.557 1532.37 607.922V580.942C1532.37 576.307 1535.62 570.671 1539.63 568.355L1562.97 554.878ZM349.806 559.049C349.806 554.413 353.057 552.533 357.068 554.849L380.413 568.326C384.424 570.642 387.676 576.278 387.676 580.913V607.893C387.676 612.528 384.424 614.408 380.413 612.093L357.068 598.615C353.057 596.299 349.806 590.664 349.806 586.028V559.049ZM1387.48 554.843C1391.49 552.527 1394.74 554.407 1394.74 559.043V586.022C1394.74 590.658 1391.49 596.292 1387.48 598.608L1364.13 612.087C1360.12 614.402 1356.87 612.521 1356.87 607.886V580.906C1356.87 576.271 1360.12 570.636 1364.13 568.32L1387.48 554.843ZM1475.82 554.833C1479.83 552.517 1483.09 554.399 1483.09 559.034V586.013C1483.09 590.648 1479.83 596.284 1475.82 598.6L1452.48 612.077C1448.47 614.393 1445.22 612.513 1445.22 607.877V580.897C1445.22 576.262 1448.47 570.626 1452.48 568.311L1475.82 554.833ZM525.304 559.014C525.304 554.378 528.555 552.498 532.565 554.813L555.91 568.291C559.921 570.607 563.173 576.242 563.173 580.877V607.856C563.173 612.492 559.921 614.373 555.91 612.058L532.565 598.579C528.555 596.263 525.304 590.629 525.304 585.993V559.014ZM612.428 559.012C612.428 554.376 615.679 552.496 619.69 554.812L643.034 568.289C647.045 570.605 650.297 576.24 650.297 580.876V607.854C650.297 612.49 647.045 614.371 643.034 612.056L619.69 598.578C615.679 596.262 612.428 590.627 612.428 585.991V559.012ZM1300.32 554.812C1304.33 552.496 1307.58 554.376 1307.58 559.012V585.991C1307.58 590.627 1304.33 596.262 1300.32 598.578L1276.97 612.056C1272.96 614.371 1269.71 612.49 1269.71 607.854V580.876C1269.71 576.24 1272.96 570.605 1276.97 568.289L1300.32 554.812ZM436.957 559.005C436.957 554.369 440.209 552.488 444.22 554.804L467.563 568.281C471.574 570.597 474.826 576.233 474.826 580.868V607.848C474.826 612.483 471.574 614.364 467.563 612.048L444.22 598.57C440.209 596.254 436.957 590.619 436.957 585.983V559.005ZM787.925 558.977C787.925 554.341 791.176 552.461 795.188 554.776L818.531 568.254C822.542 570.57 825.794 576.204 825.794 580.84V607.819C825.794 612.455 822.542 614.336 818.531 612.021L795.188 598.542C791.177 596.226 787.925 590.592 787.925 585.956V558.977ZM1124.82 554.776C1128.83 552.461 1132.08 554.341 1132.08 558.977V585.956C1132.08 590.591 1128.83 596.226 1124.82 598.542L1101.47 612.021C1097.46 614.336 1094.21 612.455 1094.21 607.819V580.84C1094.21 576.204 1097.46 570.57 1101.47 568.254L1124.82 554.776ZM699.579 558.968C699.579 554.332 702.831 552.451 706.842 554.767L730.186 568.244C734.197 570.56 737.448 576.195 737.448 580.831V607.811C737.448 612.446 734.197 614.326 730.186 612.011L706.842 598.533C702.831 596.217 699.579 590.582 699.579 585.946V558.968ZM1213.17 554.767C1217.18 552.451 1220.43 554.332 1220.43 558.968V585.946C1220.43 590.582 1217.18 596.217 1213.17 598.533L1189.82 612.011C1185.81 614.326 1182.56 612.446 1182.56 607.811V580.831C1182.56 576.195 1185.81 570.56 1189.82 568.244L1213.17 554.767ZM875.076 558.932C875.076 554.296 878.328 552.416 882.339 554.731L905.683 568.209C909.694 570.525 912.945 576.16 912.945 580.796V607.775C912.945 612.411 909.693 614.291 905.683 611.976L882.339 598.498C878.328 596.182 875.076 590.547 875.076 585.911V558.932ZM1037.67 554.731C1041.68 552.416 1044.93 554.296 1044.93 558.932V585.911C1044.93 590.547 1041.68 596.182 1037.67 598.498L1014.32 611.976C1010.31 614.291 1007.06 612.411 1007.06 607.775V580.796C1007.06 576.16 1010.31 570.525 1014.32 568.209L1037.67 554.731ZM1606.55 529.72C1610.56 527.404 1613.81 529.284 1613.81 533.92V560.899C1613.81 565.535 1610.56 571.17 1606.55 573.485L1583.21 586.964C1579.2 589.28 1575.94 587.398 1575.94 582.763V555.784C1575.94 551.149 1579.2 545.513 1583.21 543.197L1606.55 529.72ZM306.23 533.891C306.23 529.255 309.482 527.375 313.493 529.69L336.837 543.168C340.848 545.484 344.1 551.119 344.1 555.755V582.733C344.1 587.369 340.848 589.25 336.837 586.935L313.493 573.456C309.482 571.14 306.231 565.506 306.23 560.87V533.891ZM1431.05 529.685C1435.06 527.369 1438.32 529.249 1438.32 533.885V560.864C1438.32 565.5 1435.06 571.134 1431.05 573.45L1407.71 586.928C1403.7 589.243 1400.45 587.363 1400.45 582.728V555.748C1400.45 551.112 1403.7 545.478 1407.71 543.162L1431.05 529.685ZM1519.4 529.675C1523.41 527.359 1526.66 529.24 1526.66 533.875V560.854C1526.66 565.49 1523.41 571.126 1519.4 573.441L1496.05 586.919C1492.04 589.235 1488.79 587.354 1488.79 582.719V555.739C1488.79 551.104 1492.04 545.468 1496.05 543.152L1519.4 529.675ZM481.728 533.855C481.728 529.22 484.979 527.34 488.99 529.655L512.334 543.133C516.345 545.449 519.597 551.083 519.597 555.719V582.698C519.597 587.334 516.345 589.214 512.334 586.898L488.99 573.421C484.979 571.105 481.728 565.47 481.728 560.835V533.855ZM393.382 533.846C393.382 529.21 396.634 527.33 400.645 529.646L423.988 543.123C427.999 545.439 431.251 551.074 431.251 555.71V582.689C431.251 587.325 427.999 589.205 423.988 586.89L400.645 573.412C396.634 571.096 393.382 565.461 393.382 560.825V533.846ZM1343.9 529.64C1347.91 527.324 1351.16 529.204 1351.16 533.84V560.819C1351.16 565.455 1347.91 571.091 1343.9 573.406L1320.56 586.884C1316.55 589.2 1313.29 587.318 1313.29 582.683V555.704C1313.29 551.068 1316.55 545.433 1320.56 543.117L1343.9 529.64ZM568.879 533.811C568.879 529.175 572.131 527.295 576.142 529.61L599.485 543.088C603.496 545.404 606.748 551.039 606.748 555.675V582.653C606.748 587.289 603.496 589.17 599.485 586.854L576.142 573.377C572.131 571.061 568.879 565.426 568.879 560.79V533.811ZM656.003 533.809C656.003 529.173 659.255 527.293 663.266 529.608L686.61 543.086C690.621 545.402 693.873 551.037 693.873 555.673V582.652C693.873 587.288 690.621 589.168 686.61 586.853L663.266 573.375C659.255 571.059 656.003 565.424 656.003 560.788V533.809ZM1256.74 529.608C1260.75 527.293 1264 529.173 1264 533.809V560.788C1264 565.424 1260.75 571.059 1256.74 573.375L1233.4 586.853C1229.39 589.168 1226.13 587.288 1226.13 582.652V555.673C1226.13 551.037 1229.39 545.402 1233.4 543.086L1256.74 529.608ZM831.501 533.773C831.501 529.138 834.752 527.258 838.763 529.573L862.107 543.051C866.118 545.367 869.37 551.002 869.37 555.638V582.616C869.37 587.252 866.118 589.133 862.107 586.817L838.763 573.34C834.752 571.024 831.501 565.388 831.501 560.753V533.773ZM1081.24 529.573C1085.25 527.257 1088.51 529.138 1088.51 533.773V560.753C1088.51 565.389 1085.25 571.024 1081.24 573.34L1057.9 586.817C1053.89 589.133 1050.64 587.252 1050.64 582.616V555.638C1050.64 551.002 1053.89 545.367 1057.9 543.051L1081.24 529.573ZM743.154 533.765C743.154 529.129 746.406 527.248 750.417 529.563L773.761 543.042C777.772 545.358 781.023 550.992 781.023 555.628V582.607C781.023 587.243 777.772 589.123 773.761 586.808L750.417 573.33C746.406 571.014 743.154 565.379 743.154 560.743V533.765ZM1169.59 529.563C1173.6 527.248 1176.85 529.129 1176.85 533.765V560.743C1176.85 565.379 1173.6 571.014 1169.59 573.33L1146.25 586.808C1142.23 589.123 1138.98 587.243 1138.98 582.607V555.628C1138.98 550.992 1142.23 545.358 1146.25 543.042L1169.59 529.563ZM918.651 533.729C918.652 529.093 921.903 527.213 925.914 529.528L949.258 543.006C953.269 545.322 956.521 550.957 956.521 555.593V582.572C956.52 587.208 953.269 589.088 949.258 586.772L925.914 573.295C921.903 570.979 918.651 565.344 918.651 560.708V533.729ZM994.093 529.528C998.104 527.213 1001.35 529.093 1001.35 533.729V560.708C1001.35 565.344 998.104 570.979 994.093 573.295L970.748 586.772C966.737 589.088 963.486 587.208 963.485 582.572V555.593C963.485 550.957 966.737 545.322 970.748 543.006L994.093 529.528ZM1650.08 504.563C1654.09 502.248 1657.34 504.128 1657.34 508.764V535.743C1657.34 540.379 1654.09 546.014 1650.08 548.33L1626.73 561.808C1622.72 564.123 1619.47 562.242 1619.47 557.606V530.628C1619.47 525.992 1622.72 520.357 1626.73 518.041L1650.08 504.563ZM262.648 508.725C262.648 504.089 265.9 502.209 269.911 504.524L293.255 518.002C297.266 520.318 300.518 525.953 300.518 530.589V557.567C300.518 562.203 297.266 564.084 293.255 561.769L269.911 548.291C265.9 545.975 262.649 540.34 262.648 535.704V508.725ZM1562.97 504.517C1566.99 502.201 1570.24 504.081 1570.24 508.717V535.696C1570.24 540.332 1566.99 545.967 1562.97 548.283L1539.63 561.761C1535.62 564.076 1532.37 562.196 1532.37 557.561V530.581C1532.37 525.946 1535.62 520.31 1539.63 517.994L1562.97 504.517ZM349.806 508.687C349.806 504.052 353.057 502.172 357.068 504.487L380.413 517.965C384.424 520.281 387.676 525.916 387.676 530.552V557.531C387.676 562.166 384.424 564.047 380.413 561.731L357.068 548.254C353.057 545.938 349.806 540.303 349.806 535.667V508.687ZM1387.48 504.481C1391.49 502.166 1394.74 504.046 1394.74 508.682V535.661C1394.74 540.297 1391.49 545.931 1387.48 548.247L1364.13 561.726C1360.12 564.041 1356.87 562.16 1356.87 557.524V530.546C1356.87 525.91 1360.12 520.275 1364.13 517.959L1387.48 504.481ZM1475.82 504.472C1479.83 502.156 1483.09 504.037 1483.09 508.673V535.651C1483.09 540.287 1479.83 545.922 1475.82 548.238L1452.48 561.716C1448.47 564.032 1445.22 562.151 1445.22 557.516V530.536C1445.22 525.901 1448.47 520.265 1452.48 517.949L1475.82 504.472ZM525.304 508.652C525.304 504.017 528.555 502.137 532.565 504.452L555.91 517.93C559.921 520.246 563.173 525.881 563.173 530.517V557.495C563.173 562.131 559.921 564.012 555.91 561.696L532.565 548.218C528.555 545.902 525.304 540.267 525.304 535.632V508.652ZM612.428 508.65C612.428 504.015 615.679 502.134 619.69 504.45L643.034 517.928C647.045 520.243 650.297 525.879 650.297 530.515V557.493C650.297 562.129 647.045 564.01 643.034 561.694L619.69 548.217C615.679 545.901 612.428 540.265 612.428 535.63V508.65ZM1300.32 504.45C1304.33 502.135 1307.58 504.015 1307.58 508.65V535.63C1307.58 540.265 1304.33 545.901 1300.32 548.217L1276.97 561.694C1272.96 564.01 1269.71 562.129 1269.71 557.493V530.515C1269.71 525.879 1272.96 520.244 1276.97 517.928L1300.32 504.45ZM436.957 508.644C436.957 504.008 440.209 502.127 444.22 504.442L467.563 517.92C471.574 520.236 474.826 525.871 474.826 530.507V557.486C474.826 562.122 471.574 564.002 467.563 561.687L444.22 548.209C440.209 545.893 436.957 540.258 436.957 535.622V508.644ZM787.925 508.615C787.925 503.98 791.176 502.099 795.188 504.415L818.531 517.893C822.542 520.208 825.794 525.843 825.794 530.479V557.458C825.794 562.094 822.542 563.975 818.531 561.659L795.188 548.181C791.177 545.865 787.925 540.23 787.925 535.595V508.615ZM1124.82 504.415C1128.83 502.099 1132.08 503.98 1132.08 508.615V535.595C1132.08 540.23 1128.83 545.865 1124.82 548.181L1101.47 561.659C1097.46 563.975 1094.21 562.093 1094.21 557.458V530.479C1094.21 525.843 1097.46 520.208 1101.47 517.893L1124.82 504.415ZM699.579 508.606C699.579 503.971 702.831 502.09 706.842 504.405L730.186 517.883C734.197 520.199 737.448 525.834 737.448 530.47V557.449C737.448 562.085 734.197 563.965 730.186 561.649L706.842 548.172C702.831 545.856 699.579 540.221 699.579 535.585V508.606ZM1213.17 504.405C1217.18 502.09 1220.43 503.971 1220.43 508.606V535.585C1220.43 540.221 1217.18 545.856 1213.17 548.172L1189.82 561.649C1185.81 563.965 1182.56 562.085 1182.56 557.449V530.47C1182.56 525.834 1185.81 520.199 1189.82 517.883L1213.17 504.405ZM875.076 508.57C875.076 503.935 878.328 502.054 882.339 504.37L905.683 517.848C909.694 520.163 912.945 525.799 912.945 530.435V557.414C912.945 562.049 909.693 563.93 905.683 561.614L882.339 548.137C878.328 545.821 875.076 540.185 875.076 535.55V508.57ZM1037.67 504.37C1041.68 502.054 1044.93 503.935 1044.93 508.57V535.55C1044.93 540.185 1041.68 545.821 1037.67 548.137L1014.32 561.614C1010.31 563.93 1007.06 562.049 1007.06 557.414V530.435C1007.06 525.799 1010.31 520.163 1014.32 517.848L1037.67 504.37ZM1693.65 479.405C1697.66 477.09 1700.92 478.97 1700.92 483.605V510.585C1700.91 515.22 1697.66 520.855 1693.65 523.171L1670.31 536.649C1666.3 538.965 1663.05 537.084 1663.05 532.448V505.469C1663.05 500.833 1666.3 495.199 1670.31 492.883L1693.65 479.405ZM219.073 483.566C219.073 478.931 222.324 477.051 226.335 479.366L249.68 492.844C253.69 495.16 256.942 500.794 256.942 505.43V532.409C256.942 537.045 253.691 538.926 249.68 536.61L226.335 523.132C222.324 520.816 219.073 515.181 219.073 510.546V483.566ZM1606.55 479.358C1610.56 477.043 1613.81 478.923 1613.81 483.559V510.538C1613.81 515.174 1610.56 520.808 1606.55 523.124L1583.21 536.603C1579.2 538.918 1575.94 537.037 1575.94 532.401V505.423C1575.94 500.787 1579.2 495.152 1583.21 492.836L1606.55 479.358ZM306.23 483.529C306.23 478.894 309.482 477.013 313.493 479.329L336.837 492.807C340.848 495.122 344.1 500.758 344.1 505.394V532.372C344.1 537.008 340.848 538.889 336.837 536.573L313.493 523.095C309.482 520.779 306.231 515.144 306.23 510.509V483.529ZM1431.05 479.323C1435.06 477.007 1438.32 478.888 1438.32 483.523V510.503C1438.32 515.138 1435.06 520.773 1431.05 523.089L1407.71 536.566C1403.7 538.882 1400.45 537.002 1400.45 532.366V505.387C1400.45 500.751 1403.7 495.116 1407.71 492.801L1431.05 479.323ZM1519.4 479.313C1523.41 476.998 1526.66 478.878 1526.66 483.514V510.493C1526.66 515.129 1523.41 520.764 1519.4 523.08L1496.05 536.558C1492.04 538.873 1488.79 536.993 1488.79 532.357V505.378C1488.79 500.742 1492.04 495.107 1496.05 492.791L1519.4 479.313ZM481.728 483.494C481.728 478.859 484.979 476.978 488.99 479.294L512.334 492.771C516.345 495.087 519.597 500.722 519.597 505.357V532.337C519.597 536.973 516.345 538.853 512.334 536.537L488.99 523.06C484.979 520.744 481.728 515.109 481.728 510.474V483.494ZM393.382 483.484C393.382 478.849 396.634 476.968 400.645 479.284L423.988 492.762C427.999 495.077 431.251 500.713 431.251 505.349V532.328C431.251 536.964 427.999 538.844 423.988 536.528L400.645 523.051C396.634 520.735 393.382 515.099 393.382 510.464V483.484ZM1343.9 479.278C1347.91 476.963 1351.16 478.843 1351.16 483.479V510.458C1351.16 515.094 1347.91 520.729 1343.9 523.045L1320.56 536.522C1316.55 538.838 1313.29 536.957 1313.29 532.321V505.343C1313.29 500.707 1316.55 495.072 1320.56 492.756L1343.9 479.278ZM568.879 483.449C568.879 478.814 572.131 476.933 576.142 479.249L599.485 492.727C603.496 495.042 606.748 500.678 606.748 505.313V532.292C606.748 536.928 603.496 538.809 599.485 536.493L576.142 523.016C572.131 520.7 568.879 515.064 568.879 510.429V483.449ZM656.003 483.447C656.003 478.812 659.255 476.931 663.266 479.247L686.61 492.725C690.621 495.04 693.873 500.676 693.873 505.312V532.291C693.873 536.926 690.621 538.807 686.61 536.491L663.266 523.014C659.255 520.698 656.003 515.062 656.003 510.427V483.447ZM1256.74 479.247C1260.75 476.931 1264 478.812 1264 483.447V510.427C1264 515.062 1260.75 520.698 1256.74 523.014L1233.4 536.491C1229.39 538.807 1226.13 536.926 1226.13 532.291V505.312C1226.13 500.676 1229.39 495.04 1233.4 492.725L1256.74 479.247ZM831.501 483.412C831.501 478.777 834.752 476.896 838.763 479.212L862.107 492.689C866.118 495.005 869.37 500.641 869.37 505.276V532.255C869.37 536.89 866.118 538.772 862.107 536.456L838.763 522.979C834.752 520.663 831.501 515.027 831.501 510.392V483.412ZM1081.24 479.212C1085.25 476.896 1088.51 478.777 1088.51 483.412V510.392C1088.51 515.027 1085.25 520.663 1081.24 522.979L1057.9 536.456C1053.89 538.772 1050.64 536.89 1050.64 532.255V505.276C1050.64 500.641 1053.89 495.005 1057.9 492.689L1081.24 479.212ZM743.154 483.403C743.154 478.768 746.406 476.887 750.417 479.202L773.761 492.681C777.772 494.996 781.023 500.631 781.023 505.267V532.246C781.023 536.882 777.772 538.762 773.761 536.446L750.417 522.969C746.406 520.653 743.154 515.017 743.154 510.382V483.403ZM1169.59 479.202C1173.6 476.887 1176.85 478.768 1176.85 483.403V510.382C1176.85 515.017 1173.6 520.653 1169.59 522.969L1146.25 536.446C1142.23 538.762 1138.98 536.882 1138.98 532.246V505.267C1138.98 500.631 1142.23 494.997 1146.25 492.681L1169.59 479.202ZM1737.23 454.247C1741.24 451.931 1744.49 453.812 1744.49 458.447V485.427C1744.49 490.062 1741.24 495.697 1737.23 498.013L1713.88 511.49C1709.87 513.806 1706.62 511.926 1706.62 507.29V480.311C1706.62 475.675 1709.87 470.04 1713.88 467.725L1737.23 454.247ZM175.497 458.408C175.497 453.773 178.749 451.892 182.76 454.208L206.104 467.686C210.114 470.001 213.366 475.636 213.366 480.271V507.251C213.366 511.887 210.115 513.767 206.104 511.451L182.76 497.974C178.749 495.658 175.497 490.023 175.497 485.388V458.408ZM1650.08 454.202C1654.09 451.886 1657.34 453.767 1657.34 458.402V485.382C1657.34 490.017 1654.09 495.653 1650.08 497.969L1626.73 511.446C1622.72 513.762 1619.47 511.881 1619.47 507.245V480.267C1619.47 475.631 1622.72 469.995 1626.73 467.68L1650.08 454.202ZM262.648 458.363C262.648 453.728 265.9 451.847 269.911 454.163L293.255 467.641C297.266 469.956 300.518 475.592 300.518 480.228V507.206C300.518 511.842 297.266 513.723 293.255 511.407L269.911 497.93C265.9 495.614 262.648 489.978 262.648 485.343V458.363ZM1562.97 454.155C1566.99 451.84 1570.24 453.72 1570.24 458.355V485.335C1570.24 489.971 1566.99 495.606 1562.97 497.922L1539.63 511.399C1535.62 513.715 1532.37 511.834 1532.37 507.199V480.22C1532.37 475.584 1535.62 469.949 1539.63 467.633L1562.97 454.155ZM349.806 458.326C349.806 453.691 353.057 451.81 357.068 454.126L380.413 467.604C384.424 469.919 387.676 475.555 387.676 480.19V507.17C387.676 511.805 384.424 513.686 380.413 511.37L357.068 497.893C353.057 495.577 349.806 489.941 349.806 485.306V458.326ZM1387.48 454.12C1391.49 451.805 1394.74 453.685 1394.74 458.32V485.3C1394.74 489.935 1391.49 495.57 1387.48 497.886L1364.13 511.364C1360.12 513.68 1356.87 511.799 1356.87 507.163V480.185C1356.87 475.549 1360.12 469.914 1364.13 467.598L1387.48 454.12ZM1475.82 454.11C1479.83 451.795 1483.09 453.676 1483.09 458.312V485.29C1483.09 489.926 1479.83 495.561 1475.82 497.877L1452.48 511.354C1448.47 513.67 1445.22 511.79 1445.22 507.154V480.175C1445.22 475.539 1448.47 469.904 1452.48 467.588L1475.82 454.11ZM525.304 458.291C525.304 453.655 528.555 451.775 532.565 454.091L555.91 467.568C559.921 469.884 563.173 475.52 563.173 480.155V507.134C563.173 511.769 559.921 513.65 555.91 511.335L532.565 497.856C528.555 495.541 525.304 489.906 525.304 485.271V458.291ZM612.428 458.289C612.428 453.654 615.679 451.773 619.69 454.089L643.034 467.566C647.045 469.882 650.297 475.518 650.297 480.153V507.132C650.297 511.767 647.045 513.649 643.034 511.333L619.69 497.855C615.679 495.54 612.428 489.904 612.428 485.269V458.289ZM1300.32 454.089C1304.33 451.773 1307.58 453.654 1307.58 458.289V485.269C1307.58 489.904 1304.33 495.54 1300.32 497.855L1276.97 511.333C1272.96 513.648 1269.71 511.767 1269.71 507.132V480.153C1269.71 475.518 1272.96 469.882 1276.97 467.566L1300.32 454.089ZM436.957 458.282C436.957 453.647 440.209 451.766 444.22 454.081L467.563 467.559C471.574 469.874 474.826 475.51 474.826 480.146V507.125C474.826 511.761 471.574 513.641 467.563 511.325L444.22 497.848C440.209 495.532 436.957 489.896 436.957 485.261V458.282ZM787.925 458.254C787.925 453.618 791.176 451.738 795.188 454.054L818.531 467.531C822.542 469.847 825.794 475.482 825.794 480.117V507.097C825.794 511.732 822.542 513.614 818.531 511.298L795.188 497.819C791.177 495.504 787.925 489.869 787.925 485.233V458.254ZM1124.82 454.054C1128.83 451.738 1132.08 453.618 1132.08 458.254V485.233C1132.08 489.869 1128.83 495.503 1124.82 497.819L1101.47 511.298C1097.46 513.613 1094.21 511.732 1094.21 507.097V480.117C1094.21 475.482 1097.46 469.847 1101.47 467.531L1124.82 454.054ZM699.579 458.245C699.579 453.609 702.831 451.728 706.842 454.044L730.186 467.521C734.197 469.837 737.448 475.473 737.448 480.108V507.088C737.448 511.723 734.197 513.604 730.186 511.288L706.842 497.811C702.831 495.495 699.579 489.859 699.579 485.224V458.245ZM1213.17 454.044C1217.18 451.728 1220.43 453.61 1220.43 458.245V485.224C1220.43 489.859 1217.18 495.495 1213.17 497.811L1189.82 511.288C1185.81 513.604 1182.56 511.723 1182.56 507.088V480.108C1182.56 475.473 1185.81 469.837 1189.82 467.521L1213.17 454.044ZM1693.65 429.044C1697.66 426.728 1700.92 428.609 1700.92 433.244V460.224C1700.91 464.859 1697.66 470.494 1693.65 472.81L1670.31 486.288C1666.3 488.604 1663.05 486.722 1663.05 482.087V455.107C1663.05 450.472 1666.3 444.837 1670.31 442.521L1693.65 429.044ZM1782 429.034C1786.01 426.719 1789.26 428.6 1789.26 433.235V460.214C1789.26 464.849 1786.01 470.485 1782 472.801L1758.66 486.278C1754.64 488.594 1751.39 486.714 1751.39 482.078V455.099C1751.39 450.463 1754.64 444.827 1758.66 442.512L1782 429.034ZM219.073 433.205C219.073 428.57 222.324 426.689 226.335 429.005L249.68 442.482C253.69 444.798 256.942 450.433 256.942 455.068V482.048C256.942 486.683 253.691 488.564 249.68 486.249L226.335 472.771C222.324 470.455 219.073 464.82 219.073 460.185V433.205ZM1606.55 428.997C1610.56 426.681 1613.81 428.562 1613.81 433.197V460.177C1613.81 464.812 1610.56 470.447 1606.55 472.763L1583.21 486.241C1579.2 488.557 1575.94 486.676 1575.94 482.04V455.062C1575.94 450.426 1579.2 444.79 1583.21 442.475L1606.55 428.997ZM130.727 433.196C130.727 428.561 133.978 426.68 137.989 428.995L161.333 442.473C165.344 444.788 168.596 450.424 168.596 455.06V482.039C168.596 486.675 165.344 488.555 161.333 486.239L137.989 472.762C133.978 470.446 130.727 464.81 130.727 460.175V433.196ZM306.23 433.168C306.23 428.532 309.482 426.652 313.493 428.968L336.837 442.445C340.848 444.761 344.1 450.397 344.1 455.032V482.011C344.1 486.646 340.848 488.528 336.837 486.212L313.493 472.733C309.482 470.418 306.231 464.783 306.23 460.147V433.168ZM1431.05 428.962C1435.06 426.646 1438.32 428.526 1438.32 433.162V460.142C1438.32 464.777 1435.06 470.412 1431.05 472.728L1407.71 486.205C1403.7 488.521 1400.45 486.641 1400.45 482.005V455.025C1400.45 450.39 1403.7 444.755 1407.71 442.439L1431.05 428.962ZM1519.4 428.952C1523.41 426.636 1526.66 428.517 1526.66 433.152V460.132C1526.66 464.767 1523.41 470.403 1519.4 472.719L1496.05 486.196C1492.04 488.512 1488.79 486.632 1488.79 481.996V455.017C1488.79 450.381 1492.04 444.745 1496.05 442.43L1519.4 428.952ZM481.728 433.133C481.728 428.497 484.979 426.617 488.99 428.933L512.334 442.41C516.345 444.726 519.596 450.361 519.597 454.996V481.976C519.597 486.611 516.345 488.492 512.334 486.176L488.99 472.698C484.979 470.382 481.728 464.748 481.728 460.112V433.133ZM393.382 433.123C393.382 428.488 396.634 426.607 400.645 428.923L423.988 442.4C427.999 444.716 431.251 450.352 431.251 454.987V481.967C431.251 486.602 427.999 488.483 423.988 486.167L400.645 472.689C396.634 470.374 393.382 464.738 393.382 460.103V433.123ZM1343.9 428.917C1347.91 426.601 1351.16 428.482 1351.16 433.117V460.097C1351.16 464.732 1347.91 470.368 1343.9 472.684L1320.56 486.161C1316.55 488.477 1313.29 486.596 1313.29 481.96V454.981C1313.29 450.346 1316.55 444.71 1320.56 442.395L1343.9 428.917ZM568.879 433.088C568.879 428.452 572.131 426.572 576.142 428.888L599.485 442.365C603.496 444.681 606.748 450.317 606.748 454.952V481.931C606.748 486.566 603.496 488.448 599.485 486.132L576.142 472.654C572.131 470.339 568.879 464.703 568.879 460.067V433.088ZM656.003 433.086C656.003 428.451 659.255 426.57 663.266 428.886L686.61 442.363C690.621 444.679 693.873 450.315 693.873 454.95V481.93C693.873 486.565 690.621 488.445 686.61 486.13L663.266 472.652C659.255 470.337 656.003 464.701 656.003 460.065V433.086ZM1256.74 428.886C1260.75 426.57 1264 428.451 1264 433.086V460.065C1264 464.701 1260.75 470.337 1256.74 472.652L1233.4 486.13C1229.39 488.446 1226.13 486.565 1226.13 481.93V454.95C1226.13 450.315 1229.39 444.679 1233.4 442.363L1256.74 428.886ZM743.154 433.042C743.154 428.406 746.406 426.525 750.417 428.841L773.761 442.319C777.772 444.635 781.023 450.27 781.023 454.905V481.885C781.023 486.52 777.772 488.401 773.761 486.085L750.417 472.607C746.406 470.292 743.154 464.656 743.154 460.021V433.042ZM1169.59 428.841C1173.6 426.526 1176.85 428.407 1176.85 433.042V460.021C1176.85 464.656 1173.6 470.292 1169.59 472.607L1146.25 486.085C1142.23 488.401 1138.98 486.52 1138.98 481.885V454.905C1138.98 450.27 1142.23 444.635 1146.25 442.319L1169.59 428.841ZM1737.23 403.886C1741.24 401.57 1744.49 403.45 1744.49 408.086V435.065C1744.49 439.701 1741.24 445.336 1737.23 447.651L1713.88 461.129C1709.87 463.445 1706.62 461.564 1706.62 456.929V429.949C1706.62 425.314 1709.87 419.679 1713.88 417.363L1737.23 403.886ZM1825.57 403.876C1829.59 401.56 1832.84 403.441 1832.84 408.076V435.056C1832.84 439.691 1829.59 445.327 1825.57 447.643L1802.23 461.12C1798.22 463.436 1794.97 461.555 1794.97 456.92V429.94C1794.97 425.305 1798.22 419.669 1802.23 417.354L1825.57 403.876ZM175.497 408.047C175.497 403.411 178.749 401.531 182.76 403.847L206.104 417.324C210.114 419.64 213.366 425.275 213.366 429.91V456.89C213.366 461.525 210.115 463.406 206.104 461.09L182.76 447.612C178.749 445.297 175.497 439.662 175.497 435.026V408.047ZM1650.08 403.841C1654.09 401.525 1657.34 403.405 1657.34 408.041V435.021C1657.34 439.656 1654.09 445.292 1650.08 447.607L1626.73 461.085C1622.72 463.401 1619.47 461.519 1619.47 456.884V429.905C1619.47 425.27 1622.72 419.634 1626.73 417.318L1650.08 403.841ZM87.1514 408.037C87.1516 403.402 90.4032 401.521 94.4141 403.837L117.758 417.314C121.769 419.63 125.021 425.266 125.021 429.901V456.881C125.02 461.516 121.769 463.397 117.758 461.081L94.4141 447.604C90.403 445.288 87.1514 439.652 87.1514 435.017V408.037ZM262.648 408.002C262.648 403.366 265.9 401.486 269.911 403.802L293.255 417.279C297.266 419.595 300.518 425.231 300.518 429.866V456.845C300.518 461.48 297.266 463.362 293.255 461.046L269.911 447.568C265.9 445.253 262.648 439.617 262.648 434.981V408.002ZM1562.97 403.794C1566.99 401.478 1570.24 403.359 1570.24 407.994V434.974C1570.24 439.609 1566.99 445.245 1562.97 447.561L1539.63 461.038C1535.62 463.354 1532.37 461.473 1532.37 456.838V429.858C1532.37 425.223 1535.62 419.587 1539.63 417.271L1562.97 403.794ZM349.806 407.965C349.806 403.329 353.057 401.449 357.068 403.765L380.413 417.242C384.424 419.558 387.676 425.194 387.676 429.829V456.809C387.676 461.444 384.424 463.324 380.413 461.009L357.068 447.531C353.057 445.215 349.806 439.58 349.806 434.944V407.965ZM1387.48 403.759C1391.49 401.443 1394.74 403.323 1394.74 407.959V434.938C1394.74 439.574 1391.49 445.21 1387.48 447.525L1364.13 461.003C1360.12 463.318 1356.87 461.437 1356.87 456.802V429.823C1356.87 425.188 1360.12 419.552 1364.13 417.236L1387.48 403.759ZM1475.82 403.749C1479.83 401.434 1483.09 403.315 1483.09 407.95V434.929C1483.09 439.564 1479.83 445.2 1475.82 447.516L1452.48 460.993C1448.47 463.309 1445.22 461.429 1445.22 456.793V429.813C1445.22 425.178 1448.47 419.543 1452.48 417.228L1475.82 403.749ZM525.304 407.93C525.304 403.294 528.555 401.414 532.565 403.729L555.91 417.207C559.921 419.523 563.173 425.158 563.173 429.794V456.772C563.173 461.408 559.921 463.289 555.91 460.974L532.565 447.496C528.555 445.18 525.304 439.545 525.304 434.909V407.93ZM612.428 407.928C612.428 403.292 615.679 401.412 619.69 403.728L643.034 417.205C647.045 419.521 650.297 425.156 650.297 429.792V456.771C650.297 461.406 647.045 463.287 643.034 460.972L619.69 447.494C615.679 445.178 612.428 439.543 612.428 434.907V407.928ZM1300.32 403.728C1304.33 401.412 1307.58 403.292 1307.58 407.928V434.907C1307.58 439.543 1304.33 445.178 1300.32 447.494L1276.97 460.972C1272.96 463.287 1269.71 461.406 1269.71 456.771V429.792C1269.71 425.156 1272.96 419.521 1276.97 417.205L1300.32 403.728ZM436.957 407.921C436.957 403.285 440.209 401.404 444.22 403.72L467.563 417.198C471.574 419.514 474.826 425.149 474.826 429.784V456.764C474.826 461.399 471.574 463.28 467.563 460.964L444.22 447.486C440.209 445.171 436.957 439.535 436.957 434.899V407.921ZM699.579 407.884C699.579 403.248 702.831 401.367 706.842 403.683L730.186 417.16C734.197 419.476 737.448 425.111 737.448 429.747V456.727C737.448 461.362 734.197 463.242 730.186 460.927L706.842 447.449C702.831 445.133 699.579 439.498 699.579 434.862V407.884ZM1213.17 403.683C1217.18 401.367 1220.43 403.248 1220.43 407.884V434.862C1220.43 439.498 1217.18 445.133 1213.17 447.449L1189.82 460.927C1185.81 463.242 1182.56 461.362 1182.56 456.727V429.747C1182.56 425.111 1185.81 419.476 1189.82 417.16L1213.17 403.683ZM1869.15 378.718C1873.16 376.402 1876.41 378.282 1876.41 382.918V409.897C1876.41 414.533 1873.16 420.169 1869.15 422.484L1845.81 435.962C1841.79 438.277 1838.54 436.397 1838.54 431.762V404.782C1838.54 400.147 1841.79 394.511 1845.81 392.195L1869.15 378.718ZM1693.65 378.683C1697.66 376.367 1700.92 378.247 1700.92 382.883V409.862C1700.91 414.498 1697.66 420.132 1693.65 422.448L1670.31 435.927C1666.3 438.242 1663.05 436.361 1663.05 431.726V404.746C1663.05 400.111 1666.3 394.476 1670.31 392.16L1693.65 378.683ZM43.5752 382.879C43.5753 378.243 46.827 376.363 50.8379 378.679L74.1826 392.156C78.1935 394.472 81.4453 400.108 81.4453 404.743V431.723C81.4451 436.358 78.1934 438.238 74.1826 435.923L50.8379 422.445C46.8269 420.13 43.5752 414.494 43.5752 409.858V382.879ZM1782 378.673C1786.01 376.357 1789.26 378.238 1789.26 382.874V409.853C1789.26 414.488 1786.01 420.124 1782 422.439L1758.66 435.917C1754.64 438.233 1751.39 436.352 1751.39 431.717V404.737C1751.39 400.102 1754.64 394.466 1758.66 392.15L1782 378.673ZM219.073 382.844C219.073 378.208 222.324 376.328 226.335 378.644L249.68 392.121C253.69 394.437 256.942 400.072 256.942 404.707V431.687C256.942 436.322 253.691 438.203 249.68 435.888L226.335 422.409C222.324 420.093 219.073 414.459 219.073 409.823V382.844ZM1606.55 378.636C1610.56 376.32 1613.81 378.2 1613.81 382.836V409.815C1613.81 414.451 1610.56 420.087 1606.55 422.402L1583.21 435.88C1579.2 438.196 1575.94 436.314 1575.94 431.679V404.7C1575.94 400.065 1579.2 394.429 1583.21 392.113L1606.55 378.636ZM130.727 382.835C130.727 378.199 133.978 376.318 137.989 378.634L161.333 392.111C165.344 394.427 168.596 400.063 168.596 404.698V431.678C168.596 436.313 165.344 438.194 161.333 435.878L137.989 422.4C133.978 420.085 130.727 414.449 130.727 409.813V382.835ZM306.23 382.807C306.23 378.171 309.482 376.291 313.493 378.606L336.837 392.084C340.848 394.4 344.1 400.035 344.1 404.671V431.649C344.1 436.285 340.848 438.166 336.837 435.851L313.493 422.373C309.482 420.057 306.231 414.422 306.23 409.786V382.807ZM1431.05 378.601C1435.06 376.285 1438.32 378.165 1438.32 382.801V409.78C1438.32 414.416 1435.06 420.05 1431.05 422.366L1407.71 435.845C1403.7 438.16 1400.45 436.279 1400.45 431.644V404.664C1400.45 400.029 1403.7 394.394 1407.71 392.078L1431.05 378.601ZM1519.4 378.591C1523.41 376.275 1526.66 378.156 1526.66 382.792V409.771C1526.66 414.406 1523.41 420.042 1519.4 422.357L1496.05 435.835C1492.04 438.151 1488.79 436.27 1488.79 431.635V404.655C1488.79 400.02 1492.04 394.384 1496.05 392.068L1519.4 378.591ZM481.728 382.771C481.728 378.136 484.979 376.256 488.99 378.571L512.334 392.049C516.345 394.365 519.596 399.999 519.597 404.635V431.614C519.597 436.25 516.345 438.131 512.334 435.815L488.99 422.337C484.979 420.021 481.728 414.386 481.728 409.751V382.771ZM393.382 382.763C393.382 378.127 396.634 376.246 400.645 378.562L423.988 392.039C427.999 394.355 431.251 399.99 431.251 404.626V431.605C431.251 436.241 427.999 438.121 423.988 435.806L400.645 422.328C396.634 420.012 393.382 414.377 393.382 409.741V382.763ZM1343.9 378.556C1347.91 376.24 1351.16 378.12 1351.16 382.756V409.735C1351.16 414.371 1347.91 420.007 1343.9 422.322L1320.56 435.8C1316.55 438.116 1313.29 436.234 1313.29 431.599V404.62C1313.29 399.984 1316.55 394.349 1320.56 392.033L1343.9 378.556ZM568.879 382.727C568.879 378.091 572.131 376.211 576.142 378.526L599.485 392.004C603.496 394.32 606.748 399.955 606.748 404.591V431.569C606.748 436.205 603.496 438.086 599.485 435.771L576.142 422.293C572.131 419.977 568.879 414.342 568.879 409.706V382.727ZM656.003 382.725C656.003 378.089 659.255 376.209 663.266 378.524L686.61 392.002C690.621 394.318 693.873 399.953 693.873 404.589V431.568C693.873 436.204 690.621 438.084 686.61 435.769L663.266 422.291C659.255 419.975 656.003 414.34 656.003 409.704V382.725ZM1256.74 378.524C1260.75 376.209 1264 378.089 1264 382.725V409.704C1264 414.34 1260.75 419.975 1256.74 422.291L1233.4 435.769C1229.39 438.084 1226.13 436.204 1226.13 431.568V404.589C1226.13 399.953 1229.39 394.318 1233.4 392.002L1256.74 378.524ZM1912.73 353.56C1916.74 351.244 1919.99 353.124 1919.99 357.76V384.739C1919.99 389.375 1916.74 395.009 1912.73 397.325L1889.38 410.804C1885.37 413.119 1882.12 411.238 1882.12 406.603V379.624C1882.12 374.988 1885.37 369.353 1889.38 367.037L1912.73 353.56ZM1737.23 353.524C1741.24 351.209 1744.49 353.089 1744.49 357.725V384.704C1744.49 389.34 1741.24 394.974 1737.23 397.29L1713.88 410.768C1709.87 413.083 1706.62 411.203 1706.62 406.567V379.588C1706.62 374.952 1709.87 369.318 1713.88 367.002L1737.23 353.524ZM0 357.721C8.69437e-06 353.085 3.25168 351.205 7.2627 353.521L30.6064 366.998C34.6175 369.314 37.8691 374.949 37.8691 379.585V406.563C37.8691 411.199 34.6175 413.08 30.6064 410.765L7.2627 397.286C3.2518 394.97 9.11935e-05 389.336 0 384.7V357.721ZM1825.57 353.515C1829.59 351.199 1832.84 353.08 1832.84 357.715V384.694C1832.84 389.33 1829.59 394.965 1825.57 397.281L1802.23 410.759C1798.22 413.075 1794.97 411.194 1794.97 406.559V379.579C1794.97 374.943 1798.22 369.308 1802.23 366.992L1825.57 353.515ZM175.497 357.686C175.497 353.05 178.749 351.17 182.76 353.485L206.104 366.963C210.114 369.279 213.366 374.913 213.366 379.549V406.528C213.366 411.164 210.115 413.044 206.104 410.729L182.76 397.251C178.749 394.935 175.497 389.301 175.497 384.665V357.686ZM1650.08 353.479C1654.09 351.164 1657.34 353.044 1657.34 357.68V384.659C1657.34 389.295 1654.09 394.93 1650.08 397.246L1626.73 410.724C1622.72 413.039 1619.47 411.158 1619.47 406.522V379.544C1619.47 374.908 1622.72 369.273 1626.73 366.957L1650.08 353.479ZM87.1514 357.676C87.1516 353.04 90.4032 351.16 94.4141 353.476L117.758 366.953C121.769 369.269 125.021 374.904 125.021 379.54V406.52C125.02 411.155 121.769 413.035 117.758 410.72L94.4141 397.242C90.403 394.926 87.1514 389.291 87.1514 384.655V357.676ZM262.648 357.641C262.649 353.005 265.9 351.125 269.911 353.44L293.255 366.918C297.266 369.234 300.518 374.869 300.518 379.505V406.483C300.518 411.119 297.266 413 293.255 410.685L269.911 397.207C265.9 394.891 262.648 389.256 262.648 384.62V357.641ZM1562.97 353.433C1566.99 351.117 1570.24 352.997 1570.24 357.633V384.612C1570.24 389.248 1566.99 394.883 1562.97 397.199L1539.63 410.677C1535.62 412.992 1532.37 411.112 1532.37 406.477V379.497C1532.37 374.862 1535.62 369.226 1539.63 366.91L1562.97 353.433ZM349.806 357.604C349.806 352.968 353.057 351.088 357.068 353.403L380.413 366.881C384.424 369.197 387.676 374.832 387.676 379.468V406.447C387.676 411.083 384.424 412.963 380.413 410.647L357.068 397.17C353.057 394.854 349.806 389.219 349.806 384.583V357.604ZM1387.48 353.397C1391.49 351.082 1394.74 352.962 1394.74 357.598V384.577C1394.74 389.213 1391.49 394.848 1387.48 397.164L1364.13 410.642C1360.12 412.957 1356.87 411.076 1356.87 406.44V379.462C1356.87 374.826 1360.12 369.191 1364.13 366.875L1387.48 353.397ZM1475.82 353.388C1479.83 351.072 1483.09 352.953 1483.09 357.589V384.567C1483.09 389.203 1479.83 394.838 1475.82 397.154L1452.48 410.632C1448.47 412.948 1445.22 411.067 1445.22 406.432V379.452C1445.22 374.817 1448.47 369.182 1452.48 366.866L1475.82 353.388ZM525.304 357.568C525.304 352.933 528.555 351.053 532.565 353.368L555.91 366.846C559.921 369.162 563.173 374.797 563.173 379.433V406.411C563.173 411.047 559.921 412.928 555.91 410.612L532.565 397.135C528.555 394.819 525.304 389.183 525.304 384.548V357.568ZM612.428 357.566C612.428 352.931 615.679 351.05 619.69 353.366L643.034 366.844C647.045 369.16 650.297 374.795 650.297 379.431V406.409C650.297 411.045 647.045 412.926 643.034 410.61L619.69 397.133C615.679 394.817 612.428 389.182 612.428 384.546V357.566ZM1300.32 353.366C1304.33 351.051 1307.58 352.931 1307.58 357.566V384.546C1307.58 389.182 1304.33 394.817 1300.32 397.133L1276.97 410.61C1272.96 412.926 1269.71 411.045 1269.71 406.409V379.431C1269.71 374.795 1272.96 369.16 1276.97 366.844L1300.32 353.366ZM436.957 357.56C436.957 352.924 440.209 351.043 444.22 353.358L467.563 366.837C471.574 369.153 474.826 374.787 474.826 379.423V406.402C474.826 411.038 471.574 412.918 467.563 410.603L444.22 397.125C440.209 394.809 436.957 389.174 436.957 384.538V357.56ZM1869.15 328.356C1873.16 326.041 1876.41 327.921 1876.41 332.557V359.536C1876.41 364.172 1873.16 369.807 1869.15 372.123L1845.81 385.601C1841.79 387.916 1838.54 386.036 1838.54 381.4V354.421C1838.54 349.785 1841.79 344.15 1845.81 341.834L1869.15 328.356ZM1693.65 328.321C1697.66 326.006 1700.92 327.886 1700.92 332.521V359.501C1700.91 364.136 1697.66 369.771 1693.65 372.087L1670.31 385.565C1666.3 387.881 1663.05 386 1663.05 381.364V354.386C1663.05 349.75 1666.3 344.115 1670.31 341.799L1693.65 328.321ZM43.5752 332.518C43.5753 327.882 46.827 326.002 50.8379 328.317L74.1826 341.795C78.1935 344.111 81.4453 349.746 81.4453 354.382V381.361C81.4451 385.997 78.1934 387.877 74.1826 385.562L50.8379 372.084C46.8269 369.768 43.5752 364.133 43.5752 359.497V332.518ZM1782 328.312C1786.01 325.996 1789.26 327.877 1789.26 332.513V359.491C1789.26 364.127 1786.01 369.762 1782 372.078L1758.66 385.556C1754.64 387.871 1751.39 385.991 1751.39 381.355V354.376C1751.39 349.74 1754.64 344.105 1758.66 341.789L1782 328.312ZM219.073 332.482C219.073 327.847 222.324 325.967 226.335 328.282L249.68 341.76C253.691 344.076 256.942 349.711 256.942 354.347V381.325C256.942 385.961 253.691 387.842 249.68 385.526L226.335 372.048C222.324 369.732 219.073 364.097 219.073 359.462V332.482ZM1606.55 328.274C1610.56 325.959 1613.81 327.839 1613.81 332.475V359.454C1613.81 364.09 1610.56 369.725 1606.55 372.041L1583.21 385.519C1579.2 387.834 1575.94 385.953 1575.94 381.317V354.339C1575.94 349.703 1579.2 344.068 1583.21 341.752L1606.55 328.274ZM130.727 332.474C130.727 327.838 133.978 325.957 137.989 328.272L161.333 341.75C165.344 344.066 168.596 349.701 168.596 354.337V381.316C168.596 385.952 165.344 387.832 161.333 385.517L137.989 372.039C133.978 369.723 130.727 364.088 130.727 359.452V332.474ZM306.23 332.445C306.231 327.81 309.482 325.929 313.493 328.245L336.837 341.723C340.848 344.038 344.1 349.674 344.1 354.31V381.288C344.1 385.924 340.848 387.805 336.837 385.489L313.493 372.012C309.482 369.696 306.231 364.06 306.23 359.425V332.445ZM1431.05 328.239C1435.06 325.923 1438.32 327.804 1438.32 332.439V359.419C1438.32 364.054 1435.06 369.689 1431.05 372.005L1407.71 385.483C1403.7 387.799 1400.45 385.918 1400.45 381.282V354.303C1400.45 349.667 1403.7 344.032 1407.71 341.717L1431.05 328.239ZM1519.4 328.229C1523.41 325.914 1526.66 327.795 1526.66 332.431V359.409C1526.66 364.045 1523.41 369.68 1519.4 371.996L1496.05 385.474C1492.04 387.789 1488.79 385.909 1488.79 381.273V354.294C1488.79 349.658 1492.04 344.023 1496.05 341.707L1519.4 328.229ZM481.728 332.41C481.728 327.775 484.979 325.894 488.99 328.21L512.334 341.687C516.345 344.003 519.596 349.638 519.597 354.273V381.253C519.597 385.889 516.345 387.77 512.334 385.454L488.99 371.976C484.979 369.66 481.728 364.025 481.728 359.39V332.41ZM393.382 332.401C393.382 327.766 396.634 325.884 400.645 328.2L423.988 341.678C427.999 343.993 431.251 349.629 431.251 354.265V381.244C431.251 385.88 427.999 387.76 423.988 385.444L400.645 371.967C396.634 369.651 393.382 364.016 393.382 359.38V332.401ZM1343.9 328.194C1347.91 325.879 1351.16 327.759 1351.16 332.395V359.374C1351.16 364.01 1347.91 369.645 1343.9 371.961L1320.56 385.438C1316.55 387.754 1313.29 385.873 1313.29 381.237V354.259C1313.29 349.623 1316.55 343.988 1320.56 341.672L1343.9 328.194ZM568.879 332.365C568.879 327.73 572.131 325.849 576.142 328.165L599.485 341.643C603.496 343.958 606.748 349.594 606.748 354.229V381.208C606.748 385.844 603.496 387.725 599.485 385.409L576.142 371.932C572.131 369.616 568.879 363.98 568.879 359.345V332.365ZM1912.73 303.198C1916.74 300.882 1919.99 302.763 1919.99 307.398V334.378C1919.99 339.013 1916.74 344.648 1912.73 346.964L1889.38 360.442C1885.37 362.758 1882.12 360.877 1882.12 356.241V329.263C1882.12 324.627 1885.37 318.992 1889.38 316.676L1912.73 303.198ZM1737.23 303.163C1741.24 300.847 1744.49 302.728 1744.49 307.363V334.343C1744.49 338.978 1741.24 344.613 1737.23 346.929L1713.88 360.406C1709.87 362.722 1706.62 360.842 1706.62 356.206V329.227C1706.62 324.591 1709.87 318.956 1713.88 316.641L1737.23 303.163ZM0 307.359C8.69437e-06 302.724 3.25168 300.843 7.2627 303.159L30.6064 316.637C34.6175 318.952 37.8691 324.588 37.8691 329.224V356.202C37.8691 360.838 34.6175 362.719 30.6064 360.403L7.2627 346.925C3.2518 344.609 9.11935e-05 338.974 0 334.339V307.359ZM1825.57 303.153C1829.59 300.838 1832.84 302.718 1832.84 307.354V334.333C1832.84 338.969 1829.59 344.604 1825.57 346.92L1802.23 360.397C1798.22 362.713 1794.97 360.833 1794.97 356.197V329.218C1794.97 324.582 1798.22 318.947 1802.23 316.631L1825.57 303.153ZM175.497 307.324C175.497 302.689 178.749 300.808 182.76 303.124L206.104 316.602C210.114 318.917 213.366 324.552 213.366 329.187V356.167C213.366 360.803 210.115 362.683 206.104 360.367L182.76 346.89C178.749 344.574 175.497 338.939 175.497 334.304V307.324ZM1650.08 303.118C1654.09 300.802 1657.34 302.683 1657.34 307.318V334.298C1657.34 338.933 1654.09 344.569 1650.08 346.885L1626.73 360.362C1622.72 362.678 1619.47 360.797 1619.47 356.161V329.183C1619.47 324.547 1622.72 318.911 1626.73 316.596L1650.08 303.118ZM87.1514 307.314C87.1516 302.679 90.4032 300.799 94.4141 303.114L117.758 316.592C121.769 318.908 125.02 324.543 125.021 329.179V356.158C125.02 360.794 121.769 362.674 117.758 360.358L94.4141 346.881C90.403 344.565 87.1514 338.93 87.1514 334.294V307.314ZM262.648 307.279C262.649 302.644 265.9 300.763 269.911 303.079L293.255 316.557C297.266 318.872 300.518 324.508 300.518 329.144V356.122C300.518 360.758 297.266 362.639 293.255 360.323L269.911 346.846C265.9 344.53 262.648 338.894 262.648 334.259V307.279ZM1562.97 303.071C1566.99 300.756 1570.24 302.636 1570.24 307.271V334.251C1570.24 338.887 1566.99 344.522 1562.97 346.838L1539.63 360.315C1535.62 362.631 1532.37 360.751 1532.37 356.115V329.136C1532.37 324.5 1535.62 318.865 1539.63 316.549L1562.97 303.071ZM349.806 307.242C349.806 302.607 353.057 300.726 357.068 303.042L380.413 316.52C384.424 318.835 387.676 324.471 387.676 329.106V356.086C387.676 360.721 384.424 362.602 380.413 360.286L357.068 346.809C353.057 344.493 349.806 338.857 349.806 334.222V307.242ZM1387.48 303.036C1391.49 300.721 1394.74 302.601 1394.74 307.236V334.216C1394.74 338.851 1391.49 344.487 1387.48 346.803L1364.13 360.28C1360.12 362.596 1356.87 360.715 1356.87 356.079V329.101C1356.87 324.465 1360.12 318.83 1364.13 316.514L1387.48 303.036ZM1475.82 303.026C1479.83 300.711 1483.09 302.592 1483.09 307.228V334.206C1483.09 338.842 1479.83 344.477 1475.82 346.793L1452.48 360.271C1448.47 362.586 1445.22 360.706 1445.22 356.07V329.091C1445.22 324.455 1448.47 318.821 1452.48 316.505L1475.82 303.026ZM525.304 307.207C525.304 302.572 528.555 300.691 532.565 303.007L555.91 316.484C559.921 318.8 563.173 324.436 563.173 329.071V356.05C563.173 360.685 559.921 362.566 555.91 360.251L532.565 346.773C528.555 344.458 525.304 338.822 525.304 334.187V307.207ZM436.957 307.198C436.957 302.563 440.209 300.682 444.22 302.997L467.563 316.476C471.574 318.791 474.826 324.426 474.826 329.062V356.041C474.826 360.677 471.574 362.557 467.563 360.241L444.22 346.764C440.209 344.448 436.957 338.812 436.957 334.177V307.198ZM1869.15 277.995C1873.16 275.679 1876.41 277.56 1876.41 282.195V309.175C1876.41 313.81 1873.16 319.446 1869.15 321.762L1845.81 335.239C1841.79 337.555 1838.54 335.674 1838.54 331.039V304.06C1838.54 299.424 1841.79 293.788 1845.81 291.473L1869.15 277.995ZM1693.65 277.96C1697.66 275.644 1700.92 277.525 1700.92 282.16V309.14C1700.91 313.775 1697.66 319.41 1693.65 321.726L1670.31 335.204C1666.3 337.52 1663.05 335.638 1663.05 331.003V304.024C1663.05 299.389 1666.3 293.753 1670.31 291.437L1693.65 277.96ZM43.5752 282.156C43.5753 277.521 46.827 275.64 50.8379 277.956L74.1826 291.434C78.1935 293.749 81.4453 299.385 81.4453 304.021V331C81.4451 335.635 78.1934 337.516 74.1826 335.2L50.8379 321.723C46.8269 319.407 43.5752 313.771 43.5752 309.136V282.156ZM1782 277.95C1786.01 275.635 1789.26 277.516 1789.26 282.151V309.13C1789.26 313.765 1786.01 319.401 1782 321.717L1758.66 335.194C1754.64 337.51 1751.39 335.63 1751.39 330.994V304.015C1751.39 299.379 1754.64 293.743 1758.66 291.428L1782 277.95ZM219.073 282.121C219.073 277.486 222.324 275.605 226.335 277.921L249.68 291.398C253.691 293.714 256.942 299.35 256.942 303.985V330.964C256.942 335.599 253.691 337.48 249.68 335.165L226.335 321.687C222.324 319.371 219.073 313.736 219.073 309.101V282.121ZM1606.55 277.913C1610.56 275.597 1613.81 277.478 1613.81 282.113V309.093C1613.81 313.728 1610.56 319.364 1606.55 321.68L1583.21 335.157C1579.2 337.473 1575.94 335.592 1575.94 330.956V303.978C1575.94 299.342 1579.2 293.706 1583.21 291.391L1606.55 277.913ZM130.727 282.112C130.727 277.477 133.978 275.596 137.989 277.911L161.333 291.389C165.344 293.704 168.596 299.34 168.596 303.976V330.955C168.596 335.591 165.344 337.471 161.333 335.155L137.989 321.678C133.978 319.362 130.727 313.726 130.727 309.091V282.112ZM306.23 282.084C306.231 277.448 309.482 275.568 313.493 277.884L336.837 291.361C340.848 293.677 344.1 299.313 344.1 303.948V330.927C344.1 335.562 340.848 337.444 336.837 335.128L313.493 321.65C309.482 319.335 306.231 313.699 306.23 309.063V282.084ZM1431.05 277.878C1435.06 275.562 1438.32 277.442 1438.32 282.078V309.058C1438.32 313.693 1435.06 319.328 1431.05 321.644L1407.71 335.122C1403.7 337.438 1400.45 335.557 1400.45 330.921V303.941C1400.45 299.306 1403.7 293.671 1407.71 291.355L1431.05 277.878ZM1519.4 277.868C1523.41 275.552 1526.66 277.434 1526.66 282.069V309.048C1526.66 313.683 1523.41 319.319 1519.4 321.635L1496.05 335.112C1492.04 337.428 1488.79 335.548 1488.79 330.912V303.933C1488.79 299.297 1492.04 293.661 1496.05 291.346L1519.4 277.868ZM481.728 282.049C481.728 277.413 484.979 275.533 488.99 277.849L512.334 291.326C516.345 293.642 519.596 299.277 519.597 303.912V330.892C519.597 335.527 516.345 337.409 512.334 335.093L488.99 321.614C484.979 319.298 481.728 313.664 481.728 309.028V282.049ZM393.382 282.04C393.382 277.404 396.634 275.523 400.645 277.839L423.988 291.316C427.999 293.632 431.251 299.268 431.251 303.903V330.883C431.251 335.518 427.999 337.399 423.988 335.083L400.645 321.605C396.634 319.29 393.382 313.654 393.382 309.019V282.04ZM1912.73 252.837C1916.74 250.521 1919.99 252.402 1919.99 257.037V284.017C1919.99 288.652 1916.74 294.287 1912.73 296.603L1889.38 310.081C1885.37 312.397 1882.12 310.516 1882.12 305.88V278.901C1882.12 274.266 1885.37 268.63 1889.38 266.314L1912.73 252.837ZM1737.23 252.802C1741.24 250.486 1744.49 252.366 1744.49 257.002V283.981C1744.49 288.617 1741.24 294.252 1737.23 296.567L1713.88 310.045C1709.87 312.361 1706.62 310.48 1706.62 305.845V278.865C1706.62 274.23 1709.87 268.595 1713.88 266.279L1737.23 252.802ZM0 256.998C2.29648e-05 252.362 3.25169 250.482 7.2627 252.798L30.6064 266.275C34.6175 268.591 37.8691 274.227 37.8691 278.862V305.841C37.8691 310.476 34.6175 312.358 30.6064 310.042L7.2627 296.563C3.25179 294.248 7.6924e-05 288.613 0 283.978V256.998ZM1825.57 252.792C1829.59 250.476 1832.84 252.357 1832.84 256.992V283.972C1832.84 288.607 1829.59 294.243 1825.57 296.559L1802.23 310.036C1798.22 312.352 1794.97 310.471 1794.97 305.836V278.856C1794.97 274.221 1798.22 268.585 1802.23 266.27L1825.57 252.792ZM175.497 256.963C175.497 252.327 178.749 250.447 182.76 252.763L206.104 266.24C210.114 268.556 213.366 274.191 213.366 278.826V305.806C213.366 310.441 210.115 312.322 206.104 310.006L182.76 296.528C178.749 294.213 175.497 288.578 175.497 283.942V256.963ZM1650.08 252.757C1654.09 250.441 1657.34 252.322 1657.34 256.957V283.937C1657.34 288.572 1654.09 294.208 1650.08 296.523L1626.73 310.001C1622.72 312.317 1619.47 310.435 1619.47 305.8V278.821C1619.47 274.186 1622.72 268.55 1626.73 266.234L1650.08 252.757ZM87.1514 256.953C87.1516 252.318 90.4032 250.437 94.4141 252.753L117.758 266.23C121.769 268.546 125.02 274.182 125.021 278.817V305.797C125.02 310.432 121.769 312.313 117.758 309.997L94.4141 296.52C90.403 294.204 87.1514 288.568 87.1514 283.933V256.953ZM262.648 256.918C262.649 252.282 265.9 250.402 269.911 252.718L293.255 266.195C297.266 268.511 300.518 274.147 300.518 278.782V305.761C300.518 310.396 297.266 312.278 293.255 309.962L269.911 296.484C265.9 294.169 262.648 288.533 262.648 283.897V256.918ZM1562.97 252.71C1566.99 250.394 1570.24 252.275 1570.24 256.91V283.89C1570.24 288.525 1566.99 294.161 1562.97 296.477L1539.63 309.954C1535.62 312.27 1532.37 310.389 1532.37 305.754V278.774C1532.37 274.139 1535.62 268.503 1539.63 266.187L1562.97 252.71ZM349.806 256.881C349.806 252.245 353.057 250.365 357.068 252.681L380.413 266.158C384.424 268.474 387.676 274.11 387.676 278.745V305.725C387.676 310.36 384.424 312.24 380.413 309.925L357.068 296.447C353.057 294.131 349.806 288.496 349.806 283.86V256.881ZM1475.82 252.665C1479.83 250.35 1483.09 252.231 1483.09 256.866V283.845C1483.09 288.48 1479.83 294.116 1475.82 296.432L1452.48 309.909C1448.47 312.225 1445.22 310.345 1445.22 305.709V278.729C1445.22 274.094 1448.47 268.459 1452.48 266.144L1475.82 252.665ZM436.957 256.837C436.957 252.201 440.209 250.32 444.22 252.636L467.563 266.114C471.574 268.43 474.826 274.065 474.826 278.7V305.68C474.826 310.315 471.574 312.196 467.563 309.88L444.22 296.402C440.209 294.087 436.957 288.451 436.957 283.815V256.837ZM1869.15 227.634C1873.16 225.318 1876.41 227.199 1876.41 231.834V258.813C1876.41 263.449 1873.16 269.085 1869.15 271.4L1845.81 284.878C1841.79 287.193 1838.54 285.313 1838.54 280.678V253.698C1838.54 249.063 1841.79 243.427 1845.81 241.111L1869.15 227.634ZM1693.65 227.599C1697.66 225.283 1700.92 227.163 1700.92 231.799V258.778C1700.91 263.414 1697.66 269.049 1693.65 271.365L1670.31 284.843C1666.3 287.158 1663.05 285.277 1663.05 280.642V253.663C1663.05 249.028 1666.3 243.392 1670.31 241.076L1693.65 227.599ZM43.5752 231.795C43.5753 227.16 46.827 225.279 50.8379 227.595L74.1826 241.072C78.1935 243.388 81.4453 249.024 81.4453 253.659V280.639C81.4452 285.274 78.1934 287.154 74.1826 284.839L50.8379 271.361C46.8269 269.046 43.5752 263.41 43.5752 258.774V231.795ZM1782 227.589C1786.01 225.273 1789.26 227.155 1789.26 231.79V258.769C1789.26 263.404 1786.01 269.04 1782 271.355L1758.66 284.833C1754.64 287.149 1751.39 285.268 1751.39 280.633V253.653C1751.39 249.018 1754.64 243.383 1758.66 241.067L1782 227.589ZM219.073 231.76C219.073 227.124 222.324 225.244 226.335 227.56L249.68 241.037C253.691 243.353 256.942 248.988 256.942 253.624V280.603C256.942 285.238 253.691 287.119 249.68 284.804L226.335 271.326C222.324 269.01 219.073 263.375 219.073 258.739V231.76ZM1606.55 227.552C1610.56 225.236 1613.81 227.116 1613.81 231.752V258.731C1613.81 263.367 1610.56 269.003 1606.55 271.318L1583.21 284.796C1579.2 287.112 1575.94 285.23 1575.94 280.595V253.616C1575.94 248.981 1579.2 243.345 1583.21 241.029L1606.55 227.552ZM130.727 231.751C130.727 227.115 133.978 225.234 137.989 227.55L161.333 241.028C165.344 243.344 168.596 248.979 168.596 253.614V280.594C168.596 285.229 165.344 287.11 161.333 284.794L137.989 271.316C133.978 269.001 130.727 263.365 130.727 258.729V231.751ZM306.23 231.723C306.231 227.087 309.482 225.207 313.493 227.522L336.837 241C340.848 243.316 344.1 248.951 344.1 253.587V280.565C344.1 285.201 340.848 287.082 336.837 284.767L313.493 271.289C309.482 268.973 306.231 263.338 306.23 258.702V231.723ZM1519.4 227.507C1523.41 225.191 1526.66 227.072 1526.66 231.708V258.687C1526.66 263.322 1523.41 268.958 1519.4 271.273L1496.05 284.751C1492.04 287.067 1488.79 285.186 1488.79 280.551V253.571C1488.79 248.936 1492.04 243.3 1496.05 240.984L1519.4 227.507ZM393.382 231.679C393.382 227.043 396.634 225.162 400.645 227.478L423.988 240.955C427.999 243.271 431.251 248.906 431.251 253.542V280.521C431.251 285.157 427.999 287.037 423.988 284.722L400.645 271.244C396.634 268.928 393.382 263.293 393.382 258.657V231.679ZM1912.73 202.476C1916.74 200.16 1919.99 202.04 1919.99 206.676V233.655C1919.99 238.291 1916.74 243.926 1912.73 246.242L1889.38 259.72C1885.37 262.035 1882.12 260.154 1882.12 255.519V228.54C1882.12 223.904 1885.37 218.269 1889.38 215.953L1912.73 202.476ZM1737.23 202.44C1741.24 200.125 1744.49 202.005 1744.49 206.641V233.62C1744.49 238.256 1741.24 243.89 1737.23 246.206L1713.88 259.685C1709.87 262 1706.62 260.119 1706.62 255.483V228.504C1706.62 223.868 1709.87 218.234 1713.88 215.918L1737.23 202.44ZM0 206.637C3.01001e-05 202.001 3.2517 200.121 7.2627 202.437L30.6064 215.914C34.6175 218.23 37.8691 223.865 37.8691 228.501V255.479C37.8691 260.115 34.6175 261.996 30.6064 259.681L7.2627 246.203C3.25172 243.887 6.97901e-05 238.252 0 233.616V206.637ZM1825.57 202.431C1829.59 200.115 1832.84 201.996 1832.84 206.632V233.61C1832.84 238.246 1829.59 243.882 1825.57 246.197L1802.23 259.675C1798.22 261.991 1794.97 260.11 1794.97 255.475V228.495C1794.97 223.859 1798.22 218.224 1802.23 215.908L1825.57 202.431ZM175.497 206.602C175.497 201.966 178.749 200.086 182.76 202.401L206.104 215.879C210.114 218.195 213.366 223.829 213.366 228.465V255.444C213.366 260.08 210.115 261.961 206.104 259.646L182.76 246.167C178.749 243.851 175.497 238.217 175.497 233.581V206.602ZM1650.08 202.396C1654.09 200.08 1657.34 201.96 1657.34 206.596V233.575C1657.34 238.211 1654.09 243.846 1650.08 246.162L1626.73 259.64C1622.72 261.955 1619.47 260.074 1619.47 255.438V228.46C1619.47 223.824 1622.72 218.189 1626.73 215.873L1650.08 202.396ZM87.1514 206.593C87.1514 201.957 90.403 200.076 94.4141 202.392L117.758 215.869C121.769 218.185 125.02 223.82 125.021 228.456V255.436C125.02 260.071 121.769 261.951 117.758 259.636L94.4141 246.158C90.403 243.842 87.1514 238.207 87.1514 233.571V206.593ZM262.648 206.557C262.649 201.921 265.9 200.041 269.911 202.356L293.255 215.834C297.266 218.15 300.518 223.785 300.518 228.421V255.399C300.518 260.035 297.266 261.916 293.255 259.601L269.911 246.123C265.9 243.807 262.648 238.172 262.648 233.536V206.557ZM1562.97 202.349C1566.99 200.033 1570.24 201.913 1570.24 206.549V233.528C1570.24 238.164 1566.99 243.799 1562.97 246.115L1539.63 259.593C1535.62 261.908 1532.37 260.028 1532.37 255.393V228.413C1532.37 223.778 1535.62 218.142 1539.63 215.826L1562.97 202.349ZM349.806 206.52C349.806 201.884 353.058 200.004 357.068 202.319L380.413 215.797C384.424 218.113 387.676 223.748 387.676 228.384V255.363C387.676 259.999 384.424 261.879 380.413 259.563L357.068 246.086C353.057 243.77 349.806 238.135 349.806 233.499V206.52ZM1869.15 177.272C1873.16 174.957 1876.41 176.837 1876.41 181.473V208.452C1876.41 213.088 1873.16 218.723 1869.15 221.039L1845.81 234.517C1841.79 236.832 1838.54 234.952 1838.54 230.316V203.337C1838.54 198.701 1841.79 193.066 1845.81 190.75L1869.15 177.272ZM1693.65 177.237C1697.66 174.922 1700.92 176.802 1700.92 181.437V208.417C1700.91 213.053 1697.66 218.688 1693.65 221.004L1670.31 234.481C1666.3 236.797 1663.05 234.916 1663.05 230.28V203.302C1663.05 198.666 1666.3 193.031 1670.31 190.715L1693.65 177.237ZM43.5752 181.434C43.5753 176.798 46.827 174.918 50.8379 177.233L74.1826 190.711C78.1935 193.027 81.4453 198.662 81.4453 203.298V230.277C81.4452 234.913 78.1934 236.793 74.1826 234.478L50.8379 221C46.8269 218.684 43.5752 213.049 43.5752 208.413V181.434ZM1782 177.228C1786.01 174.912 1789.26 176.793 1789.26 181.429V208.407C1789.26 213.043 1786.01 218.678 1782 220.994L1758.66 234.472C1754.64 236.787 1751.39 234.907 1751.39 230.271V203.292C1751.39 198.656 1754.64 193.022 1758.66 190.706L1782 177.228ZM219.073 181.398C219.073 176.763 222.324 174.883 226.335 177.198L249.68 190.676C253.691 192.992 256.942 198.627 256.942 203.263V230.241C256.942 234.877 253.691 236.758 249.68 234.442L226.335 220.965C222.324 218.649 219.073 213.013 219.073 208.378V181.398ZM1606.55 177.19C1610.56 174.875 1613.81 176.755 1613.81 181.391V208.37C1613.81 213.006 1610.56 218.641 1606.55 220.957L1583.21 234.435C1579.2 236.75 1575.94 234.869 1575.94 230.233V203.255C1575.94 198.619 1579.2 192.984 1583.21 190.668L1606.55 177.19ZM130.727 181.39C130.727 176.754 133.978 174.873 137.989 177.188L161.333 190.667C165.344 192.983 168.596 198.617 168.596 203.253V230.232C168.596 234.868 165.344 236.748 161.333 234.433L137.989 220.955C133.978 218.639 130.727 213.004 130.727 208.368V181.39ZM306.23 181.361C306.231 176.726 309.482 174.845 313.493 177.161L336.837 190.639C340.848 192.954 344.1 198.59 344.1 203.226V230.204C344.1 234.84 340.848 236.721 336.837 234.405L313.493 220.928C309.482 218.612 306.231 212.976 306.23 208.341V181.361ZM1912.73 152.114C1916.74 149.799 1919.99 151.679 1919.99 156.314V183.294C1919.99 187.93 1916.74 193.565 1912.73 195.881L1889.38 209.358C1885.37 211.674 1882.12 209.793 1882.12 205.157V178.179C1882.12 173.543 1885.37 167.908 1889.38 165.592L1912.73 152.114ZM1737.23 152.079C1741.24 149.763 1744.49 151.644 1744.49 156.279V183.259C1744.49 187.894 1741.24 193.529 1737.23 195.845L1713.88 209.323C1709.87 211.639 1706.62 209.758 1706.62 205.122V178.143C1706.62 173.507 1709.87 167.872 1713.88 165.557L1737.23 152.079ZM0 156.275C3.72353e-05 151.64 3.2517 149.759 7.2627 152.075L30.6064 165.553C34.6175 167.868 37.8691 173.504 37.8691 178.14V205.118C37.8691 209.754 34.6175 211.635 30.6064 209.319L7.2627 195.842C3.25172 193.526 6.26552e-05 187.89 0 183.255V156.275ZM1825.57 152.069C1829.59 149.754 1832.84 151.635 1832.84 156.271V183.249C1832.84 187.885 1829.59 193.52 1825.57 195.836L1802.23 209.313C1798.22 211.629 1794.97 209.749 1794.97 205.113V178.134C1794.97 173.498 1798.22 167.863 1802.23 165.547L1825.57 152.069ZM175.497 156.24C175.497 151.605 178.749 149.724 182.76 152.04L206.104 165.518C210.114 167.833 213.366 173.468 213.366 178.104V205.083C213.366 209.719 210.115 211.6 206.104 209.284L182.76 195.806C178.749 193.49 175.497 187.855 175.497 183.22V156.24ZM1650.08 152.034C1654.09 149.718 1657.34 151.599 1657.34 156.234V183.214C1657.34 187.849 1654.09 193.485 1650.08 195.801L1626.73 209.278C1622.72 211.594 1619.47 209.713 1619.47 205.077V178.099C1619.47 173.463 1622.72 167.827 1626.73 165.512L1650.08 152.034ZM87.1514 156.231C87.1514 151.596 90.403 149.715 94.4141 152.03L117.758 165.508C121.769 167.824 125.02 173.459 125.021 178.095V205.074C125.02 209.71 121.769 211.59 117.758 209.274L94.4141 195.797C90.403 193.481 87.1514 187.846 87.1514 183.21V156.231ZM262.648 156.195C262.649 151.56 265.9 149.679 269.911 151.995L293.255 165.473C297.266 167.788 300.518 173.424 300.518 178.06V205.038C300.518 209.674 297.266 211.555 293.255 209.239L269.911 195.762C265.9 193.446 262.648 187.81 262.648 183.175V156.195ZM1869.15 126.911C1873.16 124.596 1876.41 126.476 1876.41 131.111V158.091C1876.41 162.726 1873.16 168.362 1869.15 170.678L1845.81 184.155C1841.79 186.471 1838.54 184.59 1838.54 179.955V152.976C1838.54 148.34 1841.79 142.705 1845.81 140.389L1869.15 126.911ZM1693.65 126.876C1697.66 124.56 1700.92 126.441 1700.92 131.076V158.056C1700.91 162.691 1697.66 168.327 1693.65 170.643L1670.31 184.12C1666.3 186.436 1663.05 184.554 1663.05 179.919V152.94C1663.05 148.305 1666.3 142.669 1670.31 140.354L1693.65 126.876ZM43.5752 131.072C43.5753 126.437 46.827 124.556 50.8379 126.872L74.1826 140.35C78.1935 142.665 81.4453 148.301 81.4453 152.937V179.916C81.4452 184.551 78.1934 186.432 74.1826 184.116L50.8379 170.639C46.8269 168.323 43.5752 162.687 43.5752 158.052V131.072ZM1782 126.866C1786.01 124.551 1789.26 126.432 1789.26 131.067V158.046C1789.26 162.681 1786.01 168.317 1782 170.633L1758.66 184.11C1754.64 186.426 1751.39 184.546 1751.39 179.91V152.931C1751.39 148.295 1754.64 142.66 1758.66 140.345L1782 126.866ZM219.073 131.037C219.073 126.402 222.324 124.521 226.335 126.837L249.68 140.314C253.691 142.63 256.942 148.266 256.942 152.901V179.88C256.942 184.515 253.691 186.397 249.68 184.081L226.335 170.604C222.324 168.288 219.073 162.652 219.073 158.017V131.037ZM130.727 131.028C130.727 126.393 133.978 124.512 137.989 126.827L161.333 140.306C165.344 142.621 168.596 148.256 168.596 152.892V179.871C168.596 184.507 165.344 186.387 161.333 184.071L137.989 170.594C133.978 168.278 130.727 162.642 130.727 158.007V131.028ZM1912.73 101.753C1916.74 99.4372 1919.99 101.318 1919.99 105.953V132.933C1919.99 137.568 1916.74 143.204 1912.73 145.52L1889.38 158.997C1885.37 161.313 1882.12 159.432 1882.12 154.796V127.817C1882.12 123.182 1885.37 117.546 1889.38 115.23L1912.73 101.753ZM1737.23 101.718C1741.24 99.402 1744.49 101.282 1744.49 105.918V132.897C1744.49 137.533 1741.24 143.168 1737.23 145.483L1713.88 158.962C1709.87 161.278 1706.62 159.396 1706.62 154.761V127.781C1706.62 123.146 1709.87 117.511 1713.88 115.195L1737.23 101.718ZM0 105.914C4.08029e-05 101.278 3.2517 99.3981 7.2627 101.714L30.6064 115.191C34.6175 117.507 37.8691 123.143 37.8691 127.778V154.757C37.8691 159.392 34.6175 161.274 30.6064 158.958L7.2627 145.48C3.25172 143.165 6.26552e-05 137.529 0 132.894V105.914ZM1825.57 101.708C1829.59 99.3923 1832.84 101.274 1832.84 105.909V132.888C1832.84 137.523 1829.59 143.159 1825.57 145.475L1802.23 158.952C1798.22 161.268 1794.97 159.387 1794.97 154.752V127.772C1794.97 123.137 1798.22 117.501 1802.23 115.186L1825.57 101.708ZM175.497 105.879C175.497 101.243 178.749 99.363 182.76 101.679L206.104 115.156C210.114 117.472 213.366 123.107 213.366 127.742V154.722C213.366 159.357 210.115 161.239 206.104 158.923L182.76 145.444C178.749 143.129 175.497 137.494 175.497 132.858V105.879ZM87.1514 105.87C87.1514 101.234 90.4031 99.3532 94.4141 101.669L117.758 115.146C121.769 117.462 125.02 123.098 125.021 127.733V154.713C125.02 159.348 121.769 161.229 117.758 158.913L94.4141 145.436C90.403 143.12 87.1514 137.484 87.1514 132.849V105.87ZM1869.15 76.5498C1873.16 74.2342 1876.41 76.1146 1876.41 80.75V107.729C1876.41 112.365 1873.16 118.001 1869.15 120.316L1845.81 133.794C1841.79 136.109 1838.54 134.229 1838.54 129.594V102.614C1838.54 97.9787 1841.79 92.3432 1845.81 90.0273L1869.15 76.5498ZM43.5752 80.7109C43.5753 76.0756 46.827 74.1952 50.8379 76.5107L74.1826 89.9883C78.1935 92.3041 81.4453 97.9396 81.4453 102.575V129.555C81.4452 134.19 78.1934 136.07 74.1826 133.755L50.8379 120.277C46.8269 117.962 43.5752 112.326 43.5752 107.69V80.7109ZM1782 76.5049C1786.01 74.1894 1789.26 76.0705 1789.26 80.7061V107.685C1789.26 112.32 1786.01 117.956 1782 120.271L1758.66 133.749C1754.64 136.065 1751.39 134.184 1751.39 129.549V102.569C1751.39 97.9338 1754.64 92.2991 1758.66 89.9834L1782 76.5049ZM130.727 80.667C130.727 76.0315 133.978 74.1503 137.989 76.4658L161.333 89.9443C165.344 92.2601 168.596 97.8947 168.596 102.53V129.51C168.596 134.145 165.344 136.026 161.333 133.71L137.989 120.232C133.978 117.917 130.727 112.281 130.727 107.646V80.667ZM1912.73 51.3916C1916.74 49.0759 1919.99 50.9562 1919.99 55.5918V82.5713C1919.99 87.2069 1916.74 92.8425 1912.73 95.1582L1889.38 108.636C1885.37 110.952 1882.12 109.07 1882.12 104.435V77.4561C1882.12 72.8204 1885.37 67.1849 1889.38 64.8691L1912.73 51.3916ZM0 55.5527C4.25867e-05 50.9172 3.25171 49.0368 7.2627 51.3525L30.6064 64.8301C34.6175 67.1458 37.8691 72.7814 37.8691 77.417V104.396C37.8691 109.031 34.6175 110.912 30.6064 108.597L7.2627 95.1191C3.25171 92.8034 4.83855e-05 87.1678 0 82.5322V55.5527ZM1825.57 51.3467C1829.59 49.0309 1832.84 50.9122 1832.84 55.5479V82.5264C1832.84 87.162 1829.59 92.7975 1825.57 95.1133L1802.23 108.591C1798.22 110.907 1794.97 109.026 1794.97 104.391V77.4111C1794.97 72.7755 1798.22 67.14 1802.23 64.8242L1825.57 51.3467ZM87.1514 55.5088C87.1514 50.8732 90.4031 48.9919 94.4141 51.3076L117.758 64.7852C121.769 67.1009 125.02 72.7365 125.021 77.3721V104.352C125.02 108.987 121.769 110.867 117.758 108.552L94.4141 95.0742C90.403 92.7585 87.1514 87.1229 87.1514 82.4873V55.5088ZM1869.15 26.1885C1873.16 23.8729 1876.41 25.7533 1876.41 30.3887V57.3682C1876.41 62.0038 1873.16 67.6393 1869.15 69.9551L1845.81 83.4326C1841.79 85.7481 1838.54 83.8677 1838.54 79.2324V52.2529C1838.54 47.6174 1841.79 41.9818 1845.81 39.666L1869.15 26.1885ZM43.5752 30.3496C43.5753 25.7143 46.827 23.8339 50.8379 26.1494L74.1826 39.627C78.1935 41.9428 81.4453 47.5783 81.4453 52.2139V79.1934C81.4452 83.8287 78.1934 85.709 74.1826 83.3936L50.8379 69.916C46.8269 67.6002 43.5752 61.9647 43.5752 57.3291V30.3496ZM1912.73 1.03027C1916.74 -1.28546 1919.99 0.594937 1919.99 5.23047V32.21C1919.99 36.8456 1916.74 42.4811 1912.73 44.7969L1889.38 58.2744C1885.37 60.5902 1882.12 58.7089 1882.12 54.0732V27.0947C1882.12 22.4591 1885.37 16.8236 1889.38 14.5078L1912.73 1.03027ZM0 5.19141C6.33233e-05 0.555874 3.25172 -1.32453 7.2627 0.991211L30.6064 14.4687C34.6175 16.7845 37.8691 22.42 37.8691 27.0557V54.0342C37.8691 58.6698 34.6175 60.5511 30.6064 58.2354L7.2627 44.7578C3.25171 42.4421 4.4818e-05 36.8065 0 32.1709V5.19141Z" fill="url(#paint0_linear_0_966)"/>
</g>
<defs>
<linearGradient id="paint0_linear_0_966" x1="934.695" y1="958.318" x2="927.435" y2="384.84" gradientUnits="userSpaceOnUse">
<stop stop-color="#FEFEFE" stop-opacity="0.6"/>
<stop offset="0.758095" stop-color="#FFFDFD"/>
<stop offset="1" stop-color="#FEFEFE" stop-opacity="0.6"/>
</linearGradient>
</defs>
</svg>
