<svg width="388" height="389" viewBox="0 0 388 389" fill="none" xmlns="http://www.w3.org/2000/svg">
<path d="M165.026 197.179C180.848 188.011 206.501 188.011 222.323 197.179C224.91 198.678 227.844 199.467 230.83 199.467H331.904C349.627 199.467 363.994 213.886 363.994 231.673V287.87C364.059 288.637 364.059 289.405 363.994 290.172V290.686C363.994 290.704 363.981 290.72 363.963 290.724C363.947 290.727 363.934 290.74 363.932 290.757C363.244 296.174 359.325 301.479 352.176 305.622L222.323 380.864C206.501 390.032 180.848 390.032 165.026 380.864L35.1731 305.622C27.5825 301.223 23.634 295.514 23.3264 289.752C23.3258 289.74 23.3173 289.73 23.3058 289.728C23.2938 289.725 23.2852 289.715 23.2852 289.703V231.673C23.2852 213.886 37.6524 199.467 55.3752 199.467H156.519C159.506 199.467 162.44 198.678 165.026 197.179Z" fill="url(#paint0_linear_687_2234)" stroke="#C8E6D0" stroke-width="2"/>
<rect width="224.011" height="224.011" rx="48.1699" transform="matrix(0.866025 0.5 -0.866025 0.5 194 114.183)" fill="url(#paint1_linear_687_2234)" stroke="#C8E6D0" stroke-width="2"/>
<path d="M165.026 141.871C180.848 132.703 206.501 132.703 222.323 141.871C224.91 143.369 227.844 144.159 230.83 144.159H331.904C349.627 144.159 363.994 158.578 363.994 176.365V232.562C364.059 233.329 364.059 234.097 363.994 234.864V235.378C363.994 235.396 363.981 235.412 363.963 235.416C363.947 235.419 363.934 235.432 363.932 235.449C363.244 240.866 359.325 246.171 352.176 250.314L222.323 325.556C206.501 334.724 180.848 334.724 165.026 325.556L35.1731 250.314C27.5825 245.915 23.634 240.206 23.3264 234.443C23.3258 234.432 23.3173 234.422 23.3058 234.42C23.2938 234.417 23.2852 234.407 23.2852 234.395V176.365C23.2852 158.578 37.6524 144.159 55.3752 144.159H156.519C159.506 144.159 162.44 143.369 165.026 141.871Z" fill="url(#paint2_linear_687_2234)" stroke="#C8E6D0" stroke-width="2"/>
<rect width="224.011" height="224.011" rx="48.1699" transform="matrix(0.866025 0.5 -0.866025 0.5 194 58.8749)" fill="url(#paint3_linear_687_2234)" stroke="#C8E6D0" stroke-width="2"/>
<path d="M165.026 82.9957C180.848 73.8277 206.501 73.8277 222.323 82.9957C224.909 84.4945 227.843 85.2835 230.83 85.2835H331.904C349.627 85.2835 363.994 99.7028 363.994 117.49V173.687C364.058 174.454 364.058 175.222 363.994 175.989V176.503C363.994 176.521 363.981 176.537 363.963 176.541C363.946 176.544 363.934 176.557 363.932 176.574C363.243 181.991 359.325 187.296 352.176 191.439L222.323 266.681C206.501 275.849 180.848 275.849 165.026 266.681L35.1726 191.439C27.582 187.04 23.6335 181.331 23.326 175.568C23.3253 175.557 23.3168 175.547 23.3053 175.545C23.2933 175.542 23.2847 175.532 23.2847 175.52V117.49C23.2847 99.7028 37.6519 85.2835 55.3747 85.2835H156.519C159.505 85.2835 162.439 84.4945 165.026 82.9957Z" fill="url(#paint4_linear_687_2234)" stroke="#C8E6D0" stroke-width="2"/>
<rect width="224.011" height="224.011" rx="48.1699" transform="matrix(0.866025 0.5 -0.866025 0.5 194 0)" fill="url(#paint5_linear_687_2234)" stroke="#C8E6D0" stroke-width="2"/>
<defs>
<linearGradient id="paint0_linear_687_2234" x1="33.9896" y1="268.505" x2="193.664" y2="387.74" gradientUnits="userSpaceOnUse">
<stop stop-color="#FFEEED"/>
<stop offset="1" stop-color="#FFFDF3"/>
</linearGradient>
<linearGradient id="paint1_linear_687_2234" x1="112.005" y1="0" x2="112.005" y2="224.011" gradientUnits="userSpaceOnUse">
<stop stop-color="#FFEEED"/>
<stop offset="1" stop-color="#FFFDF3"/>
</linearGradient>
<linearGradient id="paint2_linear_687_2234" x1="33.9896" y1="213.196" x2="193.664" y2="332.432" gradientUnits="userSpaceOnUse">
<stop stop-color="#FFEEED"/>
<stop offset="1" stop-color="#FFFDF3"/>
</linearGradient>
<linearGradient id="paint3_linear_687_2234" x1="112.005" y1="0" x2="112.005" y2="224.011" gradientUnits="userSpaceOnUse">
<stop stop-color="#FFEEED"/>
<stop offset="1" stop-color="#FFFDF3"/>
</linearGradient>
<linearGradient id="paint4_linear_687_2234" x1="33.9891" y1="154.321" x2="193.663" y2="273.557" gradientUnits="userSpaceOnUse">
<stop stop-color="#FFEEED"/>
<stop offset="1" stop-color="#FFFDF3"/>
</linearGradient>
<linearGradient id="paint5_linear_687_2234" x1="112.005" y1="0" x2="112.005" y2="224.011" gradientUnits="userSpaceOnUse">
<stop stop-color="#FFEEED"/>
<stop offset="1" stop-color="#FFFDF3"/>
</linearGradient>
</defs>
</svg>
