<svg width="256" height="332" viewBox="0 0 256 332" fill="none" xmlns="http://www.w3.org/2000/svg">
<path d="M128.087 172.596C127.746 172.102 121.022 159.173 120.872 158.628L101.43 167.423L108.315 180.358C107.72 181.286 107.286 182.145 106.885 183.192C105.778 186.082 106.876 190.552 109.559 192.366C110.911 193.278 112.805 193.418 114.474 193.193C120.028 192.443 125.276 189.668 129.271 185.777C131.114 183.981 131.968 181.723 131.425 179.179C130.977 177.076 129.309 174.371 128.087 172.596Z" fill="#39763D"/>
<path d="M122.318 158.229C121.354 158.495 120.39 158.762 119.426 159.028C120.35 161.111 121.035 162.252 121.849 163.841C123.536 167.025 125.065 169.989 126.971 173.365C128.318 175.309 129.667 177.445 130.167 179.447C130.645 181.423 129.95 183.416 128.419 184.903C124.616 188.677 119.637 191.367 114.331 192.138C112.829 192.356 111.215 192.236 110.128 191.522C107.849 189.968 106.813 186.213 107.748 183.522C108.097 182.574 108.529 181.695 109.068 180.841L109.35 180.41L109.104 179.938C106.77 175.647 104.435 171.357 102.1 167.067L101.743 168.115C106.659 165.836 111.575 163.558 116.491 161.279C118.028 160.566 119.566 159.854 121.104 159.141C120.949 158.799 120.795 158.458 120.64 158.116C119.09 158.8 117.539 159.485 115.988 160.169C111.031 162.356 106.074 164.544 101.117 166.732L100.376 167.075L100.76 167.78C103.015 172.113 105.27 176.446 107.525 180.778L107.562 179.876C106.951 180.802 106.425 181.826 106.023 182.861C104.792 186.557 105.745 190.713 108.989 193.209C110.774 194.387 112.789 194.458 114.616 194.248C120.455 193.504 125.895 190.686 130.122 186.65C132.132 184.841 133.351 181.705 132.684 178.91C132.002 176.084 130.6 173.968 129.203 171.828C127.699 168.991 126.003 165.628 124.434 162.513C123.715 161.085 122.788 159.209 122.318 158.229ZM119.426 159.028L122.318 158.229L122.093 157.443L120.64 158.116L121.104 159.141L119.426 159.028Z" fill="#185229"/>
<path d="M125.146 188.035C126.547 186.757 128.898 182.272 126.042 180.417C123.186 178.562 113.368 181.261 110.025 184.817C107.678 187.822 107.423 187.954 108.166 189.424C109.787 191.89 110.961 191.937 112.851 192.444C116.132 192.728 122.723 190.044 125.146 188.035Z" fill="#78BA68"/>
<ellipse cx="110.893" cy="184.706" rx="1.49802" ry="1.92545" transform="rotate(17.7594 110.893 184.706)" fill="#9ECF84"/>
<path d="M141.838 158.27C141.371 157.892 130.678 151.069 130.147 150.876L140.401 132.291L151.113 139.161C152.084 138.64 152.974 138.274 154.049 137.956C157.017 137.076 161.388 138.519 162.987 141.334C163.792 142.753 163.785 144.652 163.43 146.298C162.251 151.778 159.077 156.794 154.887 160.474C152.953 162.173 150.635 162.849 148.141 162.11C146.079 161.499 143.513 159.627 141.838 158.27Z" fill="#39763D"/>
<path d="M129.636 152.287C129.977 151.347 130.317 150.406 130.657 149.466C132.622 150.534 133.628 151.28 135.089 152.197C137.637 153.849 140 155.346 142.699 157.207C144.531 158.702 146.555 160.213 148.509 160.867C150.439 161.497 152.476 160.962 154.077 159.553C158.135 156.056 161.206 151.304 162.389 146.074C162.724 144.593 162.731 142.975 162.104 141.836C160.731 139.441 157.068 138.115 154.31 138.837C153.337 139.111 152.426 139.473 151.532 139.944L151.082 140.191L150.633 139.909C147.085 137.584 143.536 135.26 139.988 132.935L141.072 132.661C138.395 137.404 135.719 142.148 133.042 146.891C132.241 148.31 131.44 149.729 130.639 151.148C130.311 150.967 129.983 150.786 129.654 150.605C130.428 149.171 131.201 147.736 131.975 146.302C134.56 141.508 137.145 136.714 139.731 131.921L140.137 131.201L140.815 131.646C144.407 133.902 148 136.158 151.592 138.413L150.693 138.378C151.664 137.841 152.725 137.396 153.788 137.075C157.565 136.135 161.635 137.405 163.871 140.833C164.907 142.703 164.822 144.718 164.472 146.523C163.278 152.286 160.048 157.493 155.696 161.396C153.736 163.262 150.511 164.236 147.773 163.353C145.005 162.453 143.004 160.891 140.977 159.332C138.738 157.876 136.031 156.197 133.539 154.655C132.848 154.228 132.153 153.802 131.463 153.382C131.114 153.17 130.773 152.964 130.425 152.757C130.261 152.659 130.086 152.555 129.913 152.455C129.831 152.408 129.745 152.358 129.669 152.316C129.636 152.298 129.59 152.272 129.562 152.258C129.553 152.25 129.454 152.213 129.636 152.287ZM130.657 149.466L129.636 152.287L128.867 152L129.654 150.605L130.639 151.148L130.657 149.466Z" fill="#185229"/>
<path d="M157.455 156.539C156.072 157.837 151.418 159.832 149.79 156.84C148.162 153.849 151.616 144.27 155.422 141.214C158.6 139.107 158.751 138.864 160.159 139.718C162.491 141.526 162.447 142.7 162.806 144.623C162.834 147.917 159.646 154.279 157.455 156.539Z" fill="#78BA68"/>
<ellipse cx="1.49802" cy="1.92545" rx="1.49802" ry="1.92545" transform="matrix(0.230089 0.97317 0.97317 -0.230089 153.025 141.055)" fill="#9ECF84"/>
<path d="M115.128 165.27L105.893 174.835C104.925 175.838 103.935 176.653 102.792 177.399C100.078 179.17 96.8036 179.575 93.751 178.486C92.1109 177.902 90.7019 176.982 89.3527 175.865C87.7902 174.571 86.3623 173.322 84.9081 171.885L74.3139 161.415L67.4842 154.414L62.0083 148.438L56.4618 141.96C55.1571 140.436 54.0857 138.886 53.1813 137.105C50.9306 132.68 51.3441 127.416 54.3308 123.413C60.1043 115.675 76.8409 97.5164 83.9631 90.884L88.4095 86.7431C91.257 84.0917 95.0907 82.7969 98.9654 83.2874C101.12 83.5604 103.076 84.3548 104.937 85.4643C109.978 88.4711 122.873 98.8934 127.57 103.023L140.424 114.327C141.6 115.361 142.589 116.4 143.662 117.504C144.509 118.376 145.217 119.274 145.866 120.293C147.87 123.443 148.067 127.342 146.333 130.659C145.641 131.984 144.82 133.114 143.779 134.254L127.873 151.677L115.129 165.269L115.128 165.27Z" fill="#FFFDEA" stroke="#185229" stroke-width="2" stroke-linejoin="round"/>
<path d="M105.894 174.832L115.128 165.267L115.13 165.265L127.874 151.674L143.78 134.251C144.82 133.111 145.642 131.981 146.334 130.656C148.067 127.339 147.871 123.44 145.867 120.29C145.218 119.271 144.51 118.372 143.663 117.501C142.115 115.908 140.503 114.397 138.88 112.883L137.32 114.532L127.723 124.841C129.446 145.903 107.243 168.887 93.7519 178.483C96.8045 179.572 100.079 179.167 102.793 177.396C103.936 176.649 104.926 175.835 105.894 174.832Z" fill="#E5E1BE"/>
<path d="M99.3349 164.714C98.265 165.993 96.9484 166.934 95.2019 166.712C93.9404 166.552 92.5338 165.74 91.4653 164.921L132.992 120.408C133.856 121.441 134.727 122.875 134.952 124.113C135.272 125.877 134.448 127.23 133.233 128.388L99.3349 164.714Z" fill="#D6D2B2"/>
<path d="M91.4397 164.897C91.4397 164.897 91.4572 164.911 91.4659 164.918C92.5344 165.736 93.941 166.548 95.2025 166.709C96.9489 166.931 98.2656 165.99 99.3355 164.71L133.234 128.385C134.449 127.227 135.273 125.874 134.953 124.109C134.728 122.872 133.856 121.438 132.993 120.405" stroke="#CAC5A0" stroke-width="2" stroke-linejoin="round"/>
<path d="M133.101 125.144C132.825 123.686 132.127 122.348 130.963 121.352L91.988 163.125C93.0577 164.149 94.3614 164.783 95.8098 165.023C96.0251 165.027 96.2866 164.96 96.4138 164.817C96.5271 164.69 96.426 164.295 96.3035 164.161L95.6482 163.447L131.105 125.44C131.273 125.261 131.496 125.106 131.639 125.094C131.893 125.432 132.67 125.98 132.921 125.677C133.006 125.575 133.065 125.338 133.101 125.144Z" fill="#185229"/>
<path d="M91.9965 163.133L85.8728 169.697L84.3305 171.35C85.9789 172.888 87.6117 174.427 89.35 175.866C90.6992 176.983 92.1082 177.903 93.7483 178.488C96.8009 179.576 100.076 179.171 102.789 177.4C103.932 176.654 104.923 175.839 105.89 174.836L115.125 165.271L115.126 165.27L127.87 151.678L143.776 134.255C144.817 133.116 145.638 131.985 146.33 130.66C148.064 127.343 147.867 123.444 145.863 120.294C145.215 119.275 144.506 118.377 143.659 117.505C142.111 115.913 140.499 114.401 138.876 112.887L137.316 114.536L130.971 121.36L91.9987 163.135" stroke="#185229" stroke-width="2" stroke-linejoin="round"/>
<path d="M126.892 103.662C122.206 99.5416 109.337 89.1446 104.304 86.1468C126.892 103.662 136.428 115.501 122.993 129.902L138.157 113.648L126.892 103.662Z" fill="#E5E1BE"/>
<path d="M104.962 85.4431C109.994 88.4409 122.96 98.729 127.647 102.849L138.911 112.836L123.747 129.09" stroke="#185229" stroke-width="2" stroke-linejoin="round"/>
<path d="M74.2298 161.375L84.4932 170.32C84.4932 170.32 58.7043 137.741 57.3944 135.682C56.0845 133.623 55.3188 129.593 57.1371 126.061C63.884 112.957 81.8748 94.3687 83.7471 92.3618C71.5763 101.94 60.0943 115.69 54.3163 123.429C51.3273 127.433 50.9073 132.694 53.15 137.113C54.0511 138.89 55.1195 140.438 56.4208 141.959L61.9534 148.425L67.416 154.389L74.2298 161.375Z" fill="#E5E1BE"/>
<path d="M84.8112 171.825L74.2411 161.377L67.4273 154.391L61.9648 148.427L56.4322 141.962C55.1308 140.44 54.0625 138.893 53.1613 137.115C50.9187 132.696 51.3387 127.435 54.3277 123.431C60.5926 115.449 70.245 104.665 83.7906 91.0603" stroke="#185229" stroke-width="2" stroke-linejoin="round"/>
<path d="M105.714 142.269C105.815 142.107 107.167 141.424 108.909 139.721C110.517 137.997 110.901 136.052 111.271 136.039C111.641 136.025 111.598 138.647 109.577 140.703C107.557 142.759 105.614 142.431 105.714 142.269Z" fill="#D6D2B2"/>
<path d="M100.808 141.627C96.2311 141.58 91.9809 139.001 89.2287 135.435C88.903 135.013 88.8539 134.462 88.912 134.079C89.0084 133.453 89.4081 133.148 89.9298 132.864C95.1926 130.002 98.2422 126.454 100.6 120.935C100.941 120.136 102.108 119.834 102.848 120.366C106.685 123.131 109.535 127.614 109.728 132.423C109.932 137.502 105.882 141.681 100.809 141.628L100.808 141.627Z" fill="#185229"/>
<path d="M104.21 132.399C105.101 131.64 106.787 130.321 108.054 130.351C108.431 131.859 108.498 133.324 108.111 134.845C107.291 138.059 104.061 140.427 100.702 140.223C100.098 137.733 102.457 133.894 104.21 132.399Z" fill="#FEAAA4"/>
<path d="M102.468 125.765C101.371 128.899 98.133 132.417 95.227 134.032C93.8962 134.772 92.4022 134.726 91.2305 133.779C96.0541 131.172 99.3091 127.39 101.59 122.413C102.415 123.314 102.908 124.507 102.468 125.765Z" fill="#FEFEFE"/>
<path d="M101.302 121.243C101.362 121.103 101.521 120.957 101.771 120.893C102.003 120.834 102.229 120.869 102.389 120.969L102.421 120.99C106.108 123.646 108.808 127.932 108.99 132.469C109.177 137.111 105.485 140.927 100.854 140.892C100.846 140.892 100.837 140.892 100.829 140.892C96.5288 140.847 92.4787 138.415 89.8353 134.991L89.8352 134.99C89.6737 134.781 89.6276 134.459 89.6661 134.206C89.6909 134.046 89.7459 133.951 89.8222 133.869C89.9146 133.77 90.0579 133.669 90.2995 133.538L90.2996 133.538C95.7231 130.589 98.8835 126.905 101.302 121.243Z" stroke="#185229" stroke-width="1.50216" stroke-linejoin="round"/>
<mask id="mask0_896_157267" style="mask-type:alpha" maskUnits="userSpaceOnUse" x="88" y="94" width="27" height="26">
<path d="M105.985 118.627C106.069 118.668 94.2768 121.214 89.9198 113.558C83.8913 105.716 92.7751 81.4851 114.019 103.383C106.388 108.031 104.993 118.145 105.985 118.627Z" fill="#FE1F1F"/>
</mask>
<g mask="url(#mask0_896_157267)">
<path d="M93.9799 115.336C98.8391 119.088 105.781 118.293 109.484 113.561C113.188 108.828 112.251 101.951 107.392 98.1989C102.533 94.4472 95.5913 95.2423 91.8877 99.9747C88.184 104.707 89.1207 111.585 93.9799 115.336Z" fill="#185229"/>
<path d="M95.2573 115.275C99.7103 118.736 105.924 118.193 109.136 114.063C112.348 109.933 111.342 103.779 106.889 100.318C102.436 96.8571 96.2222 97.3997 93.0102 101.53C89.7983 105.66 90.8043 111.814 95.2573 115.275Z" fill="#FEFEFE"/>
<path d="M107.981 114.781C105.164 118.404 99.3767 118.619 95.0556 115.26C90.7345 111.902 89.5155 106.243 92.333 102.62C95.1504 98.9966 100.937 98.7821 105.258 102.14C109.58 105.499 110.799 111.158 107.981 114.781Z" fill="#185229"/>
<path d="M97.7945 114.698C100.6 116.878 104.572 116.463 106.666 113.77C108.76 111.076 108.184 107.126 105.379 104.945C102.573 102.765 98.6012 103.181 96.507 105.874C94.4127 108.567 94.9891 112.518 97.7945 114.698Z" fill="#57A053"/>
<path d="M95.4263 113.353C98.2316 115.533 102.204 115.118 104.298 112.425C106.392 109.732 105.816 105.781 103.01 103.601C100.205 101.42 96.2329 101.836 94.1387 104.529C92.0444 107.222 92.6208 111.173 95.4263 113.353Z" fill="#185229"/>
<path d="M93.805 104.123C93.5436 104.016 93.2883 104.289 93.4132 104.543L94.8976 107.553C94.9351 107.629 94.9394 107.718 94.9094 107.797L93.7455 110.881C93.6486 111.137 93.9108 111.382 94.16 111.267L97.155 109.892C97.2323 109.857 97.3207 109.855 97.3993 109.887L100.506 111.159C100.767 111.266 101.022 110.993 100.897 110.739L99.413 107.729C99.3754 107.653 99.3712 107.564 99.4011 107.485L100.565 104.402C100.662 104.145 100.4 103.9 100.151 104.015L97.1555 105.39C97.0783 105.425 96.9898 105.427 96.9113 105.395L93.805 104.123Z" fill="#FEFEFE"/>
<path d="M103.646 106.545C103.523 106.495 103.403 106.623 103.462 106.742L104.159 108.156C104.176 108.192 104.178 108.234 104.164 108.271L103.618 109.719C103.572 109.839 103.695 109.954 103.812 109.901L105.219 109.255C105.255 109.238 105.297 109.237 105.334 109.252L106.793 109.85C106.915 109.9 107.035 109.772 106.977 109.653L106.279 108.239C106.262 108.203 106.26 108.161 106.274 108.124L106.821 106.676C106.866 106.556 106.743 106.441 106.626 106.494L105.219 107.14C105.183 107.157 105.141 107.158 105.104 107.143L103.646 106.545Z" fill="#FEFEFE"/>
<path d="M99.7349 113.41C99.6911 113.392 99.6484 113.437 99.6694 113.48L100.076 114.304C100.082 114.317 100.083 114.331 100.078 114.345L99.7603 115.185C99.7442 115.228 99.788 115.269 99.8297 115.25L100.646 114.875C100.659 114.869 100.674 114.869 100.687 114.874L101.537 115.222C101.581 115.24 101.623 115.194 101.602 115.152L101.196 114.328C101.19 114.315 101.189 114.3 101.194 114.287L101.511 113.447C101.528 113.404 101.484 113.363 101.442 113.382L100.626 113.757C100.613 113.763 100.598 113.763 100.585 113.758L99.7349 113.41Z" fill="#9ECF84"/>
<path d="M103.157 103.373C103.113 103.355 103.07 103.401 103.091 103.444L103.359 103.986C103.365 103.998 103.366 104.013 103.361 104.026L103.151 104.581C103.135 104.624 103.179 104.665 103.221 104.646L103.759 104.398C103.772 104.392 103.787 104.392 103.8 104.397L104.359 104.626C104.403 104.644 104.446 104.599 104.425 104.556L104.158 104.014C104.151 104.002 104.151 103.987 104.156 103.973L104.365 103.419C104.381 103.376 104.337 103.335 104.296 103.354L103.757 103.601C103.744 103.607 103.729 103.608 103.716 103.602L103.157 103.373Z" fill="#9ECF84"/>
<path d="M106.459 111.957C106.332 112.12 106.093 112.145 105.923 112.013C105.754 111.882 105.719 111.643 105.846 111.481C105.972 111.318 106.212 111.293 106.381 111.425C106.55 111.556 106.585 111.795 106.459 111.957Z" fill="#9ECF84"/>
<path d="M98.7575 102.179C98.7231 102.503 98.4211 102.737 98.0831 102.702C97.745 102.666 97.4989 102.375 97.5334 102.051C97.5678 101.727 97.8697 101.493 98.2078 101.528C98.5458 101.563 98.792 101.855 98.7575 102.179Z" fill="#9ECF84"/>
</g>
<mask id="mask1_896_157267" style="mask-type:alpha" maskUnits="userSpaceOnUse" x="63" y="121" width="25" height="27">
<path d="M87.7475 138.176C87.7939 138.257 89.516 126.317 81.5768 122.501C73.3352 117.031 49.7787 127.573 73.0966 147.248C77.2044 139.313 87.1975 137.22 87.7475 138.176Z" fill="#FE1F1F"/>
</mask>
<g mask="url(#mask1_896_157267)">
<path d="M83.6335 126.426C87.7129 131.013 87.4011 137.993 82.9368 142.016C78.4727 146.039 71.5466 145.581 67.467 140.994C63.3875 136.407 63.6994 129.427 68.1636 125.404C72.6279 121.381 79.5539 121.839 83.6335 126.426Z" fill="#185229"/>
<path d="M83.6501 127.716C87.4114 131.919 87.3009 138.155 83.4032 141.646C79.5056 145.136 73.2968 144.559 69.5356 140.357C65.7743 136.155 65.8848 129.918 69.7825 126.428C73.6802 122.937 79.8889 123.514 83.6501 127.716Z" fill="#FEFEFE"/>
<path d="M84.0403 140.443C87.4592 137.381 87.272 131.593 83.6221 127.515C79.9723 123.438 74.2419 122.614 70.823 125.676C67.404 128.738 67.5912 134.525 71.2411 138.603C74.891 142.681 80.6214 143.505 84.0403 140.443Z" fill="#185229"/>
<path d="M83.2546 130.282C85.6242 132.929 85.4849 136.92 82.9436 139.196C80.4022 141.472 76.4211 141.171 74.0515 138.524C71.6819 135.876 71.8212 131.885 74.3626 129.609C76.9039 127.333 80.885 127.634 83.2546 130.282Z" fill="#57A053"/>
<path d="M81.7364 128.027C84.106 130.674 83.9667 134.666 81.4254 136.942C78.8839 139.217 74.9029 138.916 72.5334 136.269C70.1637 133.621 70.303 129.63 72.8444 127.354C75.3857 125.078 79.3668 125.379 81.7364 128.027Z" fill="#185229"/>
<path d="M72.4184 127.047C72.2934 126.793 72.5487 126.52 72.8101 126.627L75.9164 127.899C75.9949 127.931 76.0834 127.929 76.1606 127.894L79.1557 126.519C79.4048 126.404 79.667 126.649 79.5702 126.905L78.4063 129.989C78.3763 130.068 78.3805 130.156 78.4181 130.233L79.9025 133.243C80.0274 133.497 79.7721 133.77 79.5107 133.663L76.4045 132.391C76.3258 132.359 76.2374 132.361 76.1602 132.396L73.1651 133.771C72.9159 133.886 72.6537 133.641 72.7506 133.384L73.9146 130.301C73.9446 130.222 73.9403 130.133 73.9028 130.057L72.4184 127.047Z" fill="#FEFEFE"/>
<path d="M75.5347 136.677C75.4761 136.558 75.596 136.429 75.7187 136.48L77.1776 137.077C77.2145 137.092 77.256 137.091 77.2923 137.075L78.699 136.429C78.816 136.375 78.9392 136.49 78.8937 136.611L78.347 138.059C78.3328 138.096 78.3349 138.137 78.3526 138.173L79.0497 139.587C79.1084 139.706 78.9885 139.835 78.8657 139.784L77.4069 139.187C77.3699 139.172 77.3284 139.173 77.2921 139.189L75.8855 139.835C75.7684 139.889 75.6453 139.774 75.6908 139.654L76.2374 138.205C76.2515 138.168 76.2496 138.127 76.2319 138.091L75.5347 136.677Z" fill="#FEFEFE"/>
<path d="M82.0959 132.316C82.075 132.273 82.1178 132.228 82.1614 132.246L83.0116 132.594C83.0248 132.599 83.0396 132.599 83.0525 132.593L83.8687 132.218C83.9103 132.199 83.9542 132.24 83.938 132.283L83.6208 133.123C83.6158 133.136 83.6165 133.151 83.6227 133.164L84.0291 133.988C84.05 134.03 84.0073 134.076 83.9636 134.058L83.1133 133.71C83.1002 133.705 83.0854 133.705 83.0725 133.711L82.2563 134.085C82.2146 134.105 82.1708 134.064 82.187 134.021L82.5042 133.181C82.5092 133.167 82.5085 133.153 82.5022 133.14L82.0959 132.316Z" fill="#9ECF84"/>
<path d="M72.3199 136.428C72.299 136.386 72.3417 136.34 72.3854 136.358L72.9446 136.587C72.9578 136.592 72.9725 136.592 72.9855 136.586L73.5243 136.339C73.5659 136.319 73.6098 136.36 73.5936 136.403L73.3842 136.958C73.3792 136.971 73.3799 136.986 73.3861 136.999L73.6534 137.541C73.6743 137.583 73.6316 137.629 73.5879 137.611L73.0286 137.382C73.0155 137.376 73.0008 137.377 72.9878 137.383L72.4491 137.63C72.4074 137.649 72.3636 137.608 72.3798 137.565L72.5891 137.011C72.5941 136.997 72.5935 136.983 72.5872 136.97L72.3199 136.428Z" fill="#9ECF84"/>
<path d="M81.1184 139.119C81.2718 138.982 81.2802 138.741 81.1371 138.581C80.9941 138.421 80.7539 138.403 80.6005 138.54C80.4471 138.678 80.4387 138.919 80.5817 139.078C80.7247 139.238 80.965 139.256 81.1184 139.119Z" fill="#9ECF84"/>
<path d="M70.8298 132.114C71.1508 132.057 71.3634 131.74 71.3046 131.405C71.2459 131.07 70.9381 130.845 70.6171 130.902C70.2961 130.959 70.0835 131.276 70.1422 131.611C70.201 131.946 70.5088 132.171 70.8298 132.114Z" fill="#9ECF84"/>
</g>
<path d="M124.735 119.779C121.104 123.67 115.39 124.24 111.971 121.05C108.552 117.861 108.724 112.121 112.354 108.229C115.985 104.337 121.699 103.768 125.118 106.958C128.537 110.147 128.365 115.887 124.735 119.779Z" fill="#FEAAA4"/>
<path d="M118.128 108.64C116.975 109.005 115.868 108.751 115.655 108.074C115.442 107.397 116.204 106.553 117.358 106.189C118.511 105.825 119.618 106.078 119.831 106.755C120.044 107.432 119.281 108.276 118.128 108.64Z" fill="#FFFDEA"/>
<path d="M105.964 118.608C106.047 118.649 106.263 118.592 106.279 118.182C107.346 111.789 110.229 107.403 113.955 103.799C114.286 103.478 114.114 103.293 113.998 103.364C106.367 108.012 104.972 118.126 105.964 118.608Z" fill="#185229"/>
<path d="M89.9807 157.032C93.6113 153.14 93.7829 147.4 90.3641 144.211C86.9453 141.021 81.2308 141.59 77.6002 145.482C73.9697 149.374 73.7981 155.114 77.2169 158.303C80.6356 161.493 86.3502 160.924 89.9807 157.032Z" fill="#FEAAA4"/>
<path d="M78.4103 151.214C78.6938 150.038 78.3642 148.951 77.6741 148.786C76.984 148.621 76.1949 149.44 75.9114 150.615C75.628 151.791 75.9576 152.878 76.6477 153.044C77.3377 153.209 78.1269 152.39 78.4103 151.214Z" fill="#FFFDEA"/>
<path d="M87.7291 138.154C87.7754 138.235 87.733 138.454 87.3253 138.499C81.0221 140.006 76.8468 143.186 73.5089 147.153C73.2117 147.506 73.0158 147.347 73.0781 147.226C77.1859 139.291 87.1791 137.199 87.7291 138.154Z" fill="#185229"/>
<path d="M93.8757 93.9943C93.8898 94.5187 91.9301 95.0354 91.0897 95.3818C87.33 96.9323 87.251 99.7835 85.8389 99.4126C85.4347 99.3065 85.0959 98.8852 85.1317 98.3975C85.1637 97.9725 85.3327 97.4772 85.5959 97.0824C87.2302 94.6318 90.0332 93.1886 92.956 93.3301C93.3704 93.3503 93.8628 93.5273 93.8749 93.9936L93.8757 93.9943Z" fill="#185229"/>
<path d="M66.4338 120.875C62.519 123.802 63.2606 127.691 62.1986 127.905C61.0523 128.136 60.6362 122.648 64.6369 119.471C65.0419 119.15 65.54 118.939 66.0064 118.889C66.5699 118.829 67.1197 119.225 67.0895 119.81C67.0695 120.207 66.7659 120.628 66.4331 120.876L66.4338 120.875Z" fill="#185229"/>
<path d="M142.094 86.2093C141.31 86.5953 138.403 92.2665 137.744 92.9105C131.612 99.9205 120.949 96.9224 119.913 87.5238L119.806 86.4162C119.786 85.2297 120.148 84.3834 120.11 83.2502C120.063 81.8155 119.837 80.75 119.83 79.2983C119.827 78.4707 120.001 77.6794 120.386 76.9429C121.24 75.3129 122.831 74.6224 124.598 75.187C126.105 75.6936 126.389 77.7066 126.763 79.3834C127.495 77.7393 128.297 75.7156 128.93 74.5157C129.885 72.4545 131.386 68.3806 134.195 69.6312C137.197 70.9679 134.267 75.4319 133.356 78.3885C135.532 76.1538 138.626 71.059 141.327 72.8064C144.785 75.0443 139.194 80.1641 137.451 82.4517C139.801 81.6509 144.272 76.7431 146.509 80.1613C147.484 82.7001 144.381 85.0844 142.094 86.2093Z" fill="#78BA68"/>
<path d="M137.744 92.9105L137.179 92.4167L137.199 92.3946L137.22 92.374L137.744 92.9105ZM142.094 86.2093L141.763 85.5364L141.763 85.5363L142.094 86.2093ZM126.763 79.3834L127.448 79.6884L126.524 81.7629L126.031 79.5464L126.763 79.3834ZM124.598 75.187L124.826 74.4725L124.837 74.4761L124.598 75.187ZM120.386 76.9429L119.722 76.595L119.722 76.5948L120.386 76.9429ZM119.83 79.2983L119.08 79.3018L119.08 79.3016L119.83 79.2983ZM120.11 83.2502L119.361 83.2751L119.361 83.2749L120.11 83.2502ZM119.806 86.4162L119.059 86.4885L119.056 86.4587L119.056 86.4288L119.806 86.4162ZM119.913 87.5238L119.167 87.606L119.166 87.5961L119.913 87.5238ZM146.509 80.1613L147.137 79.7506L147.181 79.8177L147.21 79.8925L146.509 80.1613ZM137.451 82.4517L137.693 83.1616C137.38 83.268 137.035 83.1577 136.842 82.8899C136.649 82.622 136.654 82.2596 136.854 81.9971L137.451 82.4517ZM141.327 72.8064L141.734 72.1767V72.1767L141.327 72.8064ZM133.356 78.3885L133.894 78.9117C133.652 79.1599 133.272 79.2103 132.974 79.0335C132.676 78.8567 132.537 78.4988 132.639 78.1677L133.356 78.3885ZM128.93 74.5157L129.611 74.831L129.602 74.8485L129.593 74.8656L128.93 74.5157ZM137.744 92.9105L137.22 92.374C137.217 92.3764 137.223 92.3711 137.238 92.3537C137.251 92.3371 137.27 92.3141 137.292 92.2837C137.338 92.2223 137.395 92.141 137.463 92.0392C137.598 91.8355 137.762 91.5707 137.949 91.2598C138.324 90.6357 138.767 89.8654 139.225 89.0837C139.679 88.3103 140.145 87.5299 140.55 86.9157C140.752 86.6096 140.948 86.3312 141.125 86.1109C141.214 86.0009 141.306 85.8952 141.4 85.8041C141.485 85.7211 141.609 85.6123 141.763 85.5364L142.094 86.2093L142.425 86.8821C142.481 86.8545 142.491 86.8352 142.447 86.8781C142.411 86.9128 142.36 86.9691 142.293 87.0523C142.159 87.2186 141.994 87.4517 141.802 87.7415C141.421 88.3194 140.973 89.0694 140.519 89.8426C140.071 90.6074 139.614 91.3999 139.234 92.0323C139.044 92.3496 138.866 92.6365 138.713 92.8678C138.572 93.0799 138.415 93.3033 138.268 93.4469L137.744 92.9105ZM126.763 79.3834L126.031 79.5464C125.833 78.6577 125.686 77.8259 125.408 77.1216C125.136 76.4325 124.806 76.0483 124.359 75.8979L124.598 75.187L124.837 74.4761C125.897 74.8323 126.463 75.7079 126.803 76.5711C127.138 77.4191 127.319 78.4322 127.495 79.2203L126.763 79.3834ZM124.598 75.187L124.37 75.9014C123.637 75.6674 122.984 75.7043 122.441 75.9331C121.897 76.1626 121.408 76.6091 121.051 77.291L120.386 76.9429L119.722 76.5948C120.219 75.6467 120.952 74.933 121.858 74.5509C122.766 74.1681 123.792 74.142 124.826 74.4726L124.598 75.187ZM120.386 76.9429L121.051 77.2908C120.727 77.9091 120.577 78.578 120.58 79.2949L119.83 79.2983L119.08 79.3016C119.076 78.3633 119.274 77.4496 119.722 76.595L120.386 76.9429ZM119.83 79.2983L120.58 79.2947C120.583 79.9824 120.638 80.5815 120.701 81.2053C120.764 81.8248 120.835 82.4775 120.86 83.2255L120.11 83.2502L119.361 83.2749C119.338 82.5882 119.273 81.9908 119.209 81.3559C119.145 80.7253 119.084 80.0659 119.08 79.3018L119.83 79.2983ZM120.11 83.2502L120.86 83.2253C120.882 83.8758 120.787 84.4392 120.704 84.9362C120.62 85.4432 120.547 85.8878 120.556 86.4035L119.806 86.4162L119.056 86.4288C119.044 85.7581 119.142 85.1863 119.225 84.6902C119.309 84.1842 119.377 83.7578 119.361 83.2751L120.11 83.2502ZM119.913 87.5238L119.166 87.5961L119.059 86.4885L119.806 86.4162L120.552 86.3438L120.659 87.4515L119.913 87.5238ZM119.913 87.5238L120.658 87.4416C121.144 91.8447 123.862 94.6894 127.129 95.6509C130.404 96.6145 134.302 95.7067 137.179 92.4167L137.744 92.9105L138.308 93.4043C135.054 97.1243 130.555 98.2225 126.706 97.0899C122.85 95.9551 119.718 92.6015 119.167 87.606L119.913 87.5238ZM142.094 86.2093L141.763 85.5363C142.855 84.9991 144.111 84.1738 144.965 83.2164C145.826 82.2505 146.149 81.3141 145.809 80.4301L146.509 80.1613L147.21 79.8925C147.845 81.5473 147.103 83.0724 146.085 84.2146C145.059 85.3653 143.62 86.2946 142.425 86.8823L142.094 86.2093ZM146.509 80.1613L145.882 80.572C145.453 79.9167 144.981 79.7198 144.473 79.7145C143.895 79.7084 143.19 79.953 142.375 80.3865C141.57 80.815 140.759 81.3701 139.957 81.9007C139.193 82.4063 138.389 82.9242 137.693 83.1616L137.451 82.4517L137.209 81.7417C137.687 81.5788 138.324 81.1829 139.129 80.6499C139.897 80.1419 140.784 79.5336 141.67 79.0623C142.547 78.596 143.526 78.2045 144.489 78.2145C145.521 78.2254 146.447 78.6968 147.137 79.7506L146.509 80.1613ZM141.327 72.8064L140.919 73.436C140.479 73.1512 140.036 73.1304 139.514 73.3285C138.953 73.5412 138.333 74.0002 137.666 74.6439C137.006 75.28 136.354 76.0433 135.716 76.8084C135.09 77.5584 134.463 78.3266 133.894 78.9117L133.356 78.3885L132.819 77.8653C133.337 77.333 133.914 76.6264 134.564 75.8472C135.202 75.0832 135.9 74.263 136.624 73.5645C137.34 72.8735 138.136 72.2468 138.982 71.9259C139.868 71.5902 140.824 71.5879 141.734 72.1767L141.327 72.8064ZM137.451 82.4517L136.854 81.9971C137.307 81.4031 138.016 80.6163 138.708 79.8069C139.419 78.975 140.145 78.0829 140.708 77.2056C141.281 76.3125 141.627 75.5193 141.678 74.8773C141.702 74.5707 141.657 74.316 141.55 74.0979C141.445 73.8806 141.255 73.6535 140.919 73.436L141.327 72.8064L141.734 72.1767C142.263 72.5187 142.655 72.9411 142.899 73.4411C143.142 73.9402 143.214 74.4706 143.173 74.9945C143.093 76.0134 142.582 77.0627 141.971 78.0152C141.35 78.9836 140.567 79.9402 139.848 80.7816C139.11 81.6455 138.466 82.3565 138.047 82.9063L137.451 82.4517ZM133.356 78.3885L132.639 78.1677C132.88 77.3858 133.252 76.5127 133.601 75.6726C133.959 74.8129 134.3 73.9748 134.522 73.1968C134.747 72.4071 134.821 71.7721 134.724 71.2977C134.639 70.8824 134.419 70.552 133.89 70.3164L134.195 69.6312L134.5 68.946C135.472 69.3787 136.012 70.1077 136.194 70.9977C136.363 71.8287 136.21 72.7451 135.964 73.608C135.715 74.4827 135.34 75.3984 134.986 76.249C134.624 77.1192 134.287 77.9128 134.073 78.6092L133.356 78.3885ZM134.195 69.6312L133.89 70.3164C133.371 70.0852 132.969 70.1139 132.62 70.2653C132.237 70.4309 131.851 70.7741 131.466 71.2835C130.683 72.3197 130.116 73.7395 129.611 74.831L128.93 74.5157L128.25 74.2004C128.699 73.2308 129.36 71.583 130.269 70.3795C130.73 69.7691 131.305 69.1995 132.024 68.8886C132.775 68.5634 133.615 68.5518 134.5 68.946L134.195 69.6312ZM128.93 74.5157L129.593 74.8656C128.975 76.038 128.204 77.9899 127.448 79.6884L126.763 79.3834L126.078 79.0783C126.785 77.4886 127.619 75.3932 128.267 74.1657L128.93 74.5157Z" fill="#185229"/>
<path d="M120.628 87.211C120.978 91.7871 123.71 94.914 127.096 95.917C131.384 97.1871 135.99 95.2263 138.185 91.4335C139.234 89.6221 140.384 87.8309 141.28 85.9395C137.521 90.0405 133.486 96.4232 126.356 92.9718C123.26 92.3634 121.143 89.3512 120.628 87.211Z" fill="#39763D"/>
<path d="M135.333 85.0462C133.572 83.0576 129.093 82.268 127.564 83.0316" stroke="#185229" stroke-width="0.99774"/>
<path d="M135.021 94.7548C132.993 96.9103 129.11 97.5354 126.776 96.8486C123.842 95.9851 121.331 93.8026 120.115 90.5559C119.774 89.6452 120.362 88.1391 120.244 87.0664C120.855 90.0587 121.979 92.9184 126.37 92.9474C127.383 95.4853 132.347 96.6083 135.021 94.7548Z" fill="#185229"/>
<path d="M60.2403 177.927C60.5423 177.107 65.8786 173.623 66.4501 172.9C72.7808 166.069 68.6845 155.778 59.2291 155.73L58.1163 155.739C56.9343 155.843 56.1305 156.292 54.9995 156.373C53.5678 156.476 52.4845 156.362 51.04 156.507C50.2165 156.59 49.4478 156.846 48.7556 157.306C47.2238 158.326 46.7034 159.98 47.4496 161.679C48.1109 163.124 50.1426 163.197 51.8493 163.393C50.2907 164.293 48.362 165.302 47.2348 166.057C45.2848 167.222 41.39 169.141 42.9274 171.804C44.5707 174.65 48.7038 171.269 51.549 170.054C49.554 172.452 44.8106 176.062 46.8306 178.565C49.4178 181.77 53.9252 175.674 56.018 173.702C55.4673 176.123 51.0537 181.083 54.687 182.95C57.3138 183.654 59.3607 180.319 60.2403 177.927Z" fill="#78BA68"/>
<path d="M66.4501 172.9L65.9 172.39L65.88 172.412L65.8618 172.435L66.4501 172.9ZM60.2403 177.927L59.5366 177.668L59.5364 177.668L60.2403 177.927ZM51.8493 163.393L52.2243 164.043L54.1908 162.907L51.9349 162.648L51.8493 163.393ZM47.4496 161.679L46.7629 161.98L46.7676 161.991L47.4496 161.679ZM48.7556 157.306L48.3402 156.682L48.34 156.682L48.7556 157.306ZM51.04 156.507L50.9651 155.761L50.9649 155.761L51.04 156.507ZM54.9995 156.373L54.9459 155.625L54.9457 155.625L54.9995 156.373ZM58.1163 155.739L58.1102 154.989L58.0803 154.989L58.0505 154.992L58.1163 155.739ZM59.2291 155.73L59.2329 154.98L59.223 154.98L59.2291 155.73ZM54.687 182.95L54.3442 183.617L54.4155 183.654L54.4929 183.675L54.687 182.95ZM56.018 173.702L56.7493 173.868C56.8225 173.546 56.6767 173.214 56.3901 173.05C56.1036 172.887 55.7437 172.929 55.5035 173.156L56.018 173.702ZM46.8306 178.565L46.247 179.036V179.036L46.8306 178.565ZM51.549 170.054L52.1255 170.534C52.3471 170.268 52.3575 169.884 52.1505 169.606C51.9436 169.328 51.5732 169.228 51.2545 169.365L51.549 170.054ZM47.2348 166.057L47.6195 166.701L47.6361 166.691L47.6522 166.68L47.2348 166.057ZM66.4501 172.9L65.8618 172.435C65.8639 172.432 65.8592 172.438 65.8434 172.455C65.8284 172.47 65.8075 172.491 65.7795 172.517C65.7233 172.569 65.6484 172.634 65.5542 172.711C65.3658 172.867 65.1196 173.058 64.8298 173.276C64.2483 173.714 63.5287 174.235 62.7991 174.773C62.0774 175.305 61.35 175.851 60.7815 176.318C60.4982 176.55 60.2418 176.774 60.0413 176.974C59.9411 177.073 59.8456 177.176 59.7648 177.279C59.6912 177.372 59.5959 177.507 59.5366 177.668L60.2403 177.927L60.9441 178.186C60.9225 178.245 60.9043 178.256 60.9423 178.208C60.9731 178.169 61.0238 178.112 61.0996 178.037C61.2509 177.886 61.4654 177.697 61.7337 177.477C62.2686 177.037 62.9676 176.513 63.6891 175.981C64.4028 175.455 65.1433 174.918 65.7325 174.474C66.0282 174.251 66.295 174.045 66.509 173.868C66.7052 173.706 66.9109 173.526 67.0384 173.365L66.4501 172.9ZM51.8493 163.393L51.9349 162.648C51.0304 162.544 50.1878 162.485 49.4582 162.282C48.7445 162.084 48.3279 161.796 48.1317 161.367L47.4496 161.679L46.7676 161.991C47.2326 163.007 48.1625 163.479 49.0567 163.727C49.9349 163.971 50.9615 164.046 51.7637 164.138L51.8493 163.393ZM47.4496 161.679L48.1363 161.377C47.827 160.673 47.7953 160.019 47.9661 159.456C48.1375 158.89 48.5304 158.357 49.1712 157.931L48.7556 157.306L48.34 156.682C47.449 157.275 46.8159 158.079 46.5306 159.02C46.2448 159.964 46.3261 160.986 46.763 161.98L47.4496 161.679ZM48.7556 157.306L49.1711 157.931C49.7522 157.544 50.4018 157.325 51.1151 157.254L51.04 156.507L50.9649 155.761C50.0313 155.855 49.1434 156.148 48.3402 156.682L48.7556 157.306ZM51.04 156.507L51.1149 157.254C51.7991 157.185 52.4007 157.177 53.0277 157.174C53.6502 157.172 54.3069 157.175 55.0533 157.121L54.9995 156.373L54.9457 155.625C54.2604 155.674 53.6595 155.672 53.0214 155.674C52.3877 155.677 51.7254 155.685 50.9651 155.761L51.04 156.507ZM54.9995 156.373L55.0532 157.121C55.7024 157.074 56.2527 156.922 56.7384 156.787C57.2338 156.651 57.6683 156.531 58.1821 156.486L58.1163 155.739L58.0505 154.992C57.3822 155.051 56.8238 155.208 56.3391 155.342C55.8446 155.478 55.4276 155.59 54.9459 155.625L54.9995 156.373ZM59.2291 155.73L59.223 154.98L58.1102 154.989L58.1163 155.739L58.1224 156.489L59.2352 156.48L59.2291 155.73ZM59.2291 155.73L59.2253 156.48C63.655 156.502 66.7682 158.908 68.066 162.057C69.3666 165.213 68.8712 169.184 65.9 172.39L66.4501 172.9L67.0002 173.41C70.3597 169.785 70.9815 165.195 69.4528 161.486C67.9212 157.769 64.2586 155.005 59.2329 154.98L59.2291 155.73ZM60.2403 177.927L59.5364 177.668C59.1164 178.81 58.4268 180.146 57.5639 181.095C56.6934 182.052 55.7958 182.471 54.8811 182.226L54.687 182.95L54.4929 183.675C56.205 184.133 57.6442 183.236 58.6737 182.104C59.7109 180.963 60.4846 179.435 60.9442 178.186L60.2403 177.927ZM54.687 182.95L55.0299 182.283C54.3333 181.925 54.0882 181.477 54.0298 180.972C53.9633 180.397 54.1328 179.67 54.4788 178.815C54.8208 177.969 55.2881 177.105 55.732 176.252C56.155 175.439 56.586 174.586 56.7493 173.868L56.018 173.702L55.2866 173.535C55.1745 174.028 54.8474 174.703 54.4015 175.559C53.9765 176.376 53.4643 177.322 53.0882 178.252C52.7161 179.173 52.429 180.187 52.5397 181.144C52.6584 182.17 53.2241 183.041 54.3442 183.617L54.687 182.95ZM46.8306 178.565L47.4143 178.094C47.085 177.686 47.018 177.248 47.1604 176.707C47.3133 176.127 47.705 175.462 48.2754 174.731C48.8391 174.009 49.5301 173.281 50.2243 172.566C50.9046 171.865 51.6032 171.162 52.1255 170.534L51.549 170.054L50.9725 169.575C50.4973 170.146 49.8549 170.793 49.1479 171.521C48.4547 172.235 47.712 173.016 47.093 173.808C46.4807 174.593 45.9406 175.45 45.7099 176.325C45.4687 177.241 45.5663 178.192 46.247 179.036L46.8306 178.565ZM56.018 173.702L55.5035 173.156C54.96 173.668 54.2517 174.456 53.5191 175.229C52.7661 176.023 51.9548 176.838 51.1411 177.489C50.3128 178.152 49.5601 178.58 48.9269 178.697C48.6245 178.753 48.3665 178.735 48.1385 178.652C47.9113 178.57 47.6657 178.405 47.4143 178.094L46.8306 178.565L46.247 179.036C46.6423 179.526 47.1036 179.872 47.6262 180.062C48.1481 180.252 48.683 180.268 49.1998 180.172C50.2047 179.986 51.1948 179.368 52.0783 178.661C52.9764 177.942 53.8461 177.064 54.6076 176.26C55.3896 175.436 56.0295 174.721 56.5324 174.247L56.018 173.702ZM51.549 170.054L51.2545 169.365C50.5021 169.686 49.6726 170.146 48.8737 170.582C48.0561 171.028 47.2581 171.454 46.5076 171.756C45.7457 172.063 45.1219 172.202 44.64 172.156C44.2181 172.115 43.8666 171.931 43.5769 171.429L42.9274 171.804L42.2779 172.179C42.8098 173.1 43.5911 173.561 44.4953 173.649C45.3395 173.73 46.2349 173.483 47.0674 173.148C47.9112 172.808 48.7827 172.34 49.5916 171.899C50.4192 171.448 51.1733 171.03 51.8435 170.744L51.549 170.054ZM42.9274 171.804L43.5769 171.429C43.2928 170.937 43.2794 170.534 43.3933 170.171C43.518 169.773 43.819 169.353 44.2854 168.917C45.2341 168.03 46.5868 167.318 47.6195 166.701L47.2348 166.057L46.8501 165.413C45.9327 165.962 44.3631 166.791 43.2612 167.821C42.7024 168.343 42.196 168.975 41.9619 169.722C41.7171 170.504 41.7933 171.34 42.2779 172.179L42.9274 171.804ZM47.2348 166.057L47.6522 166.68C48.7535 165.943 50.6141 164.972 52.2243 164.043L51.8493 163.393L51.4743 162.744C49.9672 163.614 47.9705 164.662 46.8174 165.434L47.2348 166.057Z" fill="#185229"/>
<path d="M58.9929 156.473C63.5804 156.343 66.9759 158.733 68.3272 161.996C70.0385 166.127 68.57 170.913 65.0274 173.493C63.3356 174.725 61.6745 176.056 59.887 177.145C63.5727 172.978 69.4986 168.298 65.3208 161.568C64.3922 158.552 61.1752 156.762 58.9929 156.473Z" fill="#39763D"/>
<path d="M58.3774 171.325C56.2155 169.781 54.9621 165.409 55.5616 163.808" stroke="#185229" stroke-width="0.99774"/>
<path d="M68.0004 169.999C69.9321 167.757 70.1479 163.83 69.2209 161.581C68.0554 158.753 65.6224 156.484 62.2664 155.614C61.325 155.37 59.8886 156.112 58.8095 156.107C61.8492 156.401 64.8108 157.221 65.2986 161.585C67.9285 162.327 69.5642 167.146 68.0004 169.999Z" fill="#185229"/>
<path d="M127.087 76.8612C125.366 75.671 124.607 74.0489 124.443 73.3866L129.073 60.1562L140.403 62.6369L151.732 65.1176C152.669 71.7333 154.445 84.9647 154.048 84.9647H148.59L146.936 82.6492C146.329 82.4287 144.852 81.8223 143.793 81.1607C142.47 80.3337 141.974 81.1607 140.816 81.1607C139.659 81.1607 138.997 81.4915 137.343 81.1607C135.689 80.8299 135.028 80.6645 132.712 80.1683C130.397 79.6721 129.239 78.349 127.087 76.8612Z" fill="#498746"/>
<path d="M123.9 70.4881C124.325 71.3153 125.814 74.7657 127.444 76.1974C136.256 84.8335 146.367 76.1147 149.789 85.5593" stroke="#C8E6D0" stroke-width="2"/>

</svg>