<svg width="257" height="338" viewBox="0 0 257 338" fill="none" xmlns="http://www.w3.org/2000/svg">
<path d="M138.874 22.7227C158.007 22.7227 173.872 26.0572 186.519 32.668L186.531 32.6738L186.543 32.6797C199.521 39.0242 209.28 47.5077 215.873 58.1133L215.879 58.124C222.482 68.4584 225.781 79.788 225.781 92.1357C225.781 104.818 223.044 115.715 217.612 124.864C212.164 134.04 204.563 141.502 194.788 147.253C191.307 149.283 188.845 151.097 187.545 152.7C186.245 154.018 185.545 155.561 185.544 157.301C185.544 159.06 186.26 160.617 187.587 161.944L187.637 161.995L187.694 162.037C188.973 162.996 191.416 164.204 194.908 165.659L194.951 165.678L194.996 165.691C203.3 168.269 210.447 172.558 216.453 178.563L216.46 178.572L216.469 178.58C222.78 184.604 227.658 191.776 231.105 200.106C234.55 208.431 236.278 217.484 236.278 227.277C236.278 245.394 230.251 260.439 218.21 272.483C206.11 284.296 189.649 293.265 168.771 299.354L168.767 299.355C148.174 305.446 124.947 308.499 99.0747 308.499C84.5316 308.499 74.6039 306.451 69.0415 302.562C63.5075 298.402 60.7134 292.454 60.7134 284.57C60.7134 277.249 63.2314 271.729 68.1997 267.865L68.2134 267.855L68.2261 267.845C73.2071 263.694 82.2479 261.221 95.6196 260.64V260.641L95.6284 260.64C123.367 259.18 144.224 255.235 158.104 248.738L158.112 248.734C165.234 245.321 170.637 240.914 174.256 235.485C177.879 230.052 179.672 223.657 179.672 216.344C179.672 208.557 177.42 202.042 172.862 196.876C168.309 191.716 161.103 187.852 151.382 185.201C141.944 182.257 129.327 180.358 113.563 179.482H113.561C102.807 178.901 95.667 176.868 91.853 173.599C88.0005 170.296 86.0796 166.058 86.0796 160.8C86.0796 154.317 88.0399 149.529 91.8354 146.267C95.9696 142.964 103.151 140.799 113.59 139.929C131.163 138.464 145.033 134.797 155.125 128.86C165.309 122.87 170.488 114.397 170.488 103.507C170.488 94.4494 166.847 86.8833 159.632 80.8711C152.394 74.8391 142.221 71.8926 129.252 71.8926C121.325 71.8926 114.529 72.6257 108.882 74.1113C103.617 75.2826 98.9221 76.6028 94.8022 78.0742C90.8293 79.4931 86.7154 80.2021 82.4556 80.2021C78.222 80.2021 74.774 79.3572 72.0552 77.7314C69.6028 76.0912 67.6903 73.9112 66.313 71.1719C65.2089 68.3969 64.6499 65.33 64.6499 61.959C64.6499 55.4952 67.3792 49.3628 72.9888 43.5469L73.5405 42.9854C79.8166 37.0006 88.5606 32.1124 99.8286 28.3564C111.077 24.6072 124.087 22.7227 138.874 22.7227Z" fill="#498A70" stroke="#8DC8A0" stroke-width="2"/>

</svg>