<svg width="256" height="332" viewBox="0 0 256 332" fill="none" xmlns="http://www.w3.org/2000/svg">
<path d="M175.482 22.7227C184.668 22.7227 191.54 24.8765 196.251 29.0332L196.276 29.0547C201.001 32.9453 204.267 38.973 205.987 47.2715C208.307 61.4921 209.617 78.3449 209.908 97.8369V97.8516C210.491 117.374 210.782 139.669 210.782 164.736C210.782 191.258 210.345 214.715 209.472 235.106C208.598 255.479 206.998 272.483 204.678 286.127C202.964 293.531 199.853 298.98 195.42 302.588C190.981 305.91 184.952 307.624 177.231 307.624C167.213 307.624 159.793 304.911 154.791 299.641C149.804 294.095 147.18 284.215 147.18 269.7V241.736C147.471 230.656 147.763 218.992 148.055 206.745C148.346 194.499 148.637 182.253 148.929 170.008C149.22 157.763 149.512 146.393 149.804 135.898C150.095 125.396 150.241 116.348 150.241 108.755C150.532 101.198 150.679 96.0901 150.679 93.4482C150.679 90.7863 150.495 88.5578 150.109 86.7852C149.728 85.0328 149.126 83.609 148.199 82.6816C146.505 80.9877 143.901 80.07 140.585 79.7686H140.577C133.691 79.1947 129.041 77.3439 126.373 74.416C123.624 71.107 122.251 67.2607 122.251 62.834C122.251 53.996 124.667 46.651 129.451 40.7344C134.577 34.7573 141.131 30.3361 149.141 27.4756L149.149 27.4717L149.158 27.4688C157.497 24.3059 166.269 22.7227 175.482 22.7227Z" fill="#498746" stroke="#C8E6D0" stroke-width="2"/>

</svg>