<svg width="257" height="338" viewBox="0 0 257 338" fill="none" xmlns="http://www.w3.org/2000/svg">
<path d="M96.4711 259.138L83.1776 258.911C81.7843 258.887 80.5131 258.718 79.1876 258.391C76.0416 257.615 73.5116 255.497 72.2251 252.523C71.534 250.924 71.2455 249.266 71.1418 247.518C71.0217 245.493 70.9611 243.597 71.0196 241.554L71.4488 226.665L71.9088 216.895L72.5434 208.814L73.4962 200.34C73.7211 198.346 74.1236 196.505 74.8084 194.629C76.5087 189.965 80.6404 186.676 85.6049 186.129C95.201 185.073 119.896 184.924 129.604 185.607L135.665 186.034C139.546 186.307 143.108 188.227 145.392 191.395C146.663 193.157 147.416 195.129 147.874 197.246C149.114 202.984 150.29 219.522 150.474 225.774L150.977 242.884C151.023 244.449 150.938 245.881 150.863 247.418C150.803 248.632 150.63 249.763 150.327 250.933C149.391 254.546 146.674 257.35 143.066 258.345C141.625 258.743 140.238 258.914 138.695 258.93L115.105 259.185L96.4732 259.138H96.4711Z" fill="#FFFDEA" stroke="#185229" stroke-width="2" stroke-linejoin="round"/>
<path d="M83.1801 258.909L96.4736 259.137H96.4757L115.107 259.184L138.697 258.929C140.241 258.912 141.628 258.742 143.068 258.344C146.676 257.349 149.393 254.545 150.33 250.931C150.632 249.762 150.806 248.631 150.866 247.417C150.974 245.199 150.979 242.989 150.979 240.769L148.709 240.754L134.624 240.769C120.4 256.397 88.4476 255.84 72.2275 252.521C73.5141 255.496 76.044 257.614 79.19 258.39C80.5156 258.717 81.7867 258.886 83.1801 258.909Z" fill="#E5E1BE"/>
<path d="M86.1048 247.211C84.4393 247.301 82.853 246.98 81.8242 245.552C81.0808 244.52 80.7151 242.938 80.585 241.598H141.461C141.294 242.934 140.841 244.55 140.089 245.558C139.017 246.996 137.466 247.316 135.79 247.218L86.1048 247.211Z" fill="#D6D2B2"/>
<path d="M80.585 241.562C80.585 241.562 80.5871 241.584 80.5881 241.595C80.7182 242.935 81.084 244.518 81.8273 245.549C82.8562 246.978 84.4425 247.299 86.1079 247.208L135.793 247.216C137.469 247.314 139.02 246.994 140.092 245.556C140.844 244.547 141.298 242.932 141.464 241.595" stroke="#CAC5A0" stroke-width="2" stroke-linejoin="round"/>
<path d="M138.073 244.907C138.95 243.711 139.453 242.288 139.387 240.757L82.2555 240.754C82.236 242.235 82.6621 243.621 83.4743 244.844C83.618 245.004 83.846 245.149 84.037 245.145C84.2074 245.141 84.4271 244.797 84.4415 244.616L84.5165 243.65H136.494C136.74 243.65 137.006 243.708 137.112 243.804C137.038 244.221 137.167 245.162 137.56 245.14C137.693 245.132 137.906 245.013 138.073 244.907Z" fill="#185229"/>
<path d="M82.2548 240.766H73.2778H71.0168C71.0168 243.021 71.0054 245.264 71.139 247.517C71.2427 249.265 71.5313 250.923 72.2223 252.521C73.5088 255.496 76.0387 257.614 79.1848 258.39C80.5103 258.717 81.7814 258.886 83.1748 258.909L96.4683 259.137H96.4704L115.102 259.184L138.692 258.929C140.235 258.912 141.622 258.742 143.063 258.344C146.671 257.349 149.388 254.545 150.324 250.931C150.627 249.762 150.801 248.631 150.86 247.417C150.968 245.199 150.974 242.989 150.974 240.769L148.704 240.754L139.386 240.769H82.2548" stroke="#185229" stroke-width="2" stroke-linejoin="round"/>
<path d="M149.614 225.714C149.43 219.477 148.254 202.975 147.013 197.25C149.614 225.714 147.462 240.763 127.767 240.763H149.996L149.614 225.714Z" fill="#E5E1BE"/>
<path d="M147.867 197.25C149.107 202.975 150.43 219.474 150.614 225.711L150.996 240.76H128.767" stroke="#185229" stroke-width="1.81121" stroke-linejoin="round"/>
<path d="M71.4207 226.576L71.8809 240.183C71.8809 240.183 78.1112 199.102 78.7231 196.739C79.335 194.377 81.7598 191.068 85.5827 189.988C99.7672 185.982 125.631 186.457 128.376 186.457C113.07 184.092 95.1829 185.076 85.5827 186.13C80.6161 186.676 76.4828 189.958 74.7817 194.612C74.0966 196.483 73.6939 198.32 73.469 200.31L72.5157 208.765L71.8808 216.828L71.4207 226.576Z" fill="#E5E1BE"/>
<path d="M70.9971 241.442L71.4264 226.586L71.8866 216.838L72.5215 208.775L73.4747 200.32C73.6997 198.33 74.1023 196.493 74.7875 194.622C76.4885 189.968 80.622 186.686 85.5885 186.14C95.6993 185.276 110.169 184.977 129.357 185.602" stroke="#185229" stroke-width="1.81121" stroke-linejoin="round"/>
<path d="M101.997 220.043C103.458 222.391 106.937 224.043 110.997 224.043C115.057 224.043 118.537 222.391 119.997 220.043" stroke="#185229" stroke-width="2.08466" stroke-linecap="round"/>
<path d="M120.997 211C122.794 209.804 126.151 209 129.997 209C133.843 209 137.201 209.804 138.997 211" stroke="#185229" stroke-width="2" stroke-linecap="round"/>
<path d="M84.9971 211C86.6937 209.804 89.865 209 93.4971 209C97.1292 209 100.3 209.804 101.997 211" stroke="#185229" stroke-width="2" stroke-linecap="round"/>
<path d="M133.09 222.447C136.434 222.447 139.145 220.976 139.145 219.161C139.145 217.346 136.434 215.875 133.09 215.875C129.747 215.875 127.036 217.346 127.036 219.161C127.036 220.976 129.747 222.447 133.09 222.447Z" fill="#FEDBD8"/>
<path d="M90.0505 222.447C93.3085 222.447 95.9496 220.976 95.9496 219.161C95.9496 217.346 93.3085 215.875 90.0505 215.875C86.7925 215.875 84.1514 217.346 84.1514 219.161C84.1514 220.976 86.7925 222.447 90.0505 222.447Z" fill="#FEDBD8"/>
<path d="M126.155 193.066C129.493 191.928 131.506 193.961 132.067 193.415C132.671 192.826 129.574 190.333 126.052 191.42C125.696 191.53 125.367 191.741 125.147 191.998C124.881 192.31 124.893 192.8 125.254 193.021C125.499 193.172 125.873 193.163 126.156 193.066L126.155 193.066Z" fill="#185229"/>
<path d="M95.8382 193.069C92.5001 191.931 90.4874 193.965 89.927 193.419C89.3222 192.83 92.4195 190.336 95.9413 191.423C96.2978 191.533 96.6263 191.744 96.8467 192.001C97.112 192.312 97.1002 192.803 96.7394 193.024C96.4949 193.175 96.121 193.166 95.8374 193.069L95.8382 193.069Z" fill="#185229"/>
<path d="M53.3864 223.689C53.8282 222.655 54.9755 222.141 56.1198 222.497C58.79 223.329 60.9038 224.054 62.8229 225.146C64.7526 226.243 66.464 227.698 68.3668 229.964C74.0099 236.687 70.0716 247.076 61.3151 247.579C56.6478 247.846 53.8582 246.535 49.9489 244.909C49.311 244.644 48.6964 244.481 48.0328 244.281C47.3901 244.088 46.7202 243.864 46.0485 243.483C44.9824 243.044 43.6372 242.116 42.9586 240.964C42.608 240.368 42.4113 239.67 42.5846 238.939C42.7197 238.37 43.0659 237.845 43.6217 237.37C42.8347 236.415 42.755 235.106 43.403 234.086C44.0575 233.055 45.3607 232.435 47.153 232.607L47.028 232.307C46.834 231.837 46.7307 231.37 46.6754 230.903L46.6344 230.436C46.5314 228.73 47.3073 227.011 48.7037 226.003C49.4265 225.481 50.2692 225.082 50.9459 224.684L51.6227 224.284L52.0592 224.004C52.2029 223.911 52.3754 223.807 52.5709 223.737C52.8365 223.642 53.1038 223.627 53.3864 223.689ZM54.5914 226.898C54.4756 228.088 53.4701 229.025 52.5319 229.643L52.7545 230.002C53.0655 230.504 53.2076 231.079 53.3727 231.654C54.49 231.463 55.6327 231.606 56.7281 231.256C57.4905 231.012 58.1572 230.53 58.6891 229.974L58.0602 228.529C56.8494 228.481 55.3478 227.975 54.5914 226.898Z" fill="#78BA68"/>
<path d="M53.3864 223.689L53.2239 224.422L53.8314 224.556L54.076 223.984L53.3864 223.689ZM56.1198 222.497L56.3427 221.781L56.3425 221.781L56.1198 222.497ZM62.8229 225.146L63.1937 224.494L63.1936 224.494L62.8229 225.146ZM68.3668 229.964L68.9413 229.482L68.9412 229.482L68.3668 229.964ZM61.3151 247.579L61.3579 248.328L61.3581 248.328L61.3151 247.579ZM49.9489 244.909L50.2368 244.217L50.2367 244.217L49.9489 244.909ZM48.0328 244.281L47.8166 244.999L47.8166 244.999L48.0328 244.281ZM46.0485 243.483L46.4179 242.831L46.3774 242.808L46.3343 242.79L46.0485 243.483ZM42.9586 240.964L42.3123 241.344L42.3124 241.344L42.9586 240.964ZM42.5846 238.939L41.8549 238.766L41.8548 238.766L42.5846 238.939ZM43.6217 237.37L44.1087 237.941L44.6692 237.462L44.2005 236.893L43.6217 237.37ZM43.403 234.086L42.7699 233.684L42.7698 233.684L43.403 234.086ZM47.153 232.607L47.0813 233.354L48.325 233.473L47.8455 232.32L47.153 232.607ZM47.028 232.307L46.3347 232.593L46.3354 232.594L47.028 232.307ZM46.6754 230.903L45.9283 230.969L45.9293 230.98L45.9306 230.991L46.6754 230.903ZM46.6344 230.436L45.8858 230.481L45.8864 230.491L45.8873 230.501L46.6344 230.436ZM48.7037 226.003L48.2649 225.395L48.2648 225.395L48.7037 226.003ZM50.9459 224.684L51.3267 225.33L51.3271 225.329L50.9459 224.684ZM51.6227 224.284L52.0039 224.93L52.016 224.923L52.0279 224.915L51.6227 224.284ZM52.0592 224.004L52.4644 224.635L52.4653 224.634L52.0592 224.004ZM52.5709 223.737L52.3186 223.031L52.3183 223.031L52.5709 223.737ZM54.5914 226.898L55.2051 226.467L54.0413 224.811L53.845 226.826L54.5914 226.898ZM52.5319 229.643L52.1197 229.016L51.5099 229.417L51.8943 230.038L52.5319 229.643ZM52.7545 230.002L52.117 230.397L52.117 230.397L52.7545 230.002ZM53.3727 231.654L52.6518 231.861L52.8371 232.507L53.499 232.394L53.3727 231.654ZM56.7281 231.256L56.4998 230.541L56.4996 230.542L56.7281 231.256ZM58.6891 229.974L59.2313 230.492L59.5758 230.131L59.3767 229.674L58.6891 229.974ZM58.0602 228.529L58.7478 228.23L58.56 227.799L58.0899 227.78L58.0602 228.529ZM53.3864 223.689L54.076 223.984C54.3572 223.326 55.0961 222.964 55.897 223.213L56.1198 222.497L56.3425 221.781C54.8549 221.318 53.2993 221.985 52.6967 223.395L53.3864 223.689ZM56.1198 222.497L55.8968 223.213C58.5665 224.044 60.6105 224.75 62.4521 225.797L62.8229 225.146L63.1936 224.494C61.1972 223.358 59.0136 222.613 56.3427 221.781L56.1198 222.497ZM62.8229 225.146L62.4521 225.797C64.2892 226.842 65.9344 228.233 67.7924 230.446L68.3668 229.964L68.9412 229.482C66.9936 227.162 65.216 225.644 63.1937 224.494L62.8229 225.146ZM68.3668 229.964L67.7923 230.446C73.0873 236.755 69.3383 246.367 61.272 246.83L61.3151 247.579L61.3581 248.328C70.8049 247.785 74.9326 236.62 68.9413 229.482L68.3668 229.964ZM61.3151 247.579L61.2722 246.83C56.8012 247.086 54.1646 245.85 50.2368 244.217L49.9489 244.909L49.6609 245.602C53.5518 247.22 56.4944 248.606 61.3579 248.328L61.3151 247.579ZM49.9489 244.909L50.2367 244.217C49.553 243.932 48.883 243.754 48.2491 243.563L48.0328 244.281L47.8166 244.999C48.5098 245.208 49.069 245.356 49.661 245.602L49.9489 244.909ZM48.0328 244.281L48.2491 243.563C47.6191 243.373 47.0146 243.168 46.4179 242.831L46.0485 243.483L45.679 244.136C46.4258 244.559 47.1611 244.802 47.8166 244.999L48.0328 244.281ZM46.0485 243.483L46.3343 242.79C45.3623 242.389 44.174 241.55 43.6049 240.583L42.9586 240.964L42.3124 241.344C43.1005 242.683 44.6025 243.698 45.7626 244.177L46.0485 243.483ZM42.9586 240.964L43.6049 240.583C43.3192 240.098 43.1989 239.599 43.3144 239.113L42.5846 238.939L41.8548 238.766C41.6237 239.741 41.8968 240.639 42.3123 241.344L42.9586 240.964ZM42.5846 238.939L43.3143 239.113C43.4046 238.732 43.6443 238.337 44.1087 237.941L43.6217 237.37L43.1347 236.8C42.4874 237.352 42.0347 238.008 41.8549 238.766L42.5846 238.939ZM43.6217 237.37L44.2005 236.893C43.6173 236.185 43.5642 235.231 44.0361 234.488L43.403 234.086L42.7698 233.684C41.9459 234.982 42.052 236.645 43.0429 237.847L43.6217 237.37ZM43.403 234.086L44.036 234.488C44.5028 233.753 45.4953 233.202 47.0813 233.354L47.153 232.607L47.2246 231.861C45.226 231.669 43.6123 232.358 42.7699 233.684L43.403 234.086ZM47.153 232.607L47.8455 232.32L47.7205 232.019L47.028 232.307L46.3354 232.594L46.4604 232.895L47.153 232.607ZM47.028 232.307L47.7212 232.02C47.559 231.628 47.4694 231.231 47.4202 230.815L46.6754 230.903L45.9306 230.991C45.992 231.51 46.1089 232.046 46.3347 232.593L47.028 232.307ZM46.6754 230.903L47.4225 230.838L47.3815 230.37L46.6344 230.436L45.8873 230.501L45.9283 230.969L46.6754 230.903ZM46.6344 230.436L47.383 230.39C47.2949 228.93 47.9632 227.462 49.1426 226.611L48.7037 226.003L48.2648 225.395C46.6513 226.559 45.7679 228.53 45.8858 230.481L46.6344 230.436ZM48.7037 226.003L49.1426 226.611C49.833 226.113 50.5628 225.78 51.3267 225.33L50.9459 224.684L50.5651 224.037C49.9757 224.385 49.02 224.85 48.2649 225.395L48.7037 226.003ZM50.9459 224.684L51.3271 225.329L52.0039 224.93L51.6227 224.284L51.2415 223.638L50.5647 224.038L50.9459 224.684ZM51.6227 224.284L52.0279 224.915L52.4644 224.635L52.0592 224.004L51.654 223.373L51.2175 223.653L51.6227 224.284ZM52.0592 224.004L52.4653 224.634C52.5991 224.548 52.7123 224.483 52.8236 224.443L52.5709 223.737L52.3183 223.031C52.0384 223.131 51.8067 223.274 51.6531 223.373L52.0592 224.004ZM52.5709 223.737L52.8232 224.444C52.9521 224.398 53.0754 224.389 53.2239 224.422L53.3864 223.689L53.5489 222.957C53.1321 222.865 52.7209 222.887 52.3186 223.031L52.5709 223.737ZM54.5914 226.898L53.845 226.826C53.7647 227.649 53.03 228.417 52.1197 229.016L52.5319 229.643L52.944 230.269C53.9102 229.634 55.1864 228.526 55.3379 226.971L54.5914 226.898ZM52.5319 229.643L51.8943 230.038L52.117 230.397L52.7545 230.002L53.3921 229.607L53.1694 229.248L52.5319 229.643ZM52.7545 230.002L52.117 230.397C52.3597 230.789 52.4733 231.24 52.6518 231.861L53.3727 231.654L54.0936 231.447C53.9418 230.919 53.7712 230.219 53.3921 229.607L52.7545 230.002ZM53.3727 231.654L53.499 232.394C54.0031 232.307 54.5025 232.298 55.1012 232.264C55.6739 232.231 56.3134 232.176 56.9567 231.97L56.7281 231.256L56.4996 230.542C56.0475 230.686 55.5679 230.735 55.0161 230.766C54.4902 230.796 53.8596 230.81 53.2463 230.915L53.3727 231.654ZM56.7281 231.256L56.9565 231.97C57.8682 231.679 58.6375 231.113 59.2313 230.492L58.6891 229.974L58.1469 229.455C57.6769 229.947 57.1128 230.345 56.4998 230.541L56.7281 231.256ZM58.6891 229.974L59.3767 229.674L58.7478 228.23L58.0602 228.529L57.3725 228.829L58.0014 230.273L58.6891 229.974ZM58.0602 228.529L58.0899 227.78C56.9997 227.737 55.7732 227.276 55.2051 226.467L54.5914 226.898L53.9778 227.33C54.9224 228.674 56.6991 229.226 58.0305 229.279L58.0602 228.529Z" fill="#185229"/>
<path d="M46.0771 232.588C47.3055 232.394 50.5391 233.501 52.6108 235.108C52.8354 234.687 52.9959 234.403 53.4367 233.72" stroke="#185229" stroke-width="1.5"/>
<path d="M43.3233 237.397C46.0325 236.474 49.31 238.18 51.4343 239.397C51.5307 239.002 51.7602 238.344 51.8848 238.054" stroke="#185229" stroke-width="1.5"/>
<path d="M58.8419 229.863C57.6302 231.382 58.4698 234.247 62.1497 235.662C58.327 235.035 58.3747 236.419 55.942 237.468C53.5093 238.518 57.3505 231.699 58.8419 229.863Z" fill="#39763D"/>
<path d="M58.9134 229.766C57.7018 231.284 58.5413 234.149 62.2212 235.565" stroke="#185229" stroke-width="1.5"/>
<path d="M46.3055 243.067C47.5589 243.785 48.8323 243.921 50.1736 244.479C54.0967 246.11 56.7767 247.369 61.3045 247.11C69.5715 246.634 73.3713 236.797 67.9777 230.371C73.0931 245.012 55.8833 244.479 46.3055 243.067Z" fill="#39763D"/>
<path d="M53.3729 223.801C53.5504 224.59 54.1834 226.407 54.7041 227.07" stroke="#185229" stroke-width="1.5"/>
<path d="M168.609 223.689C168.167 222.655 167.02 222.141 165.875 222.497C163.205 223.329 161.091 224.054 159.172 225.146C157.243 226.243 155.531 227.698 153.628 229.964C147.985 236.687 151.924 247.076 160.68 247.579C165.347 247.846 168.137 246.535 172.046 244.909C172.684 244.644 173.299 244.481 173.962 244.281C174.605 244.088 175.275 243.864 175.947 243.483C177.013 243.044 178.358 242.116 179.037 240.964C179.387 240.368 179.584 239.67 179.411 238.939C179.276 238.37 178.929 237.845 178.374 237.37C179.161 236.415 179.24 235.106 178.592 234.086C177.938 233.055 176.635 232.435 174.842 232.607L174.967 232.307C175.161 231.837 175.265 231.37 175.32 230.903L175.361 230.436C175.464 228.73 174.688 227.011 173.292 226.003C172.569 225.481 171.726 225.082 171.049 224.684L170.373 224.284L169.936 224.004C169.792 223.911 169.62 223.807 169.424 223.737C169.159 223.642 168.891 223.627 168.609 223.689ZM167.405 226.898C167.521 228.088 168.526 229.025 169.464 229.643L169.242 230.002C168.931 230.504 168.789 231.079 168.624 231.654C167.506 231.463 166.363 231.606 165.268 231.256C164.506 231.012 163.839 230.53 163.307 229.974L163.936 228.529C165.147 228.481 166.648 227.975 167.405 226.898Z" fill="#78BA68"/>
<path d="M168.609 223.689L168.771 224.422L168.164 224.556L167.919 223.984L168.609 223.689ZM165.875 222.497L165.653 221.781L165.653 221.781L165.875 222.497ZM159.172 225.146L158.802 224.494L158.802 224.494L159.172 225.146ZM153.628 229.964L153.054 229.482L153.054 229.482L153.628 229.964ZM160.68 247.579L160.637 248.328L160.637 248.328L160.68 247.579ZM172.046 244.909L171.758 244.217L171.759 244.217L172.046 244.909ZM173.962 244.281L174.179 244.999L174.179 244.999L173.962 244.281ZM175.947 243.483L175.577 242.831L175.618 242.808L175.661 242.79L175.947 243.483ZM179.037 240.964L179.683 241.344L179.683 241.344L179.037 240.964ZM179.411 238.939L180.14 238.766L180.14 238.766L179.411 238.939ZM178.374 237.37L177.887 237.941L177.326 237.462L177.795 236.893L178.374 237.37ZM178.592 234.086L179.225 233.684L179.225 233.684L178.592 234.086ZM174.842 232.607L174.914 233.354L173.67 233.473L174.15 232.32L174.842 232.607ZM174.967 232.307L175.66 232.593L175.66 232.594L174.967 232.307ZM175.32 230.903L176.067 230.969L176.066 230.98L176.065 230.991L175.32 230.903ZM175.361 230.436L176.109 230.481L176.109 230.491L176.108 230.501L175.361 230.436ZM173.292 226.003L173.73 225.395L173.73 225.395L173.292 226.003ZM171.049 224.684L170.669 225.33L170.668 225.329L171.049 224.684ZM170.373 224.284L169.991 224.93L169.979 224.923L169.967 224.915L170.373 224.284ZM169.936 224.004L169.531 224.635L169.53 224.634L169.936 224.004ZM169.424 223.737L169.677 223.031L169.677 223.031L169.424 223.737ZM167.405 226.898L166.791 226.467L167.955 224.811L168.151 226.826L167.405 226.898ZM169.464 229.643L169.876 229.016L170.486 229.417L170.102 230.038L169.464 229.643ZM169.242 230.002L169.879 230.397L169.879 230.397L169.242 230.002ZM168.624 231.654L169.344 231.861L169.159 232.507L168.497 232.394L168.624 231.654ZM165.268 231.256L165.496 230.541L165.497 230.542L165.268 231.256ZM163.307 229.974L162.765 230.492L162.42 230.131L162.619 229.674L163.307 229.974ZM163.936 228.529L163.248 228.23L163.436 227.799L163.906 227.78L163.936 228.529ZM168.609 223.689L167.919 223.984C167.638 223.326 166.899 222.964 166.098 223.213L165.875 222.497L165.653 221.781C167.14 221.318 168.696 221.985 169.299 223.395L168.609 223.689ZM165.875 222.497L166.098 223.213C163.429 224.044 161.385 224.75 159.543 225.797L159.172 225.146L158.802 224.494C160.798 223.358 162.982 222.613 165.653 221.781L165.875 222.497ZM159.172 225.146L159.543 225.797C157.706 226.842 156.061 228.233 154.203 230.446L153.628 229.964L153.054 229.482C155.002 227.162 156.779 225.644 158.802 224.494L159.172 225.146ZM153.628 229.964L154.203 230.446C148.908 236.755 152.657 246.367 160.723 246.83L160.68 247.579L160.637 248.328C151.19 247.785 147.063 236.62 153.054 229.482L153.628 229.964ZM160.68 247.579L160.723 246.83C165.194 247.086 167.831 245.85 171.758 244.217L172.046 244.909L172.334 245.602C168.443 247.22 165.501 248.606 160.637 248.328L160.68 247.579ZM172.046 244.909L171.759 244.217C172.442 243.932 173.112 243.754 173.746 243.563L173.962 244.281L174.179 244.999C173.485 245.208 172.926 245.356 172.334 245.602L172.046 244.909ZM173.962 244.281L173.746 243.563C174.376 243.373 174.981 243.168 175.577 242.831L175.947 243.483L176.316 244.136C175.569 244.559 174.834 244.802 174.179 244.999L173.962 244.281ZM175.947 243.483L175.661 242.79C176.633 242.389 177.821 241.55 178.39 240.583L179.037 240.964L179.683 241.344C178.895 242.683 177.393 243.698 176.233 244.177L175.947 243.483ZM179.037 240.964L178.39 240.583C178.676 240.098 178.796 239.599 178.681 239.113L179.411 238.939L180.14 238.766C180.371 239.741 180.098 240.639 179.683 241.344L179.037 240.964ZM179.411 238.939L178.681 239.113C178.591 238.732 178.351 238.337 177.887 237.941L178.374 237.37L178.861 236.8C179.508 237.352 179.961 238.008 180.14 238.766L179.411 238.939ZM178.374 237.37L177.795 236.893C178.378 236.185 178.431 235.231 177.959 234.488L178.592 234.086L179.225 233.684C180.049 234.982 179.943 236.645 178.952 237.847L178.374 237.37ZM178.592 234.086L177.959 234.488C177.492 233.753 176.5 233.202 174.914 233.354L174.842 232.607L174.771 231.861C176.769 231.669 178.383 232.358 179.225 233.684L178.592 234.086ZM174.842 232.607L174.15 232.32L174.275 232.019L174.967 232.307L175.66 232.594L175.535 232.895L174.842 232.607ZM174.967 232.307L174.274 232.02C174.436 231.628 174.526 231.231 174.575 230.815L175.32 230.903L176.065 230.991C176.003 231.51 175.886 232.046 175.66 232.593L174.967 232.307ZM175.32 230.903L174.573 230.838L174.614 230.37L175.361 230.436L176.108 230.501L176.067 230.969L175.32 230.903ZM175.361 230.436L174.612 230.39C174.7 228.93 174.032 227.462 172.853 226.611L173.292 226.003L173.73 225.395C175.344 226.559 176.227 228.53 176.109 230.481L175.361 230.436ZM173.292 226.003L172.853 226.611C172.162 226.113 171.432 225.78 170.669 225.33L171.049 224.684L171.43 224.037C172.02 224.385 172.975 224.85 173.73 225.395L173.292 226.003ZM171.049 224.684L170.668 225.329L169.991 224.93L170.373 224.284L170.754 223.638L171.431 224.038L171.049 224.684ZM170.373 224.284L169.967 224.915L169.531 224.635L169.936 224.004L170.341 223.373L170.778 223.653L170.373 224.284ZM169.936 224.004L169.53 224.634C169.396 224.548 169.283 224.483 169.172 224.443L169.424 223.737L169.677 223.031C169.957 223.131 170.189 223.274 170.342 223.373L169.936 224.004ZM169.424 223.737L169.172 224.444C169.043 224.398 168.92 224.389 168.771 224.422L168.609 223.689L168.446 222.957C168.863 222.865 169.274 222.887 169.677 223.031L169.424 223.737ZM167.405 226.898L168.151 226.826C168.232 227.649 168.966 228.417 169.876 229.016L169.464 229.643L169.052 230.269C168.086 229.634 166.81 228.526 166.658 226.971L167.405 226.898ZM169.464 229.643L170.102 230.038L169.879 230.397L169.242 230.002L168.604 229.607L168.827 229.248L169.464 229.643ZM169.242 230.002L169.879 230.397C169.636 230.789 169.523 231.24 169.344 231.861L168.624 231.654L167.903 231.447C168.054 230.919 168.225 230.219 168.604 229.607L169.242 230.002ZM168.624 231.654L168.497 232.394C167.993 232.307 167.494 232.298 166.895 232.264C166.322 232.231 165.683 232.176 165.039 231.97L165.268 231.256L165.497 230.542C165.949 230.686 166.428 230.735 166.98 230.766C167.506 230.796 168.137 230.81 168.75 230.915L168.624 231.654ZM165.268 231.256L165.04 231.97C164.128 231.679 163.359 231.113 162.765 230.492L163.307 229.974L163.849 229.455C164.319 229.947 164.883 230.345 165.496 230.541L165.268 231.256ZM163.307 229.974L162.619 229.674L163.248 228.23L163.936 228.529L164.624 228.829L163.995 230.273L163.307 229.974ZM163.936 228.529L163.906 227.78C164.997 227.737 166.223 227.276 166.791 226.467L167.405 226.898L168.018 227.33C167.074 228.674 165.297 229.226 163.966 229.279L163.936 228.529Z" fill="#185229"/>
<path d="M175.92 232.588C174.692 232.394 171.458 233.501 169.386 235.108C169.162 234.687 169.001 234.403 168.561 233.72" stroke="#185229" stroke-width="1.5"/>
<path d="M178.674 237.397C175.965 236.474 172.687 238.18 170.563 239.397C170.466 239.002 170.237 238.344 170.112 238.054" stroke="#185229" stroke-width="1.5"/>
<path d="M163.155 229.863C164.367 231.382 163.527 234.247 159.847 235.662C163.67 235.035 163.622 236.419 166.055 237.468C168.488 238.518 164.647 231.699 163.155 229.863Z" fill="#39763D"/>
<path d="M163.084 229.766C164.295 231.284 163.456 234.149 159.776 235.565" stroke="#185229" stroke-width="1.5"/>
<path d="M175.692 243.067C174.438 243.785 173.165 243.921 171.823 244.479C167.9 246.11 165.22 247.369 160.693 247.11C152.426 246.634 148.626 236.797 154.019 230.371C148.904 245.012 166.114 244.479 175.692 243.067Z" fill="#39763D"/>
<path d="M168.624 223.801C168.447 224.59 167.814 226.407 167.293 227.07" stroke="#185229" stroke-width="1.5"/>
<path d="M101.536 276.459C102.106 276.269 116.392 273.395 116.957 273.401L113.898 252.283L99.5616 255.311C98.835 254.482 98.1301 253.827 97.2357 253.151C94.7654 251.286 90.1662 251.101 87.68 253.176C86.4281 254.222 85.7684 256.002 85.5222 257.668C84.7022 263.213 85.9129 269.024 88.544 273.942C89.7584 276.211 91.6911 277.658 94.286 277.842C96.4306 277.994 99.4916 277.142 101.536 276.459Z" fill="#39763D"/>
<path d="M116.941 274.766C116.951 273.856 116.962 272.946 116.972 272.036C114.768 272.34 113.447 272.684 111.703 273.023C108.18 273.756 104.889 274.405 101.145 275.29C98.8947 276.045 96.469 276.751 94.3689 276.674C92.2998 276.583 90.5352 275.326 89.5225 273.418C86.9461 268.695 85.7425 263.145 86.4805 257.81C86.6918 256.292 87.2575 254.757 88.2736 253.887C90.4522 252.097 94.3632 252.153 96.7292 253.822C97.5461 254.424 98.2764 255.088 98.9497 255.847L99.2562 256.203L99.7297 256.107C104.5 255.058 109.271 254.008 114.041 252.959L113.215 252.382C114.036 257.738 114.858 263.093 115.679 268.449C115.936 270.124 116.193 271.799 116.45 273.475C116.788 273.426 117.126 273.377 117.463 273.328C117.234 271.649 117.006 269.969 116.777 268.29C116.045 262.921 115.314 257.553 114.582 252.184L114.47 251.45L113.756 251.607C108.968 252.576 104.181 253.545 99.3934 254.514L100.173 254.774C99.4548 253.934 98.6219 253.15 97.7422 252.481C94.5724 250.298 90.3317 250.07 87.0867 252.465C85.4885 253.828 84.8645 255.727 84.564 257.527C83.6672 263.32 84.866 269.307 87.5654 274.465C88.7379 276.874 91.3701 278.878 94.2032 279.01C97.0693 279.136 99.4911 278.378 101.926 277.629C105.097 276.961 108.779 276.266 112.212 275.618C113.791 275.321 115.816 274.952 116.941 274.766ZM116.972 272.036L116.941 274.766L117.684 274.768L117.463 273.328L116.45 273.475L116.972 272.036Z" fill="#185229"/>
<path d="M87.5183 269.353C88.3578 271.054 92.0146 274.556 94.5892 272.327C98.0478 269.332 97.5061 251.403 90.893 252.654C84.3481 253.891 85.3443 264.367 87.5183 269.353Z" fill="#78BA68"/>
<ellipse cx="91.7853" cy="258.202" rx="1.49802" ry="1.92545" transform="rotate(153.219 91.7853 258.202)" fill="#9ECF84"/>
<path d="M121.755 277.098C119.784 276.241 117.465 274.068 115.969 272.517C115.688 272.227 109.908 267.659 104.46 261.774C101.804 258.906 99.577 255.007 99.577 255.007C99.577 255.007 106.346 243.28 116.557 246.017C118.957 246.66 122.612 250.621 122.612 250.621L127.508 254.684C128.536 254.286 129.464 254.031 130.569 253.847C133.622 253.336 137.785 255.301 139.028 258.292C139.654 259.798 139.414 261.682 138.861 263.272C137.022 268.567 133.259 273.158 128.651 276.299C126.524 277.748 124.141 278.136 121.755 277.098Z" fill="#39763D"/>
<path d="M114.986 273.465C115.641 272.833 116.296 272.201 116.951 271.57C118.159 272.837 119.441 274.056 120.795 275.023C121.287 275.372 121.794 275.684 122.277 275.9C124.114 276.755 126.192 276.469 127.947 275.266C132.392 272.286 136.006 267.942 137.806 262.906C138.314 261.484 138.51 259.888 138.033 258.705C136.979 256.198 133.514 254.447 130.734 254.831C129.739 254.986 128.799 255.233 127.859 255.591L127.335 255.799L126.887 255.433C125.265 254.066 123.644 252.698 122.022 251.331L121.934 251.247C120.272 249.51 118.292 247.548 116.333 246.85C109.93 244.909 103.627 249.893 100.184 255.358L100.186 254.66C101.553 257.01 103.114 259.329 104.926 261.343C107.229 263.867 109.676 266.258 112.217 268.56C113.564 269.785 114.887 270.906 116.337 272.162C116.092 272.399 115.846 272.636 115.6 272.873C114.302 271.797 112.828 270.576 111.479 269.388C108.881 267.106 106.371 264.732 103.994 262.206C102.044 260.104 100.438 257.79 98.9682 255.355L98.7686 254.999L98.9698 254.657C102.519 248.828 109.213 243.119 116.78 245.183C119.68 246.223 121.39 248.135 123.29 249.995L123.201 249.91C124.844 251.252 126.487 252.594 128.129 253.936L127.156 253.777C128.191 253.362 129.306 253.05 130.405 252.863C134.314 252.394 138.206 254.165 140.023 257.878C140.829 259.885 140.49 261.884 139.917 263.639C138.015 269.223 134.16 273.995 129.354 277.332C127.174 278.944 123.845 279.513 121.234 278.297C120.507 277.983 119.878 277.599 119.285 277.194C117.671 276.076 116.299 274.796 114.986 273.465ZM116.951 271.57L114.986 273.465L115.6 272.873L116.337 272.162L116.951 271.57Z" fill="#185229"/>
<path d="M125.015 272.819C126.875 279.348 141.508 263.861 138.193 258.225C133.116 252.39 123.894 268.881 125.015 272.819Z" fill="#78BA68"/>
<ellipse cx="1.49802" cy="1.92545" rx="1.49802" ry="1.92545" transform="matrix(0.71074 0.703454 0.703454 -0.71074 131.627 261.605)" fill="#9ECF84"/>
<path d="M97.4855 254.43C97.8134 254.712 98.1312 254.987 98.4589 255.272C104.315 260.384 110.129 265.512 115.94 270.674C116.258 270.957 116.588 271.251 116.904 271.532C117.175 271.773 117.333 272.108 117.334 272.47C117.336 272.832 117.182 273.192 116.914 273.463C116.645 273.734 116.287 273.891 115.925 273.893C115.563 273.895 115.227 273.741 114.983 273.472C114.983 273.472 114.983 273.472 114.983 273.472C114.7 273.16 114.402 272.833 114.116 272.518C108.889 266.782 103.647 261.068 98.364 255.37C98.068 255.052 97.7819 254.745 97.4855 254.43Z" fill="#185229"/>

</svg>