<svg preserveAspectRatio="none" width="100%" height="100%" overflow="visible" style="display: block;" viewBox="0 0 184.727 105.966" fill="none" xmlns="http://www.w3.org/2000/svg">
<g id="Bill">
<path id="Vector" d="M141.518 1.07954C151.32 0.646303 163.846 1.86903 173.259 4.21473C176.785 5.08825 180.172 6.44023 183.7 7.30754C183.563 10.4531 183.68 14.4592 183.682 17.6688L183.683 37.4531L183.679 98.6255C182.246 98.1422 180.792 97.6417 179.356 97.1935C138.465 84.4562 96.8341 100.296 55.9269 104.156C51.7575 104.55 47.646 104.747 43.4365 104.915C32.5904 105.234 21.376 104.253 10.842 101.624C7.40068 100.765 4.41125 99.7701 1.07898 98.6586C0.903196 96.0862 1.05151 91.7176 1.05172 88.9791L1.0529 69.763L1.03224 7.34832C1.72878 7.6457 3.2622 8.10768 4.01783 8.35214C7.14525 9.36139 10.3175 10.2254 13.5247 10.9418C47.1489 18.5437 81.9721 8.31583 115.208 3.46974C123.921 2.13234 132.708 1.33412 141.518 1.07954Z" fill="var(--fill-0, #FFFCEB)" stroke="var(--stroke-0, #C8E6D0)" stroke-width="1.98664"/>
<path id="Vector_2" d="M140.761 12.0443C144.153 11.8417 148.82 11.9956 152.181 12.1173C149.343 22.709 155.895 31.9557 166.099 34.8187C168.372 35.4565 170.406 35.5449 172.74 35.5452C172.557 42.2502 172.833 49.1168 172.716 55.8399C172.672 58.4091 172.603 61.4031 172.752 63.9552C169.558 62.2368 165.865 61.4329 162.277 62.1984C158.887 62.9278 155.926 64.9763 154.048 67.8904C151.169 72.3846 151.054 76.42 152.143 81.488C151.405 81.4178 150.636 81.4433 149.893 81.421C118.28 80.4638 87.7209 90.1208 56.4739 93.1617C52.3993 93.5578 48.36 93.7398 44.2778 93.9538C40.3354 94.055 36.3907 94.0284 32.4499 93.874C32.9558 92.2801 33.1984 90.4754 33.2027 88.807C33.1908 84.2766 31.3763 79.9378 28.1597 76.7479C23.4864 72.0578 18.4258 70.4458 11.9682 70.4468C12.1445 67.1962 12.0086 62.7776 12.0094 59.4206C12.0378 53.6527 12.0241 47.8846 11.9684 42.1169C13.9598 42.8826 15.4606 43.6241 17.6312 43.9311C22.9843 44.688 27.9769 42.4069 30.8478 37.779C33.4503 33.5839 33.6619 29.2668 32.5359 24.5234C61.2512 25.5846 85.577 18.8616 113.457 14.6878C122.5 13.2789 131.617 12.3964 140.761 12.0443Z" fill="url(#paint0_linear_0_448)" stroke="var(--stroke-0, #C8E6D0)" stroke-width="1.98664"/>
<path id="Vector_3" d="M94.7171 27.5864C94.7873 27.5758 94.8576 27.5652 94.9289 27.5546C106.392 26.5205 116.294 34.5917 117.315 46.2286C117.918 53.776 115.527 61.2576 110.658 67.0561C105.401 73.3007 98.1785 77.6789 89.9439 78.3933C84.8811 78.9895 79.1002 77.4276 75.1213 74.2206C70.7356 70.7049 67.961 65.5634 67.4299 59.9672C65.756 43.8981 78.9555 29.2311 94.7171 27.5864Z" fill="var(--fill-0, #FFFCF2)" stroke="var(--stroke-0, #C8E6D0)" stroke-width="1.98664"/>
<path id="Subtract" d="M92.8717 31.694C94.6796 31.672 95.0354 33.0226 95.0152 34.5153C97.2959 34.4835 105.828 35.3851 103.55 39.4264C103.02 40.3671 102.084 40.6608 101.111 40.9235C98.3522 40.0553 98.3753 39.3841 94.8639 38.9625C94.7052 42.2262 94.8111 46.2843 94.8121 49.5807C97.2491 49.7534 99.072 49.9123 101.337 51.0211C105.529 53.0739 105.881 58.15 103.939 61.9489C102.106 65.5327 98.6895 67.5689 94.9225 68.7496C95.0545 70.7535 95.2802 73.8452 92.4752 74.0592C91.9204 74.1017 91.5445 73.7869 91.152 73.442C90.6024 72.487 90.7693 70.5274 90.7867 69.3786C87.5755 69.5318 84.3933 68.9256 81.5524 67.4C80.5384 66.775 79.6511 66.2706 79.6725 64.9684C79.476 63.6939 81.7353 61.8 82.8424 62.4196C85.9297 64.1486 87.2959 64.7272 90.8775 65.0455C90.9321 61.4491 90.9087 57.7801 90.902 54.1803C87.3551 53.988 82.2533 52.9595 81.1852 49.0182C79.2766 41.9753 84.7472 37.071 90.774 35.1393C90.7438 33.2343 91.1201 32.5553 92.8717 31.694ZM94.815 54.3278C94.7416 57.6585 94.7947 61.1178 94.8043 64.4586C96.4019 63.9286 97.1101 63.5795 98.4107 62.5036C99.6181 61.2856 100.243 60.1669 100.27 58.3922C100.319 55.1771 97.2478 54.7627 94.815 54.3278ZM90.7555 39.4869C88.8117 40.2585 86.8698 41.2594 86.0133 43.2741C85.3241 44.8955 85.3704 47.1395 86.9606 48.195C88.2837 48.9327 89.3806 49.111 90.8658 49.4C90.8765 48.1168 91.01 39.9066 90.7555 39.4869Z" fill="var(--fill-0, #C8E6D0)"/>
<path id="Vector_4" d="M166.338 71.5624C174.543 71.7913 177.92 84.4647 169.069 85.1067C159.862 84.6958 158.12 72.2896 166.338 71.5624Z" fill="var(--fill-0, #FFFCF2)" stroke="var(--stroke-0, #C8E6D0)" stroke-width="1.98664"/>
<path id="Vector_5" d="M14.8895 80.2622C23.5758 79.666 27.1876 91.6356 19.2723 93.6468C11.1604 94.6168 6.30594 82.2287 14.8895 80.2622Z" fill="var(--fill-0, #FFFCF2)" stroke="var(--stroke-0, #C8E6D0)" stroke-width="1.98664"/>
<path id="Vector_6" d="M15.0894 20.8555C16.6622 20.738 18.2403 21.1925 19.5935 21.9809C21.5161 23.0774 22.9108 24.9077 23.4578 27.0524C24.3291 30.5427 22.5493 33.5177 19.0295 34.353C17.4665 34.4938 15.9003 34.1202 14.5692 33.289C12.5645 32.0418 11.1317 30.0554 10.5807 27.7595C9.74277 24.1418 11.4955 21.5897 15.0894 20.8555Z" fill="var(--fill-0, #FFFCF2)" stroke="var(--stroke-0, #C8E6D0)" stroke-width="1.98664"/>
<path id="Vector_7" d="M166.104 12.2484C173.579 11.628 178.431 24.5366 169.395 25.7178C160.11 25.632 157.915 13.3171 166.104 12.2484Z" fill="var(--fill-0, #FFFCF2)" stroke="var(--stroke-0, #C8E6D0)" stroke-width="1.98664"/>
</g>
<defs>
<linearGradient id="paint0_linear_0_448" x1="1.03804" y1="48.7632" x2="112.428" y2="37.788" gradientUnits="userSpaceOnUse">
<stop offset="0.228262" stop-color="#FFFDF3"/>
<stop offset="0.552885" stop-color="#FFEEED"/>
<stop offset="1" stop-color="#FFFDF3"/>
</linearGradient>
</defs>
</svg>
