<svg preserveAspectRatio="none" width="100%" height="100%" overflow="visible" style="display: block;" viewBox="0 0 180.846 103.853" fill="none" xmlns="http://www.w3.org/2000/svg">
<g id="Group 26275">
<path id="Vector" d="M138.469 1.1914C148.05 0.767918 160.293 1.96312 169.495 4.25601C172.941 5.10987 176.252 6.43141 179.7 7.2792C179.567 10.3539 179.682 14.2698 179.683 17.4072L179.684 36.7461L179.681 96.5414C178.28 96.0689 176.858 95.5798 175.454 95.1416C135.484 82.6911 94.7903 98.1744 54.804 101.947C50.7285 102.332 46.7095 102.525 42.5948 102.689C31.9928 103.001 21.0309 102.042 10.734 99.4722C7.3702 98.6323 4.44808 97.6603 1.19082 96.5737C1.01899 94.0593 1.16397 89.789 1.16418 87.1122L1.16532 68.3287L1.14513 7.31906C1.826 7.60974 3.32489 8.06132 4.06352 8.30028C7.12053 9.28681 10.2214 10.1314 13.3563 10.8316C46.2236 18.2624 80.2628 8.26479 112.751 3.52779C121.267 2.2205 129.856 1.44025 138.469 1.1914Z" fill="var(--fill-0, #FFFCEB)" stroke="var(--stroke-0, #C8E6D0)" stroke-width="2.21425"/>
<path id="Vector_2" d="M137.729 11.9078C141.044 11.7098 145.606 11.8603 148.892 11.9792C146.118 22.3324 152.522 31.371 162.497 34.1696C164.719 34.793 166.706 34.8794 168.988 34.8797C168.809 41.4337 169.079 48.1458 168.965 54.7175C168.921 57.2289 168.854 60.1555 169 62.6502C165.878 60.9704 162.268 60.1846 158.76 60.9329C155.446 61.6458 152.552 63.6482 150.717 66.4968C147.903 70.8898 147.791 74.8343 148.854 79.7883C148.133 79.7196 147.382 79.7446 146.655 79.7227C115.754 78.7871 85.8829 88.2267 55.3393 91.1991C51.3564 91.5863 47.408 91.7642 43.4178 91.9734C39.5641 92.0723 35.7082 92.0463 31.8561 91.8954C32.3506 90.3374 32.5878 88.5733 32.5919 86.9424C32.5804 82.514 30.8067 78.2729 27.6625 75.1548C23.0944 70.5703 18.1477 68.9946 11.8355 68.9956C12.0079 65.8182 11.875 61.4991 11.8758 58.2176C11.9035 52.5796 11.8902 46.9413 11.8357 41.3034C13.7823 42.0519 15.2493 42.7767 17.371 43.0768C22.6036 43.8166 27.4838 41.5869 30.2901 37.0632C32.834 32.9625 33.0408 28.7427 31.9402 24.106C60.0091 25.1433 83.7872 18.5717 111.039 14.4918C119.879 13.1147 128.791 12.252 137.729 11.9078Z" fill="url(#paint0_linear_0_513)" stroke="var(--stroke-0, #C8E6D0)" stroke-width="2.21425"/>
<path id="Vector_3" d="M92.7222 27.1025C92.7909 27.0922 92.8596 27.0818 92.9293 27.0715C104.134 26.0606 113.813 33.9502 114.811 45.3251C115.401 52.7026 113.064 60.0158 108.304 65.6837C103.165 71.7878 96.1057 76.0674 88.0565 76.7657C83.1077 77.3485 77.4569 75.8217 73.5676 72.687C69.2806 69.2504 66.5684 64.2246 66.0493 58.7544C64.4131 43.0471 77.3155 28.7103 92.7222 27.1025Z" fill="var(--fill-0, #FFFCF2)" stroke="var(--stroke-0, #C8E6D0)" stroke-width="2.21425"/>
<g id="Subtract">
<mask id="path-4-inside-1_0_513" fill="white">
<path d="M90.9159 31.1152C92.6832 31.0937 93.0313 32.4138 93.0116 33.873C95.2413 33.842 103.58 34.7235 101.354 38.6738C100.836 39.5932 99.9208 39.8799 98.9696 40.1366C96.2731 39.288 96.2956 38.6317 92.8632 38.2197C92.7081 41.4098 92.8113 45.3764 92.8124 48.5986C95.1947 48.7674 96.9766 48.9238 99.1903 50.0077C103.289 52.0145 103.633 56.976 101.734 60.6894C99.9421 64.1926 96.603 66.1826 92.9208 67.3368C93.0498 69.2955 93.27 72.3181 90.5282 72.5273C89.9859 72.5687 89.6189 72.2599 89.2352 71.9228C88.6981 70.9893 88.8617 69.0751 88.8788 67.9521C85.7397 68.1019 82.6286 67.5079 79.8515 66.0165C78.8604 65.4056 77.9936 64.9133 78.0145 63.6406C77.8222 62.3948 80.03 60.5437 81.1122 61.1493C84.1301 62.8395 85.4657 63.4046 88.9667 63.7157C89.02 60.2001 88.9977 56.6135 88.9911 53.0947C85.5242 52.9067 80.5375 51.902 79.4931 48.0497C77.6274 41.1653 82.9748 36.3715 88.8661 34.4833C88.8365 32.6212 89.2038 31.9571 90.9159 31.1152ZM92.8124 53.2363C92.7406 56.4921 92.7923 59.8738 92.8016 63.1396C94.3637 62.6213 95.0563 62.2796 96.328 61.2275C97.508 60.037 98.1184 58.9436 98.1444 57.2089C98.1919 54.0666 95.1903 53.6613 92.8124 53.2363ZM88.8485 38.7294C86.9486 39.4836 85.0511 40.4624 84.2138 42.4316C83.54 44.0165 83.5843 46.2103 85.1386 47.2421C86.4319 47.9633 87.5043 48.1373 88.9559 48.4198C88.9664 47.1651 89.0976 39.1357 88.8485 38.7294Z"/>
</mask>
<path d="M90.9159 31.1152C92.6832 31.0937 93.0313 32.4138 93.0116 33.873C95.2413 33.842 103.58 34.7235 101.354 38.6738C100.836 39.5932 99.9208 39.8799 98.9696 40.1366C96.2731 39.288 96.2956 38.6317 92.8632 38.2197C92.7081 41.4098 92.8113 45.3764 92.8124 48.5986C95.1947 48.7674 96.9766 48.9238 99.1903 50.0077C103.289 52.0145 103.633 56.976 101.734 60.6894C99.9421 64.1926 96.603 66.1826 92.9208 67.3368C93.0498 69.2955 93.27 72.3181 90.5282 72.5273C89.9859 72.5687 89.6189 72.2599 89.2352 71.9228C88.6981 70.9893 88.8617 69.0751 88.8788 67.9521C85.7397 68.1019 82.6286 67.5079 79.8515 66.0165C78.8604 65.4056 77.9936 64.9133 78.0145 63.6406C77.8222 62.3948 80.03 60.5437 81.1122 61.1493C84.1301 62.8395 85.4657 63.4046 88.9667 63.7157C89.02 60.2001 88.9977 56.6135 88.9911 53.0947C85.5242 52.9067 80.5375 51.902 79.4931 48.0497C77.6274 41.1653 82.9748 36.3715 88.8661 34.4833C88.8365 32.6212 89.2038 31.9571 90.9159 31.1152ZM92.8124 53.2363C92.7406 56.4921 92.7923 59.8738 92.8016 63.1396C94.3637 62.6213 95.0563 62.2796 96.328 61.2275C97.508 60.037 98.1184 58.9436 98.1444 57.2089C98.1919 54.0666 95.1903 53.6613 92.8124 53.2363ZM88.8485 38.7294C86.9486 39.4836 85.0511 40.4624 84.2138 42.4316C83.54 44.0165 83.5843 46.2103 85.1386 47.2421C86.4319 47.9633 87.5043 48.1373 88.9559 48.4198C88.9664 47.1651 89.0976 39.1357 88.8485 38.7294Z" fill="var(--fill-0, #FFFCF2)"/>
<path d="M90.9159 31.1152L90.8801 28.163L90.2124 28.1711L89.6131 28.4658L90.9159 31.1152ZM93.0116 33.873L90.0595 33.8331L90.0185 36.8671L93.0526 36.825L93.0116 33.873ZM101.354 38.6738L103.926 40.1236L103.926 40.1232L101.354 38.6738ZM98.9696 40.1366L98.0833 42.9528L98.9062 43.2118L99.739 42.987L98.9696 40.1366ZM92.8632 38.2197L93.2151 35.2884L90.0682 34.9106L89.9143 38.0763L92.8632 38.2197ZM92.8124 48.5986L89.8601 48.5995L89.8609 51.3492L92.6037 51.5435L92.8124 48.5986ZM99.1903 50.0077L97.892 52.6593L97.892 52.6593L99.1903 50.0077ZM101.734 60.6894L104.363 62.034L104.363 62.0332L101.734 60.6894ZM92.9208 67.3368L92.0377 64.5197L89.8222 65.2141L89.9748 67.5309L92.9208 67.3368ZM90.5282 72.5273L90.3036 69.5835L90.3034 69.5835L90.5282 72.5273ZM89.2352 71.9228L86.6763 73.3952L86.9198 73.8184L87.2867 74.1408L89.2352 71.9228ZM88.8788 67.9521L91.8308 67.997L91.8787 64.8532L88.738 65.0031L88.8788 67.9521ZM79.8515 66.0165L78.3023 68.5298L78.3772 68.5759L78.4546 68.6175L79.8515 66.0165ZM78.0145 63.6406L80.9665 63.6891L80.9706 63.4381L80.9323 63.1901L78.0145 63.6406ZM81.1122 61.1493L82.5548 58.5734L82.5541 58.573L81.1122 61.1493ZM88.9667 63.7157L88.7053 66.6565L91.8705 66.9378L91.9187 63.7605L88.9667 63.7157ZM88.9911 53.0947L91.9434 53.0892L91.9382 50.2978L89.1509 50.1466L88.9911 53.0947ZM79.4931 48.0497L76.6435 48.8219L76.6436 48.8223L79.4931 48.0497ZM88.8661 34.4833L89.7672 37.2948L91.8528 36.6263L91.8181 34.4365L88.8661 34.4833ZM92.8124 53.2363L93.3319 50.33L89.9368 49.7231L89.8608 53.1712L92.8124 53.2363ZM92.8016 63.1396L89.8493 63.148L89.861 67.2258L93.7313 65.9417L92.8016 63.1396ZM96.328 61.2275L98.21 63.5022L98.3223 63.4093L98.4249 63.3058L96.328 61.2275ZM98.1444 57.2089L95.1924 57.1643L95.1924 57.1646L98.1444 57.2089ZM88.8485 38.7294L91.3656 37.1864L90.0676 35.0691L87.7593 35.9854L88.8485 38.7294ZM84.2138 42.4316L81.4968 41.2763L81.4967 41.2766L84.2138 42.4316ZM85.1386 47.2421L83.5057 49.7018L83.6009 49.765L83.7007 49.8207L85.1386 47.2421ZM88.9559 48.4198L88.3919 51.3178L91.8787 51.9964L91.9082 48.4444L88.9559 48.4198ZM90.9159 31.1152L90.9517 34.0673C91.0274 34.0664 90.8845 34.0815 90.6481 33.9607C90.3914 33.8295 90.2059 33.6308 90.1015 33.4565C90.0147 33.3116 90.0168 33.2406 90.0328 33.3321C90.0482 33.4201 90.063 33.5796 90.0595 33.8331L93.0116 33.873L95.9637 33.9129C95.9752 33.0615 95.9127 31.6667 95.1663 30.4212C94.2376 28.8715 92.6412 28.1417 90.8801 28.163L90.9159 31.1152ZM93.0116 33.873L93.0526 36.825C93.9413 36.8127 96.227 37.0045 97.902 37.5751C98.7992 37.8807 99.026 38.1325 98.9866 38.0826C98.9155 37.9926 98.792 37.7747 98.7776 37.4739C98.7642 37.195 98.8568 37.0923 98.7823 37.2243L101.354 38.6738L103.926 40.1232C104.409 39.2677 104.727 38.2732 104.675 37.1902C104.622 36.0852 104.195 35.1506 103.62 34.423C102.574 33.0978 100.994 32.3904 99.8058 31.9858C97.3103 31.1357 94.3116 30.9023 92.9706 30.9209L93.0116 33.873ZM101.354 38.6738L98.7825 37.2239C98.8074 37.1799 98.8468 37.1286 98.8945 37.0846C98.9384 37.0441 98.9634 37.0336 98.9414 37.0453C98.9151 37.0593 98.8506 37.0896 98.7209 37.1336C98.5875 37.179 98.4279 37.2249 98.2003 37.2863L98.9696 40.1366L99.739 42.987C100.598 42.7551 102.733 42.2404 103.926 40.1236L101.354 38.6738ZM98.9696 40.1366L99.8559 37.3205C98.6826 36.9512 98.3524 36.7225 97.3424 36.2953C96.288 35.8493 95.1603 35.5219 93.2151 35.2884L92.8632 38.2197L92.5113 41.1509C93.9984 41.3295 94.5757 41.5362 95.0422 41.7335C95.5532 41.9497 96.5601 42.4734 98.0833 42.9528L98.9696 40.1366ZM92.8632 38.2197L89.9143 38.0763C89.7546 41.3617 89.8591 45.5008 89.8601 48.5995L92.8124 48.5986L95.7647 48.5976C95.7636 45.2521 95.6616 41.4579 95.812 38.363L92.8632 38.2197ZM92.8124 48.5986L92.6037 51.5435C94.9564 51.7102 96.2338 51.8473 97.892 52.6593L99.1903 50.0077L100.489 47.3562C97.7195 46.0003 95.433 45.8245 93.0211 45.6536L92.8124 48.5986ZM99.1903 50.0077L97.892 52.6593C99.002 53.2028 99.5954 54.0942 99.8078 55.2445C100.035 56.477 99.7995 57.988 99.1055 59.3455L101.734 60.6894L104.363 62.0332C105.567 59.6774 106.109 56.8509 105.614 54.1726C105.105 51.4121 103.477 48.8194 100.489 47.3562L99.1903 50.0077ZM101.734 60.6894L99.1059 59.3447C97.8195 61.8592 95.335 63.4861 92.0377 64.5197L92.9208 67.3368L93.8038 70.154C97.871 68.8792 102.065 66.5259 104.363 62.034L101.734 60.6894ZM92.9208 67.3368L89.9748 67.5309C90.0085 68.0417 90.0378 68.4882 90.0347 68.9235C90.0315 69.3631 89.9937 69.656 89.9469 69.8332C89.9016 70.0044 89.8904 69.9079 90.0477 69.759C90.2441 69.5731 90.4122 69.5752 90.3036 69.5835L90.5282 72.5273L90.7528 75.471C92.0151 75.3747 93.1838 74.9205 94.106 74.048C94.9892 73.2123 95.429 72.1984 95.6552 71.3431C96.0747 69.7574 95.9226 67.9902 95.8667 67.1427L92.9208 67.3368ZM90.5282 72.5273L90.3034 69.5835C90.4797 69.57 90.6665 69.5846 90.8496 69.6291C91.0278 69.6725 91.1621 69.7344 91.2454 69.7803C91.3234 69.8232 91.3597 69.8537 91.3413 69.8394C91.3184 69.8215 91.2806 69.7899 91.1838 69.7048L89.2352 71.9228L87.2867 74.1408C87.5669 74.3869 88.8175 75.6189 90.753 75.471L90.5282 72.5273ZM89.2352 71.9228L91.7942 70.4504C91.8926 70.6214 91.883 70.6904 91.8549 70.5363C91.8306 70.403 91.8093 70.1986 91.7999 69.9118C91.7786 69.2601 91.8193 68.7526 91.8308 67.997L88.8788 67.9521L85.9268 67.9071C85.9212 68.2745 85.8716 69.2857 85.8984 70.1052C85.9231 70.8562 86.0086 72.2348 86.6763 73.3952L89.2352 71.9228ZM88.8788 67.9521L88.738 65.0031C86.0615 65.1309 83.4942 64.6217 81.2483 63.4155L79.8515 66.0165L78.4546 68.6175C81.763 70.3942 85.4178 71.073 89.0196 70.9011L88.8788 67.9521ZM79.8515 66.0165L81.4006 63.5033C81.2633 63.4187 81.1618 63.3567 81.0571 63.2909C80.9573 63.2283 80.8814 63.1788 80.8196 63.1362C80.6898 63.0467 80.6738 63.0219 80.7019 63.0517C80.7425 63.0948 80.8288 63.2018 80.8948 63.3671C80.9615 63.5339 80.967 63.6585 80.9665 63.6891L78.0145 63.6406L75.0626 63.592C75.0388 65.0421 75.5704 66.2162 76.4052 67.1018C77.0721 67.8094 77.9378 68.3051 78.3023 68.5298L79.8515 66.0165ZM78.0145 63.6406L80.9323 63.1901C80.9817 63.5103 80.9407 63.7587 80.9044 63.8975C80.8684 64.0354 80.826 64.1099 80.8189 64.1222C80.8105 64.1365 80.8525 64.0695 80.9553 63.9853C81.0641 63.8963 81.0985 63.9038 81.0001 63.9335C80.937 63.9526 80.3643 64.114 79.6703 63.7256L81.1122 61.1493L82.5541 58.573C81.319 57.8818 80.0644 58.0475 79.2891 58.2822C78.4784 58.5277 77.7699 58.9622 77.2155 59.416C76.6552 59.8746 76.1136 60.4661 75.7116 61.1589C75.3356 61.807 74.906 62.8551 75.0968 64.091L78.0145 63.6406ZM81.1122 61.1493L79.6696 63.7252C81.1895 64.5764 82.4808 65.2586 83.906 65.7442C85.3635 66.2408 86.8301 66.4898 88.7053 66.6565L88.9667 63.7157L89.2281 60.775C87.6023 60.6305 86.6506 60.4413 85.8105 60.1551C84.9381 59.8578 84.0528 59.4124 82.5548 58.5734L81.1122 61.1493ZM88.9667 63.7157L91.9187 63.7605C91.9725 60.2123 91.95 56.5894 91.9434 53.0892L88.9911 53.0947L86.0388 53.1002C86.0454 56.6376 86.0675 60.1879 86.0147 63.671L88.9667 63.7157ZM88.9911 53.0947L89.1509 50.1466C87.5716 50.061 85.8385 49.793 84.4714 49.222C83.114 48.6551 82.5343 47.9845 82.3425 47.2772L79.4931 48.0497L76.6436 48.8223C77.4962 51.9672 79.932 53.7251 82.1958 54.6706C84.45 55.612 86.9437 55.9403 88.8313 56.0427L88.9911 53.0947ZM79.4931 48.0497L82.3426 47.2775C81.6783 44.8261 82.2696 42.8668 83.5741 41.2397C84.9586 39.513 87.2125 38.1136 89.7672 37.2948L88.8661 34.4833L87.965 31.6719C84.6285 32.7412 81.263 34.6828 78.9673 37.5461C76.5917 40.5091 75.4422 44.3889 76.6435 48.8219L79.4931 48.0497ZM88.8661 34.4833L91.8181 34.4365C91.812 34.0515 91.8303 33.8642 91.8442 33.7821C91.8539 33.7248 91.8468 33.8066 91.7701 33.9346C91.6927 34.0638 91.6213 34.1115 91.6608 34.0813C91.7206 34.0357 91.8747 33.9336 92.2187 33.7645L90.9159 31.1152L89.6131 28.4658C88.6372 28.9457 87.4635 29.6345 86.7056 30.8988C85.9547 32.1516 85.8978 33.4992 85.9141 34.5302L88.8661 34.4833ZM92.8124 53.2363L89.8608 53.1712C89.7879 56.476 89.8401 59.9331 89.8493 63.148L92.8016 63.1396L95.754 63.1311C95.7445 59.8146 95.6933 56.5082 95.764 53.3013L92.8124 53.2363ZM92.8016 63.1396L93.7313 65.9417C94.5582 65.6674 95.3122 65.3898 96.0648 64.9878C96.8313 64.5783 97.4916 64.0965 98.21 63.5022L96.328 61.2275L94.446 58.9527C93.8926 59.4106 93.5708 59.6257 93.2826 59.7797C92.9804 59.9411 92.6072 60.0935 91.8719 60.3374L92.8016 63.1396ZM96.328 61.2275L98.4249 63.3058C99.1472 62.577 99.8385 61.7363 100.336 60.6885C100.846 59.6141 101.078 58.4804 101.096 57.2532L98.1444 57.2089L95.1924 57.1646C95.1848 57.6721 95.0986 57.9525 95.0019 58.1561C94.8926 58.3863 94.6888 58.6874 94.2312 59.1491L96.328 61.2275ZM98.1444 57.2089L101.096 57.2535C101.116 55.9748 100.82 54.7721 100.151 53.729C99.4944 52.7044 98.6066 52.0343 97.7609 51.59C96.2186 50.7797 94.3267 50.5078 93.3319 50.33L92.8124 53.2363L92.2928 56.1425C92.941 56.2584 93.4604 56.3444 93.9696 56.466C94.4707 56.5857 94.8016 56.7052 95.0149 56.8173C95.2109 56.9202 95.2133 56.9672 95.1802 56.9156C95.1353 56.8455 95.1968 56.8718 95.1924 57.1643L98.1444 57.2089ZM88.8485 38.7294L87.7593 35.9854C85.8337 36.7497 82.8489 38.0966 81.4968 41.2763L84.2138 42.4316L86.9307 43.5868C87.2532 42.8282 88.0635 42.2174 89.9378 41.4735L88.8485 38.7294ZM84.2138 42.4316L81.4967 41.2766C80.9769 42.4995 80.7133 43.9822 80.9162 45.4489C81.1242 46.9525 81.8638 48.6118 83.5057 49.7018L85.1386 47.2421L86.7714 44.7824C86.8591 44.8406 86.7994 44.8871 86.7651 44.6397C86.7258 44.3552 86.7769 43.9485 86.9308 43.5865L84.2138 42.4316ZM85.1386 47.2421L83.7007 49.8207C85.4763 50.8108 87.0294 51.0526 88.3919 51.3178L88.9559 48.4198L89.5199 45.5219C87.9792 45.222 87.3875 45.1158 86.5764 44.6636L85.1386 47.2421ZM88.9559 48.4198L91.9082 48.4444C91.9131 47.8513 91.9489 45.4863 91.9519 43.2604C91.9534 42.1457 91.9468 41.0309 91.9231 40.1582C91.9114 39.7272 91.8945 39.3175 91.8686 38.9828C91.856 38.8204 91.8376 38.6265 91.8079 38.4358C91.7932 38.3421 91.7689 38.2033 91.7282 38.0467C91.703 37.9497 91.6087 37.5831 91.3656 37.1864L88.8485 38.7294L86.3315 40.2724C86.1039 39.9011 86.0245 39.5748 86.0134 39.5321C85.9868 39.4298 85.9758 39.3593 85.9739 39.347C85.9696 39.3192 85.9739 39.3407 85.9816 39.4392C85.9961 39.6263 86.0098 39.9203 86.0206 40.3188C86.042 41.1052 86.0487 42.1523 86.0472 43.2525C86.0443 45.4566 86.0092 47.7337 86.0037 48.3953L88.9559 48.4198Z" fill="var(--stroke-0, #C8E6D0)" mask="url(#path-4-inside-1_0_513)"/>
</g>
<path id="Vector_4" d="M162.733 70.0851C170.754 70.3089 174.054 82.697 165.403 83.3246C156.403 82.9229 154.701 70.796 162.733 70.0851Z" fill="var(--fill-0, #FFFCF2)" stroke="var(--stroke-0, #C8E6D0)" stroke-width="2.21425"/>
<path id="Vector_5" d="M14.6866 78.5894C23.1773 78.0066 26.7078 89.7068 18.9706 91.6728C11.0414 92.6209 6.29622 80.5117 14.6866 78.5894Z" fill="var(--fill-0, #FFFCF2)" stroke="var(--stroke-0, #C8E6D0)" stroke-width="2.21425"/>
<path id="Vector_6" d="M14.8898 20.5186C16.4272 20.4037 17.9698 20.848 19.2925 21.6187C21.1718 22.6905 22.5351 24.4796 23.0698 26.576C23.9215 29.9877 22.1818 32.8958 18.7412 33.7123C17.2134 33.8499 15.6824 33.4847 14.3813 32.6722C12.4218 31.4531 11.0212 29.5114 10.4826 27.2672C9.66355 23.7309 11.3768 21.2363 14.8898 20.5186Z" fill="var(--fill-0, #FFFCF2)" stroke="var(--stroke-0, #C8E6D0)" stroke-width="2.21425"/>
<path id="Vector_7" d="M162.504 12.1062C169.81 11.4997 174.553 24.1178 165.721 25.2724C156.645 25.1885 154.5 13.1508 162.504 12.1062Z" fill="var(--fill-0, #FFFCF2)" stroke="var(--stroke-0, #C8E6D0)" stroke-width="2.21425"/>
</g>
<defs>
<linearGradient id="paint0_linear_0_513" x1="1.1514" y1="47.8001" x2="110.033" y2="37.072" gradientUnits="userSpaceOnUse">
<stop offset="0.228262" stop-color="#FFFDF3"/>
<stop offset="0.552885" stop-color="#FFEEED"/>
<stop offset="1" stop-color="#FFFDF3"/>
</linearGradient>
</defs>
</svg>
