<svg preserveAspectRatio="none" width="100%" height="100%" overflow="visible" style="display: block;" viewBox="0 0 184.727 105.966" fill="none" xmlns="http://www.w3.org/2000/svg">
<g id="Bill">
<path id="Vector" d="M141.518 1.07954C151.32 0.646303 163.846 1.86903 173.259 4.21473C176.785 5.08825 180.172 6.44023 183.7 7.30754C183.563 10.4531 183.68 14.4592 183.682 17.6688L183.683 37.4531L183.679 98.6255C182.246 98.1422 180.792 97.6417 179.356 97.1935C138.465 84.4562 96.8341 100.296 55.9269 104.156C51.7575 104.55 47.646 104.747 43.4365 104.915C32.5904 105.234 21.376 104.253 10.842 101.624C7.40068 100.765 4.41125 99.7701 1.07898 98.6586C0.903196 96.0862 1.05151 91.7176 1.05172 88.9791L1.0529 69.763L1.03224 7.34832C1.72878 7.6457 3.2622 8.10768 4.01783 8.35214C7.14525 9.36139 10.3175 10.2254 13.5247 10.9418C47.1489 18.5437 81.9721 8.31583 115.208 3.46974C123.921 2.13234 132.708 1.33412 141.518 1.07954Z" fill="var(--fill-0, #FFFCEB)" stroke="var(--stroke-0, #C8E6D0)" stroke-width="1.98664"/>
<path id="Vector_2" d="M140.761 12.0443C144.153 11.8417 148.82 11.9956 152.181 12.1173C149.343 22.709 155.895 31.9557 166.099 34.8187C168.372 35.4565 170.406 35.5449 172.74 35.5452C172.557 42.2502 172.833 49.1168 172.716 55.8399C172.672 58.4091 172.603 61.4031 172.752 63.9552C169.558 62.2368 165.865 61.4329 162.277 62.1984C158.887 62.9278 155.926 64.9763 154.048 67.8904C151.169 72.3846 151.054 76.42 152.143 81.488C151.405 81.4178 150.636 81.4433 149.893 81.421C118.28 80.4638 87.7209 90.1208 56.4739 93.1617C52.3993 93.5578 48.36 93.7398 44.2778 93.9538C40.3354 94.055 36.3907 94.0284 32.4499 93.874C32.9558 92.2801 33.1984 90.4754 33.2027 88.807C33.1908 84.2766 31.3763 79.9378 28.1597 76.7479C23.4864 72.0578 18.4258 70.4458 11.9682 70.4468C12.1445 67.1962 12.0086 62.7776 12.0094 59.4206C12.0378 53.6527 12.0241 47.8846 11.9684 42.1169C13.9598 42.8826 15.4606 43.6241 17.6312 43.9311C22.9843 44.688 27.9769 42.4069 30.8478 37.779C33.4503 33.5839 33.6619 29.2668 32.5359 24.5234C61.2512 25.5846 85.577 18.8616 113.457 14.6878C122.5 13.2789 131.617 12.3964 140.761 12.0443Z" fill="url(#paint0_linear_0_500)" stroke="var(--stroke-0, #C8E6D0)" stroke-width="1.98664"/>
<path id="Vector_3" d="M94.7171 27.5864C94.7873 27.5758 94.8576 27.5652 94.9289 27.5546C106.392 26.5205 116.294 34.5917 117.315 46.2286C117.918 53.776 115.527 61.2576 110.658 67.0561C105.401 73.3007 98.1785 77.6789 89.9439 78.3933C84.8811 78.9895 79.1002 77.4276 75.1213 74.2206C70.7356 70.7049 67.961 65.5634 67.4299 59.9672C65.756 43.8981 78.9555 29.2311 94.7171 27.5864Z" fill="var(--fill-0, #FFFCF2)" stroke="var(--stroke-0, #C8E6D0)" stroke-width="1.98664"/>
<path id="Subtract" d="M92.8714 31.6937C94.6795 31.6718 95.0352 33.0231 95.0149 34.516C97.2955 34.4843 105.827 35.3849 103.55 39.4261C103.02 40.3668 102.084 40.6605 101.111 40.9232C98.3523 40.0551 98.3755 39.3838 94.8645 38.9623C94.7059 42.226 94.8107 46.284 94.8118 49.5804C97.2488 49.7531 99.0718 49.9122 101.336 51.0209C105.529 53.0738 105.881 58.1506 103.939 61.9496C102.105 65.5331 98.6898 67.5686 94.9231 68.7494C95.0552 70.7531 95.2804 73.8446 92.4759 74.059C91.9208 74.1015 91.5443 73.7867 91.1516 73.4418C90.6022 72.4868 90.7699 70.5281 90.7874 69.3793C87.576 69.5326 84.3931 68.9255 81.552 67.3998C80.5382 66.7749 79.6519 66.271 79.6731 64.9691C79.4761 63.6946 81.7349 61.8006 82.8421 62.4203C85.9293 64.1492 87.2958 64.7269 90.8772 65.0453C90.9317 61.4488 90.9084 57.7799 90.9016 54.18C87.3547 53.9877 82.2529 52.9592 81.1849 49.0179C79.2765 41.975 84.7478 37.0706 90.7747 35.139C90.7445 33.2342 91.12 32.555 92.8714 31.6937ZM94.8147 54.3275C94.7413 57.6583 94.7944 61.1174 94.804 64.4584C96.4016 63.9283 97.1098 63.5793 98.4104 62.5033C99.6178 61.2853 100.243 60.1668 100.27 58.392C100.319 55.1768 97.2475 54.7624 94.8147 54.3275ZM90.7552 39.4867C88.8114 40.2582 86.8695 41.2592 86.013 43.2738C85.3238 44.8953 85.3701 47.1392 86.9602 48.1947C88.2834 48.9325 89.3803 49.1107 90.8655 49.3998C90.8762 48.1162 91.01 39.9024 90.7552 39.4867Z" fill="var(--fill-0, #C8E6D0)"/>
<path id="Vector_4" d="M166.338 71.5624C174.543 71.7913 177.92 84.4647 169.069 85.1067C159.862 84.6958 158.12 72.2896 166.338 71.5624Z" fill="var(--fill-0, #FFFCF2)" stroke="var(--stroke-0, #C8E6D0)" stroke-width="1.98664"/>
<path id="Vector_5" d="M14.8895 80.2622C23.5758 79.666 27.1876 91.6356 19.2723 93.6468C11.1604 94.6168 6.30594 82.2287 14.8895 80.2622Z" fill="var(--fill-0, #FFFCF2)" stroke="var(--stroke-0, #C8E6D0)" stroke-width="1.98664"/>
<path id="Vector_6" d="M15.0894 20.8555C16.6622 20.738 18.2403 21.1925 19.5935 21.9809C21.5161 23.0774 22.9108 24.9077 23.4578 27.0524C24.3291 30.5427 22.5493 33.5177 19.0295 34.353C17.4665 34.4938 15.9003 34.1202 14.5692 33.289C12.5645 32.0418 11.1317 30.0554 10.5807 27.7595C9.74277 24.1418 11.4955 21.5897 15.0894 20.8555Z" fill="var(--fill-0, #FFFCF2)" stroke="var(--stroke-0, #C8E6D0)" stroke-width="1.98664"/>
<path id="Vector_7" d="M166.104 12.2484C173.579 11.628 178.431 24.5366 169.395 25.7178C160.11 25.632 157.915 13.3171 166.104 12.2484Z" fill="var(--fill-0, #FFFCF2)" stroke="var(--stroke-0, #C8E6D0)" stroke-width="1.98664"/>
</g>
<defs>
<linearGradient id="paint0_linear_0_500" x1="1.03804" y1="48.7632" x2="112.428" y2="37.788" gradientUnits="userSpaceOnUse">
<stop offset="0.228262" stop-color="#FFFDF3"/>
<stop offset="0.552885" stop-color="#FFEEED"/>
<stop offset="1" stop-color="#FFFDF3"/>
</linearGradient>
</defs>
</svg>
