<svg preserveAspectRatio="none" width="100%" height="100%" overflow="visible" style="display: block;" viewBox="0 0 374.763 283.296" fill="none" xmlns="http://www.w3.org/2000/svg">
<g id="Bill">
<path id="Vector" d="M271.405 52.9281C288.157 52.1877 309.564 54.2774 325.652 58.2863C331.678 59.7792 337.467 62.0898 343.495 63.5721C343.262 68.948 343.463 75.7947 343.464 81.2801L343.461 219.64C341.011 218.814 338.526 217.959 336.071 217.193C266.186 195.424 195.037 222.495 125.124 229.092C117.998 229.765 110.971 230.101 103.777 230.389C85.2403 230.935 66.0744 229.257 48.071 224.764C42.1896 223.296 37.0805 221.596 31.3855 219.697C31.085 215.3 31.3385 207.834 31.3389 203.154L31.3056 63.6418C32.496 64.1501 35.1167 64.9396 36.4081 65.3574C41.7531 67.0823 47.1746 68.559 52.6559 69.7832C110.122 82.7754 169.637 65.2954 226.439 57.0131C241.329 54.7274 256.347 53.3632 271.405 52.9281Z" fill="var(--fill-0, #FFFCEB)" stroke="var(--stroke-0, #C8E6D0)" stroke-width="2.21425"/>
<path id="Vector_2" d="M270.113 71.6646C275.911 71.3183 283.886 71.5815 289.631 71.7895C284.782 89.8913 295.978 105.694 313.418 110.588C317.303 111.678 320.779 111.829 324.767 111.829C324.454 123.288 324.928 135.024 324.727 146.514C324.651 150.905 324.534 156.022 324.789 160.384C319.33 157.447 313.018 156.073 306.885 157.381C301.092 158.628 296.031 162.129 292.823 167.109C287.902 174.79 287.706 181.687 289.566 190.348C288.305 190.228 286.991 190.272 285.721 190.234C231.693 188.598 179.465 205.102 126.062 210.299C119.098 210.976 112.195 211.287 105.218 211.653C98.4803 211.826 91.7386 211.78 85.0036 211.517C85.8681 208.793 86.2828 205.708 86.2901 202.857C86.2699 195.114 83.1688 187.699 77.6714 182.247C69.6844 174.231 61.0355 171.476 49.9992 171.478C50.3005 165.923 50.0681 158.371 50.0696 152.634C50.118 142.776 50.0947 132.918 49.9995 123.061C53.4029 124.369 55.9679 125.636 59.6775 126.161C68.8263 127.455 77.3589 123.556 82.2655 115.647C86.7134 108.477 87.0749 101.099 85.1506 92.9922C134.227 94.8058 175.801 83.3158 223.449 76.1825C238.904 73.7747 254.486 72.2664 270.113 71.6646Z" fill="url(#paint0_linear_0_276)" stroke="var(--stroke-0, #C8E6D0)" stroke-width="2.21425"/>
<path id="Vector_3" d="M191.41 98.2261C191.53 98.2081 191.65 98.1899 191.772 98.1719C211.362 96.4045 228.285 110.199 230.03 130.087C231.062 142.986 226.975 155.772 218.654 165.682C209.668 176.355 197.325 183.837 183.252 185.058C174.599 186.077 164.719 183.408 157.919 177.927C150.424 171.918 145.682 163.131 144.774 153.567C141.913 126.104 164.472 101.037 191.41 98.2261Z" fill="var(--fill-0, #FFFCF2)" stroke="var(--stroke-0, #C8E6D0)" stroke-width="2.21425"/>
<path id="Subtract" d="M188.266 105.245C191.356 105.208 191.964 107.517 191.93 110.068C195.828 110.014 210.408 111.554 206.516 118.461C205.61 120.069 204.01 120.571 202.347 121.019C197.632 119.536 197.672 118.388 191.671 117.668C191.4 123.246 191.58 130.181 191.582 135.814C195.747 136.11 198.862 136.382 202.732 138.277C209.898 141.786 210.499 150.461 207.18 156.954C204.046 163.079 198.209 166.558 191.771 168.576C191.996 172.001 192.382 177.285 187.589 177.651C186.64 177.724 185.997 177.185 185.326 176.596C184.387 174.963 184.673 171.615 184.703 169.651C179.215 169.913 173.776 168.877 168.92 166.269C167.187 165.201 165.672 164.34 165.708 162.114C165.372 159.936 169.232 156.7 171.124 157.759C176.401 160.714 178.736 161.702 184.857 162.246C184.951 156.099 184.911 149.828 184.899 143.676C178.838 143.347 170.119 141.59 168.293 134.854C165.031 122.817 174.381 114.435 184.682 111.134C184.63 107.878 185.272 106.717 188.266 105.245ZM191.586 143.923C191.46 149.615 191.551 155.527 191.567 161.237C194.299 160.331 195.509 159.734 197.732 157.894C199.796 155.813 200.864 153.902 200.909 150.869C200.993 145.374 195.744 144.666 191.586 143.923ZM184.656 118.56C181.334 119.878 178.016 121.589 176.552 125.032C175.374 127.804 175.453 131.639 178.171 133.443C180.432 134.704 182.307 135.008 184.845 135.502C184.863 133.308 185.092 119.269 184.656 118.56Z" fill="var(--fill-0, #C8E6D0)"/>
<path id="Vector_4" d="M313.827 173.383C327.852 173.775 333.622 195.434 318.495 196.532C302.76 195.829 299.783 174.626 313.827 173.383Z" fill="var(--fill-0, #FFFCF2)" stroke="var(--stroke-0, #C8E6D0)" stroke-width="2.21425"/>
<path id="Vector_5" d="M54.9869 188.255C69.8322 187.236 76.0051 207.693 62.4772 211.131C48.6136 212.788 40.317 191.616 54.9869 188.255Z" fill="var(--fill-0, #FFFCF2)" stroke="var(--stroke-0, #C8E6D0)" stroke-width="3"/>
<path id="Vector_6" d="M55.3343 86.7233C58.0223 86.5224 60.7195 87.2992 63.0321 88.6467C66.3179 90.5206 68.7015 93.6488 69.6364 97.3142C71.1255 103.279 68.0837 108.364 62.0682 109.791C59.3969 110.032 56.7202 109.393 54.4452 107.973C51.0191 105.841 48.5704 102.446 47.6287 98.5227C46.1966 92.3397 49.1922 87.9782 55.3343 86.7233Z" fill="var(--fill-0, #FFFCF2)" stroke="var(--stroke-0, #C8E6D0)" stroke-width="2.21425"/>
<path id="Vector_7" d="M313.425 72.0094C326.199 70.9491 334.491 93.0107 319.05 95.0295C303.18 94.8828 299.43 73.8358 313.425 72.0094Z" fill="var(--fill-0, #FFFCF2)" stroke="var(--stroke-0, #C8E6D0)" stroke-width="2.21425"/>
</g>
<defs>
<linearGradient id="paint0_linear_0_276" x1="31.3172" y1="134.418" x2="221.689" y2="115.66" gradientUnits="userSpaceOnUse">
<stop offset="0.228262" stop-color="#FFFDF3"/>
<stop offset="0.552885" stop-color="#FFEEED"/>
<stop offset="1" stop-color="#FFFDF3"/>
</linearGradient>
</defs>
</svg>
