<svg preserveAspectRatio="none" width="100%" height="100%" overflow="visible" style="display: block;" viewBox="0 0 180.846 103.853" fill="none" xmlns="http://www.w3.org/2000/svg">
<g id="Group 26273">
<path id="Vector" d="M138.469 1.1914C148.05 0.767918 160.293 1.96312 169.495 4.25601C172.941 5.10987 176.252 6.43141 179.7 7.2792C179.567 10.3539 179.682 14.2698 179.683 17.4072L179.684 36.7461L179.681 96.5414C178.28 96.0689 176.858 95.5798 175.454 95.1416C135.484 82.6911 94.7903 98.1744 54.804 101.947C50.7285 102.332 46.7095 102.525 42.5948 102.689C31.9928 103.001 21.0309 102.042 10.734 99.4722C7.3702 98.6323 4.44808 97.6603 1.19082 96.5737C1.01899 94.0593 1.16397 89.789 1.16418 87.1122L1.16532 68.3287L1.14513 7.31906C1.826 7.60974 3.32489 8.06132 4.06352 8.30028C7.12053 9.28681 10.2214 10.1314 13.3563 10.8316C46.2236 18.2624 80.2628 8.26479 112.751 3.52779C121.267 2.2205 129.856 1.44025 138.469 1.1914Z" fill="var(--fill-0, #FFFCEB)" stroke="var(--stroke-0, #C8E6D0)" stroke-width="2.21425"/>
<path id="Vector_2" d="M137.73 11.9115C141.046 11.7135 145.607 11.864 148.893 11.9829C146.119 22.3361 152.523 31.3747 162.498 34.1733C164.72 34.7967 166.707 34.8831 168.989 34.8834C168.81 41.4374 169.08 48.1495 168.966 54.7212C168.922 57.2326 168.856 60.1592 169.001 62.6539C165.879 60.9741 162.269 60.1883 158.761 60.9366C155.448 61.6495 152.553 63.6519 150.718 66.5005C147.904 70.8935 147.792 74.838 148.855 79.792C148.134 79.7233 147.383 79.7483 146.656 79.7264C115.755 78.7908 85.884 88.2304 55.3404 91.2028C51.3575 91.59 47.4091 91.768 43.4189 91.9771C39.5652 92.076 35.7093 92.05 31.8572 91.8991C32.3517 90.3411 32.5889 88.577 32.593 86.9461C32.5815 82.5177 30.8078 78.2766 27.6636 75.1585C23.0955 70.574 18.1488 68.9983 11.8366 68.9993C12.009 65.8219 11.8761 61.5028 11.8769 58.2213C11.9046 52.5833 11.8913 46.945 11.8368 41.3071C13.7834 42.0557 15.2504 42.7804 17.3721 43.0805C22.6047 43.8204 27.4849 41.5906 30.2912 37.0669C32.8351 32.9662 33.0419 28.7464 31.9413 24.1097C60.0102 25.147 83.7883 18.5754 111.041 14.4955C119.88 13.1184 128.792 12.2557 137.73 11.9115Z" fill="url(#paint0_linear_0_248)" stroke="var(--stroke-0, #C8E6D0)" stroke-width="2.21425"/>
<path id="Vector_3" d="M92.7208 27.101C92.7895 27.0907 92.8582 27.0803 92.9279 27.07C104.133 26.0591 113.812 33.9487 114.81 45.3236C115.4 52.7011 113.062 60.0143 108.303 65.6822C103.164 71.7863 96.1043 76.0658 88.0551 76.7642C83.1063 77.347 77.4555 75.8202 73.5662 72.6855C69.2792 69.2489 66.567 64.2231 66.0479 58.7529C64.4117 43.0456 77.3141 28.7088 92.7208 27.101Z" fill="var(--fill-0, #FFFCF2)" stroke="var(--stroke-0, #C8E6D0)" stroke-width="2.21425"/>
<g id="Subtract">
<mask id="path-4-inside-1_0_248" fill="white">
<path d="M90.9187 31.115C92.6861 31.0935 93.0341 32.4145 93.0144 33.8738C95.2441 33.8429 103.582 34.7238 101.357 38.6736C100.839 39.5931 99.9236 39.8807 98.9724 40.1374C96.2758 39.2888 96.2983 38.6325 92.8659 38.2205C92.7109 41.4107 92.8141 45.3772 92.8152 48.5994C95.1974 48.7682 96.9794 48.9236 99.1931 50.0076C103.292 52.0142 103.635 56.9768 101.737 60.6902C99.9449 64.1932 96.6056 66.1825 92.9236 67.3367C93.0526 69.2954 93.2728 72.3179 90.531 72.5271C89.9886 72.5686 89.6208 72.2607 89.237 71.9236C88.7 70.9899 88.8635 69.0748 88.8806 67.9519C85.7416 68.1017 82.6312 67.5086 79.8542 66.0173C78.8631 65.4064 77.9964 64.9142 78.0173 63.6413C77.8247 62.3956 80.0327 60.5444 81.115 61.1501C84.1327 62.8402 85.4684 63.4054 88.9694 63.7165C89.0227 60.2009 88.9994 56.6143 88.9929 53.0955C85.5258 52.9074 80.5389 51.902 79.4948 48.0496C77.6295 41.1653 82.9777 36.3713 88.8689 34.4831C88.8393 32.6211 89.2064 31.9569 90.9187 31.115ZM92.8249 53.2361C92.7531 56.4918 92.8048 59.8737 92.8142 63.1394C94.3763 62.6211 95.0688 62.2795 96.3405 61.2273C97.5207 60.0367 98.1319 58.9436 98.1579 57.2087C98.2055 54.0661 95.2029 53.6612 92.8249 53.2361ZM88.8562 38.7273C86.9562 39.4815 85.0587 40.4603 84.2214 42.4294C83.5477 44.0143 83.592 46.2081 85.1462 47.24C86.4395 47.9611 87.512 48.1352 88.9636 48.4177C88.974 47.1629 89.1053 39.1336 88.8562 38.7273Z"/>
</mask>
<path d="M90.9187 31.115C92.6861 31.0935 93.0341 32.4145 93.0144 33.8738C95.2441 33.8429 103.582 34.7238 101.357 38.6736C100.839 39.5931 99.9236 39.8807 98.9724 40.1374C96.2758 39.2888 96.2983 38.6325 92.8659 38.2205C92.7109 41.4107 92.8141 45.3772 92.8152 48.5994C95.1974 48.7682 96.9794 48.9236 99.1931 50.0076C103.292 52.0142 103.635 56.9768 101.737 60.6902C99.9449 64.1932 96.6056 66.1825 92.9236 67.3367C93.0526 69.2954 93.2728 72.3179 90.531 72.5271C89.9886 72.5686 89.6208 72.2607 89.237 71.9236C88.7 70.9899 88.8635 69.0748 88.8806 67.9519C85.7416 68.1017 82.6312 67.5086 79.8542 66.0173C78.8631 65.4064 77.9964 64.9142 78.0173 63.6413C77.8247 62.3956 80.0327 60.5444 81.115 61.1501C84.1327 62.8402 85.4684 63.4054 88.9694 63.7165C89.0227 60.2009 88.9994 56.6143 88.9929 53.0955C85.5258 52.9074 80.5389 51.902 79.4948 48.0496C77.6295 41.1653 82.9777 36.3713 88.8689 34.4831C88.8393 32.6211 89.2064 31.9569 90.9187 31.115ZM92.8249 53.2361C92.7531 56.4918 92.8048 59.8737 92.8142 63.1394C94.3763 62.6211 95.0688 62.2795 96.3405 61.2273C97.5207 60.0367 98.1319 58.9436 98.1579 57.2087C98.2055 54.0661 95.2029 53.6612 92.8249 53.2361ZM88.8562 38.7273C86.9562 39.4815 85.0587 40.4603 84.2214 42.4294C83.5477 44.0143 83.592 46.2081 85.1462 47.24C86.4395 47.9611 87.512 48.1352 88.9636 48.4177C88.974 47.1629 89.1053 39.1336 88.8562 38.7273Z" fill="var(--fill-0, #FFFCF2)"/>
<path d="M90.9187 31.115L90.8829 28.1629L90.2152 28.171L89.616 28.4656L90.9187 31.115ZM93.0144 33.8738L90.0623 33.8338L90.0212 36.8679L93.0553 36.8258L93.0144 33.8738ZM101.357 38.6736L103.929 40.1233L103.929 40.1226L101.357 38.6736ZM98.9724 40.1374L98.0861 42.9536L98.9089 43.2126L99.7417 42.9878L98.9724 40.1374ZM92.8659 38.2205L93.2178 35.2892L90.071 34.9114L89.9171 38.0771L92.8659 38.2205ZM92.8152 48.5994L89.8628 48.6003L89.8637 51.35L92.6065 51.5443L92.8152 48.5994ZM99.1931 50.0076L97.8948 52.6591L97.8948 52.6591L99.1931 50.0076ZM101.737 60.6902L104.365 62.0348L104.366 62.034L101.737 60.6902ZM92.9236 67.3367L92.0405 64.5195L89.825 65.214L89.9776 67.5308L92.9236 67.3367ZM90.531 72.5271L90.3064 69.5833L90.3058 69.5834L90.531 72.5271ZM89.237 71.9236L86.6779 73.3956L86.9214 73.8191L87.2885 74.1416L89.237 71.9236ZM88.8806 67.9519L91.8326 67.9968L91.8804 64.853L88.7398 65.0029L88.8806 67.9519ZM79.8542 66.0173L78.305 68.5306L78.3799 68.5767L78.4574 68.6183L79.8542 66.0173ZM78.0173 63.6413L80.9692 63.6899L80.9734 63.4386L80.935 63.1902L78.0173 63.6413ZM81.115 61.1501L82.5575 58.5742L82.5568 58.5738L81.115 61.1501ZM88.9694 63.7165L88.7081 66.6573L91.8733 66.9386L91.9214 63.7613L88.9694 63.7165ZM88.9929 53.0955L91.9452 53.0899L91.94 50.2986L89.1528 50.1474L88.9929 53.0955ZM79.4948 48.0496L76.6453 48.8217L76.6453 48.8218L79.4948 48.0496ZM88.8689 34.4831L89.7699 37.2946L91.8555 36.6262L91.8208 34.4363L88.8689 34.4831ZM92.8249 53.2361L93.3445 50.3298L89.9493 49.7229L89.8733 53.171L92.8249 53.2361ZM92.8142 63.1394L89.8619 63.1479L89.8736 67.2256L93.7439 65.9415L92.8142 63.1394ZM96.3405 61.2273L98.2225 63.502L98.3348 63.4092L98.4373 63.3057L96.3405 61.2273ZM98.1579 57.2087L95.2059 57.164L95.2059 57.1645L98.1579 57.2087ZM88.8562 38.7273L91.3732 37.1843L90.0752 35.067L87.7669 35.9832L88.8562 38.7273ZM84.2214 42.4294L81.5045 41.2742L81.5044 41.2745L84.2214 42.4294ZM85.1462 47.24L83.5133 49.6996L83.6085 49.7628L83.7084 49.8185L85.1462 47.24ZM88.9636 48.4177L88.3996 51.3157L91.8863 51.9943L91.9158 48.4423L88.9636 48.4177ZM90.9187 31.115L90.9545 34.0671C91.03 34.0662 90.8868 34.0813 90.6503 33.9604C90.3936 33.8291 90.2083 33.6303 90.104 33.4562C90.0173 33.3115 90.0195 33.2408 90.0356 33.3325C90.051 33.4206 90.0657 33.5803 90.0623 33.8338L93.0144 33.8738L95.9664 33.9138C95.978 33.0623 95.9155 31.6675 95.1694 30.422C94.2411 28.8721 92.6448 28.1415 90.8829 28.1629L90.9187 31.115ZM93.0144 33.8738L93.0553 36.8258C93.9442 36.8135 96.2297 37.0053 97.9046 37.5756C98.8017 37.8812 99.0285 38.1329 98.9892 38.083C98.9181 37.9931 98.7946 37.7753 98.7801 37.4744C98.7666 37.1955 98.8592 37.0926 98.7849 37.2245L101.357 38.6736L103.929 40.1226C104.411 39.2671 104.73 38.2727 104.678 37.1897C104.625 36.0848 104.197 35.1503 103.623 34.4229C102.576 33.0979 100.996 32.3908 99.8081 31.9862C97.3127 31.1364 94.3142 30.9031 92.9734 30.9217L93.0144 33.8738ZM101.357 38.6736L98.7852 37.2239C98.81 37.18 98.8492 37.129 98.8966 37.0852C98.9403 37.0449 98.9651 37.0346 98.943 37.0462C98.9167 37.0602 98.8522 37.0906 98.7227 37.1346C98.5896 37.1799 98.4302 37.2258 98.203 37.2871L98.9724 40.1374L99.7417 42.9878C100.603 42.7552 102.736 42.2393 103.929 40.1233L101.357 38.6736ZM98.9724 40.1374L99.8586 37.3213C98.6853 36.952 98.3552 36.7233 97.3452 36.2961C96.2907 35.8501 95.1631 35.5227 93.2178 35.2892L92.8659 38.2205L92.5141 41.1517C94.0012 41.3303 94.5785 41.537 95.045 41.7343C95.556 41.9505 96.5628 42.4742 98.0861 42.9536L98.9724 40.1374ZM92.8659 38.2205L89.9171 38.0771C89.7574 41.3626 89.8618 45.5015 89.8628 48.6003L92.8152 48.5994L95.7675 48.5984C95.7664 45.2528 95.6643 41.4588 95.8148 38.3638L92.8659 38.2205ZM92.8152 48.5994L92.6065 51.5443C94.9604 51.7111 96.2371 51.8474 97.8948 52.6591L99.1931 50.0076L100.491 47.356C97.7218 45.9999 95.4344 45.8252 93.0238 45.6544L92.8152 48.5994ZM99.1931 50.0076L97.8948 52.6591C99.0047 53.2025 99.5982 54.094 99.8106 55.2447C100.038 56.4776 99.8022 57.9888 99.1083 59.3463L101.737 60.6902L104.366 62.034C105.57 59.6781 106.112 56.8514 105.617 54.173C105.108 51.4124 103.48 48.8193 100.491 47.356L99.1931 50.0076ZM101.737 60.6902L99.1087 59.3455C97.8225 61.8596 95.3381 63.4858 92.0405 64.5195L92.9236 67.3367L93.8066 70.1538C97.8731 68.8791 102.067 66.5269 104.365 62.0348L101.737 60.6902ZM92.9236 67.3367L89.9776 67.5308C90.0113 68.0416 90.0406 68.488 90.0375 68.9233C90.0343 69.363 89.9965 69.6558 89.9497 69.833C89.9044 70.0043 89.8932 69.9077 90.0506 69.7588C90.2469 69.5729 90.415 69.575 90.3064 69.5833L90.531 72.5271L90.7556 75.4709C92.0179 75.3746 93.1866 74.9204 94.1088 74.0478C94.992 73.2121 95.4318 72.1982 95.658 71.3429C96.0775 69.7572 95.9253 67.9899 95.8695 67.1426L92.9236 67.3367ZM90.531 72.5271L90.3058 69.5834C90.4811 69.5699 90.667 69.5843 90.8493 69.6284C91.0268 69.6714 91.1608 69.733 91.2442 69.7787C91.3223 69.8216 91.3588 69.8522 91.341 69.8383C91.3189 69.821 91.2813 69.7897 91.1856 69.7056L89.237 71.9236L87.2885 74.1416C87.5746 74.3929 88.8234 75.6187 90.7562 75.4708L90.531 72.5271ZM89.237 71.9236L91.7962 70.4515C91.8945 70.6225 91.8849 70.6914 91.8567 70.537C91.8324 70.4036 91.8112 70.199 91.8018 69.912C91.7804 69.26 91.8211 68.7523 91.8326 67.9968L88.8806 67.9519L85.9286 67.907C85.923 68.2744 85.8734 69.2857 85.9003 70.1054C85.9249 70.8564 86.0104 72.2352 86.6779 73.3956L89.237 71.9236ZM88.8806 67.9519L88.7398 65.0029C86.0629 65.1307 83.4964 64.6222 81.251 63.4163L79.8542 66.0173L78.4574 68.6183C81.7661 70.3951 85.4203 71.0727 89.0213 70.9009L88.8806 67.9519ZM79.8542 66.0173L81.4034 63.5041C81.2661 63.4195 81.1645 63.3575 81.0598 63.2917C80.96 63.2291 80.8841 63.1796 80.8223 63.137C80.6925 63.0474 80.6765 63.0227 80.7046 63.0525C80.7452 63.0956 80.8315 63.2026 80.8976 63.3679C80.9643 63.5348 80.9697 63.6594 80.9692 63.6899L78.0173 63.6413L75.0654 63.5928C75.0415 65.0429 75.5731 66.217 76.4079 67.1026C77.0749 67.8102 77.9406 68.3059 78.305 68.5306L79.8542 66.0173ZM78.0173 63.6413L80.935 63.1902C80.9845 63.5105 80.9435 63.759 80.9072 63.8979C80.8712 64.0359 80.8287 64.1105 80.8216 64.1229C80.8132 64.1373 80.8551 64.0703 80.9579 63.9861C81.0666 63.8971 81.101 63.9046 81.0027 63.9344C80.9397 63.9534 80.367 64.1148 79.6731 63.7264L81.115 61.1501L82.5568 58.5738C81.3218 57.8826 80.0672 58.0482 79.2918 58.283C78.4811 58.5284 77.7726 58.9629 77.2182 59.4167C76.6578 59.8754 76.1162 60.4669 75.7141 61.1599C75.3381 61.808 74.9085 62.8564 75.0996 64.0925L78.0173 63.6413ZM81.115 61.1501L79.6724 63.726C81.1922 64.5772 82.4835 65.2593 83.9087 65.745C85.3662 66.2416 86.8328 66.4906 88.7081 66.6573L88.9694 63.7165L89.2308 60.7758C87.605 60.6313 86.6533 60.4421 85.8132 60.1559C84.9408 59.8586 84.0555 59.4131 82.5575 58.5742L81.115 61.1501ZM88.9694 63.7165L91.9214 63.7613C91.9752 60.213 91.9517 56.5892 91.9452 53.0899L88.9929 53.0955L86.0406 53.101C86.0471 56.6394 86.0702 60.1889 86.0175 63.6718L88.9694 63.7165ZM88.9929 53.0955L89.1528 50.1474C87.5735 50.0618 85.8403 49.7936 84.4733 49.2225C83.1159 48.6554 82.5361 47.9847 82.3444 47.2773L79.4948 48.0496L76.6453 48.8218C77.4976 51.9669 79.9334 53.7251 82.1972 54.6709C84.4514 55.6126 86.9452 55.9411 88.833 56.0435L88.9929 53.0955ZM79.4948 48.0496L82.3444 47.2774C81.6802 44.8262 82.2717 42.8669 83.5764 41.2397C84.9611 39.5128 87.2153 38.1134 89.7699 37.2946L88.8689 34.4831L87.9678 31.6717C84.6313 32.741 81.2657 34.6826 78.9698 37.5459C76.594 40.5088 75.4441 44.3886 76.6453 48.8217L79.4948 48.0496ZM88.8689 34.4831L91.8208 34.4363C91.8147 34.0513 91.833 33.864 91.8469 33.7818C91.8566 33.7244 91.8496 33.8063 91.7729 33.9343C91.6954 34.0636 91.624 34.1113 91.6634 34.0812C91.7233 34.0355 91.8774 33.9335 92.2214 33.7644L90.9187 31.115L89.616 28.4656C88.6399 28.9455 87.4661 29.6344 86.7083 30.8987C85.9574 32.1516 85.9006 33.4992 85.9169 34.53L88.8689 34.4831ZM92.8249 53.2361L89.8733 53.171C89.8004 56.4758 89.8526 59.9329 89.8619 63.1479L92.8142 63.1394L95.7665 63.1309C95.757 59.8145 95.7058 56.5079 95.7765 53.3012L92.8249 53.2361ZM92.8142 63.1394L93.7439 65.9415C94.5707 65.6672 95.3248 65.3896 96.0774 64.9876C96.8439 64.5781 97.5042 64.0963 98.2225 63.502L96.3405 61.2273L94.4586 58.9525C93.9051 59.4104 93.5833 59.6255 93.2951 59.7795C92.993 59.9409 92.6198 60.0933 91.8845 60.3373L92.8142 63.1394ZM96.3405 61.2273L98.4373 63.3057C99.1594 62.5773 99.8509 61.7367 100.349 60.6891C100.859 59.6147 101.092 58.4808 101.11 57.253L98.1579 57.2087L95.2059 57.1645C95.1983 57.6715 95.1121 57.9516 95.0154 58.1552C94.906 58.3854 94.7018 58.6867 94.2438 59.1489L96.3405 61.2273ZM98.1579 57.2087L101.11 57.2534C101.129 55.9746 100.833 54.7717 100.164 53.7284C99.5074 52.7037 98.6195 52.0337 97.7737 51.5895C96.2312 50.7795 94.3391 50.5076 93.3445 50.3298L92.8249 53.2361L92.3054 56.1423C92.9537 56.2582 93.4732 56.3443 93.9826 56.4659C94.4838 56.5855 94.8149 56.7051 95.0283 56.8172C95.2245 56.9202 95.2269 56.9672 95.1938 56.9156C95.1488 56.8454 95.2104 56.8716 95.2059 57.164L98.1579 57.2087ZM88.8562 38.7273L87.7669 35.9832C85.8414 36.7476 82.8565 38.0945 81.5045 41.2742L84.2214 42.4294L86.9383 43.5847C87.2609 42.8261 88.0711 42.2153 89.9454 41.4713L88.8562 38.7273ZM84.2214 42.4294L81.5044 41.2745C80.9845 42.4974 80.7209 43.9801 80.9239 45.4467C81.1319 46.9503 81.8714 48.6096 83.5133 49.6996L85.1462 47.24L86.7792 44.7804C86.8668 44.8385 86.8071 44.885 86.7728 44.6375C86.7335 44.353 86.7846 43.9463 86.9384 43.5844L84.2214 42.4294ZM85.1462 47.24L83.7084 49.8185C85.4839 50.8086 87.0371 51.0505 88.3996 51.3157L88.9636 48.4177L89.5276 45.5198C87.9869 45.2199 87.3951 45.1137 86.584 44.6614L85.1462 47.24ZM88.9636 48.4177L91.9158 48.4423C91.9208 47.8491 91.9565 45.4841 91.9595 43.2583C91.961 42.1435 91.9545 41.0287 91.9307 40.1561C91.919 39.7251 91.9022 39.3154 91.8762 38.9806C91.8636 38.8183 91.8453 38.6244 91.8155 38.4337C91.8009 38.34 91.7765 38.2012 91.7358 38.0445C91.7106 37.9476 91.6164 37.581 91.3732 37.1843L88.8562 38.7273L86.3391 40.2703C86.1115 39.899 86.0321 39.5726 86.021 39.53C85.9944 39.4277 85.9835 39.3571 85.9816 39.3449C85.9772 39.3171 85.9816 39.3386 85.9892 39.4371C86.0037 39.6241 86.0174 39.9182 86.0283 40.3167C86.0496 41.103 86.0563 42.1502 86.0549 43.2504C86.0519 45.4545 86.0169 47.7315 86.0114 48.3932L88.9636 48.4177Z" fill="var(--stroke-0, #C8E6D0)" mask="url(#path-4-inside-1_0_248)"/>
</g>
<path id="Vector_4" d="M162.731 70.0871C170.752 70.3108 174.052 82.6989 165.4 83.3265C156.401 82.9248 154.698 70.7979 162.731 70.0871Z" fill="var(--fill-0, #FFFCF2)" stroke="var(--stroke-0, #C8E6D0)" stroke-width="2.21425"/>
<path id="Vector_5" d="M14.6904 78.592C23.1811 78.0091 26.7117 89.7093 18.9745 91.6753C11.0453 92.6234 6.30008 80.5142 14.6904 78.592Z" fill="var(--fill-0, #FFFCF2)" stroke="var(--stroke-0, #C8E6D0)" stroke-width="2.95234"/>
<path id="Vector_6" d="M14.8861 20.5244C16.4235 20.4095 17.9661 20.8538 19.2888 21.6245C21.1681 22.6963 22.5314 24.4855 23.0661 26.5819C23.9178 29.9936 22.178 32.9016 18.7375 33.7181C17.2097 33.8557 15.6787 33.4905 14.3776 32.6781C12.418 31.4589 11.0175 29.5172 10.4789 27.273C9.65984 23.7367 11.3731 21.2422 14.8861 20.5244Z" fill="var(--fill-0, #FFFCF2)" stroke="var(--stroke-0, #C8E6D0)" stroke-width="2.95234"/>
<path id="Vector_7" d="M162.501 12.1101C169.807 11.5037 174.55 24.1217 165.718 25.2763C156.642 25.1924 154.497 13.1547 162.501 12.1101Z" fill="var(--fill-0, #FFFCF2)" stroke="var(--stroke-0, #C8E6D0)" stroke-width="2.21425"/>
</g>
<defs>
<linearGradient id="paint0_linear_0_248" x1="1.15251" y1="47.8038" x2="110.034" y2="37.0757" gradientUnits="userSpaceOnUse">
<stop offset="0.228262" stop-color="#FFFDF3"/>
<stop offset="0.552885" stop-color="#FFEEED"/>
<stop offset="1" stop-color="#FFFDF3"/>
</linearGradient>
</defs>
</svg>
