<svg preserveAspectRatio="none" width="100%" height="100%" overflow="visible" style="display: block;" viewBox="0 0 262.339 150.136" fill="none" xmlns="http://www.w3.org/2000/svg">
<g id="Bill">
<path id="Vector" d="M201.212 1.11617C215.178 0.498903 233.024 2.24103 246.436 5.58315C251.46 6.82774 256.286 8.75402 261.312 9.98977C261.117 14.4715 261.284 20.1794 261.286 24.7524L261.287 52.9408L261.283 140.099C259.241 139.41 257.169 138.697 255.122 138.058C196.861 119.91 137.546 142.479 79.2622 147.978C73.3217 148.539 67.4637 148.82 61.466 149.06C46.0126 149.515 30.0345 148.116 15.0257 144.371C10.1226 143.146 5.86327 141.73 1.11549 140.146C0.865027 136.481 1.07635 130.256 1.07665 126.355L1.07832 98.9757L1.04889 10.0479C2.04131 10.4716 4.22611 11.1298 5.30273 11.4781C9.75864 12.9161 14.2784 14.1471 18.8479 15.1678C66.7554 25.9989 116.371 11.4264 163.725 4.5217C176.139 2.61619 188.659 1.47889 201.212 1.11617Z" fill="var(--fill-0, #FFFCEB)" stroke="var(--stroke-0, #C8E6D0)" stroke-width="1.98664"/>
<path id="Vector_2" d="M200.137 16.7382C204.97 16.4495 211.619 16.6688 216.408 16.8422C212.365 31.9331 221.699 45.1077 236.238 49.187C239.477 50.0957 242.375 50.2216 245.7 50.222C245.439 59.7752 245.833 69.5587 245.667 79.1377C245.603 82.7983 245.506 87.0641 245.718 90.7004C241.167 88.2519 235.905 87.1066 230.792 88.1973C225.962 89.2365 221.743 92.1552 219.069 96.3072C214.967 102.711 214.803 108.46 216.353 115.681C215.302 115.581 214.207 115.617 213.148 115.585C168.107 114.222 124.566 127.981 80.0457 132.313C74.2402 132.878 68.485 133.137 62.6688 133.442C57.0516 133.586 51.4313 133.548 45.8165 133.328C46.5372 131.057 46.883 128.486 46.889 126.109C46.8722 119.654 44.2869 113.472 39.7039 108.927C33.0454 102.245 25.8351 99.9481 16.6344 99.9496C16.8856 95.3181 16.6919 89.0226 16.6931 84.2394C16.7335 76.0215 16.7141 67.8031 16.6347 59.5853C19.472 60.6764 21.6104 61.7328 24.7029 62.1702C32.33 63.2486 39.4434 59.9986 43.5339 53.4047C47.2419 47.4276 47.5433 41.2767 45.9391 34.5183C86.8523 36.0303 121.511 26.4514 161.234 20.5046C174.118 18.4973 187.109 17.2398 200.137 16.7382Z" fill="url(#paint0_linear_0_140)" stroke="var(--stroke-0, #C8E6D0)" stroke-width="1.98664"/>
<path id="Vector_3" d="M134.526 38.8833C134.627 38.8682 134.727 38.8531 134.828 38.838C151.16 37.3646 165.269 48.8644 166.723 65.4446C167.584 76.198 164.176 86.8577 157.239 95.1194C149.748 104.017 139.458 110.255 127.726 111.272C120.512 112.122 112.276 109.897 106.607 105.327C100.358 100.318 96.4047 92.9925 95.648 85.0191C93.2631 62.1241 112.07 41.2267 134.526 38.8833Z" fill="var(--fill-0, #FFFCF2)" stroke="var(--stroke-0, #C8E6D0)" stroke-width="1.98664"/>
<path id="Subtract" d="M131.904 44.732C134.48 44.7008 134.988 46.6257 134.959 48.7526C138.209 48.7074 150.364 49.9916 147.119 55.7496C146.364 57.0898 145.03 57.5082 143.644 57.8824C139.713 56.6455 139.746 55.6891 134.743 55.0885C134.517 59.7385 134.667 65.5198 134.669 70.2164C138.141 70.4625 140.738 70.6903 143.965 72.2701C149.939 75.195 150.44 82.4268 147.673 87.8395C145.061 92.9456 140.194 95.8465 134.827 97.5289C135.015 100.384 135.336 104.789 131.34 105.094C130.549 105.155 130.014 104.706 129.454 104.214C128.671 102.854 128.91 100.062 128.935 98.4254C124.359 98.6439 119.824 97.779 115.776 95.6051C114.332 94.7148 113.068 93.9972 113.099 92.1422C112.818 90.3264 116.037 87.6277 117.614 88.5104C122.013 90.974 123.96 91.798 129.063 92.2516C129.141 87.1271 129.108 81.8993 129.099 76.7701C124.045 76.4962 116.776 75.0313 115.254 69.4156C112.535 59.3808 120.33 52.3934 128.917 49.6412C128.874 46.927 129.409 45.9592 131.904 44.732ZM134.683 76.9752C134.578 81.7212 134.653 86.6504 134.667 91.4108C136.944 90.6553 137.953 90.1572 139.807 88.6236C141.527 86.8882 142.418 85.295 142.456 82.7662C142.526 78.1851 138.149 77.5949 134.683 76.9752ZM128.899 55.8317C126.13 56.931 123.363 58.3574 122.143 61.2281C121.161 63.5385 121.226 66.7361 123.492 68.2399C125.377 69.291 126.941 69.5448 129.057 69.9567C129.072 68.1297 129.262 56.4266 128.899 55.8317Z" fill="var(--fill-0, #C8E6D0)"/>
<path id="Vector_4" d="M236.58 101.537C248.271 101.863 253.082 119.92 240.471 120.834C227.353 120.249 224.871 102.573 236.58 101.537Z" fill="var(--fill-0, #FFFCF2)" stroke="var(--stroke-0, #C8E6D0)" stroke-width="1.98664"/>
<path id="Vector_5" d="M20.7939 113.935C33.17 113.085 38.3161 130.139 27.0384 133.005C15.4807 134.387 8.56409 116.736 20.7939 113.935Z" fill="var(--fill-0, #FFFCF2)" stroke="var(--stroke-0, #C8E6D0)" stroke-width="1.98664"/>
<path id="Vector_6" d="M21.0799 29.2924C23.3208 29.125 25.5693 29.7726 27.4973 30.8959C30.2365 32.4581 32.2237 35.066 33.0031 38.1217C34.2445 43.0947 31.7086 47.3335 26.6937 48.5236C24.4667 48.7241 22.2352 48.1918 20.3387 47.0076C17.4824 45.2306 15.441 42.4003 14.6559 39.1292C13.4621 33.9747 15.9594 30.3386 21.0799 29.2924Z" fill="var(--fill-0, #FFFCF2)" stroke="var(--stroke-0, #C8E6D0)" stroke-width="1.98664"/>
<path id="Vector_7" d="M236.247 17.0245C246.897 16.1405 253.81 34.5326 240.936 36.2156C227.706 36.0933 224.58 18.5471 236.247 17.0245Z" fill="var(--fill-0, #FFFCF2)" stroke="var(--stroke-0, #C8E6D0)" stroke-width="1.98664"/>
</g>
<defs>
<linearGradient id="paint0_linear_0_140" x1="1.0612" y1="69.0549" x2="159.768" y2="53.4175" gradientUnits="userSpaceOnUse">
<stop offset="0.228262" stop-color="#FFFDF3"/>
<stop offset="0.552885" stop-color="#FFEEED"/>
<stop offset="1" stop-color="#FFFDF3"/>
</linearGradient>
</defs>
</svg>
