<svg preserveAspectRatio="none" width="100%" height="100%" overflow="visible" style="display: block;" viewBox="0 0 588.443 573.958" fill="none" xmlns="http://www.w3.org/2000/svg">
<g id="Bill">
<path id="Vector" d="M402.366 172.776C423.939 171.822 451.505 174.513 472.222 179.676C479.983 181.598 487.437 184.574 495.201 186.483C494.901 193.405 495.158 202.222 495.161 209.286L495.156 387.46C492.002 386.396 488.801 385.294 485.64 384.308C395.646 356.275 304.023 391.136 213.992 399.631C204.816 400.498 195.767 400.931 186.503 401.301C162.632 402.004 137.951 399.844 114.767 394.058C107.194 392.167 100.614 389.979 93.2805 387.532C92.8936 381.871 93.2201 372.256 93.2205 366.229L93.1776 186.572C94.7106 187.227 98.0854 188.244 99.7485 188.782C106.631 191.003 113.613 192.904 120.672 194.481C194.673 211.212 271.314 188.702 344.461 178.036C363.636 175.093 382.975 173.336 402.366 172.776Z" fill="var(--fill-0, #FFFCEB)" stroke="var(--stroke-0, #C8E6D0)" stroke-width="3.58882"/>
<path id="Vector_2" d="M400.703 196.905C408.169 196.459 418.44 196.798 425.837 197.066C419.592 220.376 434.011 240.727 456.469 247.028C461.472 248.432 465.948 248.626 471.084 248.627C470.681 263.383 471.29 278.496 471.033 293.292C470.934 298.947 470.784 305.536 471.112 311.153C464.082 307.371 455.953 305.602 448.057 307.287C440.595 308.892 434.079 313.4 429.948 319.814C423.611 329.705 423.358 338.586 425.753 349.74C424.129 349.585 422.437 349.642 420.802 349.592C351.227 347.486 283.971 368.739 215.201 375.432C206.233 376.304 197.343 376.704 188.359 377.175C179.682 377.398 171.001 377.339 162.328 377C163.441 373.492 163.975 369.52 163.984 365.848C163.958 355.877 159.965 346.328 152.886 339.308C142.601 328.985 131.463 325.438 117.251 325.44C117.639 318.286 117.34 308.561 117.341 301.173C117.404 288.479 117.374 275.784 117.251 263.09C121.634 264.775 124.937 266.407 129.714 267.083C141.495 268.749 152.483 263.728 158.802 253.543C164.53 244.31 164.995 234.809 162.517 224.369C225.715 226.705 279.252 211.909 340.612 202.723C360.513 199.622 380.579 197.68 400.703 196.905Z" fill="url(#paint0_linear_0_568)" stroke="var(--stroke-0, #C8E6D0)" stroke-width="3.58882"/>
<path id="Vector_3" d="M299.372 231.111C299.526 231.088 299.681 231.064 299.838 231.041C325.066 228.765 346.858 246.529 349.106 272.14C350.434 288.75 345.171 305.216 334.455 317.978C322.884 331.721 306.99 341.357 288.867 342.929C277.724 344.242 265.001 340.804 256.244 333.746C246.592 326.008 240.486 314.693 239.317 302.376C235.633 267.011 264.683 234.731 299.372 231.111Z" fill="var(--fill-0, #FFFCF2)" stroke="var(--stroke-0, #C8E6D0)" stroke-width="3.58882"/>
<path id="Subtract" d="M295.312 240.143C299.291 240.095 300.074 243.068 300.03 246.354C305.05 246.284 323.825 248.267 318.813 257.162C317.646 259.232 315.587 259.877 313.445 260.456C307.374 258.545 307.425 257.068 299.697 256.14C299.348 263.323 299.579 272.253 299.582 279.508C304.945 279.888 308.958 280.24 313.942 282.68C323.17 287.198 323.943 298.37 319.669 306.731C315.633 314.618 308.116 319.098 299.826 321.697C300.116 326.107 300.613 332.912 294.44 333.383C293.219 333.477 292.39 332.783 291.526 332.024C290.317 329.922 290.686 325.611 290.724 323.082C283.656 323.42 276.652 322.084 270.399 318.726C268.168 317.351 266.216 316.242 266.263 313.376C265.83 310.572 270.801 306.403 273.238 307.766C280.033 311.572 283.04 312.845 290.923 313.545C291.043 305.63 290.992 297.554 290.977 289.631C283.171 289.208 271.942 286.945 269.591 278.271C265.391 262.771 277.432 251.977 290.696 247.726C290.629 243.533 291.457 242.039 295.312 240.143ZM299.607 289.944C299.445 297.275 299.563 304.889 299.584 312.242C303.101 311.075 304.66 310.306 307.523 307.937C310.18 305.256 311.556 302.795 311.615 298.889C311.723 291.813 304.961 290.901 299.607 289.944ZM290.672 257.281C286.394 258.979 282.121 261.182 280.236 265.617C278.719 269.185 278.821 274.124 282.321 276.447C285.233 278.07 287.647 278.463 290.916 279.099C290.939 276.277 291.233 258.2 290.672 257.281Z" fill="var(--fill-0, #C8E6D0)"/>
<path id="Vector_4" d="M457.004 327.893C475.064 328.397 482.495 356.289 463.015 357.702C442.752 356.798 438.919 329.494 457.004 327.893Z" fill="var(--fill-0, #FFFCF2)" stroke="var(--stroke-0, #C8E6D0)" stroke-width="3.58882"/>
<path id="Vector_5" d="M123.689 347.041C142.806 345.729 150.755 372.072 133.335 376.498C115.482 378.633 104.798 351.369 123.689 347.041Z" fill="var(--fill-0, #FFFCF2)" stroke="var(--stroke-0, #C8E6D0)" stroke-width="3.58882"/>
<path id="Vector_6" d="M124.121 216.299C127.582 216.04 131.055 217.041 134.033 218.776C138.265 221.189 141.334 225.217 142.538 229.937C144.456 237.619 140.539 244.166 132.792 246.005C129.352 246.315 125.905 245.492 122.976 243.663C118.564 240.918 115.41 236.546 114.198 231.493C112.353 223.531 116.211 217.915 124.121 216.299Z" fill="var(--fill-0, #FFFCF2)" stroke="var(--stroke-0, #C8E6D0)" stroke-width="3.58882"/>
<path id="Vector_7" d="M456.49 197.351C472.94 195.985 483.618 224.395 463.733 226.995C443.297 226.806 438.468 199.703 456.49 197.351Z" fill="var(--fill-0, #FFFCF2)" stroke="var(--stroke-0, #C8E6D0)" stroke-width="3.58882"/>
</g>
<defs>
<linearGradient id="paint0_linear_0_568" x1="93.1973" y1="277.718" x2="338.348" y2="253.563" gradientUnits="userSpaceOnUse">
<stop offset="0.228262" stop-color="#FFFDF3"/>
<stop offset="0.552885" stop-color="#FFEEED"/>
<stop offset="1" stop-color="#FFFDF3"/>
</linearGradient>
</defs>
</svg>
