<svg preserveAspectRatio="none" width="100%" height="100%" overflow="visible" style="display: block;" viewBox="0 0 124.139 83.1768" fill="none" xmlns="http://www.w3.org/2000/svg">
<g id="Intersect" style="mix-blend-mode:multiply">
<path d="M54.4775 2.81934C54.8061 3.32872 55.67 4.38819 56.2275 5.10156H56.2285C57.9241 7.26787 59.7065 9.36467 61.5713 11.3867L62.376 12.249L62.3789 12.2529C73.6565 24.2641 87.612 32.9634 102.536 40.4619C109.187 43.8035 116.008 46.8918 122.855 49.9336L123.963 69.3926L124.139 72.4707L121.165 71.6533C119.721 71.2562 118.31 70.8584 116.915 70.5088V70.5078C97.0736 65.5457 77.359 67.3831 57.5059 71.2871C47.5722 73.2405 37.6733 75.6963 27.6973 78.0605C19.791 79.9343 11.85 81.7461 3.89355 83.1768C2.88774 81.9177 1.91408 80.6499 0.90332 79.332L0 78.1543L0.746094 76.8711C2.06134 74.6073 4.69057 70.979 6.10352 68.8896L16.626 53.332L50.7822 2.7793L52.6602 0L54.4775 2.81934Z" fill="var(--fill-0, #C8E6D0)"/>
</g>
</svg>
