<svg preserveAspectRatio="none" width="100%" height="100%" overflow="visible" style="display: block;" viewBox="0 0 376.527 219.803" fill="none" xmlns="http://www.w3.org/2000/svg">
<path id="Union" d="M156.947 9.46996C174.249 -0.555428 202.301 -0.555439 219.603 9.46996C222.431 11.1089 225.64 11.9717 228.906 11.9717H339.432C358.812 11.9717 374.523 27.7395 374.523 47.1899V108.643C374.593 109.481 374.593 110.322 374.523 111.16V111.722C374.523 111.742 374.508 111.759 374.489 111.763C374.471 111.767 374.457 111.781 374.455 111.799C373.702 117.723 369.417 123.525 361.6 128.054L219.603 210.333C202.301 220.358 174.249 220.358 156.947 210.333L14.9506 128.054C6.65018 123.245 2.33234 117.001 1.99606 110.7C1.99538 110.687 1.98608 110.677 1.9735 110.674C1.96039 110.672 1.95091 110.66 1.95091 110.647V47.1899C1.95091 27.7395 17.6617 11.9717 37.042 11.9717H147.645C150.911 11.9717 154.119 11.1089 156.947 9.46996Z" fill="url(#paint0_linear_0_110)" stroke="var(--stroke-0, #C8E6D0)" stroke-width="3.90183"/>
<defs>
<linearGradient id="paint0_linear_0_110" x1="13.6564" y1="87.466" x2="188.263" y2="217.852" gradientUnits="userSpaceOnUse">
<stop stop-color="#FFEEED"/>
<stop offset="1" stop-color="#FFFDF3"/>
</linearGradient>
</defs>
</svg>
