<svg preserveAspectRatio="none" width="100%" height="100%" overflow="visible" style="display: block;" viewBox="0 0 341.665 199.452" fill="none" xmlns="http://www.w3.org/2000/svg">
<path id="Union" d="M142.416 8.59316C158.116 -0.504003 183.57 -0.504012 199.27 8.59316C201.837 10.0803 204.748 10.8633 207.712 10.8633H308.004C325.59 10.8633 339.847 25.1711 339.847 42.8207V98.5837C339.911 99.3447 339.911 100.107 339.847 100.868V101.378C339.847 101.396 339.834 101.412 339.816 101.415C339.799 101.418 339.787 101.432 339.785 101.448C339.102 106.823 335.214 112.088 328.12 116.198L199.27 190.859C183.57 199.956 158.116 199.956 142.416 190.859L13.5663 116.198C6.03445 111.834 2.11639 106.168 1.81125 100.451C1.81063 100.439 1.80219 100.429 1.79078 100.427C1.77888 100.425 1.77028 100.414 1.77028 100.402V42.8207C1.77028 25.1711 16.0265 10.8633 33.6123 10.8633H133.975C136.938 10.8633 139.85 10.0803 142.416 8.59316Z" fill="url(#paint0_linear_0_589)" stroke="var(--stroke-0, #C8E6D0)" stroke-width="3.54057"/>
<defs>
<linearGradient id="paint0_linear_0_589" x1="12.392" y1="79.3677" x2="170.832" y2="197.682" gradientUnits="userSpaceOnUse">
<stop stop-color="#FFEEED"/>
<stop offset="1" stop-color="#FFFDF3"/>
</linearGradient>
</defs>
</svg>
