<svg preserveAspectRatio="none" width="100%" height="100%" overflow="visible" style="display: block;" viewBox="0 0 174.926 183.157" fill="none" xmlns="http://www.w3.org/2000/svg">
<path id="Union" fill-rule="evenodd" clip-rule="evenodd" d="M150.022 0.738084C154.439 0.7381 158.467 1.84111 162.105 4.04641C165.743 6.25213 168.666 9.17082 170.875 12.8035C173.083 16.4363 174.188 20.4582 174.188 24.8693C174.188 29.2803 173.083 33.3026 170.875 36.9354C168.666 40.5676 165.743 43.4868 162.105 45.6921C158.606 47.8133 154.748 48.9138 150.528 48.9952C150.489 49.1258 150.45 49.2573 150.411 49.3897C149.632 52.3738 148.917 54.9685 148.268 57.1743C147.098 61.715 145.669 66.9045 143.98 72.743C142.421 78.4514 140.473 84.4841 138.134 90.8412C135.795 97.0686 133.002 103.361 129.754 109.718C126.635 115.945 122.997 121.914 118.84 127.622C112.993 135.406 106.042 142.801 97.9869 149.807C90.0617 156.683 81.1617 162.911 71.2872 168.49C61.5427 173.938 50.9542 178.544 39.5205 182.307L13.7956 154.089C26.9177 151.105 38.2213 147.342 47.7058 142.801C57.1903 138.261 65.3756 133.136 72.2617 127.427C79.1477 121.589 85.1894 115.491 90.3863 109.134C94.544 103.945 98.0517 98.4957 100.91 92.7873C103.768 86.9492 106.107 81.1758 107.926 75.4674C109.745 69.6293 111.045 64.1152 111.824 58.9258H26.0732C21.2659 58.9258 16.4588 59.0554 11.6515 59.3147C6.97444 59.4444 3.3365 59.6394 0.738084 59.8987V26.6208C2.81672 26.8805 5.41512 27.1397 8.53328 27.399C11.6515 27.6587 14.8348 27.9182 18.0828 28.1779C21.3312 28.3076 23.9946 28.3722 26.0732 28.3722H112.019C114.227 28.3722 117.021 28.3076 120.399 28.1779C122.326 28.0298 124.19 27.7966 125.99 27.4796C125.901 26.6252 125.856 25.7551 125.856 24.8693C125.856 20.4582 126.96 16.4363 129.169 12.8035C131.377 9.17082 134.301 6.25214 137.939 4.04641C141.577 1.84108 145.605 0.738084 150.022 0.738084ZM150.022 14.5553C147.163 14.5553 144.695 15.5933 142.616 17.669C140.667 19.615 139.693 22.0153 139.693 24.8693C139.693 27.7237 140.667 30.1888 142.616 32.2645C144.695 34.2105 147.163 35.1835 150.022 35.1835C152.88 35.1835 155.284 34.2105 157.233 32.2645C159.312 30.1888 160.351 27.7237 160.351 24.8693C160.351 22.0153 159.312 19.615 157.233 17.669C155.284 15.5933 152.88 14.5554 150.022 14.5553Z" fill="var(--fill-0, #FFFAFA)" stroke="var(--stroke-2, #FEC4C0)" stroke-width="1.47617"/>
</svg>
