<svg preserveAspectRatio="none" width="100%" height="100%" overflow="visible" style="display: block;" viewBox="0 0 64.9262 56.1613" fill="none" xmlns="http://www.w3.org/2000/svg">
<path id="Union" fill-rule="evenodd" clip-rule="evenodd" d="M32.4631 0L30.7433 2.97527C30.7048 3.04193 30.6662 3.10853 30.6277 3.17524L0 56.1613H64.9262L32.4631 0ZM21.6751 26.6255L6.92859 52.1371C14.5985 51.9537 21.4961 51.0613 26.6454 48.4686C28.2873 47.6419 29.7377 46.6485 30.9759 45.4554C27.7006 43.2196 25.3416 40.6464 23.8059 37.7687C21.9641 34.3177 21.3846 30.5753 21.6675 26.7263C21.67 26.6927 21.6725 26.6591 21.6751 26.6255ZM28.1366 52.1766H57.9683C53.9053 45.5129 49.5015 39.6879 44.5564 36.2164C43.0416 35.153 41.4942 34.3238 39.9043 33.7578C39.6324 37.9622 38.5899 41.4831 36.8552 44.3985C34.8127 47.8312 31.8909 50.2888 28.4374 52.0276C28.3376 52.0779 28.2373 52.1275 28.1366 52.1766ZM46.9556 33.0345L32.4862 8.00229C28.7782 14.7919 26.0664 21.2602 25.6433 27.0161C25.5401 28.4197 25.5742 29.7694 25.7607 31.0644C29.3156 29.4066 32.731 28.7331 36.0101 28.929C39.9844 29.1664 43.589 30.6706 46.8471 32.9579C46.8833 32.9833 46.9195 33.0088 46.9556 33.0345ZM27.3237 35.8934C27.1588 35.5845 27.0064 35.2716 26.8661 34.9547C30.1324 33.3241 33.0841 32.7441 35.7742 32.9048C35.8362 32.9085 35.8981 32.9126 35.9599 32.9171C35.7834 36.864 34.87 39.9254 33.4546 42.3209C30.4964 40.3476 28.5421 38.1763 27.3237 35.8934Z" fill="var(--fill-0, #1F267B)"/>
</svg>
