<svg preserveAspectRatio="none" width="100%" height="100%" overflow="visible" style="display: block;" viewBox="0 0 56 56" fill="none" xmlns="http://www.w3.org/2000/svg">
<g id="Group 1171278863">
<circle id="Ellipse 660" cx="28.0022" cy="28.0002" r="24.8889" fill="var(--fill-0, #FAFAFA)"/>
<path id="Vector" d="M28 0C12.5537 0 0 12.5256 0 28C0 43.4744 12.5256 56 28 56C43.4744 56 56 43.4744 56 28C56 12.5256 43.4744 0 28 0ZM21.8215 46.7603C21.8215 47.322 21.2598 47.7151 20.6981 47.5186C12.5537 44.4855 7.16148 36.7904 7.16148 28C7.16148 19.2096 12.5537 11.5145 20.6981 8.48144C21.2317 8.28485 21.8215 8.67803 21.8215 9.23972V10.5035C21.8215 10.8405 21.5968 11.1494 21.2879 11.2618C14.4634 13.986 9.96991 20.5577 9.96991 28C9.96991 35.4423 14.4634 42.014 21.2879 44.7382C21.5968 44.8506 21.8215 45.1595 21.8215 45.4965V46.7603ZM29.1234 38.4754V41.1153C29.1234 41.4243 28.8706 41.6489 28.5898 41.6489H26.8485C26.5396 41.6489 26.3149 41.3962 26.3149 41.1153V38.3912C24.6861 38.0822 23.1133 37.3521 21.9619 36.3129C20.8385 35.2738 20.1645 33.9819 20.0241 32.5496C19.996 32.2407 20.2487 31.9599 20.5577 31.9599H22.2989C22.5797 31.9599 22.7763 32.1565 22.8325 32.4373C22.9448 33.1113 23.2818 33.7011 23.8716 34.2347C24.9669 35.2457 26.8205 35.8636 28.4493 35.7232C30.0221 35.6108 31.8195 34.4875 31.988 33.0552C32.2126 31.3982 31.6229 30.3872 30.0221 29.6851C29.2357 29.32 28.3651 29.0953 27.4383 28.8706C26.4554 28.6179 25.4162 28.3651 24.4052 27.9157C23.0291 27.2979 21.9338 26.1464 21.4002 24.7703C20.8666 23.3942 20.9509 21.8496 21.5968 20.4453C22.3831 18.7041 24.0963 17.5527 26.3149 17.1595V14.7442C26.3149 14.4353 26.5677 14.2106 26.8485 14.2106H28.5898C28.8987 14.2106 29.1234 14.4634 29.1234 14.7442V17.1314C30.8084 17.4122 32.3811 18.1986 33.4764 19.322C34.3751 20.2768 34.7121 21.3159 34.8806 22.4393C34.9368 22.7482 34.6841 23.0572 34.347 23.0572H32.662C32.4092 23.0572 32.1846 22.8606 32.1284 22.6078C32.0722 22.1304 31.8475 21.681 31.4544 21.2598C30.6118 20.3892 29.1234 19.7994 27.7753 19.8275C26.4273 19.8556 24.7703 20.333 24.1805 21.5968C23.8435 22.327 23.8154 23.0853 24.0682 23.7874C24.321 24.4614 24.8826 25.0512 25.5848 25.3601C26.3711 25.7252 27.2417 25.9218 28.1685 26.1745C29.1795 26.4273 30.1906 26.68 31.2016 27.1575C33.9258 28.3651 35.1615 30.5557 34.7964 33.4483C34.4313 36.1725 31.7071 38.0822 29.1234 38.4754ZM34.8245 47.7151C34.2909 47.8837 33.7573 47.4905 33.7573 46.9288V45.665C33.7573 45.328 33.9819 45.0191 34.2909 44.9067C41.2558 42.2949 46.0301 35.5547 46.0301 28C46.0301 20.4734 41.2558 13.7051 34.2909 11.0933C33.9819 10.9809 33.7573 10.672 33.7573 10.335V9.0993C33.7573 8.53761 34.319 8.14443 34.8245 8.31294C43.1374 11.2056 48.8385 19.1254 48.8385 28C48.8385 36.9308 43.1936 44.8786 34.8245 47.7151Z" fill="var(--fill-0, #3E73C4)"/>
</g>
</svg>
