<svg preserveAspectRatio="none" width="100%" height="100%" overflow="visible" style="display: block;" viewBox="0 0 308.38 306.822" fill="none" xmlns="http://www.w3.org/2000/svg">
<g id="Group">
<path id="Vector" d="M100.306 216.963C100.92 230.451 101.84 247.618 101.84 247.618C101.84 247.618 84.9787 257.426 89.8866 274.288C94.7945 291.149 132.189 289.92 145.982 283.485C159.776 277.047 158.55 270.303 157.936 257.43C157.322 244.556 154.562 220.337 154.562 220.337C154.562 220.337 153.028 207.154 130.346 207.463C107.664 207.772 100.306 216.967 100.306 216.967V216.963Z" fill="var(--fill-0, #39763D)"/>
<path id="Vector_2" d="M143.733 272.355C143.733 280.838 131.693 287.714 116.84 287.714C101.987 287.714 89.7243 280.834 89.947 272.355C90.2344 261.296 101.987 256.995 116.84 256.995C131.693 256.995 143.733 263.872 143.733 272.355Z" fill="var(--fill-0, #5B9D5D)"/>
<path id="Vector_3" d="M190.603 233.812C191.217 247.299 192.137 264.466 192.137 264.466C192.137 264.466 175.276 274.275 180.183 291.136C185.091 307.998 222.486 306.769 236.279 300.334C250.073 293.896 252.361 285.33 251.747 272.453C251.132 259.576 245.003 226.471 245.003 226.471C245.003 226.471 243.329 224.003 220.647 224.308C197.965 224.614 190.606 233.812 190.606 233.812H190.603Z" fill="var(--fill-0, #39763D)"/>
<path id="Vector_4" d="M100.306 216.963C100.92 230.451 101.84 247.618 101.84 247.618C101.84 247.618 84.9787 257.426 89.8866 274.288C94.7945 291.149 132.189 289.92 145.982 283.485C159.776 277.047 158.55 270.303 157.936 257.43C157.322 244.556 154.562 220.337 154.562 220.337C154.562 220.337 153.028 207.154 130.346 207.463C107.664 207.772 100.306 216.967 100.306 216.967V216.963Z" stroke="var(--stroke-0, #1C542C)" stroke-width="4.17382" stroke-miterlimit="10" stroke-linecap="round"/>
<path id="Vector_5" d="M190.603 233.812C191.217 247.299 192.137 264.466 192.137 264.466C192.137 264.466 175.276 274.275 180.183 291.136C185.091 307.998 222.486 306.769 236.279 300.334C250.073 293.896 252.361 285.33 251.747 272.453C251.132 259.576 245.003 226.471 245.003 226.471C245.003 226.471 243.329 224.003 220.647 224.308C197.965 224.614 190.606 233.812 190.606 233.812H190.603Z" stroke="var(--stroke-0, #1C542C)" stroke-width="4.17382" stroke-miterlimit="10" stroke-linecap="round"/>
<path id="Vector_6" d="M213.848 299.705C229.119 298.608 240.934 289.85 240.236 280.144C239.539 270.438 226.594 263.46 211.322 264.557C196.051 265.654 184.236 274.412 184.933 284.118C185.631 293.824 198.576 300.803 213.848 299.705Z" fill="var(--fill-0, #5B9D5D)"/>
<path id="Vector_7" d="M192.131 277.791C191.488 278.715 191.129 279.847 191.312 280.95C191.747 283.565 194.42 284.014 196.586 283.263C199.263 282.336 201.239 279.408 200.19 276.538C199.802 275.481 198.803 274.59 197.621 274.716C195.774 274.91 193.838 275.862 192.577 277.231C192.415 277.407 192.264 277.594 192.128 277.791H192.131Z" fill="var(--fill-0, #9DD081)"/>
<path id="Vector_8" d="M98.0078 262.917C98.0042 263.136 98.0078 263.352 98.0258 263.564C98.0976 264.58 98.4964 265.619 99.294 266.255C100.458 267.182 102.179 267.034 103.523 266.395C106.034 265.198 107.389 262.547 107.428 259.834C107.446 258.688 107.152 257.506 106.43 256.618C105.107 254.991 102.808 255.074 101.216 256.263C99.2833 257.707 98.0545 260.47 98.0078 262.917Z" fill="var(--fill-0, #9DD081)"/>
<path id="Vector_9" d="M148.946 3.5942C174.024 9.2566 261.393 27.0558 282.831 33.1206C304.27 39.189 303.056 54.1534 303.462 65.8842C303.868 77.6151 306.293 158.107 306.293 174.286C306.293 190.464 304.27 198.958 287.685 209.88C271.101 220.803 236.72 238.196 220.135 244.667C203.551 251.138 194.68 247.092 181.925 244.667C169.17 242.242 91.9121 223.634 68.4541 218.78C44.9925 213.926 36.4522 202.677 36.4989 188.848C36.5636 170.222 44.9135 88.3506 48.8369 65.101C52.7604 41.8514 62.0013 28.1229 78.5322 19.9994C95.0631 11.8758 112.097 7.54279 123.393 4.20499C138.199 -0.171159 148.949 3.5906 148.949 3.5906L148.946 3.5942Z" fill="var(--fill-0, #FFFCEB)"/>
<path id="Vector_10" d="M220.198 244.804C217.615 246.069 215.078 247.412 212.61 248.882C211.913 249.295 210.91 249.669 210.397 249.04C210.106 248.684 210.145 248.17 210.206 247.714C210.533 245.235 211.004 242.774 211.611 240.345C212.24 237.834 213.055 235.283 214.744 233.325C215.872 232.017 217.324 231.043 218.685 229.98C221.272 227.96 223.554 225.593 225.735 223.15C230.064 218.303 235.292 214.182 239.768 209.367C244.382 204.405 248.711 199.178 252.735 193.727C260.704 182.934 267.477 171.257 272.881 158.977C277.875 147.63 281.701 135.77 284.213 123.63C285.513 117.346 286.99 111.155 287.708 104.792C288.578 97.1072 289.095 89.386 289.832 81.6865C290.522 74.5007 291.416 67.3292 291.758 60.1183C292.042 54.1146 291.873 47.7983 288.941 42.549C286.656 38.4603 282.916 35.4207 279.265 32.4853C287.274 34.0015 296.238 37.9896 300.161 45.4988C303.438 51.7756 303.219 59.0081 303.456 65.8849C303.862 77.6157 306.287 158.107 306.287 174.286C306.287 190.465 304.265 198.959 287.68 209.881C283.577 213.47 277.763 216.021 273.039 218.691C262.856 224.436 252.459 229.814 241.935 234.909C234.767 238.38 227.323 241.304 220.198 244.797V244.804Z" fill="var(--fill-0, #E6E2BF)"/>
<path id="Vector_11" d="M203.55 244.099C198.8 244.099 194.482 243.136 189.481 242.019C187.436 241.563 185.324 241.092 183.06 240.661C176.916 239.493 155.172 234.42 132.149 229.049C106.851 223.146 80.6912 217.045 68.4035 214.501C58.2033 212.392 50.7049 208.954 46.1132 204.286C42.2724 200.381 40.4148 195.574 40.4364 189.588C40.5011 170.833 49.0486 87.7868 52.8355 65.342C56.4859 43.6948 64.5771 31.2454 79.8936 23.7219C93.7945 16.8882 108.45 12.6809 119.15 9.60537C121.004 9.07362 122.76 8.56703 124.395 8.08558C128.703 6.81369 133.065 6.16697 137.366 6.16697C143.2 6.16697 146.89 7.38137 146.926 7.39215L147.253 7.51071L147.494 7.55383C155.714 9.41136 170.427 12.53 187.461 16.1409C223.387 23.7578 268.093 33.2358 282.598 37.3389C298.913 41.9558 299.15 51.6423 299.423 62.8593C299.445 63.7252 299.466 64.5767 299.495 65.4138C299.879 76.5374 302.355 158.376 302.355 174.843C302.355 189.843 300.943 196.44 285.993 206.284C269.149 217.375 234.916 234.607 218.702 240.934C213.176 243.09 208.361 244.096 203.554 244.096L203.55 244.099Z" stroke="var(--stroke-0, white)" stroke-width="3.826" stroke-miterlimit="10"/>
<path id="Vector_12" d="M294.636 41.0791C289.652 41.2982 284.683 41.8839 279.786 42.8216C268.795 44.9271 258.347 48.9008 248.499 54.1716C240.074 58.6807 231.684 65.7623 228.634 75.1074C221.664 96.4815 218.876 146.66 216.555 176.398C214.23 206.133 214.392 244.012 200.452 243.549" stroke="var(--stroke-0, white)" stroke-width="5.91291" stroke-miterlimit="10"/>
<path id="Vector_13" d="M270.484 45.3828C258.024 49.8308 243.077 56.9843 234.975 67.7199C232.942 70.4397 231.415 73.4218 230.542 76.6698C228.914 82.3429 227.89 88.1491 226.924 94.0235C221.75 127.15 219.774 160.999 217.517 194.456C216.91 204.113 216.321 213.778 214.902 223.386C213.946 229.479 212.847 235.659 210.173 241.303C208.812 244.045 206.229 248.069 202.819 247.911C202.075 247.857 201.342 247.591 200.757 247.016C201.375 246.477 201.852 246.1 202.276 245.751C203.473 244.763 204.644 244.106 205.564 242.744C206.8 241.02 207.666 238.878 208.363 236.69C209.056 234.488 209.566 232.195 210.012 229.882C212.121 218.126 212.57 206.194 213.303 194.204C214.381 175.252 215.962 155.419 217.392 136.495C218.786 119.616 219.993 102.661 223.392 86.0293C224.143 82.4292 225.041 78.8255 226.187 75.3117C226.945 72.8469 228.088 70.4505 229.475 68.2875C237.997 55.3603 255.775 48.1386 270.477 45.3721L270.484 45.3828Z" fill="var(--fill-0, #1C542C)"/>
<path id="Vector_14" d="M148.946 3.5942C174.024 9.2566 261.393 27.0558 282.831 33.1206C304.27 39.189 303.056 54.1534 303.462 65.8842C303.868 77.6151 306.293 158.107 306.293 174.286C306.293 190.464 304.27 198.958 287.685 209.88C271.101 220.803 236.72 238.196 220.135 244.667C203.551 251.138 194.68 247.092 181.925 244.667C169.17 242.242 91.9121 223.634 68.4541 218.78C44.9925 213.926 36.4522 202.677 36.4989 188.848C36.5636 170.222 44.9135 88.3506 48.8369 65.101C52.7604 41.8514 62.0013 28.1229 78.5322 19.9994C95.0631 11.8758 112.097 7.54279 123.393 4.20499C138.199 -0.171159 148.949 3.5906 148.949 3.5906L148.946 3.5942Z" stroke="var(--stroke-0, #1C542C)" stroke-width="4.17382" stroke-miterlimit="10"/>
<path id="Vector_15" d="M108.87 35.1103C132.522 38.4805 155.89 43.4962 179.082 49.1801C186.688 51.0951 194.654 53.1323 202.12 55.5216C170.7 50.3658 139.539 43.6974 108.87 35.1103Z" fill="var(--fill-0, #1C542C)"/>
<path id="Vector_16" d="M194.613 101.261C194.527 105.684 193.245 110.06 190.862 113.793C185.843 121.661 175.981 124.579 167.121 122.901C161.447 121.827 157.226 118.413 154.226 113.545C151.804 109.618 150.593 105.012 150.683 100.402C150.935 87.5648 160.973 77.3538 173.103 77.5909C185.232 77.8281 194.865 88.4271 194.613 101.265V101.261Z" fill="var(--fill-0, white)"/>
<path id="Vector_17" d="M164.839 122.591C151.588 118.097 145.937 102.09 151.631 89.6302C156.273 79.0599 168.087 73.0059 179.336 76.2539C196.693 81.1582 202.482 104.146 189.799 116.818C189.015 117.63 188.042 118.399 187.133 119.067C186.508 119.509 185.706 119.99 185.027 120.35C184.815 120.472 184.377 120.691 184.151 120.781C183.852 120.914 183.558 121.047 183.26 121.172C185.243 119.502 186.985 117.669 188.358 115.61L188.868 114.842L189.328 114.044C195.091 104.235 193.212 90.8518 184.036 83.8565C178.603 79.5701 170.886 78.5569 164.559 81.4384C147.464 89.332 147.92 114.604 164.846 122.599L164.839 122.591Z" fill="var(--fill-0, #1C542C)"/>
<path id="Vector_18" d="M80.4523 105.216C73.7372 101.99 69.5623 94.7502 68.9586 87.4243C68.4305 81.0972 70.2736 74.5869 74.0534 69.4706C84.8177 54.6032 106.177 58.3003 111.506 75.7402C114.815 86.4542 109.896 99.4282 99.8611 104.552C107.543 99.0833 111.287 89.0339 109.328 80.0014C107.949 73.5054 103.562 67.7712 97.2707 65.7232C91.1124 63.7148 84.4764 65.5831 79.3996 69.5999C68.4377 78.3451 68.1538 97.3802 80.4523 105.209V105.216Z" fill="var(--fill-0, #1C542C)"/>
<path id="Vector_19" d="M99.8574 104.56C104.647 101.628 108.491 96.7166 110.219 90.5728C113.604 78.5222 107.564 66.2848 96.728 63.2416C85.8918 60.1949 74.3586 67.4956 70.9741 79.5462C68.0351 90.0123 72.2029 100.619 80.4522 105.221C86.4631 108.577 93.4728 107.154 99.7568 104.337C100.993 103.784 102.218 103.108 103.095 102.077" fill="var(--fill-0, white)"/>
<path id="Vector_20" d="M169.384 122.578C179.117 122.578 187.007 113.1 187.007 101.409C187.007 89.7171 179.117 80.2392 169.384 80.2392C159.651 80.2392 151.76 89.7171 151.76 101.409C151.76 113.1 159.651 122.578 169.384 122.578Z" fill="var(--fill-0, #1C542C)"/>
<path id="Vector_21" d="M168.874 114.955C161.717 114.955 155.81 108.326 154.93 99.7568C154.854 100.497 154.811 101.251 154.811 102.017C154.811 111.635 160.88 119.432 168.364 119.432C175.212 119.432 180.867 112.907 181.783 104.431C179.627 110.622 174.658 114.955 168.87 114.955H168.874Z" fill="var(--fill-0, #5B9D5D)"/>
<path id="Vector_22" d="M109.197 92.3023C113.351 81.7095 109.8 70.41 101.267 67.0642C92.7343 63.7185 82.4499 69.5934 78.2965 80.1862C74.1431 90.779 77.6934 102.078 86.2264 105.424C94.7594 108.77 105.044 102.895 109.197 92.3023Z" fill="var(--fill-0, #1C542C)"/>
<path id="Vector_23" d="M90.3188 99.2759C83.4743 97.1812 79.7664 89.1152 81.4335 80.6611C81.1461 81.3474 80.8838 82.0552 80.661 82.7881C77.8442 91.9859 81.3653 101.216 88.5223 103.408C95.0686 105.413 102.391 100.828 105.747 92.9919C101.874 98.2771 95.8518 100.968 90.3188 99.2723V99.2759Z" fill="var(--fill-0, #5B9D5D)"/>
<path id="Vector_24" d="M95.8399 93.1437L95.4806 85.6202L90.6662 81.7758C90.0338 81.2692 90.3895 80.2488 91.2015 80.2488H97.3921L101.783 73.9289C102.25 73.2571 103.302 73.5589 103.342 74.3744L103.719 81.9052L108.9 85.9975C109.511 86.4789 109.216 87.4562 108.444 87.5244L101.413 88.1316L97.3921 93.6108C96.9142 94.2611 95.883 93.9521 95.8435 93.1437H95.8399Z" fill="var(--fill-0, white)"/>
<path id="Vector_25" d="M83.0493 94.7613L82.8841 91.3013L80.6708 89.5336C80.3798 89.3001 80.5451 88.833 80.9151 88.833H83.7607L85.7799 85.9263C85.9955 85.6174 86.477 85.7575 86.4985 86.1311L86.671 89.5947L89.0531 91.4774C89.3333 91.7001 89.1968 92.1492 88.8411 92.178L85.6075 92.4582L83.7571 94.9804C83.538 95.2786 83.0637 95.1385 83.0457 94.7649L83.0493 94.7613Z" fill="var(--fill-0, white)"/>
<path id="Vector_26" d="M166.574 86.286L162.701 92.746L156.64 93.8562C155.842 94.0035 155.674 95.0706 156.389 95.455L161.843 98.3796L162.723 106.025C162.816 106.837 163.887 107.071 164.307 106.37L168.198 99.9102L174.698 98.7533C175.463 98.6168 175.668 97.618 175.018 97.1904L169.107 93.3316L168.155 86.6021C168.044 85.8009 166.988 85.5889 166.571 86.2824L166.574 86.286Z" fill="var(--fill-0, white)"/>
<path id="Vector_27" d="M176.98 104.582L177.638 108.136L180.178 109.652C180.512 109.85 180.408 110.36 180.024 110.414L177.081 110.816L175.403 114.107C175.224 114.456 174.706 114.384 174.631 113.996L173.962 110.439L171.232 108.829C170.912 108.639 170.987 108.157 171.35 108.075L174.656 107.327L176.212 104.46C176.395 104.119 176.909 104.202 176.977 104.582H176.98Z" fill="var(--fill-0, white)"/>
<path id="Vector_28" d="M198.044 137.026C198.469 133.352 192.803 129.679 185.389 128.822C177.976 127.966 171.621 130.25 171.197 133.924C170.773 137.599 176.438 141.271 183.852 142.128C191.266 142.984 197.62 140.7 198.044 137.026Z" fill="var(--fill-0, #FEA9A2)"/>
<path id="Vector_29" d="M99.7867 118.467C93.4021 121.7 94.6309 150.587 115.186 158.294C135.741 166.001 152.114 144.691 152.243 133.313C152.372 121.934 139.991 126.828 134.825 126.727C128.979 126.612 124.664 126.483 117.381 124.226C110.138 121.981 103.782 116.444 99.7867 118.467Z" fill="var(--fill-0, #1C542C)"/>
<path id="Vector_30" d="M85.1692 114.985C85.5937 111.31 79.9278 107.638 72.5142 106.781C65.1005 105.925 58.7465 108.209 58.322 111.883C57.8975 115.558 63.5634 119.23 70.977 120.087C78.3907 120.943 84.7447 118.659 85.1692 114.985Z" fill="var(--fill-0, #FEA9A2)"/>
<path id="Vector_31" d="M102.985 118.03C102.985 118.03 100.66 124.26 106.657 127.196C112.654 130.131 125.009 134.414 136.144 133.314C142.507 132.581 147.4 132.215 147.034 127.196C136.999 126.578 127.568 127.501 120.565 125.13C113.563 122.758 102.985 118.03 102.985 118.03Z" fill="var(--fill-0, white)"/>
<path id="Vector_32" d="M105.331 151.771C105.331 151.771 114.238 141.632 128.311 140.899C142.381 140.166 147.051 146.209 147.051 146.209C147.051 146.209 140.498 159.743 127.797 159.621C115.096 159.499 115.071 158.206 110.936 155.705C106.8 153.204 105.331 151.774 105.331 151.774V151.771Z" fill="var(--fill-0, #FEA9A2)"/>
<path id="Vector_33" d="M99.7867 118.467C93.4021 121.7 94.6309 150.587 115.186 158.294C135.741 166.001 152.114 144.691 152.243 133.313C152.372 121.934 139.991 126.828 134.825 126.727C128.979 126.612 124.664 126.483 117.381 124.226C110.138 121.981 103.782 116.444 99.7867 118.467Z" stroke="var(--stroke-0, #1C542C)" stroke-width="3.13036" stroke-miterlimit="10"/>
<path id="Vector_34" d="M51.6996 163.288C51.6996 163.288 46.4647 183.214 63.4124 187.249C80.3601 191.284 168.038 210.574 181.838 213.668C195.638 216.761 198.821 210.391 200.309 205.084C201.796 199.778 202.457 195.193 202.457 195.193L51.6996 163.288Z" fill="var(--fill-0, #E5DFBB)"/>
<path id="Vector_35" d="M297.114 155.345L227.53 193.968" stroke="var(--stroke-0, #1C542C)" stroke-width="4.17382" stroke-miterlimit="10" stroke-linecap="round"/>
<path id="Vector_36" d="M38.069 159.882L213.704 197.604" stroke="var(--stroke-0, #1C542C)" stroke-width="4.17382" stroke-miterlimit="10" stroke-linecap="round"/>
<path id="Vector_37" d="M189.636 192.439L63.9165 165.438C63.9165 165.438 60.3344 173.224 72.2017 175.991C84.069 178.757 167.453 197.498 177.829 199.632C188.206 201.766 187.429 200.063 189.636 192.439Z" fill="var(--fill-0, #1C542C)"/>
<g id="Group_2">
<path id="Vector_38" d="M227.084 151.099C223.739 151.811 220.484 153.676 218.331 156.356C217.243 157.714 216.424 159.316 216.143 161.048C216.014 161.846 216.118 162.446 215.701 163.1C215.198 163.894 214.117 164.53 213.513 165.309C211.897 167.397 210.941 170.041 211.117 172.678C211.293 175.316 212.68 177.895 214.922 179.289C212.823 180.497 211.077 182.311 209.956 184.456C209.389 185.537 208.972 186.741 209.062 187.955C209.144 189.112 209.672 190.183 210.193 191.221C211.3 193.431 212.421 195.669 214.023 197.548C214.124 200.182 214.156 203.613 215.058 206.096C215.849 208.273 218.339 210.16 220.218 211.327C225.417 214.554 231.88 215.308 237.841 214.338C242.558 213.569 247.053 211.722 251.102 209.215C271.873 196.356 264.619 161.738 245.167 153.826C239.558 151.545 233.152 149.81 227.084 151.099Z" fill="var(--fill-0, #72AD75)"/>
<path id="Vector_39" d="M254.176 160.688C266.661 183.27 246.322 204.949 226.241 212.803C228.282 214.956 231.652 215.063 234.594 214.693C238.618 214.187 242.567 213.069 246.261 211.391C251.384 209.063 256.083 205.575 259.202 200.889C264.347 193.168 264.653 183.101 262.102 174.41C261.25 171.503 260.064 168.69 258.534 166.074C257.894 164.978 257.169 163.976 256.4 162.977C255.864 162.28 254.535 161.346 254.172 160.688H254.176Z" fill="var(--fill-0, #38753A)"/>
<path id="Vector_40" d="M204.561 169.586C202.265 173.218 200.709 177.282 201.507 181.651C202.441 186.788 206.864 191.301 211.883 192.58C210.892 190.457 209.875 188.15 210.313 185.847C210.68 183.918 212.045 182.297 213.665 181.191C214.154 180.857 214.729 180.454 214.725 179.865C214.725 179.531 214.528 179.236 214.341 178.96C213.331 177.476 212.322 175.942 211.894 174.199C211.168 171.256 212.221 168.113 213.964 165.634C214.237 165.242 214.542 164.832 214.556 164.354C214.635 161.933 210.346 164.099 209.44 164.645C207.45 165.842 205.797 167.631 204.565 169.586H204.561Z" fill="var(--fill-0, #4A8849)"/>
</g>
<g id="Group_3">
<path id="Vector_41" d="M236.099 161.095C229.876 160.372 222.78 160.624 217.603 164.404C214.685 166.452 212.767 170.048 213.69 173.548C215.372 179.53 223.287 180.033 228.565 181.006C221.853 184.301 211.531 183.04 209.077 174.827C207.492 169.394 210.633 163.62 215.462 161.069C221.839 157.527 229.679 158.278 236.099 161.095Z" fill="var(--fill-0, #1C542C)"/>
<path id="Vector_42" d="M229.525 199.088C221.768 201.811 211.003 200.485 207.816 191.751C205.61 186.168 208.345 180.106 214.618 179.485C215.502 179.406 216.393 179.431 217.255 179.661C214.873 181.443 212.523 182.956 211.801 185.758C211.452 187.361 212.031 189.459 212.674 191.076C215.257 197.46 223.262 198.667 229.528 199.084L229.525 199.088Z" fill="var(--fill-0, #1C542C)"/>
<g id="Group_4">
<path id="Vector_43" d="M213.848 198.997C213.058 204.314 215.713 208.536 220.218 211.331C225.417 214.558 231.881 215.312 237.842 214.342C242.559 213.573 247.054 211.726 251.103 209.218C271.873 196.36 264.619 161.742 245.167 153.83C239.559 151.549 233.153 149.814 227.084 151.103C221.717 152.246 215.896 156.751 216.025 162.712" stroke="var(--stroke-0, #1C542C)" stroke-width="2.08691" stroke-miterlimit="10" stroke-linecap="round"/>
<path id="Vector_44" d="M213.928 163.296C210.029 163.292 206.533 166.479 204.561 169.598C202.265 173.23 200.709 177.294 201.507 181.663C202.244 185.712 205.046 188.888 208.589 190.81" stroke="var(--stroke-0, #1C542C)" stroke-width="3.47818" stroke-miterlimit="10" stroke-linecap="round"/>
</g>
</g>
<g id="Group_5">
<path id="Vector_45" d="M45.5738 127.064C44.9091 120.169 37.9281 115.775 29.8477 115.441C22.3529 115.128 14.9731 118.502 9.7526 123.784C3.85306 129.751 1.356 139.431 1.57876 147.622C1.77278 154.683 4.68302 161.699 9.18133 167.1C14.082 172.985 21.7385 176.782 29.4848 175.841C35.9807 175.054 44.0755 170.506 42.951 162.644" fill="var(--fill-0, #72AD75)"/>
<path id="Vector_46" d="M9.7526 123.783C3.85306 129.751 1.356 139.43 1.57876 147.622C1.88056 158.634 9.16336 171.741 20.7145 174.055C13.8485 167.469 9.09151 158.551 8.15735 149.084C7.2232 139.617 10.3023 129.682 16.942 122.867C19.5325 120.208 22.5864 118.059 25.6224 115.925C25.4356 116.055 24.0056 115.778 23.6571 115.825C22.8451 115.932 22.202 116.281 21.4618 116.586C20.3768 117.035 19.2558 117.398 18.1743 117.862C15.0377 119.206 12.1419 121.365 9.7526 123.783Z" fill="var(--fill-0, #3A773E)"/>
<path id="Vector_47" d="M28.2448 125.568C36.3899 121.788 50.9124 126.865 50.28 137.439C50.0321 141.578 47.1973 143.741 41.8906 144.934C38.5492 145.684 33.0808 144.7 29.8544 143.55" fill="var(--fill-0, #72AD75)"/>
<path id="Vector_48" d="M45.0057 144.058C45.0057 144.058 51.304 153.018 45.3111 158.885C39.3145 164.753 28.2448 160.671 28.2448 160.671" fill="var(--fill-0, #72AD75)"/>
</g>
<g id="Group_6">
<path id="Vector_49" d="M45.5738 127.064C44.9091 120.169 37.9281 115.775 29.8477 115.441C22.3529 115.128 14.9731 118.502 9.7526 123.784C3.85306 129.751 1.356 139.431 1.57876 147.622C1.77278 154.683 4.68302 161.699 9.18133 167.1C14.082 172.985 21.7385 176.782 29.4848 175.841C35.9807 175.054 44.0755 170.506 42.951 162.644" stroke="var(--stroke-0, #1C542C)" stroke-width="3.13036" stroke-miterlimit="10" stroke-linecap="round"/>
<path id="Vector_50" d="M28.2406 125.562C36.2024 119.903 50.6171 124.448 52.2878 134.634C53.4052 142.114 48.5404 145.754 41.6816 146.469C37.5677 146.738 33.4072 145.485 29.8502 143.544C32.103 143.875 34.327 144.044 36.5114 144.044C38.6708 144.033 40.6217 143.878 42.6409 143.081C46.7656 141.604 48.7776 139.653 48.0015 135.367C46.4745 127.675 35.2396 124.01 28.237 125.562H28.2406Z" fill="var(--fill-0, #1C542C)"/>
<path id="Vector_51" d="M46.7877 142.802C49.1088 146.905 50.5639 152.201 48.365 156.674C46.2165 160.949 41.1685 162.832 36.6342 162.538C33.7455 162.405 30.9107 161.74 28.2448 160.669C30.961 161.413 33.821 161.751 36.6199 161.557C44.1075 161.068 48.7243 155.743 45.1853 148.511C44.6787 147.437 44.0607 146.398 43.3422 145.453C43.3026 145.403 43.2416 145.324 43.2236 145.31L46.7913 142.802H46.7877Z" fill="var(--fill-0, #1C542C)"/>
</g>
</g>
</svg>
