<svg preserveAspectRatio="none" width="100%" height="100%" overflow="visible" style="display: block;" viewBox="0 0 24.2618 18.5" fill="none" xmlns="http://www.w3.org/2000/svg">
<path id="Vector" d="M20.5384 1.53589C18.9938 0.825084 17.3364 0.302232 15.6004 0.00150708C15.5696 -0.00532758 15.5389 0.0117591 15.5218 0.0390977C15.3099 0.418421 15.0707 0.913934 14.9067 1.30351C13.0408 1.02329 11.1852 1.02329 9.36033 1.30351C9.19629 0.9071 8.95025 0.418421 8.73495 0.0390977C8.71787 0.0117591 8.68711 -0.00191025 8.65636 0.00150708C6.92377 0.298815 5.26637 0.821667 3.71831 1.53247C3.70465 1.53931 3.69439 1.54956 3.68414 1.55981C0.540198 6.26206 -0.32097 10.8447 0.0993621 15.3727C0.0993621 15.3932 0.113031 15.4171 0.130118 15.4308C2.20444 16.9549 4.21724 17.881 6.18904 18.4927C6.2198 18.5029 6.25397 18.4927 6.27448 18.4653C6.74265 17.8263 7.15615 17.1565 7.51497 16.4491C7.53547 16.4081 7.51497 16.3603 7.47396 16.3432C6.81442 16.0937 6.18563 15.7862 5.58076 15.441C5.53292 15.4137 5.5295 15.3453 5.57392 15.3111C5.70037 15.2155 5.82681 15.1164 5.94983 15.0173C5.97034 15.0002 6.00109 14.9968 6.02843 15.007C9.99937 16.8216 14.2984 16.8216 18.2215 15.007C18.2488 14.9933 18.2796 14.9968 18.3001 15.0173C18.4231 15.1164 18.5495 15.2189 18.676 15.3111C18.7204 15.3453 18.717 15.4137 18.6691 15.441C18.0643 15.793 17.4355 16.0937 16.7759 16.3432C16.7315 16.3603 16.7144 16.4081 16.7349 16.4525C17.1006 17.1599 17.5141 17.8297 17.972 18.4688C17.9925 18.4961 18.0267 18.5064 18.0574 18.4961C20.0395 17.8844 22.0489 16.9583 24.1266 15.4342C24.1437 15.4205 24.1574 15.4 24.1574 15.3795C24.6631 10.1441 23.3099 5.59909 20.5692 1.57006C20.5623 1.55639 20.5521 1.54614 20.5384 1.54272V1.53589ZM8.10958 12.6149C6.91352 12.6149 5.92933 11.5179 5.92933 10.1681C5.92933 8.81822 6.89643 7.72126 8.10958 7.72126C9.32274 7.72126 10.3103 8.82847 10.2898 10.1681C10.2898 11.5145 9.32274 12.6149 8.10958 12.6149ZM16.1711 12.6149C14.975 12.6149 13.9908 11.5179 13.9908 10.1681C13.9908 8.81822 14.9579 7.72126 16.1711 7.72126C17.3842 7.72126 18.3718 8.82847 18.3513 10.1681C18.3513 11.5145 17.3945 12.6149 16.1711 12.6149Z" fill="var(--fill-0, #B0B2B5)"/>
</svg>
