<svg preserveAspectRatio="none" width="100%" height="100%" overflow="visible" style="display: block;" viewBox="0 0 35.3302 40" fill="none" xmlns="http://www.w3.org/2000/svg">
<g id="content">
<path id="Vector" d="M35.3302 0H0V40H35.3302V0Z" fill="var(--fill-0, #39763D)"/>
<path id="Union" fill-rule="evenodd" clip-rule="evenodd" d="M27.5156 6.09706C28.1444 6.09706 28.7172 6.25439 29.2353 6.56879C29.7526 6.88319 30.1687 7.29877 30.4832 7.8168C30.7976 8.33421 30.9547 8.90762 30.9547 9.53638C30.9547 10.1652 30.7976 10.7381 30.4832 11.2561C30.1687 11.7735 29.7534 12.1897 29.2353 12.5041C28.7375 12.8066 28.1881 12.963 27.5872 12.9745C27.5817 12.9931 27.576 13.0117 27.5705 13.0305C27.4597 13.4556 27.3579 13.8254 27.2656 14.1398C27.0995 14.787 26.8958 15.5266 26.6552 16.3584C26.4331 17.1718 26.1563 18.0316 25.8235 18.9372C25.4908 19.8244 25.0938 20.7212 24.6311 21.6275C24.1874 22.5147 23.6695 23.3656 23.0782 24.1789C22.2464 25.2883 21.2576 26.3421 20.1109 27.3408C18.9832 28.3208 17.7167 29.208 16.3116 30.0028C14.9249 30.7794 13.4185 31.4356 11.7912 31.9722L8.13079 27.9504C9.99792 27.5254 11.6061 26.9889 12.9558 26.3422C14.3056 25.6949 15.4702 24.9651 16.4503 24.1511C17.4303 23.3191 18.2901 22.4499 19.0296 21.5441C19.6214 20.8047 20.1203 20.0281 20.527 19.2148C20.9336 18.383 21.2664 17.5599 21.5254 16.7466C21.7845 15.9148 21.9689 15.1288 22.0804 14.3892H9.87901C9.19489 14.3892 8.51067 14.4078 7.82657 14.4447C7.16093 14.4631 6.64357 14.491 6.27383 14.5279V9.78598C6.56974 9.82291 6.93945 9.8598 7.38298 9.89672C7.82655 9.93362 8.27971 9.97055 8.74172 10.0074C9.20374 10.0259 9.58308 10.0354 9.87901 10.0354H22.1084C22.4228 10.0354 22.8199 10.0259 23.3009 10.0074C23.5748 9.98641 23.8398 9.95263 24.0958 9.90748C24.0832 9.78601 24.0766 9.66229 24.0766 9.53638C24.0766 8.90762 24.2339 8.33484 24.5483 7.8168C24.8625 7.2994 25.2781 6.88319 25.7961 6.56879C26.3134 6.2544 26.8869 6.09707 27.5156 6.09706ZM27.5156 8.0669C27.109 8.06692 26.7576 8.21457 26.4617 8.51049C26.1844 8.78796 26.0456 9.12975 26.0456 9.53638C26.0456 9.94306 26.1844 10.2945 26.4617 10.5904C26.7576 10.8679 27.109 11.0067 27.5156 11.0067C27.9223 11.0067 28.2647 10.8679 28.5416 10.5904C28.8376 10.2945 28.985 9.94307 28.985 9.53638C28.985 9.12973 28.8376 8.78733 28.5416 8.51049C28.2641 8.21455 27.9223 8.0669 27.5156 8.0669Z" fill="var(--fill-0, #FEFEFE)"/>
</g>
</svg>
