<svg preserveAspectRatio="none" width="100%" height="100%" overflow="visible" style="display: block;" viewBox="0 0 114.886 198.482" fill="none" xmlns="http://www.w3.org/2000/svg">
<path id="Body lateral line" d="M0.0992526 193.198C0.0661684 193.636 0.0330842 194.074 0 194.512C4.63533 194.936 9.26672 195.416 13.9 195.902C27.6428 197.283 41.4343 199.052 55.4553 198.304C68.9955 198.033 85.6065 191.617 89.553 176.698C93.6486 162.602 94.8479 148.389 96.3786 134.125C100.09 96.4621 100.994 58.3992 103.398 21.0084C103.921 16.8955 104.49 12.8522 105.754 9.01578C107.026 4.88111 110.027 0.102559 114.51 1.62388C114.636 1.20288 114.761 0.781876 114.886 0.360873C112.517 -0.512789 109.472 0.246332 107.758 2.13593C105.976 3.95621 104.945 6.2088 104.116 8.44489C102.671 12.4441 101.977 16.6345 101.352 20.6991C97.9448 58.4494 96.5854 96.2114 92.8816 133.782C91.3778 147.925 90.1669 162.301 86.4051 175.683C82.9409 189.06 68.65 194.935 55.2649 195.596C41.6535 196.589 27.8281 195.171 14.0564 194.174C9.40934 193.82 4.75694 193.477 0.0992526 193.198Z" fill="var(--stroke-0, #185229)"/>
</svg>
