<svg preserveAspectRatio="none" width="100%" height="100%" overflow="visible" style="display: block;" viewBox="0 0 247.301 228.575" fill="none" xmlns="http://www.w3.org/2000/svg">
<path id="Body stroke" d="M106.802 223.35L128.153 225.266L132.284 225.709C164.176 228.128 229.188 238.279 241.211 197.045C242.409 192.942 242.931 188.621 243.4 184.003C243.4 184.003 248.148 70.2031 247.168 59.1052C244.463 21.2362 209.345 11.3925 178.439 7.76547C142.153 3.5029 105.782 0.258795 69.2312 0L62.5249 0.298487C54.0739 0.700081 46.497 2.88359 39.1775 7.54147C21.347 18.8881 19.682 41.0334 16.6253 59.8514L0.339306 171.553C-1.60268 189.951 4.6067 207.204 23.7513 213.115C30.9438 215.199 38.069 216.287 45.5504 217.217L49.6955 217.833L102.301 222.926L106.802 223.35Z" fill="var(--fill-0, #185229)"/>
</svg>
