<svg preserveAspectRatio="none" width="100%" height="100%" overflow="visible" style="display: block;" viewBox="0 0 65.1293 64.5097" fill="none" xmlns="http://www.w3.org/2000/svg">
<g id="L">
<path id="Vector 1142" d="M23.6383 13.4353C24.1526 15.6942 27.1878 18.9973 28.6412 20.3665C27.9773 21.4536 25.7267 22.2789 22.8225 22.9159C16.0447 24.4024 12.6027 25.3208 9.67693 26.2438C6.75376 27.1661 -2.91396 33.5632 4.48921 43.1443C3.63954 47.5803 3.98978 55.8557 14.3941 55.6577C14.4073 56.5637 14.5985 57.5113 15.0034 58.4873C17.5176 64.5483 28.685 62.5101 32.861 62.0705C61.2221 62.5838 64.0376 40.5109 63.2676 32.4261C62.4455 23.7943 57.5951 16.3283 48.6378 11.8932C47.7395 7.40161 40.5531 1.75784 33.0053 1.75682C23.6141 1.75555 22.9955 10.6116 23.6383 13.4353Z" fill="var(--fill-0, #78BA68)" stroke="var(--stroke-0, #185229)" stroke-width="3.51364"/>
<path id="Vector 1147 (Stroke)" d="M15.9298 55.6354L15.9075 54.0913C18.1013 57.2644 23.7838 58.7234 31.7699 56.6501C48.6651 57.58 64.5519 38.3704 57.2245 20.8075C59.9837 24.0802 61.3673 28.7031 61.7358 32.572C62.0998 36.3945 61.6031 43.5561 57.6938 49.6418C53.862 55.6066 46.5989 60.7817 32.8877 60.5335L32.7929 60.5318L32.6989 60.5417C30.4914 60.7741 26.8569 61.3662 23.3894 61.1816C19.8093 60.9911 17.3003 60.0151 16.4222 57.8983C16.0879 57.0924 15.94 56.3366 15.9298 55.6354Z" fill="var(--fill-0, #39763D)"/>
<path id="Vector 1143" d="M25.5554 46.6693C20.5293 46.3583 14.3236 50.2735 14.4019 55.6561" stroke="var(--stroke-0, #185229)" stroke-width="3.07444"/>
<path id="Vector 1144" d="M4.21707 46.1588C4.21707 39.811 12.4472 36.7149 19.8504 36.7149" stroke="var(--stroke-0, #185229)" stroke-width="3.07444"/>
<path id="Vector 1145" d="M20.2529 32.0056C20.0733 31.8794 19.8936 31.7531 19.7139 31.6268C19.5892 31.7407 19.4704 31.8628 19.3584 31.9916C18.3478 33.1575 17.9119 34.8454 18.263 36.4357C18.5665 38.025 19.9591 39.5235 21.5551 39.6997C21.7302 39.725 21.8978 39.7358 22.0715 39.7373C22.1195 39.523 22.1675 39.3087 22.2155 39.0944C22.0811 39.0267 21.9591 38.9561 21.8372 38.8794C20.7526 38.1899 20.2333 37.181 19.9781 36.0549C19.7351 34.925 19.7423 33.6773 20.1108 32.4234C20.1527 32.2842 20.1999 32.1447 20.2529 32.0056Z" fill="var(--stroke-0, #185229)"/>
<path id="Vector 1146" d="M25.5586 43.6324C25.3529 43.5556 25.1472 43.4788 24.9415 43.402C24.8566 43.5247 24.7788 43.6507 24.7072 43.7837C24.0552 44.9711 24.0265 46.5673 24.7404 47.8463C25.4167 49.1386 26.9599 50.0091 28.3475 49.8171C28.5014 49.8 28.6481 49.7725 28.7959 49.7359C28.7959 49.5163 28.7959 49.2967 28.7959 49.0771C28.6706 49.0405 28.5535 48.9995 28.4373 48.9544C27.3979 48.5427 26.7477 47.8344 26.278 46.9965C25.8167 46.1519 25.5342 45.1586 25.5423 44.0183C25.5439 43.8909 25.5488 43.7636 25.5586 43.6324Z" fill="var(--stroke-0, #185229)"/>
<path id="mouth-shadow" d="M34.8336 27.5842C35.1107 27.7899 36.133 30.3302 38.932 33.7259C41.791 36.885 45.2373 37.8715 45.2039 38.5402C45.1705 39.2089 40.4538 38.734 37.0598 34.7818C33.6659 30.8297 34.5565 27.3785 34.8336 27.5842Z" fill="var(--fill-0, #185229)"/>
</g>
</svg>
