<svg preserveAspectRatio="none" width="100%" height="100%" overflow="visible" style="display: block;" viewBox="0 0 78.4249 74.4862" fill="none" xmlns="http://www.w3.org/2000/svg">
<g id="L">
<path id="Vector" d="M21.8626 29.3431C11.8537 31.9049 4.01078 39.6343 2.31658 49.7654C-0.260837 76.6947 39.0753 73.1074 54.4059 70.5584C65.2525 68.7549 75.3054 61.4662 75.897 52.0184C76.4886 42.5707 76.1089 8.37356 76.1089 8.37356L24.0454 2.43884L21.8626 29.3431Z" fill="var(--fill-0, #39763D)" stroke="var(--stroke-0, #185229)" stroke-width="4.39205" stroke-linecap="round"/>
<path id="Vector (Stroke)" d="M4.49552 50.0536C6.056 40.9127 13.1662 33.8359 22.4073 31.4706C24.0252 31.0563 25.6159 30.7995 27.2938 30.754C37.1754 30.4939 59.257 37.464 57.258 53.7464C55.7003 66.4366 36.8858 71.4951 22.1272 68.9209C16.611 67.8828 11.8583 66.1395 8.73059 63.147C5.71492 60.2617 3.9311 56.1458 4.49552 50.0536Z" fill="var(--fill-0, #78BA68)"/>
<path id="Vector_2" d="M18.9554 46.6818C21.4203 45.4349 23.9526 42.5271 22.1425 40.0669C20.6597 38.0497 17.4485 38.6756 15.4073 39.6481C13.78 40.4184 11.551 42.1034 11.941 44.6646C12.4128 47.7457 16.2642 48.0491 18.9506 46.6866L18.9554 46.6818Z" fill="var(--fill-0, #9ECF84)"/>
</g>
</svg>
