<svg preserveAspectRatio="none" width="100%" height="100%" overflow="visible" style="display: block;" viewBox="0 0 238.032 14.9401" fill="none" xmlns="http://www.w3.org/2000/svg">
<path id="Slot line" d="M237.537 1.29621C237.705 1.25194 237.85 1.14392 237.939 0.994429C238.028 0.844951 238.055 0.666504 238.012 0.498073C237.97 0.329642 237.863 0.184712 237.714 0.0948966C237.565 0.00506675 237.386 -0.0220346 237.217 0.0180695C237.217 0.0180695 237.217 0.0180695 237.217 0.0180695C233.363 0.931835 229.508 1.82114 225.632 2.71014C212.826 5.59014 199.786 8.72775 187.15 11.0432C145.139 11.2287 102.467 11.1445 60.1102 11.4042C46.0425 11.479 31.7722 11.7389 17.6936 12.1806C15.9759 12.2362 14.2596 12.2945 12.5433 12.3555C8.57638 12.4966 4.60954 12.6524 0.642779 12.8228C0.471288 12.8302 0.307208 12.9014 0.186663 13.025C0.0661168 13.1487 -0.00102544 13.314 1.18017e-05 13.4855C0.0010491 13.657 0.0701864 13.8215 0.192219 13.9437C0.314253 14.0659 0.479181 14.1351 0.650749 14.1404C0.650749 14.1404 0.650749 14.1404 0.650749 14.1404C4.61928 14.2628 8.58772 14.3705 12.5561 14.4637C14.2729 14.504 15.9898 14.5415 17.7067 14.5763C31.7882 14.8798 46.0607 14.9926 60.1289 14.9178C102.557 14.6543 144.925 14.3839 187.383 13.4325C200.572 10.796 213.175 7.45596 226.007 4.26616C229.865 3.28789 233.699 2.30639 237.537 1.29621Z" fill="var(--stroke-0, #185229)"/>
</svg>
