<svg preserveAspectRatio="none" width="100%" height="100%" overflow="visible" style="display: block;" viewBox="0 0 73.4218 76.0428" fill="none" xmlns="http://www.w3.org/2000/svg">
<g id="R">
<path id="Vector" d="M67.2691 34.5511C66.1917 32.4729 65.3241 30.6949 65.1556 28.4177L63.6295 9.00643V5.04979L45.1281 5.48237L19.9673 3.18641L7.39246 2.34524L7.31545 6.97481L7.39246 37.2856C5.83263 39.7842 4.2439 42.2829 3.41102 44.8633C2.27485 48.3778 1.89933 52.2052 2.43854 55.7774C3.17031 60.6254 5.93373 64.5443 10.3436 67.1488C28.3 77.7473 68.2943 77.8524 71.0772 52.056C71.7427 45.8544 70.1171 40.0446 67.2691 34.5511Z" fill="var(--fill-0, #39763D)" stroke="var(--stroke-0, #185229)" stroke-width="4.39205" stroke-linecap="round"/>
<path id="Vector_2" d="M59.3581 65.4837C45.9792 76.7492 7.06516 71.9445 9.44824 56.2451C9.98262 52.7114 12.1876 49.4184 15.211 47.1268C33.8279 33.0112 62.6848 40.8393 64.0376 55.4988C64.3939 59.3647 62.4056 62.9225 59.3581 65.4885V65.4837Z" fill="var(--fill-0, #78BA68)"/>
<path id="Vector_3" d="M25.6639 54.9022C28.1288 53.6553 30.6612 50.7475 28.851 48.2874C27.3682 46.2702 24.157 46.896 22.1158 47.8685C20.4885 48.6388 18.2595 50.3238 18.6495 52.885C19.1213 55.9662 22.9727 56.2695 25.6591 54.907L25.6639 54.9022Z" fill="var(--fill-0, #9ECF84)"/>
</g>
</svg>
