<svg preserveAspectRatio="none" width="100%" height="100%" overflow="visible" style="display: block;" viewBox="0 0 44.4615 47.0937" fill="none" xmlns="http://www.w3.org/2000/svg">
<g id="L">
<ellipse id="Ellipse 64" cx="22.2307" cy="23.546" rx="22.2307" ry="23.546" fill="var(--fill-0, #185229)"/>
<ellipse id="Ellipse 66" cx="23.6627" cy="25.4561" rx="20.0422" ry="21.6377" fill="var(--fill-0, #FFFAFA)"/>
<ellipse id="Ellipse 65" cx="26.3551" cy="25.1446" rx="17.5806" ry="20.9968" fill="var(--fill-0, #185229)"/>
<g id="Group 51">
<ellipse id="Ellipse 68" cx="26.3815" cy="28.9885" rx="13.068" ry="13.6317" fill="var(--fill-0, #57A053)"/>
<ellipse id="Ellipse 69" cx="27.1959" cy="23.2818" rx="13.068" ry="13.6317" fill="var(--fill-0, #185229)"/>
</g>
<path id="Star 7" d="M30.4819 10.3778C30.6935 9.81807 31.4853 9.81807 31.6969 10.3778L34.2118 17.0294C34.2754 17.1976 34.4059 17.332 34.5722 17.4004L41.0213 20.0536C41.5578 20.2743 41.5578 21.0341 41.0213 21.2548L34.5722 23.908C34.4059 23.9765 34.2754 24.1108 34.2118 24.279L31.6969 30.9306C31.4853 31.4903 30.6935 31.4903 30.4819 30.9306L27.967 24.279C27.9034 24.1108 27.7729 23.9765 27.6066 23.908L21.1575 21.2549C20.621 21.0341 20.621 20.2743 21.1575 20.0536L27.6066 17.4004C27.7729 17.332 27.9034 17.1976 27.967 17.0294L30.4819 10.3778Z" fill="var(--fill-0, #FFFAFA)"/>
<path id="Star 8" d="M18.5368 26.7244C18.6361 26.4615 19.008 26.4615 19.1074 26.7244L20.2885 29.8484C20.3184 29.9274 20.3797 29.9905 20.4578 30.0226L23.4866 31.2687C23.7386 31.3723 23.7386 31.7292 23.4867 31.8329L20.4578 33.0789C20.3797 33.1111 20.3184 33.1742 20.2885 33.2532L19.1074 36.3771C19.008 36.64 18.6361 36.64 18.5368 36.3771L17.3556 33.2532C17.3257 33.1742 17.2645 33.1111 17.1863 33.0789L14.1575 31.8329C13.9055 31.7292 13.9055 31.3723 14.1575 31.2687L17.1863 30.0226C17.2645 29.9905 17.3257 29.9274 17.3556 29.8484L18.5368 26.7244Z" fill="var(--fill-0, #FFFAFA)"/>
<ellipse id="Ellipse 67" cx="20.229" cy="38.283" rx="0.788706" ry="0.822725" fill="var(--fill-0, #9ECF84)"/>
</g>
</svg>
