<svg preserveAspectRatio="none" width="100%" height="100%" overflow="visible" style="display: block;" viewBox="0 0 65.4514 56.5303" fill="none" xmlns="http://www.w3.org/2000/svg">
<g id="Mouth">
<path id="Vector" d="M61.0734 11.0653C68.6959 17.3308 59.6517 38.2398 42.7552 44.4419C30.0806 49.0967 16.8653 44.2747 10.0293 32.8877C5.05814 24.6121 2.86418 15.0986 5.42143 5.60035C5.85201 4.00357 7.41868 2.04592 8.53394 1.38049C9.90967 0.551442 12.5148 0.710499 14.0469 1.54106C26.3439 8.2057 40.103 11.6914 53.9974 9.94041C56.3516 9.64694 59.3579 9.66259 61.0654 11.0713L61.0734 11.0653Z" fill="var(--fill-0, #185229)"/>
<path id="Tounge" d="M31.0154 43.3524C24.3581 42.6458 19.2729 39.9097 15.0059 35.0343C26.0556 25.3493 42.5393 22.326 56.1305 30.5266C50.5383 38.3948 42.4991 43.9269 31.0144 43.3595L31.0154 43.3524Z" fill="var(--fill-0, #FEAAA4)"/>
<path id="Theets" d="M57.3426 12.6012C57.3072 24.3864 8.8295 15.3491 13.2566 4.3317C19.4076 7.58631 28.3178 11.1382 36.7214 12.3564C44.4261 13.4733 51.6137 12.9637 55.119 12.6716C56.43 12.5624 57.2285 12.6093 57.3426 12.6012Z" fill="var(--fill-0, #FFFAFA)"/>
<path id="Mouth stroke" d="M6.78502 5.96856C7.61917 2.87576 10.7063 1.33634 13.3747 2.7829C25.8717 9.55598 39.9254 13.1362 54.1716 11.3416L54.1724 11.3427C55.2848 11.204 56.5052 11.1449 57.6151 11.2712C58.7273 11.3979 59.5848 11.695 60.1401 12.1403C61.9766 13.8386 62.7084 16.2185 62.481 19.089C62.2501 22.0024 61.028 25.3215 59.0761 28.6027C55.1519 35.1995 48.5625 41.1805 42.3402 43.0935L42.3041 43.1041L42.2686 43.1178C30.4257 47.467 18.1223 43.1151 11.5489 32.664L11.2403 32.1619C6.5688 24.3853 4.48113 15.5832 6.56939 6.81662L6.78502 5.96856Z" stroke="var(--stroke-0, #185229)" stroke-width="2.82368"/>
<path id="mouth-shadow" d="M13.9315 45.2545C14.4859 45.2912 18.0851 47.8378 24.8351 49.9923C31.4598 51.7743 36.9844 50.1036 37.5225 51.0378C38.0605 51.9719 31.2627 55.4431 23.2222 53.0543C15.1817 50.6655 13.3771 45.2179 13.9315 45.2545Z" fill="var(--fill-0, #D6D2B2)"/>
</g>
</svg>
