<svg preserveAspectRatio="none" width="100%" height="100%" overflow="visible" style="display: block;" viewBox="0 0 65.1293 64.5097" fill="none" xmlns="http://www.w3.org/2000/svg">
<g id="R">
<path id="Vector 1142" d="M23.6383 13.4353C24.1526 15.6942 27.1878 18.9973 28.6412 20.3665C27.9773 21.4536 25.7267 22.2789 22.8225 22.9159C16.0447 24.4024 12.6027 25.3208 9.67693 26.2438C6.75376 27.1661 -2.91396 33.5632 4.48921 43.1443C3.63954 47.5803 3.98978 55.8557 14.3941 55.6577C14.4073 56.5637 14.5985 57.5113 15.0034 58.4873C17.5176 64.5483 28.685 62.5101 32.861 62.0705C61.2221 62.5838 64.0376 40.5109 63.2676 32.4261C62.4455 23.7943 57.5951 16.3283 48.6378 11.8932C47.7395 7.40161 40.5531 1.75784 33.0053 1.75682C23.6141 1.75555 22.9955 10.6116 23.6383 13.4353Z" fill="var(--fill-0, #78BA68)" stroke="var(--stroke-0, #185229)" stroke-width="3.51364"/>
<path id="Vector 1147 (Stroke)" d="M15.9298 55.6351L15.9075 54.091C18.1013 57.2642 23.7838 58.7232 31.77 56.6498C48.6651 57.5797 64.5519 38.3701 57.2246 20.8072C59.9837 24.08 61.3674 28.7028 61.7358 32.5717C62.0999 36.3942 61.6031 43.5558 57.6938 49.6415C53.8621 55.6064 46.5989 60.7814 32.8877 60.5333L32.7929 60.5316L32.699 60.5414C30.4914 60.7738 26.8569 61.3659 23.3894 61.1814C19.8093 60.9908 17.3003 60.0149 16.4222 57.8981C16.0879 57.0921 15.94 56.3363 15.9298 55.6351Z" fill="var(--fill-0, #39763D)"/>
<path id="Vector 1143" d="M25.5554 46.669C20.5294 46.3581 14.3236 50.2732 14.4019 55.6558" stroke="var(--stroke-0, #185229)" stroke-width="3.07444"/>
<path id="Vector 1144" d="M4.21709 46.1585C4.21709 39.8108 12.4472 36.7147 19.8504 36.7147" stroke="var(--stroke-0, #185229)" stroke-width="3.07444"/>
<path id="Vector 1145" d="M20.2529 32.0054C20.0733 31.8791 19.8936 31.7529 19.7139 31.6266C19.5892 31.7404 19.4704 31.8625 19.3584 31.9914C18.3478 33.1572 17.9119 34.8452 18.263 36.4354C18.5665 38.0248 19.9591 39.5232 21.5551 39.6994C21.7302 39.7247 21.8978 39.7355 22.0715 39.737C22.1195 39.5227 22.1675 39.3084 22.2155 39.0941C22.0811 39.0264 21.9591 38.9558 21.8373 38.8792C20.7526 38.1897 20.2333 37.1808 19.9781 36.0546C19.7351 34.9248 19.7423 33.677 20.1108 32.4232C20.1527 32.2839 20.2 32.1444 20.2529 32.0054Z" fill="var(--stroke-0, #185229)"/>
<path id="Vector 1146" d="M25.5587 43.6321C25.3529 43.5553 25.1472 43.4785 24.9415 43.4017C24.8566 43.5245 24.7788 43.6505 24.7072 43.7834C24.0553 44.9708 24.0265 46.567 24.7404 47.846C25.4167 49.1383 26.9599 50.0088 28.3475 49.8169C28.5014 49.7997 28.6481 49.7722 28.7959 49.7357C28.7959 49.516 28.7959 49.2964 28.7959 49.0768C28.6706 49.0402 28.5535 48.9993 28.4373 48.9541C27.3979 48.5425 26.7477 47.8342 26.278 46.9962C25.8167 46.1517 25.5342 45.1584 25.5423 44.0181C25.5439 43.8907 25.5488 43.7633 25.5587 43.6321Z" fill="var(--stroke-0, #185229)"/>
<path id="mouth-shadow" d="M34.8336 27.5839C35.1107 27.7896 36.133 30.3299 38.932 33.7256C41.791 36.8847 45.2373 37.8712 45.2039 38.5399C45.1705 39.2086 40.4538 38.7338 37.0598 34.7816C33.6659 30.8294 34.5565 27.3783 34.8336 27.5839Z" fill="var(--fill-0, #185229)"/>
</g>
</svg>
