<svg preserveAspectRatio="none" width="100%" height="100%" overflow="visible" style="display: block;" viewBox="0 0 46.3707 49.1148" fill="none" xmlns="http://www.w3.org/2000/svg">
<g id="R">
<ellipse id="Ellipse 64" cx="23.1854" cy="24.5571" rx="23.1853" ry="24.557" fill="var(--fill-0, #185229)"/>
<ellipse id="Ellipse 66" cx="24.675" cy="26.548" rx="20.9028" ry="22.5668" fill="var(--fill-0, #FFFAFA)"/>
<ellipse id="Ellipse 65" cx="27.4882" cy="26.2216" rx="18.3355" ry="21.8984" fill="var(--fill-0, #185229)"/>
<g id="Group 51">
<ellipse id="Ellipse 68" cx="27.5189" cy="30.2328" rx="13.6292" ry="14.217" fill="var(--fill-0, #57A053)"/>
<ellipse id="Ellipse 69" cx="28.3674" cy="24.2803" rx="13.6292" ry="14.217" fill="var(--fill-0, #185229)"/>
</g>
<path id="Star 7" d="M31.8142 10.7508C32.0258 10.1911 32.8176 10.1911 33.0292 10.7508L35.6825 17.7684C35.7461 17.9366 35.8766 18.0709 36.0429 18.1393L42.8427 20.9368C43.3793 21.1575 43.3793 21.9174 42.8427 22.1381L36.0429 24.9356C35.8766 25.004 35.7461 25.1383 35.6825 25.3066L33.0292 32.3241C32.8176 32.8839 32.0258 32.8839 31.8142 32.3241L29.1609 25.3066C29.0973 25.1383 28.9668 25.004 28.8005 24.9356L22.0006 22.1381C21.4641 21.9174 21.4641 21.1575 22.0006 20.9368L28.8005 18.1393C28.9668 18.0709 29.0973 17.9366 29.1609 17.7684L31.8142 10.7508Z" fill="var(--fill-0, #FFFAFA)"/>
<path id="Star 8" d="M19.3442 27.8385C19.4436 27.5756 19.8155 27.5756 19.9149 27.8385L21.161 31.1344C21.1909 31.2134 21.2521 31.2764 21.3303 31.3086L24.5239 32.6224C24.7758 32.7261 24.7758 33.083 24.5239 33.1866L21.3303 34.5005C21.2521 34.5326 21.1909 34.5957 21.161 34.6747L19.9149 37.9706C19.8155 38.2334 19.4436 38.2334 19.3442 37.9706L18.0981 34.6747C18.0682 34.5957 18.007 34.5326 17.9288 34.5005L14.7352 33.1866C14.4833 33.083 14.4833 32.7261 14.7352 32.6224L17.9288 31.3086C18.007 31.2764 18.0682 31.2134 18.0981 31.1344L19.3442 27.8385Z" fill="var(--fill-0, #FFFAFA)"/>
<ellipse id="Ellipse 67" cx="21.0977" cy="39.9244" rx="0.822573" ry="0.858052" fill="var(--fill-0, #9ECF84)"/>
</g>
</svg>
