<svg preserveAspectRatio="none" width="100%" height="100%" overflow="visible" style="display: block;" viewBox="0 0 235.897 218.035" fill="none" xmlns="http://www.w3.org/2000/svg">
<g id="Body fill">
<mask id="path-1-inside-1_0_125" fill="white">
<path d="M66.0385 0C100.904 0.24686 135.597 3.34131 170.21 7.4073C199.691 10.8671 233.189 20.2569 235.77 56.3795C236.705 66.9657 232.176 175.518 232.176 175.518C231.728 179.922 231.231 184.044 230.088 187.958C218.619 227.291 156.605 217.608 126.184 215.301L122.243 214.878L101.877 213.05L97.5828 212.646L47.4036 207.787L43.4499 207.2C36.3134 206.313 29.5167 205.276 22.6558 203.287C4.39407 197.649 -1.52877 181.192 0.323667 163.642L15.8584 57.0915C18.7742 39.1413 20.3624 18.0172 37.3705 7.1937C44.3524 2.75064 51.5801 0.66789 59.6413 0.284797L66.0385 0Z"/>
</mask>
<path d="M66.0385 0C100.904 0.24686 135.597 3.34131 170.21 7.4073C199.691 10.8671 233.189 20.2569 235.77 56.3795C236.705 66.9657 232.176 175.518 232.176 175.518C231.728 179.922 231.231 184.044 230.088 187.958C218.619 227.291 156.605 217.608 126.184 215.301L122.243 214.878L101.877 213.05L97.5828 212.646L47.4036 207.787L43.4499 207.2C36.3134 206.313 29.5167 205.276 22.6558 203.287C4.39407 197.649 -1.52877 181.192 0.323667 163.642L15.8584 57.0915C18.7742 39.1413 20.3624 18.0172 37.3705 7.1937C44.3524 2.75064 51.5801 0.66789 59.6413 0.284797L66.0385 0Z" fill="#FFFDEA"/>
<path d="M66.0385 0C79.2136 0.396282 92.3657 1.18459 105.488 2.2634C127.051 4.03608 148.53 6.59157 169.967 9.47849C198.39 12.4249 232.388 25.8408 232.406 56.6198C232.407 56.6311 232.41 56.665 232.411 56.6763C231.94 95.5075 229.497 135.823 227.828 175.336L227.847 175.078C227.406 179.216 226.915 183.171 225.857 186.722C220.349 207.576 194.985 213.127 173.283 213.439C157.895 213.816 142.376 212.094 126.523 210.833L126.662 210.845C125.348 210.708 124.034 210.571 122.72 210.434C122.705 210.433 122.658 210.428 122.643 210.427C115.852 209.838 109.061 209.253 102.27 208.672L102.288 208.673C100.857 208.545 99.4248 208.416 97.9929 208.288L98.0047 208.289C81.2711 206.743 64.5352 205.222 47.7968 203.726L48.0035 203.751C46.6841 203.565 45.3647 203.379 44.0454 203.193C44.0262 203.19 43.9684 203.182 43.9491 203.18C37.0055 202.376 30.2262 201.388 23.7351 199.563L23.7996 199.583C8.76646 195.874 1.74019 179.562 3.67077 163.995L3.65415 164.127C8.41622 128.55 13.0671 92.9563 17.6067 57.3464L17.6023 57.3748C19.8336 42.1014 20.7713 25.8039 30.7691 13.9194C32.7849 11.5591 35.123 9.48879 37.7268 7.75368C44.1566 3.39308 51.8149 0.924917 59.6482 0.430708C61.778 0.287549 63.9083 0.143973 66.0385 0C63.9039 0.0458915 61.7693 0.0921803 59.6348 0.138866C51.7547 0.275902 43.8126 2.4316 37.0141 6.63372C34.2387 8.31758 31.699 10.3787 29.4803 12.7693C18.4389 24.8654 16.8836 41.822 14.1145 56.8083C14.1137 56.8139 14.1109 56.8309 14.1102 56.8366C8.29327 92.2602 2.58761 127.7 -3.00681 163.156C-3.01036 163.183 -3.02094 163.262 -3.02343 163.288C-5.92322 180.072 2.64826 202.198 21.512 206.992C21.5249 206.996 21.5636 207.007 21.5765 207.011C28.6566 209.136 35.8886 210.292 42.9506 211.22L42.8544 211.207C44.1708 211.412 45.4872 211.618 46.8037 211.824C46.8449 211.83 46.9688 211.845 47.0103 211.849C63.7248 213.592 80.4416 215.31 97.1609 217.003C97.1632 217.004 97.1703 217.004 97.1727 217.004C98.6033 217.145 100.034 217.286 101.465 217.427C101.469 217.427 101.48 217.428 101.484 217.429C108.27 218.066 115.057 218.7 121.844 219.33L121.767 219.322C123.08 219.467 124.393 219.611 125.706 219.756C125.734 219.759 125.817 219.766 125.845 219.768C141.337 221.08 157.341 222.92 173.497 222.528C195.614 222.214 226.836 216.528 234.319 189.192C235.622 184.648 236.088 180.188 236.506 175.958C236.511 175.906 236.522 175.751 236.524 175.699C237.809 135.895 239.638 96.557 239.129 56.0828L239.134 56.1392C238.032 20.5645 198.716 7.1015 170.453 5.33608C148.884 3.17112 127.256 1.41985 105.594 0.539247C92.4114 0.00321664 79.218 -0.209859 66.0385 0Z" fill="var(--stroke-0, #E5E1BE)" mask="url(#path-1-inside-1_0_125)"/>
</g>
</svg>
