<svg width="179" height="237" viewBox="0 0 179 237" fill="none" xmlns="http://www.w3.org/2000/svg">
<path d="M151.961 164.941L150.822 152.622L150.125 148.186C147.563 138.373 140.979 118.747 135.138 118.747C117.208 126.787 98.0029 129.408 78.2002 129.158C69.0354 127.516 49.4982 123.803 44.6685 122.096C39.8387 120.389 32.1284 116.278 28.8769 114.436C22.9205 122.727 16.72 130.465 15.4641 140.999C14.112 152.346 19.9571 162.861 31.1117 166.096L31.0129 172.289C66.4444 187.139 113.396 183.781 147.91 167.464L151.961 164.941Z" fill="#4B89FA" stroke="#333333" stroke-width="4.16022"/>
<path d="M147.337 167.583L151.388 165.061L143.177 167.007C139.131 169.379 139.261 169.144 134.774 170.73C113.109 178.4 84.4082 178.748 61.4542 176.668C52.0521 175.815 43.118 174.312 34.2515 170.843L30.9985 169.334L30.9993 172.174L34.5971 173.437C35.4359 180.46 39.5262 186.808 45.0993 190.667L43.8929 204.676C42.442 208.883 40.5283 212.508 41.0275 216.98C43.0675 235.305 85.4183 240.167 91.0438 223.038C92.3335 219.117 91.6886 215.035 89.4005 211.842C87.7624 209.554 85.3235 207.77 82.6661 206.054L83.935 197.734C91.4754 197.978 98.423 197.427 105.651 196.054C105.865 198.556 106.483 201.634 106.114 203.709C105.407 206.283 104.575 208.374 104.741 210.662C106.173 230.389 142.744 226.781 153.437 218.785C156.921 216.179 157.94 211.14 156.879 207.172C155.231 201.01 149.63 196.871 143.177 195.519L142.454 178.607C144.57 175.414 147.722 171.998 147.337 167.583Z" fill="#78BA68" stroke="#333333" stroke-width="4.16022"/>
<path d="M125.724 223.041C120.58 222.769 115.922 221.664 112.53 219.6C145.768 220.282 150.406 213.718 154.868 207.709C155.774 211.1 154.81 215.158 152.189 217.118C149.844 218.872 145.869 220.512 141.044 221.636C136.262 222.75 130.84 223.312 125.724 223.041Z" fill="#57A053"/>
<path d="M43.0946 216.751L43.061 216.403C45.3626 221.991 58.0621 229.935 64.0063 231.12C64.3152 231.164 64.6249 231.204 64.9352 231.24C65.0143 231.25 65.0935 231.259 65.1726 231.268C70.6329 231.883 76.0935 231.45 80.4589 229.932C82.8187 228.1 87.8442 224.028 89.0673 222.391C87.9349 225.839 84.8954 228.39 80.4589 229.932C76.0935 231.45 70.6329 231.883 65.1726 231.268C64.8226 231.255 64.4317 231.205 64.0063 231.12C58.8022 230.391 53.8269 228.73 50.0286 226.313C45.9989 223.748 43.5108 220.49 43.0946 216.751Z" fill="#57A053"/>
<path d="M145.349 220.548L140.398 221.978C140.333 219.734 140.038 213.443 136.139 213.673C137.783 215.51 139.128 222.438 135.952 222.695L136.739 226.366C142.834 225.862 148.521 224.25 152.707 221.12L149.498 218.525C150.155 212.34 146.353 211.102 144.86 211.27C145.697 212.472 146.731 213.625 147.178 214.915C147.703 216.428 147.475 219.934 145.349 220.548Z" fill="#333333"/>
<path d="M64.7159 221.266C65.6534 224.325 66.405 227.868 64.9833 229.788C64.2695 230.752 62.658 230.913 60.6671 230.561L60.342 234.056C61.4882 234.264 62.6457 234.417 63.8021 234.514C68.9464 234.946 75.5628 235.323 81.0183 234.043L80.3429 230.355L80.9292 227.14C81.3454 224.855 80.2748 220.812 77.26 221.331C78.6819 224.461 79.279 228.71 76.1756 230.406C74.0734 231.558 70.241 231.097 68.116 230.529C69.1115 226.621 68.8002 222.387 64.7159 221.266Z" fill="#333333"/>
<path d="M170.226 70.3322C169.675 67.3525 166.501 64.8798 163.266 64.0166C162.235 62.0771 157.53 54.8008 155.855 52.6097C171.622 32.36 157.189 15.3232 137.995 12.9425C131.9 6.83921 125.745 2.60506 117.01 2.13764C105.283 1.5136 94.1288 5.99624 85.5172 14.0047C85.5172 14.0047 82.3215 9.40763 67.1862 9.40763C52.0509 9.40763 39.4531 14.6391 29.0317 24.4468C21.6526 31.3944 16.8267 40.3285 14.5646 50.2194L13.5973 56.6002L9.4839 62.4609C-6.42279 85.134 5.11697 112.582 27.3573 124.927C62.908 142.368 127.095 141.983 158.68 106.757C163.432 102.192 166.135 95.9085 166.617 89.3436C169.836 86.5823 169.738 83.4199 168.293 79.8057L168.367 79.6766C169.851 77.0826 171.781 73.7081 170.226 70.3322Z" fill="#78BA68" stroke="#333333" stroke-width="4.16022"/>
<path d="M94.3086 133.519C70.2153 135.805 45.6985 131.591 28.3209 123.08C20.485 118.72 14.0906 112.471 9.85791 105.254C60.0664 143.7 140.021 132.029 165.181 88.8223L165.118 89.6856C164.681 95.6272 161.709 100.959 157.238 105.254L157.13 105.366C141.801 122.462 118.427 131.23 94.3086 133.519Z" fill="#57A053"/>
<path d="M86.9382 15.5298C95.1777 7.86757 105.794 3.62547 116.904 4.21667C127.893 4.21667 136.306 13.9917 136.065 13.8539C110.454 -1.40807 85.1821 17.163 85.1821 17.163L86.9382 15.5298Z" fill="#C8E4B0"/>
<path d="M83.8469 15.2462L85.1795 17.1633C75.065 13.6216 30.4588 11.4902 21.3231 57.3974C1.92637 77.3068 9.86034 97.0224 9.86034 105.259C2.49619 92.7034 1.67501 77.2183 11.1883 63.6581L15.5826 57.3974L16.61 50.6172C18.7951 41.1191 23.4235 32.5875 30.4588 25.9637L30.4593 25.9642C40.5001 16.5146 52.5897 11.4903 67.1878 11.4902C74.5534 11.4902 78.8434 12.6099 81.2123 13.6216C82.394 14.1264 83.1008 14.6054 83.4798 14.91C83.6699 15.0629 83.7805 15.1741 83.8292 15.2264C83.8365 15.2343 83.8423 15.241 83.8469 15.2462Z" fill="#C8E4B0"/>
<path d="M51.2257 123.744L47.8559 128.481L46.4362 131.487L45.1778 135.538C36.2749 134.581 29.1905 140.937 27.5316 149.372C26.4239 155.02 30.7994 162.23 32.3175 163.641C44.7939 175.237 68.6427 166.036 73.3009 149.465C80.1236 147.629 83.8158 140.77 81.4913 133.957C81.4913 133.957 81.882 132.409 81.6672 130.853C81.4524 129.296 80.8985 128.294 80.8985 128.294C80.2225 125.45 77.5615 123.099 75.8906 122.064C71.5588 117.379 65.6513 115.351 59.3849 118.112C56.4832 119.391 53.0406 121.191 51.2257 123.744Z" fill="#78BA68" stroke="#333333" stroke-width="3.6402"/>
<path d="M30.6144 157.383C29.523 154.825 28.8681 152.018 29.3179 149.725C32.3142 157.383 45.2644 167.882 55.1243 165.406C47.4435 168.175 39.147 167.505 33.5573 162.31C33.3525 162.119 32.8942 161.563 32.3142 160.643C31.7565 159.757 31.1472 158.632 30.6144 157.383Z" fill="#57A053"/>
<path d="M82.5787 127.875C81.9027 125.031 79.443 123.668 77.5709 121.645C75.7683 119.695 73.6929 118.206 71.4323 117.33L70.2745 119.741C71.4498 120.011 72.9874 121.462 74.0327 122.58C71.3649 123.599 69.2504 124.199 67.9399 126.897C71.0201 125.675 74.1439 123.086 77.4149 125.675C78.5017 126.539 80.0194 129.093 78.5425 130.263C76.9616 131.522 75.4273 131.068 73.4106 134.282C75.3399 133.595 77.8909 132.862 79.5029 133.938C81.2398 135.093 81.0966 137.111 80.7586 138.749L83.234 139.993C83.5347 138.087 83.5534 135.942 83.1716 133.538L83.234 130.642L82.5787 127.875Z" fill="#333333"/>
<path d="M176.78 131.933C176.255 127.263 174.351 122.947 171.127 119.395C170.356 110.194 156.84 103.134 148.719 107.419C143.607 110.118 140.381 114.376 139.172 116.701C138.709 117.592 137.706 121.133 138.948 123.602C136.935 130.55 140.076 134.242 145.88 137.274C145.923 147.944 151.971 158.369 163.888 154.19C173.16 150.945 178.392 141.242 176.78 131.933Z" fill="#78BA68" stroke="#333333" stroke-width="3.6402"/>
<path d="M156.488 153.045C154.65 152.589 153.087 151.567 151.795 150.099C183.449 144.302 161.825 112.147 161.825 109.959C166.001 112.172 168.996 115.789 169.311 119.548L169.363 120.163L169.777 120.619C172.739 123.882 174.485 127.84 174.969 132.137L174.975 132.191L174.984 132.245C176.453 140.725 171.671 149.538 163.285 152.473L163.284 152.473C160.577 153.422 158.329 153.501 156.488 153.045Z" fill="#57A053"/>
<path d="M137.161 117.173L136.725 119.955C136.725 120.786 136.816 122.538 137.182 122.904C136.664 124.691 136.488 126.263 136.61 127.664L139.558 127.294C139.468 125.811 140.047 124.405 141.816 124.017L146.829 124.246C144.65 122.218 142.793 122.072 140.406 121.479C139.398 118.947 141.259 115.02 144.327 114.849C146.948 114.703 148.93 116.996 151.956 117.106C150.266 114.719 147.63 113.673 145.003 112.067C146.093 110.819 147.352 109.958 148.698 109.434L146.954 106.721C141.842 109.42 139.923 111.89 137.161 117.173Z" fill="#333333"/>
<path d="M168.73 79.2252C170.223 76.6147 172.209 73.3333 170.628 69.9011C161.413 55.1488 147.52 71.8781 130.139 77.8264C104.939 85.377 80.0724 85.2516 54.3344 82.2986C48.8117 81.6642 43.4034 83.3074 39.9972 87.3429C35.8578 92.2467 35.6862 98.8303 39.9868 103.672C45.8736 110.302 58.3022 112.439 67.7095 113.349C92.2236 115.721 121.782 112.424 144.2 102.99C152.845 99.3535 173.639 91.4963 168.73 79.2252Z" fill="#A83838" stroke="#333333" stroke-width="4.16022"/>
<path d="M161.829 78.5801C131.104 96.145 96.7607 102.496 61.479 96.5834" stroke="#333333" stroke-width="4.16022" stroke-linecap="round"/>
<path d="M138.568 21.1152C124.607 21.1152 114.028 27.6118 106.321 37.6639C105.88 38.7578 95.9593 47.1146 109.595 56.9629C152.338 83.8213 189.6 23.6167 138.568 21.1152Z" fill="#FEFEFE" stroke="#333333" stroke-width="2.60014"/>
<path d="M159.461 29.1886C159.512 29.3012 159.599 29.3961 159.713 29.4499C159.826 29.5036 159.954 29.5121 160.07 29.473C160.187 29.4338 160.284 29.3497 160.342 29.2386C160.4 29.1274 160.412 28.9987 160.385 28.8782C160.385 28.8782 160.385 28.8782 160.385 28.8782C160.137 27.798 159.805 26.7303 159.38 25.6912C157.721 21.5073 154.31 17.9418 150.235 15.913C145.551 13.5383 140.393 12.6452 135.348 12.3512L135.267 12.3485C125.039 12.2611 113.775 16.0327 107.928 24.8886C107.296 25.7969 106.725 26.7277 106.196 27.6965C106.135 27.8082 106.118 27.9396 106.15 28.0633C106.183 28.187 106.263 28.2925 106.372 28.357C106.482 28.4216 106.613 28.4401 106.737 28.4088C106.861 28.3776 106.968 28.2988 107.036 28.1914C107.036 28.1914 107.036 28.1914 107.036 28.1914C107.61 27.2875 108.22 26.4272 108.879 25.5944C115.026 17.5209 125.426 14.5618 135.267 14.796L135.186 14.7933C140.024 15.1708 144.85 16.0917 149.052 18.2286C152.704 20.0704 155.822 22.8077 157.986 26.3915C158.53 27.2822 159.02 28.2176 159.461 29.1886Z" fill="#333333"/>
<path d="M158.303 25.3749C157.153 20.8637 149.14 14.7012 136.265 14.7012C124.808 14.7012 114.085 18.0683 107.624 29.0353C128.759 17.5025 140.461 16.0194 158.303 25.3749Z" fill="#78BA68"/>
<path d="M143.189 57.0713C137.051 60.167 129.768 57.424 125.79 52.369C120.887 46.1335 121.357 37.5811 125.932 31.2721C128.793 27.3241 133.451 24.8505 138.178 25.115C142.905 25.3795 147.191 27.9511 149.87 32.3351C154.92 40.5984 152.388 52.4376 143.189 57.0713Z" fill="#0A3318"/>
<path d="M148.175 38.4793C144.207 39.9781 141.846 41.5407 140.396 46.2822C138.971 42.4958 136.958 40.0712 131.952 39.0425C135.954 36.951 138.604 35.4423 139.549 30.5098C141.381 34.7076 143.384 37.1469 148.175 38.4793Z" fill="#FEFEFE"/>
<path d="M131.315 34.9121C131.795 34.9121 132.182 35.2991 132.182 35.7791C132.182 36.2591 131.795 36.6461 131.315 36.6461C130.835 36.6461 130.448 36.2591 130.448 35.7791C130.448 35.2991 130.835 34.9121 131.315 34.9121Z" fill="#FEFEFE"/>
<path d="M146.677 45.7949C147.397 51.4017 142.044 55.9371 136.411 55.462C131.306 55.0324 128.809 51.243 127.991 46.7363C133.715 52.5048 141.472 52.5462 146.677 45.7949Z" fill="#39763D"/>
<path d="M132.927 47.8244C131.916 48.2061 131.315 48.604 130.946 49.8115C130.583 48.8473 130.07 48.2298 128.795 47.9679C129.815 47.4352 130.489 47.051 130.73 45.7949C131.197 46.8639 131.707 47.4851 132.927 47.8244Z" fill="#B2D0FF"/>
<path d="M48.2842 37.0508C36.8421 55.201 49.2676 72.2457 68.6251 73.8815C105.73 77.0172 119.812 40.2557 93.7836 25.4092C77.4525 17.6625 58.135 21.3984 48.2842 37.0508Z" fill="#FEFEFE" stroke="#333333" stroke-width="2.60014"/>
<path d="M93.7799 25.4091C77.4487 17.6624 58.1312 21.3982 48.2805 37.0507C44.4283 43.1614 42.867 50.4625 44.1935 54.4609C57.6983 21.7669 96.5044 27.099 106.415 40.9643C106.415 38.7112 100.789 29.4072 93.7799 25.4091Z" fill="#78BA68" stroke="#333333" stroke-width="2.60014"/>
<path d="M87.5196 67.7616C81.0036 71.0481 73.2708 68.136 69.0482 62.7693C63.8427 56.1493 64.3419 47.0697 69.199 40.3717C72.2359 36.1803 77.1814 33.5541 82.1997 33.835C87.2179 34.1158 91.7682 36.8459 94.6127 41.5002C99.9742 50.273 97.2857 62.8421 87.5196 67.7616Z" fill="#0A3318"/>
<path d="M92.8156 48.0253C88.6034 49.6166 86.0968 51.2755 84.5576 56.3093C83.0443 52.2895 80.907 49.7154 75.5923 48.6233C79.8409 46.4028 82.6543 44.8011 83.6579 39.5645C85.6028 44.0211 87.7297 46.6108 92.8156 48.0253Z" fill="#FEFEFE"/>
<path d="M74.919 44.2363C75.4286 44.2363 75.8394 44.6472 75.8394 45.1568C75.8394 45.6664 75.4286 46.0772 74.919 46.0772C74.4094 46.0772 73.9985 45.6664 73.9985 45.1568C73.9985 44.6472 74.4094 44.2363 74.919 44.2363Z" fill="#FEFEFE"/>
<path d="M91.2237 55.791C91.9882 61.7435 86.3046 66.5586 80.3243 66.0541C74.9049 65.5981 72.2536 61.575 71.3853 56.7904C77.4622 62.9146 85.6976 62.9585 91.2237 55.791Z" fill="#39763D"/>
<path d="M76.6268 57.9456C75.5541 58.3509 74.9158 58.7733 74.5238 60.0552C74.1384 59.0316 73.5942 58.376 72.2407 58.0979C73.3227 57.5325 74.0391 57.1246 74.2947 55.791C74.79 56.9259 75.3316 57.5854 76.6268 57.9456Z" fill="#B2D0FF"/>
</svg>
