<svg xmlns="http://www.w3.org/2000/svg" width="179" height="237" fill="none" viewBox="0 0 179 237">
  <g id="pepe" class="bm-body">
    <path fill="#4b89fa" stroke="#333" stroke-width="4.16" d="m151.98 164.97-1.14-12.33-.7-4.43c-2.56-9.82-9.14-29.45-14.98-29.45-17.94 8.04-37.14 10.67-56.95 10.42-9.17-1.65-28.7-5.36-33.54-7.07-4.83-1.7-12.54-5.82-15.79-7.66-5.96 8.3-12.16 16.03-13.41 26.57-1.36 11.35 4.49 21.86 15.65 25.1l-.1 6.2c35.43 14.85 82.4 11.49 116.91-4.83z"/>
    <path fill="#80b4ff" d="M25.86 126.5c-1.97.85-7.29 15.93-7.29 25.01-3.52-9.5 1.43-20.6 5.26-26.23l1.08.66z"/>
    <path fill="#2e69e5" d="M56.37 168.86c8.22-2.97 15.62-9.42 18.4-17.92a13.5 13.5 0 0 0 9.25-12.61q5.32-.1 10.63-.61c14.62-1.39 29.17-5.11 41.97-11.66v.06q-.4 3.79 1.3 6.72c1.36 2.34 3.59 4.08 6.19 5.55.2 5.01 1.66 10.04 4.54 13.62l1.1 11.33-7.33 1.74c-1.5.86-3.48 2.09-5.18 2.61 4.23-4.35 4.41-15.68.69-25.46-6.38-6.45-4.43-9.39-4.43-9.39s-20.32 11.79-44.72 9.91c-6.33 15.21-17.62 29.71-23.88 32.05-14.33-.65-21.53-2.27-31.65-6.48v-1.56c6.7 4.71 15.45 4.86 23.12 2.1"/>
    <path fill="#2e69e5" d="M34.24 136.28c-1.27-.1-10.06-6.27-12.05-8.25.28-.56.95-1.66 1.62-2.74 6.55 4.18 18.2 7.57 20.13 8.1v.02l-.08.24a17 17 0 0 0-9.62 2.63"/>
    <path fill="#78ba68" stroke="#333" stroke-width="4.16" d="M170.25 70.34c-.55-2.98-3.72-5.45-6.96-6.31a153 153 0 0 0-7.41-11.41c15.77-20.25 1.33-37.3-17.87-39.68-6.09-6.1-12.25-10.33-20.98-10.8C105.3 1.5 94.14 6 85.53 14c0 0-3.2-4.6-18.33-4.6-15.14 0-27.74 5.23-38.16 15.04-7.38 6.95-12.21 15.88-14.47 25.78l-.97 6.38-4.12 5.86c-15.9 22.68-4.36 50.13 17.88 62.47C62.92 142.4 127.11 142 158.7 106.78a26.8 26.8 0 0 0 7.94-17.41c3.22-2.76 3.12-5.93 1.68-9.54l.07-.13c1.49-2.6 3.42-5.97 1.86-9.35Z"/>
    <path fill="#57a053" d="M94.32 133.54c-24.1 2.29-48.61-1.93-66-10.44a49 49 0 0 1-18.46-17.83c50.22 38.45 130.18 26.78 155.35-16.43l-.07.86c-.43 5.94-3.4 11.27-7.88 15.57l-.1.11c-15.34 17.1-38.71 25.87-62.84 28.16"/>
    <path fill="#c8e4b0" d="M86.95 15.53c8.24-7.66 18.86-11.9 29.97-11.31 10.99 0 19.4 9.77 19.16 9.63C110.47-1.4 85.2 17.16 85.2 17.16z"/>
    <path fill="#c8e4b0" d="m83.86 15.25 1.33 1.91C75.07 13.62 30.46 11.5 21.32 57.4 1.92 77.32 9.86 97.04 9.86 105.27c-7.37-12.55-8.19-28.04 1.33-41.6l4.4-6.27 1.02-6.78c2.19-9.5 6.82-18.03 13.85-24.65C40.5 16.52 52.6 11.49 67.2 11.49c7.36 0 11.65 1.12 14.02 2.13a10 10 0 0 1 2.27 1.3z"/>
    <path fill="#a83838" stroke="#333" stroke-width="4.16" d="M168.76 79.23c1.49-2.6 3.48-5.89 1.9-9.32-9.22-14.76-23.12 1.98-40.5 7.92-25.2 7.56-50.07 7.43-75.82 4.48-5.52-.64-10.93 1-14.34 5.04-4.14 4.9-4.3 11.5 0 16.33 5.88 6.63 18.31 8.77 27.72 9.68 24.52 2.38 54.08-.92 76.5-10.36 8.65-3.63 29.45-11.5 24.54-23.77Z"/>
    <path stroke="#333" stroke-linecap="round" stroke-width="4.16" d="M161.85 78.59c-30.72 17.57-65.07 23.92-100.36 18"/>
    <path fill="#78ba68" stroke="#333" stroke-width="4.16" d="m147.36 167.6 4.05-2.52-8.2 1.95c-4.06 2.37-3.92 2.14-8.41 3.72-21.67 7.68-50.38 8.02-73.33 5.94-9.4-.85-18.34-2.35-27.21-5.82l-3.25-1.51v2.84l3.6 1.26a25 25 0 0 0 10.5 17.23l-1.2 14.02c-1.46 4.2-3.37 7.83-2.87 12.3 2.04 18.33 44.4 23.2 50.02 6.06 1.3-3.92.65-8-1.64-11.2-1.64-2.28-4.08-4.07-6.74-5.79l1.27-8.32c7.54.25 14.5-.3 21.72-1.68.21 2.5.83 5.58.46 7.66-.7 2.57-1.54 4.66-1.37 6.95 1.43 19.73 38 16.12 48.7 8.13 3.49-2.6 4.5-7.65 3.45-11.62-1.65-6.16-7.25-10.3-13.7-11.65l-.73-16.92c2.12-3.19 5.27-6.6 4.88-11.02Z"/>
    <path fill="#57a053" d="M125.75 223.08c-5.15-.28-9.8-1.38-13.2-3.45 33.24.69 37.88-5.88 42.35-11.89.9 3.4-.06 7.45-2.68 9.41-2.35 1.75-6.32 3.4-11.15 4.52a56 56 0 0 1-15.32 1.4"/>
    <path fill="#57a053" d="m43.1 216.78-.03-.34c.78 1.82 16.48 13.43 21.72 13.61 5.46.62 11.32 1.43 15.68-.08.19-.34-.82-1.52-.5-1.96.27-.37-.47-1.2.96-.81 5.8-1.72 8.1-6.34 8.7-7.99-.33 6.7-4.72 9.21-9.16 10.76-4.36 1.51-10.22.7-15.68.08 0 1.06.08 1.38 0 1.38a36 36 0 0 1-14.75-5.08c-4.03-2.57-6.52-5.83-6.94-9.57"/>
    <path fill="#57a053" d="M145.3 168.67a9 9 0 0 1-1.26 3.9c-.96 1.73-2.09 3.1-3.3 4.92l-.37.56.82 19.2.09.02c-17.14.06-21.95 14.26-16.57 18 5.38 3.76 11.58 3.87 16.36 2.76 4.83-1.13 8.8-2.77 11.15-4.52 2.46-1.84 3.07-4.12 2.49-6.4l.12.39.07.24c.9 3.4-.06 7.45-2.68 9.41-2.35 1.76-6.32 3.4-11.15 4.52a56 56 0 0 1-15.32 1.4c-5.15-.27-9.8-1.37-13.2-3.44-3.3-2-5.41-4.92-5.72-9.09v-.16c-.04-.79.08-1.6.31-2.56.27-1.12.6-2.07 1-3.53l.03-.1.01-.09a16 16 0 0 0 .01-4.24c-.16-1.56-.34-2.64-.45-3.95l-.2-2.3-2.26.43a95 95 0 0 1-21.26 1.65l-1.85-.06-1.75 11.47-3.37-1.33c.01-.05 2.29-5.92 1.68-9.86-.48-3.11-22.22-5.98-28.98-2.2-.39 1.26-.32 2.75-.39 3.7-.82 0-2.07-3.63-2.74 0l.67-7.74-1-.68c-4.9-3.4-8.54-8.9-9.5-14.99 8.03 2.73 16.13 4 24.49 4.77l1.08.1c22.88 1.97 51.38 1.55 73.13-6.15l2.63-.92q1.05-.36 1.85-.7a34 34 0 0 0 4.01-2.11zm-18.69 8.86c-20.07 5.29-40.55 7.03-61.2 7.56 13.3 9.28 45.62 11.81 61.2-7.56"/>
    <path fill="#c8e4b0" d="m45.98 204.95.67-7.88.22-2.47 2.55 2.06c.33 2.76-1.5 8.09-.67 10.09-1.32 1.44-2.9 8.52-3.52 11.88a13 13 0 0 1-2.08-2.08c-.67-2.01 1.7-8.31 2.83-11.6"/>
    <path fill="#333" d="M64.73 221.3c.94 3.06 1.69 6.6.27 8.52-.72.97-2.33 1.13-4.32.78l-.32 3.5q1.71.3 3.46.45c5.14.43 11.76.8 17.22-.47l-.68-3.69.59-3.21c.41-2.3-.66-6.33-3.67-5.81 1.42 3.13 2.02 7.38-1.09 9.07-2.1 1.15-5.93.7-8.06.12 1-3.9.69-8.14-3.4-9.26"/>
    <path fill="#333" d="m145.37 220.58-4.95 1.43c-.06-2.24-.36-8.53-4.26-8.3 1.65 1.83 3 8.76-.19 9.02l.8 3.67c6.09-.5 11.78-2.12 15.96-5.25l-3.2-2.6c.65-6.18-3.15-7.42-4.65-7.25.84 1.2 1.88 2.36 2.32 3.65.53 1.51.3 5.02-1.83 5.63"/>
    <g class="bm-arm bm-arm-l">
      <path fill="#78ba68" stroke="#333" stroke-width="3.64" d="m51.23 123.77-3.37 4.73-1.42 3.01-1.26 4.05c-8.9-.96-15.99 5.4-17.64 13.84-1.11 5.65 3.26 12.86 4.78 14.27 12.48 11.6 36.33 2.4 41-14.18a11.8 11.8 0 0 0 8.18-15.51s.4-1.55.18-3.1a8 8 0 0 0-.77-2.56c-.68-2.85-3.34-5.2-5-6.23-4.34-4.7-10.25-6.72-16.52-3.96-2.9 1.28-6.34 3.08-8.16 5.64Z"/>
      <path fill="#57a053" d="M30.62 157.4c-1.1-2.55-1.75-5.36-1.3-7.65 19.07 26.9 43.52-6 43.52-6s6-7.17 6.94-10.39l-.04.18-.13.52.17.5a10 10 0 0 1-6.94 13.17l-1 .27-.28 1c-2.14 7.6-8.75 13.66-16.43 16.43s-15.98 2.1-21.57-3.1a10 10 0 0 1-1.24-1.66 24 24 0 0 1-1.7-3.26"/>
      <path fill="#333" d="M82.6 127.9c-.68-2.85-3.15-4.21-5.02-6.23a17 17 0 0 0-6.14-4.32l-1.15 2.41c1.17.27 2.7 1.72 3.75 2.84-2.66 1.02-4.78 1.62-6.09 4.32 3.08-1.23 6.2-3.81 9.48-1.23 1.08.87 2.6 3.42 1.12 4.6-1.58 1.25-3.11.8-5.13 4.01 1.93-.68 4.48-1.42 6.1-.34 1.73 1.15 1.59 3.17 1.25 4.81l2.48 1.24c.3-1.9.32-4.05-.07-6.45l.07-2.9z"/>
    </g>
    <g class="bm-arm bm-arm-r">
      <path fill="#78ba68" stroke="#333" stroke-width="3.64" d="M176.8 131.95a22 22 0 0 0-5.65-12.54c-.77-9.2-14.29-16.26-22.4-11.97a24 24 0 0 0-9.56 9.28c-.46.89-1.46 4.43-.22 6.9-2.01 6.95 1.13 10.64 6.93 13.67.04 10.68 6.1 21.1 18.01 16.92 9.28-3.24 14.5-12.95 12.9-22.26Z"/>
      <path fill="#57a053" d="M156.51 153.07a9 9 0 0 1-4.69-2.95c-1.98-2.66-4.1-5.87-4.1-13.94-2.2-1.12-4.14-2.09-5.98-4.23 1.46 1.06 4.86 3.12 6.78 2.9 9.93 5.04 23.1-7.03 20.87-14.67l.42.46a20.3 20.3 0 0 1 5.19 11.52v.05l.01.05c1.47 8.49-3.31 17.3-11.7 20.23-2.7.95-4.95 1.03-6.8.58"/>
      <path fill="#333" d="m137.19 117.2-.44 2.78c0 .83.09 2.58.46 2.94-.52 1.8-.7 3.36-.58 4.77l2.95-.37c-.09-1.49.5-2.9 2.26-3.28l5.01.23c-2.18-2.03-4.03-2.18-6.42-2.77-1-2.53.85-6.46 3.92-6.63 2.62-.15 4.6 2.15 7.63 2.26-1.69-2.4-4.32-3.44-6.95-5.04a9.4 9.4 0 0 1 3.7-2.64l-1.75-2.71c-5.11 2.7-7.03 5.17-9.8 10.45"/>
    </g>
    <path fill="#57a053" d="m107.98 55.6-2.78-.9a35 35 0 0 1-2.06 2.74 44 44 0 0 1-9.5 8.39c-6.94 4.67-15.9 6.46-24.84 6.15l-.27-.01c-5.8.2-12.6-2.96-17.3-7.7q-1.17-1.2-2.2-2.55l-2.49 1.53a26 26 0 0 0 1.95 3.28c4.54 6.27 11.3 11.18 20.04 11.87l-.27-.01c9.9 1.3 20.8-.1 29.75-6.1a22.7 22.7 0 0 0 9.34-12.8q.51-1.93.63-3.9"/>
    <path fill="#57a053" d="m156.6 57.02-1.9-2.23-2.53.87a234 234 0 0 0-9.36 3.33c-10.48 4.16-22.45 3.43-33.03-2.44q-1.14-.61-2.26-1.3l-1.81 2.3q.98 1 2.02 1.9c9.52 8.88 25.17 12.07 37.89 6.82a22 22 0 0 0 10.97-9.25"/>
    <g class="bm-eyes">
      <g class="bm-eye bm-eye-r">
        <path fill="#fefefe" stroke="#333" stroke-width="2.6" d="M138.6 21.11c-13.97 0-24.55 6.5-32.26 16.55-.44 1.1-10.36 9.46 3.27 19.3 42.76 26.87 80.02-33.34 28.98-35.85Z"/>
        <path fill="#333" d="M159.49 29.2q.08.16.25.25t.36.03a.5.5 0 0 0 .27-.24.5.5 0 0 0 .04-.36 19 19 0 0 0-10.15-12.97c-4.68-2.37-9.84-3.27-14.89-3.56h-.08c-10.23-.09-21.5 3.68-27.34 12.54q-.94 1.36-1.73 2.8a.5.5 0 0 0-.05.38.5.5 0 0 0 .59.34.5.5 0 0 0 .3-.22q.85-1.34 1.84-2.6c6.15-8.07 16.55-11.03 26.4-10.8h-.09c4.84.38 9.67 1.3 13.87 3.44a22 22 0 0 1 8.93 8.16q.82 1.35 1.48 2.8"/>
        <path fill="#78ba68" d="M158.33 25.37c-1.15-4.5-9.16-10.67-22.04-10.67-11.46 0-22.18 3.37-28.64 14.33 21.13-11.53 32.84-13.01 50.68-3.66"/>
        <path fill="#c8e4b0" d="M145.53 18.45q-.64-.3-1.28-.55a23.7 23.7 0 0 0-12.4-1.55 30 30 0 0 0-11.62 4.57q-.59.37-1.16.77l1.3-.5a56 56 0 0 1 11.71-3.3c3.97-.6 8.02-.45 12.09.3q.67.11 1.36.26"/>
        <path fill="#123011" d="M143.22 57.08c-6.14 3.1-13.43.35-17.4-4.7-4.9-6.24-4.44-14.8.14-21.1 2.86-3.96 7.52-6.43 12.25-6.16a14.6 14.6 0 0 1 11.69 7.22c5.05 8.26 2.52 20.1-6.68 24.74"/>
        <path fill="#fefefe" d="M148.2 38.48c-3.97 1.5-6.33 3.07-7.78 7.8-1.42-3.78-3.44-6.2-8.44-7.23 4-2.1 6.65-3.6 7.6-8.54 1.83 4.2 3.83 6.64 8.62 7.97"/>
        <path fill="#fefefe" d="M131.34 34.91a.87.87 0 1 1 0 1.73.87.87 0 0 1 0-1.73"/>
        <path fill="#39763d" d="M146.7 45.8c.73 5.6-4.63 10.14-10.26 9.67-5.1-.43-7.6-4.22-8.42-8.73 5.72 5.77 13.48 5.81 18.69-.94"/>
        <path fill="#b2d0ff" d="M132.96 47.83c-1.02.38-1.62.78-1.99 1.99-.36-.97-.87-1.59-2.15-1.85 1.02-.53 1.7-.92 1.94-2.17.46 1.07.98 1.69 2.2 2.03"/>
      </g>
      <g class="bm-eye bm-eye-l">
        <path fill="#fefefe" stroke="#333" stroke-width="2.6" d="M48.3 37.05c-11.45 18.16.98 35.2 20.34 36.84 37.11 3.14 51.2-33.63 25.16-48.48-16.33-7.75-35.65-4.01-45.5 11.64Z"/>
        <path fill="#78ba68" stroke="#333" stroke-width="2.6" d="M93.8 25.41c-16.33-7.75-35.65-4.01-45.5 11.64-3.86 6.12-5.42 13.42-4.1 17.42 13.51-32.7 52.32-27.37 62.24-13.5 0-2.26-5.63-11.56-12.64-15.56Z"/>
        <path fill="#c8e4b0" d="M87.24 27.27q-.63-.3-1.28-.55a23.7 23.7 0 0 0-12.39-1.55 30 30 0 0 0-11.63 4.57q-.59.38-1.15.77l1.29-.5a56 56 0 0 1 11.72-3.3c3.96-.6 8.02-.44 12.08.3q.67.11 1.36.26"/>
        <path fill="#123011" d="M87.54 67.77c-6.52 3.29-14.25.37-18.48-5-5.2-6.61-4.7-15.7.16-22.4 3.03-4.19 7.98-6.81 13-6.53s9.57 3.01 12.41 7.67c5.37 8.77 2.68 21.34-7.1 26.26"/>
        <path fill="#fefefe" d="M92.83 48.03c-4.21 1.6-6.72 3.25-8.26 8.29-1.51-4.02-3.65-6.6-8.96-7.7 4.25-2.21 7.06-3.81 8.06-9.05 1.95 4.46 4.08 7.05 9.16 8.46"/>
        <path fill="#fefefe" d="M74.93 44.24a.92.92 0 1 1 0 1.84.92.92 0 0 1 0-1.84"/>
        <path fill="#39763d" d="M91.24 55.8c.77 5.95-4.92 10.77-10.9 10.26-5.42-.45-8.07-4.48-8.94-9.26 6.08 6.12 14.31 6.17 19.84-1"/>
        <path fill="#b2d0ff" d="M76.64 57.95c-1.07.4-1.7.83-2.1 2.11a2.7 2.7 0 0 0-2.28-1.96c1.08-.56 1.8-.97 2.05-2.3.5 1.13 1.04 1.8 2.33 2.15"/>
      </g>
    </g>
  </g>
</svg>
