<svg width="209" height="274" viewBox="0 0 209 274" fill="none" xmlns="http://www.w3.org/2000/svg">
<path d="M157.103 230.264C163.617 235.433 174.902 234.489 181.091 232.125C201.917 222.601 210.27 207.019 205.627 184.949L202.059 186.231C203.07 183.019 202.965 173.602 197.619 168.658C194.632 169.745 193.314 170.199 191.529 171.105C193.724 155.138 166.028 155.463 158.553 177.534C164.031 188.493 168.477 211.86 157.103 230.264Z" fill="#FFFDEA" stroke="#333333" stroke-width="4.06432"/>
<path d="M169.272 231.992C165.779 231.901 162.442 231.184 159.817 229.661C162.266 225.296 163.904 220.71 164.911 216.11C171.957 216.076 188.617 210.715 198.89 189.534L204.077 187.669C205.737 197.351 204.672 205.507 201.11 212.303C197.273 219.625 190.404 225.623 180.307 230.252C177.472 231.325 173.397 232.099 169.272 231.992Z" fill="#E5E1BE"/>
<path d="M166.18 201.025C166.021 196.984 165.493 193.1 164.725 189.528C164.303 187.563 163.808 185.692 163.263 183.941C182.237 147.452 208.353 221.222 163.519 221.22C165.742 214.465 166.435 207.51 166.18 201.025Z" fill="#FFC080"/>
<path d="M161.971 247.328L162.678 232.93C174.256 212.175 168.138 189.101 157.382 164.348C158.951 163.096 161.904 160.888 165.264 159.738L161.971 152.606C140.749 166.965 70.0946 161.557 49.4862 142.936L43.5473 137.571C35.7804 157.297 42.8377 179.453 47.3372 188.065C46.3574 198.624 49.9416 206.542 51.996 216.272C50.4387 225.289 50.9493 232.725 53.2559 241.572C49.0748 244.041 46.0164 247.948 46.0926 252.5C46.3161 266.349 77.6876 265.709 85.0847 258.475C89.3631 254.265 90.4521 244.475 92.1718 238.854C100.519 241.166 108.322 242.019 116.685 241.821L123.035 253.018C108.312 270.39 149.742 279.783 158.852 263.078C161.596 258.053 161.707 252.734 161.971 247.328Z" fill="#FFC080"/>
<path d="M6.24981 156.587C6.46826 161.068 8.48008 164.746 10.9847 168.104L11.1561 168.238C18.2964 173.803 23.1345 177.574 32.3935 178.443C54.3822 182.746 49.8222 181.606 66.8133 187.079C53.3451 177.533 44.0378 162.206 39.5823 146.568C37.1906 138.213 33.2613 125.374 21.7704 125.891C11.005 125.541 3.67401 134.513 1.96191 144.201L2.03305 148.072C2.27691 151.486 3.61816 154.397 6.24981 156.587Z" fill="#FFC080"/>
<path d="M66.8163 187.079C53.3482 177.533 44.0409 162.206 39.5854 146.568C37.1936 138.213 33.2644 125.374 21.7735 125.891C9.64123 125.496 1.8323 136.979 2.03612 148.072C2.27998 151.486 3.62123 154.397 6.25288 156.587C7.20837 176.185 26.5171 181.056 44.9411 181.056" stroke="#333333" stroke-width="4.06432"/>
<path d="M34.1829 137.67C33.5987 139.016 29.9959 141.177 28.8223 140.984C30.6528 135.662 26.4661 130.909 23.6808 133.832C22.0347 132.003 19.0984 130.94 17.5032 132.611C16.1151 134.065 16.6032 135.43 18.5504 138.393C18.5504 138.393 13.8736 134.806 10.2106 138.393C6.54762 141.979 6.42282 144.55 6.75812 149.951L8.29136 155.659C-0.83909 149.951 5.21588 133.787 14.4571 129.266C19.4207 126.837 26.7499 127.238 29.9821 130.909C33.2142 134.581 33.6495 135.491 34.1829 137.67Z" fill="#FCF9E7"/>
<path d="M162.683 232.93L160.908 231.94L160.676 232.355L160.653 232.83L162.683 232.93ZM161.977 247.328L159.947 247.228L159.947 247.228L161.977 247.328ZM158.857 263.077L157.074 262.103L157.073 262.104L158.857 263.077ZM123.04 253.018L124.591 254.332L125.508 253.249L124.808 252.015L123.04 253.018ZM116.69 241.82L118.458 240.818L117.858 239.76L116.642 239.789L116.69 241.82ZM92.177 238.854L92.7194 236.895L90.8126 236.367L90.2338 238.259L92.177 238.854ZM85.0899 258.474L86.5108 259.927L86.5151 259.923L85.0899 258.474ZM46.0978 252.499L48.1297 252.467L48.1296 252.465L46.0978 252.499ZM53.2611 241.572L54.2944 243.321L55.6142 242.542L55.2275 241.059L53.2611 241.572ZM52.0012 216.271L54.0037 216.617L54.0701 216.233L53.9895 215.851L52.0012 216.271ZM47.3424 188.065L49.3659 188.252L49.4213 187.655L49.1436 187.124L47.3424 188.065ZM44.4124 169.613C44.5294 168.497 43.7193 167.497 42.6031 167.38C41.4869 167.263 40.4872 168.073 40.3702 169.189L42.3913 169.401L44.4124 169.613ZM162.683 232.93L160.653 232.83L159.947 247.228L161.977 247.328L164.006 247.427L164.713 233.029L162.683 232.93ZM161.977 247.328L159.947 247.228C159.677 252.756 159.551 257.566 157.074 262.103L158.857 263.077L160.641 264.051C163.65 258.539 163.748 252.71 164.006 247.427L161.977 247.328ZM116.69 241.82L116.642 239.789C108.463 239.983 100.86 239.149 92.7194 236.895L92.177 238.854L91.6346 240.812C100.188 243.181 108.192 244.055 116.738 243.852L116.69 241.82ZM85.0899 258.474L83.669 257.021C82.2356 258.423 79.3488 259.718 75.479 260.554C71.6903 261.372 67.2649 261.686 63.0574 261.367C58.8228 261.046 54.9831 260.098 52.2568 258.531C49.5833 256.995 48.1706 255.004 48.1297 252.467L46.0978 252.499L44.0659 252.532C44.1367 256.92 46.7292 260.042 50.2319 262.055C53.6819 264.037 58.1892 265.074 62.7501 265.419C67.3381 265.767 72.1564 265.43 76.3373 264.526C80.437 263.641 84.2456 262.142 86.5108 259.927L85.0899 258.474ZM46.0978 252.499L48.1296 252.465C48.0702 248.912 50.472 245.579 54.2944 243.321L53.2611 241.572L52.2278 239.822C47.6879 242.503 43.973 246.983 44.0659 252.533L46.0978 252.499ZM92.177 238.854L90.2338 238.259C89.7795 239.744 89.3734 241.481 88.966 243.24C88.5525 245.026 88.1318 246.862 87.635 248.649C86.6158 252.315 85.3838 255.334 83.6646 257.025L85.0899 258.474L86.5151 259.923C89.0744 257.405 90.5261 253.424 91.5509 249.737C92.0761 247.848 92.5176 245.919 92.9256 244.157C93.3397 242.368 93.7147 240.774 94.1202 239.448L92.177 238.854ZM123.04 253.018L124.808 252.015L118.458 240.818L116.69 241.82L114.922 242.823L121.273 254.02L123.04 253.018ZM158.857 263.077L157.073 262.104C155.161 265.61 151.464 267.906 146.868 269.021C142.282 270.133 137.046 269.999 132.507 268.856C127.897 267.695 124.408 265.603 122.857 263.174C122.116 262.013 121.804 260.768 121.992 259.399C122.184 257.997 122.924 256.298 124.591 254.332L123.04 253.018L121.49 251.704C119.476 254.081 118.29 256.475 117.965 258.847C117.636 261.252 118.217 263.459 119.431 265.361C121.792 269.057 126.469 271.527 131.515 272.797C136.632 274.086 142.541 274.253 147.826 272.971C153.101 271.691 157.998 268.897 160.641 264.05L158.857 263.077ZM53.2611 241.572L55.2275 241.059C52.9854 232.459 52.5012 225.317 54.0037 216.617L52.0012 216.271L49.9987 215.925C48.3866 225.26 48.9237 232.99 51.2947 242.084L53.2611 241.572ZM52.0012 216.271L53.9895 215.851C53.4636 213.361 52.8418 210.996 52.2317 208.718C51.6177 206.426 51.0199 204.238 50.5152 202.027C49.5122 197.631 48.9029 193.242 49.3659 188.252L47.3424 188.065L45.319 187.877C44.8022 193.446 45.495 198.295 46.5527 202.931C47.0784 205.235 47.7006 207.511 48.3058 209.77C48.9149 212.043 49.5115 214.317 50.0129 216.691L52.0012 216.271ZM47.3424 188.065L49.1436 187.124C48.5899 186.064 47.8747 184.941 47.28 183.932C46.6544 182.872 46.0556 181.77 45.5532 180.497C44.565 177.993 43.8838 174.658 44.4124 169.613L42.3913 169.401L40.3702 169.189C39.7784 174.838 40.5277 178.835 41.7726 181.989C42.3868 183.545 43.1052 184.854 43.779 185.997C44.4836 187.192 45.0499 188.065 45.5413 189.006L47.3424 188.065ZM157.625 164.274L155.776 165.118C166.255 188.074 171.601 212.772 160.908 231.94L162.683 232.93L164.458 233.92C176.166 212.931 170.042 186.583 159.474 163.431L157.625 164.274Z" fill="#333333"/>
<path d="M87.1324 236.705C95.1105 240.567 119.277 243.156 127.052 238.55C134.439 234.172 137.585 226.48 138.34 218.759C132.777 243.619 82.0991 236.705 66.5635 216.728C71.5389 225.68 78.4211 232.472 87.1324 236.705Z" fill="#E5E1BE"/>
<path d="M105.387 183.034L117.694 177.103C120.859 183.128 126.546 192.95 132.145 194.982C137.743 197.014 145.207 227.792 127.053 238.549C119.278 243.156 95.1114 240.566 87.1334 236.705C66.1016 226.486 55.7316 201.348 57.1157 166.903C71.7878 194.158 81.1681 193.983 105.387 183.034Z" fill="#FCF9E7"/>
<path d="M80.743 231.183C80.4072 231.564 80.0714 231.946 79.7356 232.327C80.2258 232.987 80.7368 233.681 81.3076 234.345C83.59 237.058 86.8027 239.022 90.0956 240.165C91.7558 240.749 93.4325 241.213 95.1292 241.599C105.223 243.802 115.714 243.54 125.507 240.481C126.321 240.199 127.135 239.887 127.926 239.473C127.717 239.01 127.509 238.547 127.301 238.083C126.592 238.338 125.799 238.532 125.013 238.696C115.423 240.409 105.394 239.914 96.0538 237.688C94.4776 237.299 92.9394 236.857 91.4446 236.331C88.4568 235.278 85.6436 234.155 82.891 232.49C82.1968 232.078 81.497 231.625 80.743 231.183Z" fill="#333333"/>
<path d="M54.2948 243.319L55.6145 242.54C66.5492 250.895 80.8812 252.131 87.6355 248.647C86.6171 252.31 85.3862 255.327 83.6694 257.019C82.2361 258.421 79.3491 259.716 75.4792 260.552C71.6906 261.371 67.265 261.684 63.0575 261.365C58.8231 261.044 54.9834 260.095 52.2572 258.529C49.5838 256.993 48.1708 255.002 48.1299 252.465V252.464L48.1314 252.131C48.2217 248.703 50.5918 245.506 54.2948 243.319Z" fill="#FFFDEA"/>
<path d="M124.591 254.33L125.508 253.248C133.001 258.336 158.754 250.786 159.947 247.227C159.677 252.754 159.551 257.564 157.074 262.101L157.073 262.102C155.161 265.608 151.464 267.904 146.868 269.019C142.283 270.132 137.046 269.997 132.508 268.854C127.897 267.693 124.408 265.601 122.857 263.172C122.116 262.011 121.805 260.766 121.992 259.397C122.184 257.995 122.925 256.296 124.591 254.33Z" fill="#FFFDEA"/>
<path d="M83.6709 257.02C82.2376 258.422 79.3506 259.717 75.4808 260.553C73.9846 260.876 72.3892 261.121 70.7471 261.279C79.8839 255.735 72.0047 249.826 72.0047 249.826C78.2622 251.023 84.0301 250.509 87.637 248.648C86.6186 252.311 85.3877 255.328 83.6709 257.02Z" fill="#F0EDD4"/>
<path d="M157.075 262.103C155.163 265.609 151.466 267.905 146.87 269.02C148.701 268.245 152.364 263.641 152.364 251.43C156.526 249.991 159.557 248.395 159.949 247.228C159.679 252.755 159.553 257.565 157.075 262.102L157.075 262.103Z" fill="#F0EDD4"/>
<path d="M134.833 273.356C139.456 273.965 144.623 273.513 149.332 272.548L147.597 269.489C145.661 269.913 144.03 269.753 143.627 268.565C143.327 267.681 143.322 266.192 143.449 264.907L143.566 263.728C143.657 262.814 140.091 264.155 141.341 270.124L134.558 269.312C131.353 268.925 133.456 264.104 133.725 262.285C133.771 261.986 132.506 262.153 132.252 262.356C130.845 263.484 130.072 266.4 130.763 268.6C129.37 268.291 128.007 267.749 126.887 266.961L124.545 269.642C127.542 271.816 131.302 272.893 134.833 273.356Z" fill="#333333"/>
<path d="M60.7147 254.263C57.3312 254.202 57.0009 258.038 57.0416 260.309C55.7116 260.369 54.4159 260.004 53.3206 259.329L52.0322 262.285C55.0844 264.018 59.1794 264.996 63.4988 265.336V261.686C61.8934 261.472 59.3328 261.671 59.1448 259.329C59.0381 257.998 60.0593 255.843 60.7147 254.263Z" fill="#333333"/>
<path d="M171.66 24.7984C163.989 27.049 156.922 30.6307 150.104 34.7661L145.471 38.2462C145.471 38.2462 116.345 25.4886 104.441 28.4512C103.41 26.0461 101.977 23.8668 100.641 21.6282C95.1463 14.9852 88.8536 6.26482 81.2293 2.41909C61.9665 -2.05915 56.6151 33.5496 55.6795 46.8168C43.4594 57.493 41.9323 64.9246 39.5441 74.8404C28.2504 83.8784 23.8812 98.7945 28.0268 112.71C33.1954 130.079 49.6202 142.632 65.4592 149.929C98.7228 165.244 170.465 170.715 183.568 128.058C188.406 112.284 185.504 97.4132 183.772 81.2722C183.186 77.7921 187.066 70.5845 188.034 67.1588C189.807 55.8648 192.898 43.0855 187.932 32.2513C186.332 28.7357 183.162 24.8593 178.945 24.0312C176.593 23.9703 173.921 24.1328 171.66 24.7984Z" fill="#FFC080" stroke="#333333" stroke-width="4.06432"/>
<path d="M131.899 158.709C132.577 158.651 133.252 158.586 133.923 158.516C175.959 152.809 188.42 44.4624 178.708 26.0596C181.911 26.7691 184.618 29.8755 186.083 33.0937L186.086 33.0987C188.374 38.0908 188.845 43.6168 188.482 49.4061C188.119 55.1953 186.95 60.9855 186.048 66.7087C185.835 67.4316 185.467 68.3906 184.994 69.5575C184.516 70.7389 183.94 72.1129 183.422 73.4705C182.902 74.832 182.407 76.2592 182.08 77.6009C181.771 78.8712 181.563 80.2625 181.755 81.5218C183.513 97.8864 186.306 112.203 181.626 127.461C175.628 146.989 156.518 156.146 133.923 158.516C133.256 158.606 132.582 158.671 131.899 158.709Z" fill="#FFA466"/>
<path d="M70.5564 7.02776C73.2775 4.55597 76.4444 3.4408 80.4022 4.27463C75.1262 7.05843 68.1779 2.29442 60.5558 47.795C51.5268 53.6983 43.6567 71.186 44.0052 75.9918C44.4407 81.999 8.62257 113.483 66.3085 148.082C50.6658 140.875 34.8939 128.661 29.9742 112.129L29.7961 111.511C26.1852 98.5346 30.3588 84.7923 40.8133 76.4259L41.3565 75.9918L41.5193 75.3155C42.7267 70.3022 43.658 66.2054 45.7433 62.0192C47.8077 57.8752 51.0585 53.551 57.016 48.3462L57.6471 47.795L57.7061 46.959C58.1685 40.4026 59.7065 28.393 63.4478 18.6452C65.323 13.7596 67.6778 9.6427 70.5564 7.02776Z" fill="#E5E1BE"/>
<path d="M29.9742 112.13L29.7961 111.513C28.0679 105.302 28.1229 98.9159 29.7961 93.0277C36.3281 87.9601 48.7316 80.101 55.466 89.4201C63.2391 100.178 74.4892 92.9006 83.5708 88.6479C94.3057 86.1077 105.036 90.0501 111.671 98.7884C122.008 112.395 132.265 112.802 146.807 107.771C154.625 105.738 162.119 109.091 166.112 116.016C171.591 125.514 168.269 149.073 155.74 153.464C143.212 157.855 140.469 157.969 131.899 158.709C108.513 160.729 82.6148 155.591 66.3085 148.083C50.6658 140.876 34.8939 128.663 29.9742 112.13Z" fill="#FFFDEA"/>
<path d="M98.1534 96.1646C98.2702 99.9394 91.6758 102.312 86.6971 103.379C83.9587 101.631 81.5912 99.4364 80.6412 96.3424C79.7623 93.4771 81.4845 90.7032 84.3956 90.2256C90.2635 89.2553 98.0315 92.0444 98.1534 96.1697V96.1646ZM88.0891 92.9335C86.7377 92.4712 85.5743 92.4915 84.4871 92.8624C84.9037 93.726 85.6861 94.3001 86.3262 94.3509C87.1492 94.422 88.1704 93.6905 88.0891 92.9284V92.9335Z" fill="#333333"/>
<path d="M88.0873 92.9359C88.1686 93.698 87.1475 94.4295 86.3245 94.3584C85.6843 94.3025 84.9019 93.7284 84.4854 92.8698C85.5726 92.499 86.736 92.4736 88.0873 92.941V92.9359Z" fill="#FEFEFE"/>
<path d="M76.7385 89.6501C70.6381 93.193 63.3889 90.9144 60.3315 84.8092C57.2741 78.7041 59.2788 71.0126 64.759 67.1043C67.9029 64.8642 71.4842 64.2152 75.1713 65.3112C78.1325 66.1909 80.8582 68.5705 82.3389 71.9932C85.0645 78.2955 82.9974 86.0206 76.7385 89.6501Z" fill="#333333"/>
<path d="M75.7496 75.6438C71.6058 76.2639 69.1397 77.6965 67.4187 81.3163C66.6255 77.759 65.4333 75.9755 61.9385 74.7593C66.4064 73.4507 67.4187 71.8603 69.6492 67.8994C70.5413 73.1326 71.9904 74.1584 75.7448 75.639L75.7496 75.6438Z" fill="#FEFEFE"/>
<path d="M78.918 82.7814C80.0235 92.2019 62.0596 92.0904 62.0596 82.04C67.553 88.5458 74.9976 87.8313 78.918 82.7814Z" fill="#498746"/>
<path d="M79.875 84.4034C78.1068 84.668 77.0544 85.2793 76.32 86.824C75.9815 85.306 75.4728 84.5449 73.9814 84.0259C75.888 83.4675 76.32 82.7889 77.2718 81.0986C77.6525 83.3318 78.2709 83.7695 79.873 84.4013L79.875 84.4034Z" fill="#FEFEFE"/>
<path d="M90.73 53.5168C91.8992 56.9852 90.2859 60.2287 87.7563 61.8814C85.0974 63.624 81.601 63.6521 78.8634 61.1394C75.6424 58.1825 76.6935 52.6736 80.145 50.4026C83.7989 47.9967 89.1448 48.823 90.7244 53.5225L90.73 53.5168Z" fill="#FEFEFE"/>
<path d="M133.635 105.153C127.188 108.897 119.527 106.489 116.296 100.037C113.065 93.5847 115.183 85.456 120.975 81.3257C124.297 78.9582 128.082 78.2724 131.979 79.4307C135.108 80.3604 137.989 82.8752 139.554 86.4924C142.434 93.1529 140.25 101.317 133.635 105.153Z" fill="#333333"/>
<path d="M132.593 90.3496C128.214 91.0049 125.608 92.5189 123.789 96.3444C122.95 92.5849 121.691 90.7001 117.997 89.4148C122.719 88.0318 123.789 86.3511 126.146 82.165C127.089 87.6956 128.62 88.7797 132.588 90.3445L132.593 90.3496Z" fill="#FEFEFE"/>
<path d="M135.939 97.8899C137.107 107.846 118.122 107.728 118.122 97.1064C123.928 103.982 131.795 103.227 135.939 97.8899Z" fill="#498746"/>
<path d="M136.952 99.6029C135.083 99.8826 133.971 100.529 133.195 102.161C132.837 100.557 132.3 99.7525 130.724 99.204C132.739 98.6139 133.195 97.8966 134.201 96.1104C134.603 98.4704 135.257 98.933 136.95 99.6008L136.952 99.6029Z" fill="#FEFEFE"/>
<path d="M125.565 75.1209C122.405 74.9431 118.997 73.7136 118.814 70.4063C118.509 65.0261 124.113 61.0787 129.34 62.5063C131.271 63.0346 133.415 65.0058 133.735 66.9973C134.512 71.8593 130.549 75.4054 125.565 75.126V75.1209Z" fill="#FEFEFE"/>
<path d="M113 115.49C112.304 116.831 110.653 117.802 109.352 118.543C107.31 125.742 103.373 132.24 97.0323 136.015C89.8588 140.288 81.085 138.54 76.98 131.239C73.5152 125.082 72.1587 118.112 72.4381 111.141C69.0763 110.069 69.0497 103.945 70.7565 103.942C72.4634 103.94 71.6964 108.032 73.9826 108.962C77.8894 110.547 82.0604 109.439 85.7691 107.057C89.2695 111.243 93.6388 114.205 98.836 115.49C108.565 117.903 108.71 115.27 111.027 113.737C112.103 113.025 113.6 114.337 113.005 115.49H113Z" fill="#A83838" stroke="#333333" stroke-width="3.04824"/>
<path d="M78.3083 130.495C78.3083 130.495 77.882 129.838 77.9546 129.602C82.8478 113.739 98.231 116.83 98.231 116.83C102.729 117.946 105.535 118.313 108.012 117.627C106.116 124.989 102.155 131.194 96.2524 134.709C89.7178 138.601 81.94 136.954 78.3083 130.495Z" fill="#E67A74"/>
<path d="M77.9541 129.602C82.8473 113.739 98.2305 116.83 98.2305 116.83C102.729 117.946 105.534 118.313 108.012 117.627C107.196 120.793 106.5 122.364 104.496 126.427C104.496 126.427 98.2305 114.536 88.9561 122.364C89.2146 121.136 88.3 120.043 87.2106 120.392C84.54 121.249 81.9573 124.25 77.9541 129.602Z" fill="#E67A74"/>
<path d="M97.7896 193.943C104.888 191.402 111.653 188.356 119.729 184.478C120.5 186.207 122.895 189.747 123.417 190.458C110.076 198.008 88.5519 201.461 79.1508 198.095H79.3721C84.3358 198.095 90.7263 196.471 97.7896 193.943Z" fill="#E5E1BE"/>
<path d="M165.563 159.439L161.461 152.607C127.874 169.007 69.5642 159.469 43.5243 135.946C32.8765 152.607 61.45 191.248 79.3715 196.569C98.1335 196.569 140.826 171.798 165.563 159.439Z" fill="#A83838"/>
<path d="M161.461 152.607L162.768 151.822L162.048 150.624L160.792 151.237L161.461 152.607ZM165.563 159.439L166.244 160.802C166.624 160.612 166.908 160.273 167.026 159.865C167.145 159.457 167.088 159.018 166.87 158.654L165.563 159.439ZM43.5243 135.946L44.546 134.815L43.2098 133.608L42.2401 135.126L43.5243 135.946ZM79.3715 196.569L78.9378 198.03L79.1501 198.093H79.3715V196.569ZM161.461 152.607L160.154 153.392L164.256 160.223L165.563 159.439L166.87 158.654L162.768 151.822L161.461 152.607ZM43.5243 135.946L42.2401 135.126C39.2592 139.79 39.1242 145.818 40.6317 152.057C42.1459 158.324 45.3691 165.043 49.4559 171.34C53.5479 177.645 58.5485 183.594 63.6804 188.316C68.7856 193.014 74.1347 196.604 78.9378 198.03L79.3715 196.569L79.8053 195.107C75.6476 193.873 70.7044 190.637 65.7445 186.073C60.811 181.533 55.9735 175.783 52.0129 169.68C48.0471 163.569 45.0034 157.171 43.5947 151.341C42.1793 145.483 42.4655 140.433 44.8086 136.767L43.5243 135.946ZM43.5243 135.946L42.5026 137.077C55.8218 149.109 77.2316 157.454 99.4384 160.755C121.648 164.057 144.963 162.359 162.13 153.977L161.461 152.607L160.792 151.237C144.371 159.255 121.739 160.988 99.8866 157.74C78.0317 154.491 57.2667 146.306 44.546 134.815L43.5243 135.946ZM165.563 159.439L164.882 158.075C152.396 164.313 135.701 173.515 119.567 181.264C111.532 185.123 103.718 188.58 96.7618 191.07C89.7705 193.572 83.7888 195.044 79.3715 195.044V196.569V198.093C84.3353 198.093 90.7258 196.468 97.7891 193.94C104.888 191.399 112.81 187.891 120.886 184.012C136.973 176.286 153.993 166.923 166.244 160.802L165.563 159.439Z" fill="#333333"/>
<path d="M144.405 159.138C144.216 158.666 144.027 158.195 143.837 157.724C142.717 157.991 141.554 158.291 140.412 158.598C135.864 159.818 131.397 161.26 127.015 162.928C111.681 168.63 96.4362 175.014 80.8362 179.407C79.6841 179.683 78.5863 179.921 77.5017 180.027C77.522 180.535 77.5424 181.042 77.5628 181.55C78.8073 181.549 79.9688 181.406 81.1925 181.223C97.5498 178.166 113.047 172.454 128.46 166.726C132.86 165.052 137.15 163.098 141.311 160.865C142.356 160.305 143.409 159.721 144.405 159.138Z" fill="#7A2020"/>
<path d="M44.3719 138.258C43.9241 138.498 43.4763 138.738 43.0285 138.978C43.2292 139.711 43.4628 140.454 43.722 141.194C44.7307 144.105 46.0754 146.874 47.7037 149.444C53.5275 158.297 59.8556 167.368 69.4793 172.929C70.1898 173.293 70.9241 173.614 71.6708 173.864C71.8662 173.395 72.0616 172.926 72.257 172.457C71.636 172.138 71.0241 171.758 70.4303 171.341C62.3979 165.092 56.8176 155.928 51.1365 147.268C49.5458 144.757 47.7784 142.338 45.85 140.004C45.3609 139.407 44.8662 138.822 44.3719 138.258Z" fill="#7A2020"/>
<path d="M70.228 39.8175C70.1915 31.933 72.3277 16.3346 80.1496 12.1407C81.2266 11.5615 88.2323 15.1578 90.0286 31.365C86.3516 32.2913 76.672 36.1066 70.228 39.8175Z" fill="#FEECE8"/>
<path d="M88.5138 31.5329C89.5237 31.4209 90.5336 31.309 91.5435 31.1971C91.3836 29.9031 91.1917 28.6655 90.9442 27.3841C90.3145 24.1621 89.3951 20.9598 87.8838 17.9449C87.1226 16.4412 86.2206 14.9963 85.0552 13.6852C84.4743 13.0363 83.8251 12.4169 83.0672 11.8832C82.6836 11.6156 82.2827 11.3721 81.8054 11.1659C81.554 11.0594 81.3071 10.9701 80.9904 10.904C80.6721 10.8704 80.3479 10.7039 79.5654 11.0544C70.0337 18.0157 69.7698 29.8227 69.3824 39.8215C69.3777 40.5511 70.0137 40.9073 70.65 40.5503C75.711 37.601 81.1497 35.1627 86.6648 33.0782C87.8213 32.6526 89.0089 32.2333 90.1682 31.9192C90.0752 31.5497 89.9821 31.1802 89.889 30.8107C88.6464 31.114 87.4387 31.5086 86.2501 31.9113C80.6009 33.8861 75.0894 36.1853 69.806 39.0848L71.0736 39.8136C71.5022 30.2129 72.9279 18.3457 80.7324 13.2278C80.5164 13.3361 80.4494 13.3139 80.4308 13.3202C80.4141 13.3209 80.44 13.3228 80.4764 13.3322C80.5538 13.351 80.6705 13.3919 80.8002 13.452C81.0529 13.5687 81.3254 13.7381 81.5932 13.9366C82.1285 14.3337 82.6412 14.84 83.1047 15.3867C84.0401 16.4931 84.8055 17.7761 85.4496 19.136C86.734 21.8655 87.5247 24.863 88.0384 27.9101C88.2412 29.1224 88.3925 30.2989 88.5138 31.5329ZM91.5435 31.1971L88.5138 31.5329L89.889 30.8107L90.1682 31.9192C90.7315 31.7849 91.5999 31.7734 91.5435 31.1971Z" fill="#FEECE8"/>
<path d="M87.1857 16.7005C88.7923 19.6838 90.3132 22.1248 91.6947 30.8746C88.9584 31.564 81.2384 34.3453 75.661 37.0008C74.9824 29.2299 81.8261 8.84473 87.1857 16.7005Z" fill="#FEC4C0"/>
<path d="M70.4072 40.7001C70.8683 40.4484 71.3426 40.2033 71.8153 39.9696C76.0869 37.9005 80.4836 36.2467 84.8529 34.5198C86.9624 33.7052 89.0842 32.8558 91.1755 32.1698L91.7607 32.0566L91.799 31.3698C91.6571 28.8493 91.1778 26.3659 90.3586 24.011C90.1819 23.5083 89.9868 23.0087 89.7712 22.5244C89.857 23.0474 89.9259 23.5741 89.9821 24.0966C90.2381 26.5392 90.281 28.9754 90.1491 31.3698L90.7725 30.5699C88.4479 31.0552 86.2772 31.7929 84.1148 32.6264C79.6675 34.3817 75.3473 36.6105 71.6053 39.6456C71.194 39.9848 70.7886 40.3388 70.4072 40.7001Z" fill="#333333"/>
<path d="M171.797 64.351L169.962 59.8908C167.981 54.6193 161.233 49.1217 156.905 45.3651C156.545 44.4965 158.293 43.8155 158.513 43.0038C157.868 43.019 165.029 36.8076 165.089 36.5333L171.375 32.9171C173.012 32.4373 175.602 31.5164 177.223 32.1057C178.625 32.6138 179.281 34.8949 179.509 36.3936C179.778 46.295 176.322 57.4022 172.234 65.2046L171.792 64.3561L171.797 64.351Z" fill="#FEECE8"/>
<path d="M165.559 37.1846C162.456 39.3299 159.655 42.086 157.101 45.1406L156.904 45.376L157.171 45.5254C160.187 47.2189 163.109 49.4249 165.434 51.7471C167.763 54.0741 169.471 56.4966 170.093 58.6201C170.59 60.3205 170.92 61.5751 171.139 62.4717C167.154 54.9837 161.697 50.6236 156.005 45.4834C157.483 42.7958 160.084 39.9531 163.032 37.6357C165.614 35.6062 168.438 33.9976 170.972 33.2412L165.559 37.1846Z" fill="#333333" stroke="#333333" stroke-width="0.50804"/>
<path d="M170.335 58.5432C167.363 53.0513 163.365 48.7075 157.294 45.2986C159.839 42.2503 162.623 39.5171 165.702 37.3884C177.967 30.1449 173.792 53.8884 170.34 58.5381L170.335 58.5432Z" fill="#FEC4C0"/>
<path d="M113.64 155.125L111.679 158.737L110.785 161.603C110.459 167.684 111.471 170.794 115.063 175.899L117.273 177.352C119.737 183.85 123.014 189.128 128.252 192.847C135.639 198.09 148.812 199.269 153.613 190.932C158.531 185.383 153.582 172.942 150.494 167.415L147.466 164.113L146.267 162.212L144.179 157.782L144.171 157.769C142.31 154.673 140.564 151.767 137.483 149.699C128.363 143.578 117.319 148.343 113.64 155.125Z" fill="#FFC080"/>
<path d="M153.01 172.485C153.411 172.173 153.812 171.862 154.213 171.55C153.038 169.762 151.849 167.985 150.647 166.218C149.967 165.22 149.284 164.225 148.596 163.233L148.736 163.452C146.347 158.243 144.261 152.018 138.601 148.031C137.306 147.142 135.884 146.407 134.384 145.878C126.099 142.95 116.327 146.44 111.918 154.192C108.482 161.182 106.549 171.095 114.068 177.334L114.289 177.464C115.746 178.143 117.224 179.247 118.041 180.269L117.856 179.916C119.689 184.855 122.333 190.964 127.44 193.989C133.918 198.188 142.391 199.737 149.478 196.111C151.485 195.008 153.194 193.322 154.272 191.312C153.832 191.059 153.392 190.805 152.951 190.552C151.911 192.259 150.391 193.605 148.615 194.473C142.399 197.349 134.512 195.596 129.061 191.705C124.598 188.737 122.823 183.996 120.98 178.731L120.796 178.378C119.334 176.442 117.705 175.314 115.834 174.334L116.056 174.464C111.25 170.717 112.209 161.801 115.36 156.06C118.628 150.322 126.73 147.365 133.03 149.71C134.195 150.121 135.312 150.681 136.361 151.368C140.69 154.177 143.187 159.619 146.193 164.773L146.333 164.992C147.125 165.903 147.921 166.811 148.722 167.715C150.138 169.316 151.567 170.906 153.01 172.485Z" fill="#333333"/>
<path d="M131.44 155.305C131.44 155.305 127.84 152.096 125.725 152.096C121.89 152.096 123.497 157.317 124.829 159.046C122.055 155.444 114.753 158.438 118.398 164.24C114.342 165.369 114.956 170.851 115.993 174.434C112.245 172.338 111.799 165.242 113.801 159.605C113.908 155.195 117.577 152.704 121.011 150.718C126.284 147.675 133.427 148.651 136.571 151.571C132.379 150.204 130.937 152.291 131.44 155.305Z" fill="#FFFDEA"/>
</svg>
