<svg preserveAspectRatio="none" width="100%" height="100%" overflow="visible" style="display: block;" viewBox="0 0 124.85 24.5389" fill="none" xmlns="http://www.w3.org/2000/svg">
<g id="wordkmark">
<path id="Vector" d="M3.61154 24.4286C2.74231 24.4286 2.04731 24.2111 1.52615 23.7768C1.005 23.3428 0.656731 22.5918 0.483654 21.5239C0.31 19.9851 0.185961 18.3837 0.111345 16.7201C0.0369221 15.057 0 13.5545 0 12.2141C0 10.8737 0.0305773 9.35336 0.092885 7.72663C0.154616 6.10119 0.285192 4.4929 0.483654 2.90436C0.632692 2.15973 0.905577 1.58248 1.30269 1.17261C1.69923 0.762747 2.34519 0.478267 3.23923 0.315979C4.13269 0.154959 5.34885 0.0741319 6.88827 0.0741319C8.94827 0.0741319 10.6862 0.366267 12.1015 0.949228C13.5162 1.53284 14.5835 2.38948 15.3038 3.51852C16.0237 4.64884 16.3839 6.05727 16.3839 7.74509C16.3839 9.43292 16.03 10.8299 15.3223 12.0091C14.6146 13.1886 13.6027 14.0891 12.2873 14.7089C10.9713 15.3295 9.42039 15.6401 7.63289 15.6401H6.55289C6.255 15.6401 6.05596 15.733 5.95731 15.9195C5.85788 16.1053 5.80827 16.3478 5.80827 16.6457C5.80827 17.2172 5.81404 17.7384 5.82673 18.2093C5.83885 18.6816 5.85789 19.2028 5.88289 19.7737C5.90692 20.3453 5.91962 21.0524 5.91962 21.8962C5.91962 22.343 5.85731 22.7657 5.73327 23.1622C5.60846 23.5599 5.37942 23.8699 5.04461 24.0932C4.70923 24.3166 4.23135 24.4286 3.61096 24.4286H3.61154ZM6.32962 11.3576C8.01731 11.3576 9.24616 11.0782 10.0162 10.5199C10.7856 9.96117 11.1706 9.09879 11.1706 7.93157C11.1706 6.76434 10.7983 5.95798 10.0537 5.51121C9.30904 5.06442 8.09231 4.84104 6.40461 4.84104C6.15634 4.84104 5.95789 4.87223 5.80904 4.93396C5.66 4.99632 5.54173 5.13888 5.45519 5.36229C5.36789 5.58567 5.31192 5.96434 5.28769 6.49832C5.26289 7.03229 5.25019 7.75846 5.25019 8.67684C5.25019 9.49594 5.27442 10.098 5.32462 10.483C5.37423 10.8682 5.47365 11.1099 5.6225 11.2091C5.77135 11.3086 6.00692 11.3582 6.33019 11.3582L6.32962 11.3576Z" fill="var(--fill-0, #39763D)"/>
<path id="Vector_2" d="M28.0379 24.5026C25.7787 24.5026 23.9356 24.0501 22.5083 23.1432C21.0802 22.2376 20.0379 20.9405 19.3804 19.252C18.7225 17.5643 18.3935 15.5653 18.3935 13.2568C18.3935 11.5193 18.4119 9.8869 18.4494 8.3601C18.4864 6.83329 18.5735 5.49296 18.7104 4.33846C18.8466 3.18396 19.0642 2.30887 19.3619 1.71317C19.5854 1.19192 19.8833 0.80052 20.2554 0.540213C20.6277 0.27927 21.1121 0.149443 21.7077 0.149443C22.5764 0.149443 23.2402 0.385558 23.6996 0.857154C24.1585 1.32877 24.3881 2.09885 24.3881 3.16615C24.3881 4.05971 24.3754 5.022 24.3512 6.05238C24.3264 7.08277 24.301 8.24364 24.2767 9.53433C24.2519 10.8257 24.2398 12.3149 24.2398 14.0028C24.2398 15.6905 24.5752 16.9578 25.2454 17.8011C25.9154 18.6455 26.8587 19.0668 28.0754 19.0668C29.2921 19.0668 30.1914 18.6449 30.8494 17.8011C31.5067 16.957 31.8364 15.6913 31.8364 14.0028C31.8364 12.3143 31.83 10.8251 31.8179 9.53433C31.8052 8.24364 31.7867 7.08277 31.7619 6.05238C31.7371 5.02263 31.7244 4.06035 31.7244 3.16615C31.7244 2.09885 31.9477 1.3294 32.3944 0.857154C32.8412 0.385558 33.4987 0.149443 34.3679 0.149443C34.8891 0.149443 35.3416 0.267828 35.7273 0.503308C36.1116 0.739424 36.4031 1.09327 36.6023 1.56489C36.9498 2.23504 37.1852 3.14769 37.31 4.30219C37.434 5.45669 37.5148 6.79129 37.5517 8.30537C37.5887 9.8201 37.6077 11.4711 37.6077 13.2582C37.6077 15.567 37.2723 17.5655 36.6023 19.2534C35.9321 20.9418 34.9019 22.2389 33.5119 23.1445C32.1215 24.0509 30.2969 24.5039 28.0385 24.5039L28.0379 24.5026Z" fill="var(--fill-0, #39763D)"/>
<path id="Vector_3" d="M44.1988 24.4286C43.3798 24.4286 42.6963 24.2174 42.151 23.7953C41.605 23.3734 41.2575 22.6287 41.1087 21.5609C40.9094 20.022 40.7796 18.4143 40.7179 16.7386C40.6556 15.0628 40.625 13.5545 40.625 12.2141C40.625 10.8737 40.6492 9.36546 40.6994 7.76419C40.749 6.16292 40.8979 4.56802 41.1462 2.97882C41.2448 2.20938 41.5121 1.6194 41.9467 1.21017C42.3808 0.800305 43.051 0.508825 43.9577 0.335075C44.8633 0.161959 46.0985 0.0741319 47.6627 0.0741319C49.8971 0.0741319 51.684 0.347805 53.025 0.893228C54.3652 1.43992 55.3337 2.22782 55.9294 3.25759C56.525 4.28798 56.8229 5.5233 56.8229 6.96292C56.8229 8.22879 56.5492 9.30309 56.0038 10.1839C55.4571 11.0655 54.7871 11.7795 53.9929 12.3249C53.8937 12.4241 53.8127 12.5241 53.751 12.6228C53.6887 12.722 53.6581 12.8341 53.6581 12.9582C53.6581 13.1574 53.6887 13.3247 53.751 13.4609C53.8127 13.5978 53.8815 13.7282 53.956 13.8516C54.2779 14.2986 54.6637 14.8516 55.1104 15.5089C55.5571 16.167 56.0038 16.8626 56.4506 17.5945C56.8973 18.3272 57.2944 19.0349 57.6425 19.717C57.99 20.3999 58.2014 20.9899 58.2758 21.4857C58.4246 22.3551 58.2573 23.0749 57.7729 23.6459C57.2887 24.2166 56.6002 24.5024 55.7065 24.5024C54.9365 24.5024 54.2919 24.2728 53.7702 23.8137C53.2483 23.3549 52.8264 22.7899 52.5044 22.1197C51.6108 20.5062 50.8969 19.2028 50.3635 18.2093C49.8296 17.2164 49.4013 16.4216 49.0787 15.8259C48.756 15.2303 48.4952 14.8451 48.2965 14.6714C48.0973 14.4984 47.7875 14.4105 47.3656 14.4105C46.9437 14.4105 46.6769 14.5097 46.565 14.7084C46.4529 14.9076 46.3977 15.1678 46.3977 15.4905C46.3977 16.1855 46.4096 16.8187 46.4344 17.3897C46.4587 17.9612 46.4842 18.588 46.509 19.2703C46.5331 19.9532 46.546 20.8284 46.546 21.8957C46.546 22.5659 46.3531 23.1557 45.9687 23.6643C45.5837 24.1734 44.9944 24.4274 44.2002 24.4274L44.1988 24.4286ZM47.5877 10.5384C48.6548 10.5384 49.4738 10.3895 50.0454 10.0916C50.6162 9.79379 51.019 9.39665 51.2558 8.90023C51.4912 8.4038 51.6096 7.87048 51.6096 7.29896C51.6096 6.20682 51.3054 5.44948 50.6971 5.02752C50.0887 4.60555 49.0646 4.39427 47.6252 4.39427C47.1785 4.39427 46.8431 4.44454 46.6196 4.54319C46.3963 4.64248 46.2475 4.89132 46.1729 5.28782C46.0985 5.68496 46.0615 6.31821 46.0615 7.18694C46.0615 8.20525 46.0921 8.94986 46.1544 9.42146C46.2162 9.89371 46.3594 10.1979 46.5829 10.3341C46.8062 10.4709 47.1415 10.5391 47.5883 10.5391L47.5877 10.5384Z" fill="var(--fill-0, #39763D)"/>
<path id="Vector_4" d="M63.3388 24.4286C62.2709 24.4286 61.5015 24.0064 61.03 23.162C60.8561 22.7897 60.7136 22.1691 60.6017 21.2997C60.4903 20.4311 60.4088 19.2461 60.3598 17.7434C60.3096 16.2414 60.2854 14.3863 60.2854 12.1759C60.2854 9.96548 60.3102 8.074 60.3598 6.64585C60.4094 5.21831 60.4903 4.08927 60.6017 3.25681C60.713 2.42564 60.8556 1.82293 61.03 1.45062C61.5015 0.581887 62.2709 0.147194 63.3388 0.147194C64.4065 0.147194 65.1632 0.581887 65.61 1.45062C65.8086 1.82293 65.9575 2.41864 66.0567 3.23837C66.1559 4.05746 66.2298 5.18777 66.2802 6.62739C66.3298 8.06764 66.3546 9.91712 66.3546 12.1759C66.3546 14.4345 66.3298 16.3718 66.2802 17.8363C66.2298 19.3014 66.1554 20.4495 66.0567 21.2807C65.9575 22.1126 65.7965 22.7393 65.5725 23.1614C65.1748 24.0059 64.4302 24.4278 63.338 24.4278L63.3388 24.4286Z" fill="var(--fill-0, #39763D)"/>
<path id="Vector_5" d="M72.3846 24.4282C71.7891 24.4282 71.2864 24.2482 70.8766 23.888C70.4667 23.5284 70.1879 22.9759 70.0391 22.2307C69.7908 21.2378 69.6229 19.9032 69.5362 18.2274C69.4491 16.5516 69.4058 14.5349 69.4058 12.1762C69.4058 9.99196 69.4554 8.08011 69.5546 6.44128C69.6533 4.80246 69.8156 3.48696 70.0391 2.49411C70.361 1.60055 70.8581 0.967304 71.5281 0.594997C72.1983 0.22267 73.1044 0.0361892 74.2462 0.0361892C74.8666 0.0361892 75.4502 0.123382 75.9962 0.297132C76.5421 0.470882 77.0577 0.85592 77.5414 1.45163C78.0256 2.04734 78.5092 2.97271 78.9935 4.22586C79.4779 5.47963 79.9927 7.18655 80.5387 9.34598C81.0102 11.1089 81.3767 12.4926 81.6371 13.4982C81.8981 14.5037 82.1029 15.2547 82.2519 15.7511C82.4008 16.2482 82.5248 16.558 82.6241 16.6822C82.7235 16.8068 82.8227 16.868 82.9219 16.868C83.046 16.868 83.1269 16.7999 83.1639 16.6632C83.2008 16.5268 83.2198 16.322 83.2198 16.0489C83.2198 15.1553 83.2135 14.2612 83.2014 13.3676C83.1887 12.4741 83.1702 11.543 83.1454 10.5749C83.1206 9.60692 83.1021 8.54534 83.0893 7.39084C83.0766 6.23636 83.0708 4.95138 83.0708 3.53659C83.0708 2.32036 83.2942 1.451 83.741 0.929747C84.1877 0.408517 84.7466 0.147574 85.4166 0.147574C85.8881 0.147574 86.3221 0.272324 86.7198 0.519882C87.1164 0.768093 87.4142 1.25242 87.6133 1.97223C87.7623 2.86579 87.8864 4.12594 87.9856 5.75204C88.085 7.37811 88.1346 9.51973 88.1346 12.1757C88.1346 14.5341 88.0843 16.5886 87.9856 18.3387C87.8864 20.0889 87.7119 21.3987 87.4644 22.2676C87.1908 23.0866 86.7383 23.6703 86.1052 24.0178C85.4719 24.3653 84.6218 24.5389 83.5544 24.5389C83.0079 24.5389 82.5121 24.4645 82.0648 24.3157C81.6181 24.1666 81.1898 23.8687 80.7798 23.422C80.37 22.9753 79.9608 22.3484 79.551 21.5414C79.1412 20.7351 78.7256 19.6791 78.3037 18.3757C77.8812 17.0724 77.4102 15.4653 76.8891 13.5534C76.4919 12.0641 76.1814 10.8907 75.9581 10.0346C75.7346 9.17796 75.561 8.54534 75.4367 8.13548C75.3121 7.72561 75.2135 7.4653 75.1391 7.3533C75.0644 7.24128 74.99 7.18592 74.9156 7.18592C74.8164 7.18592 74.7356 7.23619 74.6739 7.33484C74.6114 7.43413 74.5808 7.67025 74.5808 8.04255C74.5808 9.13532 74.5929 10.4068 74.6177 11.8593C74.6425 13.3116 74.661 14.8199 74.6739 16.3837C74.686 17.9474 74.6923 19.4622 74.6923 20.9272C74.6923 22.1689 74.4873 23.0624 74.0775 23.6086C73.6677 24.1553 73.1033 24.4276 72.3835 24.4276L72.3846 24.4282Z" fill="var(--fill-0, #39763D)"/>
<path id="Vector_6" d="M97.9657 24.4282C97.3702 24.4282 96.849 24.3161 96.4015 24.0928C95.9548 23.8693 95.6009 23.4913 95.3401 22.9566C95.0792 22.4234 94.9494 21.6972 94.9494 20.7782V18.7301C94.9494 17.8863 94.9552 16.9614 94.9678 15.9559C94.98 14.9503 94.9921 13.9326 95.0048 12.9022C95.0169 11.8726 95.0288 10.8976 95.0417 9.97914C95.0538 9.06075 95.0602 8.26012 95.0602 7.57723V6.14333C95.0602 5.77102 95.004 5.51645 94.8927 5.38025C94.7807 5.24406 94.563 5.17531 94.2411 5.17531H91.9698C91.4486 5.17531 90.9765 5.01429 90.5552 4.69098C90.1327 4.36894 89.9219 3.74779 89.9219 2.82877C89.9219 2.30754 90.0148 1.86712 90.2013 1.50691C90.3878 1.14731 90.76 0.86156 91.3182 0.650252C91.8769 0.439599 92.6896 0.290676 93.7575 0.203484C94.8246 0.116926 96.2025 0.073003 97.8907 0.073003C99.579 0.073003 101.024 0.116292 102.08 0.203484C103.135 0.290676 103.948 0.439599 104.519 0.650252C105.09 0.86156 105.469 1.14731 105.655 1.50691C105.842 1.86712 105.935 2.30754 105.935 2.82877C105.935 3.74779 105.73 4.36831 105.32 4.69098C104.91 5.01366 104.432 5.17531 103.886 5.17531H101.615C101.317 5.17531 101.094 5.24406 100.945 5.38025C100.796 5.51708 100.721 5.77102 100.721 6.14333C100.721 6.417 100.727 6.89433 100.74 7.57723C100.752 8.26012 100.758 9.06075 100.758 9.97914C100.758 10.8976 100.77 11.8726 100.795 12.9022C100.819 13.9326 100.832 14.9503 100.832 15.9559C100.832 16.9614 100.838 17.8863 100.851 18.7301C100.863 19.5747 100.869 20.257 100.869 20.7782C100.869 21.6972 100.744 22.4234 100.497 22.9566C100.248 23.4907 99.9132 23.8693 99.4913 24.0928C99.0686 24.3161 98.5602 24.4282 97.9646 24.4282H97.9657Z" fill="var(--fill-0, #39763D)"/>
<path id="Vector_7" d="M108.726 24.5028C108.056 24.5028 107.516 24.3724 107.107 24.112C106.697 23.8511 106.399 23.4787 106.213 22.9951C106.028 22.5107 105.934 21.9093 105.934 21.1889C105.934 20.3697 106.027 19.3266 106.213 18.0609C106.4 16.7943 106.66 15.4164 106.996 13.9272C107.331 12.4378 107.709 10.9607 108.131 9.49563C108.702 7.65886 109.242 6.13206 109.751 4.91519C110.26 3.69896 110.794 2.72458 111.352 1.99204C111.911 1.26015 112.519 0.744634 113.177 0.446788C113.834 0.148923 114.573 0 115.393 0C116.261 0 117.018 0.161654 117.664 0.484327C118.309 0.807 118.911 1.33525 119.47 2.06715C120.029 2.79969 120.544 3.77471 121.015 4.99029C121.487 6.20715 121.983 7.69642 122.504 9.45935C122.976 10.9486 123.385 12.4512 123.733 13.9653C124.081 15.4801 124.354 16.8764 124.552 18.1549C124.751 19.4341 124.85 20.4703 124.85 21.2645C124.85 21.9347 124.757 22.5184 124.571 23.0147C124.385 23.5118 124.099 23.8841 123.714 24.1318C123.329 24.3793 122.789 24.5041 122.094 24.5041C121.548 24.5041 121.095 24.4047 120.735 24.2062C120.375 24.0076 120.089 23.7097 119.879 23.3126C119.667 22.9155 119.488 22.4439 119.338 21.8978C119.189 20.9547 119.046 20.2164 118.91 19.6824C118.773 19.1491 118.662 18.7207 118.575 18.3974C118.487 18.0747 118.382 17.8387 118.258 17.6897C118.159 17.5409 118.041 17.423 117.905 17.3359C117.768 17.2493 117.514 17.187 117.141 17.1493C116.769 17.1124 116.174 17.0934 115.354 17.0934C114.584 17.0934 113.995 17.1118 113.585 17.1493C113.176 17.1863 112.909 17.2488 112.785 17.3359C112.66 17.423 112.549 17.5657 112.449 17.7641C112.325 17.9876 112.213 18.2422 112.114 18.5272C112.015 18.813 111.915 19.2101 111.816 19.7187C111.717 20.2278 111.58 20.9539 111.406 21.8972C111.282 22.4687 111.109 22.9461 110.885 23.3311C110.662 23.7161 110.388 24.0076 110.066 24.2062C109.744 24.4047 109.297 24.5041 108.726 24.5041L108.726 24.5028ZM115.467 12.8095H116.341C116.602 12.8095 116.844 12.7974 117.068 12.7726C117.366 12.7484 117.57 12.6861 117.682 12.5862C117.794 12.4876 117.849 12.3132 117.849 12.0649C117.849 11.6678 117.768 11.1899 117.607 10.6311C117.446 10.0722 117.266 9.45808 117.068 8.7879C116.77 7.79508 116.521 7.05044 116.323 6.55338C116.124 6.05696 115.956 5.72856 115.82 5.5669C115.684 5.40588 115.516 5.32506 115.318 5.32506C115.169 5.32506 115.02 5.41225 114.871 5.586C114.722 5.75975 114.56 6.08306 114.386 6.55402C114.213 7.02625 113.977 7.75879 113.679 8.751C113.505 9.34669 113.337 9.9494 113.176 10.5572C113.015 11.1657 112.934 11.6684 112.934 12.0655C112.934 12.3137 112.984 12.4882 113.083 12.5868C113.182 12.6861 113.393 12.7484 113.716 12.7734C114.038 12.7982 114.337 12.8101 114.61 12.8101H115.467V12.8095Z" fill="var(--fill-0, #39763D)"/>
</g>
</svg>
