<svg preserveAspectRatio="none" width="100%" height="100%" overflow="visible" style="display: block;" viewBox="0 0 18.0001 17.9998" fill="none" xmlns="http://www.w3.org/2000/svg">
<path id="star 25%" opacity="0.5" d="M9.29102 0.51452C9.57649 0.566909 9.84948 0.753654 9.95312 1.07995H9.95508L11.6104 6.1239L16.9834 8.37097L16.9902 8.3739C17.3426 8.5271 17.5191 8.84793 17.499 9.16979C17.48 9.47458 17.2836 9.78197 16.9141 9.90515L16.9082 9.9071L11.7002 11.5673L9.31836 16.9921L9.31641 16.996C9.15477 17.355 8.80261 17.5124 8.46484 17.4989H8.46387C8.11434 17.4842 7.77625 17.27 7.66504 16.8993V16.8983L5.95605 11.1561L1.09082 9.57214V9.57311C0.701967 9.44855 0.5 9.11794 0.5 8.79089C0.500032 8.44955 0.71375 8.14429 1.07422 8.01452L1.08984 8.00964L5.9375 6.43835L8.30957 1.02136L8.31152 1.0155L8.34668 0.933466C8.36356 0.900371 8.3867 0.862785 8.41602 0.825067L8.49316 0.73913C8.6595 0.577899 8.87521 0.507509 9.08691 0.505731C9.11306 0.502861 9.13988 0.499531 9.16699 0.500849L9.29102 0.51452ZM9.59668 1.20007C9.59575 1.20224 9.59568 1.20475 9.59473 1.2069C9.59575 1.20464 9.59667 1.20235 9.59766 1.20007H9.59668Z" fill="var(--fill-0, #FEFEFE)" stroke="var(--stroke-0, #C8E4B0)" stroke-linejoin="round"/>
</svg>
