<svg overflow="visible" width="160" height="128" viewBox="-15 -15 160 128" fill="none" xmlns="http://www.w3.org/2000/svg">
<path d="M54.7007 77.1377L41.4072 76.9106C40.0139 76.8869 38.7427 76.7183 37.4172 76.3915C34.2712 75.6155 31.7412 73.4971 30.4547 70.5226C29.7636 68.9244 29.4751 67.2665 29.3714 65.5182C29.2513 63.4933 29.1907 61.597 29.2492 59.5537L29.6784 44.6646L30.1384 34.8952L30.773 26.8144L31.7258 18.34C31.9507 16.3461 32.3532 14.5052 33.038 12.6294C34.7384 7.96519 38.8701 4.67615 43.8345 4.12935C53.4306 3.07275 78.1254 2.92371 87.8335 3.60722L93.8945 4.03376C97.7756 4.30716 101.338 6.22714 103.622 9.39489C104.892 11.1566 105.646 13.129 106.104 15.2463C107.344 20.9836 108.52 37.5223 108.704 43.7735L109.207 60.8837C109.253 62.4491 109.168 63.8808 109.093 65.4185C109.033 66.6323 108.86 67.7629 108.557 68.9326C107.62 72.5464 104.903 75.3503 101.295 76.3453C99.8548 76.743 98.4677 76.9136 96.9245 76.9301L73.3345 77.185L54.7028 77.1377H54.7007Z" fill="#FFFDEA" stroke="#185229" stroke-width="2" stroke-linejoin="round"/>
<path d="M41.4097 76.9094L54.7032 77.1365H54.7053L73.337 77.1838L96.9269 76.9289C98.4702 76.9125 99.8573 76.7418 101.298 76.3441C104.906 75.3491 107.623 72.5452 108.559 68.9314C108.862 67.7618 109.036 66.6311 109.095 65.4173C109.203 63.1989 109.209 60.989 109.209 58.7693L106.939 58.7539L92.8541 58.7693C78.6291 74.3969 46.6772 73.84 30.4572 70.5215C31.7437 73.496 34.2736 75.6143 37.4197 76.3903C38.7452 76.7172 40.0163 76.8857 41.4097 76.9094Z" fill="#E5E1BE"/>
<path d="M44.3344 65.2106C42.669 65.301 41.0826 64.9804 40.0538 63.5517C39.3104 62.52 38.9447 60.9375 38.8146 59.5977H99.6904C99.5241 60.9338 99.0703 62.5496 98.3187 63.5579C97.2467 64.9958 95.6953 65.3165 94.0196 65.2178L44.3344 65.2106Z" fill="#D6D2B2"/>
<path d="M38.8146 59.5625C38.8146 59.5625 38.8167 59.5844 38.8178 59.5954C38.9479 60.9353 39.3136 62.5177 40.057 63.5494C41.0858 64.9781 42.6721 65.2988 44.3376 65.2083L94.0228 65.2155C95.6985 65.3142 97.2499 64.9935 98.3218 63.5556C99.0734 62.5473 99.5273 60.9316 99.6936 59.5954" stroke="#CAC5A0" stroke-width="2" stroke-linejoin="round"/>
<path d="M96.3022 62.9073C97.1801 61.711 97.6822 60.2884 97.6165 58.757L40.4851 58.7539C40.4656 60.235 40.8917 61.6205 41.7039 62.8436C41.8477 63.004 42.0756 63.1489 42.2666 63.1448C42.437 63.1407 42.6567 62.7974 42.6711 62.6165L42.7461 61.6503H94.7241C94.9695 61.6503 95.2354 61.7079 95.3412 61.8045C95.2672 62.2208 95.3966 63.1622 95.7899 63.1396C95.9223 63.1324 96.1359 63.0132 96.3022 62.9073Z" fill="#185229"/>
<path d="M40.4844 58.7662H31.5074H29.2465C29.2465 61.0206 29.235 63.2643 29.3686 65.517C29.4724 67.2653 29.7609 68.9232 30.4519 70.5215C31.7384 73.496 34.2684 75.6143 37.4144 76.3903C38.7399 76.7172 40.0111 76.8857 41.4044 76.9094L54.6979 77.1365H54.7L73.3317 77.1838L96.9217 76.9289C98.4649 76.9125 99.852 76.7418 101.293 76.3441C104.901 75.3491 107.617 72.5452 108.554 68.9314C108.857 67.7618 109.03 66.6311 109.09 65.4173C109.198 63.1989 109.204 60.989 109.204 58.7693L106.934 58.7539L97.6157 58.7693H40.4844" stroke="#185229" stroke-width="2" stroke-linejoin="round"/>
<path d="M107.843 43.7142C107.659 37.4768 106.483 20.9746 105.242 15.25C107.843 43.7142 105.691 58.7632 85.9962 58.7632H108.225L107.843 43.7142Z" fill="#E5E1BE"/>
<path d="M106.096 15.25C107.337 20.9746 108.659 37.4739 108.843 43.7113L109.225 58.7603H86.9962" stroke="#185229" stroke-width="1.81121" stroke-linejoin="round"/>
<path d="M29.6503 44.576L30.1105 58.1829C30.1105 58.1829 36.3408 17.1016 36.9527 14.7393C37.5646 12.3771 39.9895 9.06771 43.8123 7.98801C57.9968 3.98221 83.8608 4.45745 86.6055 4.45745C71.2993 2.09202 53.4126 3.07603 43.8123 4.1303C38.8458 4.67589 34.7124 7.95765 33.0113 12.6116C32.3262 14.4832 31.9235 16.32 31.6986 18.3096L30.7453 26.7652L30.1105 34.8281L29.6503 44.576Z" fill="#E5E1BE"/>
<path d="M29.2267 59.4422L29.6561 44.586L30.1162 34.8381L30.7511 26.7753L31.7043 18.3196C31.9293 16.33 32.3319 14.4933 33.0171 12.6216C34.7181 7.96769 38.8516 4.68592 43.8182 4.14033C53.9289 3.27569 68.3986 2.97746 87.5865 3.60171" stroke="#185229" stroke-width="1.81121" stroke-linejoin="round"/>
<path d="M60.2267 38.043C61.6871 40.3909 65.1666 42.043 69.2267 42.043C73.2868 42.043 76.7663 40.3909 78.2267 38.043" stroke="#185229" stroke-width="2.08466" stroke-linecap="round"/>
<path d="M79.2267 29C81.0232 27.8044 84.3809 27 88.2267 27C92.0725 27 95.4302 27.8044 97.2267 29" stroke="#185229" stroke-width="2" stroke-linecap="round"/>
<path d="M43.2267 29C44.9234 27.8044 48.0946 27 51.7267 27C55.3588 27 58.53 27.8044 60.2267 29" stroke="#185229" stroke-width="2" stroke-linecap="round"/>
<path d="M91.3201 40.4469C94.6638 40.4469 97.3744 38.9757 97.3744 37.1609C97.3744 35.3462 94.6638 33.875 91.3201 33.875C87.9764 33.875 85.2657 35.3462 85.2657 37.1609C85.2657 38.9757 87.9764 40.4469 91.3201 40.4469Z" fill="#FEDBD8"/>
<path d="M48.2801 40.4469C51.5381 40.4469 54.1792 38.9757 54.1792 37.1609C54.1792 35.3462 51.5381 33.875 48.2801 33.875C45.0221 33.875 42.381 35.3462 42.381 37.1609C42.381 38.9757 45.0221 40.4469 48.2801 40.4469Z" fill="#FEDBD8"/>
<path d="M84.385 11.0658C87.7229 9.92777 89.736 11.961 90.2963 11.4152C90.901 10.8259 87.8032 8.33259 84.2816 9.41966C83.9252 9.52977 83.5967 9.74064 83.3764 9.99815C83.111 10.3097 83.1229 10.7998 83.4838 11.0213C83.7283 11.1718 84.1022 11.1625 84.3857 11.0657L84.385 11.0658Z" fill="#185229"/>
<path d="M54.0678 11.0688C50.7297 9.93131 48.717 11.9649 48.1566 11.4191C47.5518 10.8299 50.6491 8.33614 54.1709 9.42265C54.5274 9.5327 54.8559 9.74351 55.0763 10.001C55.3416 10.3125 55.3298 10.8026 54.969 11.0241C54.7245 11.1747 54.3506 11.1655 54.0671 11.0687L54.0678 11.0688Z" fill="#185229"/>
<path fill-rule="evenodd" clip-rule="evenodd" d="M11.6159 41.6896C12.0578 40.6555 13.2051 40.1412 14.3493 40.4972C17.0196 41.3287 19.1334 42.0542 21.0524 43.1456C22.9822 44.2432 24.6935 45.6977 26.5964 47.964C32.2395 54.6875 28.3012 65.076 19.5446 65.5792C14.8774 65.8464 12.0878 64.5348 8.17842 62.9093C7.54053 62.6441 6.92598 62.4812 6.26241 62.2814C5.61966 62.0878 4.9498 61.8637 4.27803 61.4835C3.21194 61.044 1.86684 60.1163 1.18819 58.964C0.837562 58.3686 0.641016 57.6701 0.814164 56.9396C0.949211 56.3704 1.29554 55.8448 1.85127 55.3702C1.06421 54.4151 0.984702 53.1065 1.63252 52.086C2.2871 51.0556 3.59025 50.4356 5.38252 50.6075L5.25752 50.3067C5.06353 49.8371 4.96025 49.3705 4.90498 48.9034L4.86397 48.4357C4.76097 46.7301 5.53695 45.0109 6.9333 44.003C7.65601 43.4816 8.49885 43.0825 9.17549 42.6837L9.85225 42.2843L10.2888 42.004C10.4324 41.9115 10.605 41.8074 10.8005 41.7374C11.066 41.6426 11.3333 41.6268 11.6159 41.6896ZM12.821 44.8985C12.705 46.0876 11.6996 47.0256 10.7614 47.6427L10.9841 48.0021C11.295 48.5038 11.4372 49.0785 11.6023 49.6534C12.7196 49.4625 13.8623 49.6056 14.9577 49.255C15.7201 49.0113 16.3868 48.5302 16.9187 47.9737L16.2898 46.5284C15.079 46.4804 13.5774 45.9749 12.821 44.8985Z" fill="#78BA68"/>
<path d="M11.6159 41.6896L11.4534 42.4217L12.061 42.5566L12.3056 41.9843L11.6159 41.6896ZM14.3493 40.4972L14.5723 39.7811L14.5721 39.781L14.3493 40.4972ZM21.0524 43.1456L21.4232 42.4937L21.4232 42.4937L21.0524 43.1456ZM26.5964 47.964L27.1709 47.4818L27.1708 47.4817L26.5964 47.964ZM19.5446 65.5792L19.5875 66.328L19.5877 66.328L19.5446 65.5792ZM8.17842 62.9093L8.46638 62.2168L8.46629 62.2167L8.17842 62.9093ZM6.26241 62.2814L6.04614 62.9995L6.04615 62.9995L6.26241 62.2814ZM4.27803 61.4835L4.64745 60.8308L4.60693 60.8079L4.56389 60.7901L4.27803 61.4835ZM1.18819 58.964L0.541922 59.3446L0.541942 59.3446L1.18819 58.964ZM0.814164 56.9396L0.0844229 56.7664L0.0843842 56.7666L0.814164 56.9396ZM1.85127 55.3702L2.33829 55.9406L2.89876 55.462L2.43007 54.8933L1.85127 55.3702ZM1.63252 52.086L0.999449 51.6839L0.999338 51.6841L1.63252 52.086ZM5.38252 50.6075L5.31091 51.3541L6.55455 51.4734L6.0751 50.3197L5.38252 50.6075ZM5.25752 50.3067L4.56433 50.5931L4.56495 50.5946L5.25752 50.3067ZM4.90498 48.9034L4.15785 48.9689L4.15884 48.9803L4.16018 48.9916L4.90498 48.9034ZM4.86397 48.4357L4.11533 48.4809L4.11595 48.491L4.11684 48.5012L4.86397 48.4357ZM6.9333 44.003L6.49449 43.3948L6.49437 43.3949L6.9333 44.003ZM9.17549 42.6837L9.55629 43.3298L9.55669 43.3296L9.17549 42.6837ZM9.85225 42.2843L10.2335 42.9302L10.2456 42.923L10.2575 42.9154L9.85225 42.2843ZM10.2888 42.004L10.694 42.6351L10.6949 42.6345L10.2888 42.004ZM10.8005 41.7374L10.5482 41.0311L10.5478 41.0313L10.8005 41.7374ZM12.821 44.8985L13.4346 44.4673L12.2711 42.8116L12.0745 44.8257L12.821 44.8985ZM10.7614 47.6427L10.3493 47.0161L9.73943 47.4172L10.1239 48.0377L10.7614 47.6427ZM10.9841 48.0021L10.3465 48.3971L10.3465 48.3971L10.9841 48.0021ZM11.6023 49.6534L10.8814 49.8604L11.0666 50.5058L11.7286 50.3927L11.6023 49.6534ZM14.9577 49.255L14.7293 48.5406L14.7291 48.5407L14.9577 49.255ZM16.9187 47.9737L17.4608 48.4919L17.8053 48.1316L17.6064 47.6745L16.9187 47.9737ZM16.2898 46.5284L16.9775 46.2292L16.7897 45.7977L16.3195 45.779L16.2898 46.5284ZM11.6159 41.6896L12.3056 41.9843C12.5868 41.3263 13.3257 40.9642 14.1265 41.2133L14.3493 40.4972L14.5721 39.781C13.0845 39.3182 11.5289 39.9847 10.9263 41.3948L11.6159 41.6896ZM14.3493 40.4972L14.1263 41.2133C16.7961 42.0446 18.8401 42.7502 20.6817 43.7976L21.0524 43.1456L21.4232 42.4937C19.4267 41.3582 17.2432 40.6128 14.5723 39.7811L14.3493 40.4972ZM21.0524 43.1456L20.6816 43.7975C22.5188 44.8425 24.1639 46.2333 26.022 48.4462L26.5964 47.964L27.1708 47.4817C25.2231 45.1621 23.4456 43.644 21.4232 42.4937L21.0524 43.1456ZM26.5964 47.964L26.0219 48.4461C31.3168 54.7548 27.5679 64.3669 19.5016 64.8304L19.5446 65.5792L19.5877 66.328C29.0344 65.7851 33.1622 54.6202 27.1709 47.4818L26.5964 47.964ZM19.5446 65.5792L19.5018 64.8304C15.0308 65.0864 12.3941 63.85 8.46638 62.2168L8.17842 62.9093L7.89046 63.6018C11.7814 65.2197 14.724 66.6064 19.5875 66.328L19.5446 65.5792ZM8.17842 62.9093L8.46629 62.2167C7.78251 61.9325 7.11257 61.7541 6.47866 61.5632L6.26241 62.2814L6.04615 62.9995C6.73939 63.2083 7.29855 63.3558 7.89055 63.6018L8.17842 62.9093ZM6.26241 62.2814L6.47867 61.5632C5.84869 61.3735 5.24417 61.1685 4.64745 60.8308L4.27803 61.4835L3.90862 62.1362C4.65542 62.5589 5.39064 62.8021 6.04614 62.9995L6.26241 62.2814ZM4.27803 61.4835L4.56389 60.7901C3.59187 60.3894 2.40363 59.5498 1.83443 58.5834L1.18819 58.964L0.541942 59.3446C1.33005 60.6827 2.83202 61.6986 3.99218 62.1769L4.27803 61.4835ZM1.18819 58.964L1.83445 58.5834C1.54882 58.0984 1.42857 57.5993 1.54394 57.1125L0.814164 56.9396L0.0843842 56.7666C-0.146535 57.7408 0.126308 58.6388 0.541922 59.3446L1.18819 58.964ZM0.814164 56.9396L1.54391 57.1127C1.63415 56.7323 1.87395 56.3371 2.33829 55.9406L1.85127 55.3702L1.36425 54.7999C0.717134 55.3524 0.264267 56.0084 0.0844229 56.7664L0.814164 56.9396ZM1.85127 55.3702L2.43007 54.8933C1.84693 54.1856 1.79378 53.2314 2.26571 52.488L1.63252 52.086L0.999338 51.6841C0.175624 52.9816 0.281481 54.6446 1.27248 55.8472L1.85127 55.3702ZM1.63252 52.086L2.2656 52.4882C2.73236 51.7534 3.72488 51.202 5.31091 51.3541L5.38252 50.6075L5.45414 49.861C3.45562 49.6693 1.84183 50.3578 0.999449 51.6839L1.63252 52.086ZM5.38252 50.6075L6.0751 50.3197L5.9501 50.0189L5.25752 50.3067L4.56495 50.5946L4.68995 50.8954L5.38252 50.6075ZM5.25752 50.3067L5.95072 50.0204C5.7886 49.6279 5.69896 49.2308 5.64979 48.8153L4.90498 48.9034L4.16018 48.9916C4.22155 49.5101 4.33846 50.0462 4.56433 50.5931L5.25752 50.3067ZM4.90498 48.9034L5.65212 48.8379L5.6111 48.3701L4.86397 48.4357L4.11684 48.5012L4.15785 48.9689L4.90498 48.9034ZM4.86397 48.4357L5.6126 48.3904C5.52444 46.9305 6.19287 45.4624 7.37224 44.6112L6.9333 44.003L6.49437 43.3949C4.88104 44.5594 3.9975 46.5297 4.11533 48.4809L4.86397 48.4357ZM6.9333 44.003L7.37212 44.6113C8.06251 44.1132 8.79241 43.78 9.55629 43.3298L9.17549 42.6837L8.79469 42.0376C8.20528 42.3849 7.24951 42.8501 6.49449 43.3948L6.9333 44.003ZM9.17549 42.6837L9.55669 43.3296L10.2335 42.9302L9.85225 42.2843L9.47105 41.6384L8.79429 42.0378L9.17549 42.6837ZM9.85225 42.2843L10.2575 42.9154L10.694 42.6351L10.2888 42.004L9.88356 41.3729L9.44704 41.6532L9.85225 42.2843ZM10.2888 42.004L10.6949 42.6345C10.8286 42.5484 10.9419 42.4834 11.0532 42.4436L10.8005 41.7374L10.5478 41.0313C10.268 41.1314 10.0363 41.2745 9.88265 41.3735L10.2888 42.004ZM10.8005 41.7374L11.0528 42.4437C11.1817 42.3977 11.305 42.3888 11.4534 42.4217L11.6159 41.6896L11.7784 40.9574C11.3617 40.8649 10.9504 40.8874 10.5482 41.0311L10.8005 41.7374ZM12.821 44.8985L12.0745 44.8257C11.9942 45.6494 11.2594 46.4175 10.3493 47.0161L10.7614 47.6427L11.1736 48.2693C12.1398 47.6338 13.4158 46.5257 13.5675 44.9714L12.821 44.8985ZM10.7614 47.6427L10.1239 48.0377L10.3465 48.3971L10.9841 48.0021L11.6216 47.6071L11.399 47.2477L10.7614 47.6427ZM10.9841 48.0021L10.3465 48.3971C10.5893 48.7888 10.7031 49.2393 10.8814 49.8604L11.6023 49.6534L12.3231 49.4465C12.1713 48.9176 12.0007 48.2188 11.6216 47.607L10.9841 48.0021ZM11.6023 49.6534L11.7286 50.3927C12.2327 50.3066 12.7321 50.2968 13.3307 50.2629C13.9035 50.2304 14.543 50.1752 15.1863 49.9693L14.9577 49.255L14.7291 48.5407C14.277 48.6854 13.7975 48.734 13.2457 48.7653C12.7198 48.7951 12.0892 48.8093 11.4759 48.9141L11.6023 49.6534ZM14.9577 49.255L15.1861 49.9694C16.0973 49.6781 16.8667 49.1136 17.4608 48.4919L16.9187 47.9737L16.3765 47.4555C15.9069 47.9468 15.3428 48.3445 14.7293 48.5406L14.9577 49.255ZM16.9187 47.9737L17.6064 47.6745L16.9775 46.2292L16.2898 46.5284L15.602 46.8277L16.2309 48.273L16.9187 47.9737ZM16.2898 46.5284L16.3195 45.779C15.2288 45.7358 14.0026 45.2755 13.4346 44.4673L12.821 44.8985L12.2074 45.3298C13.1522 46.6743 14.9291 47.2251 16.26 47.2778L16.2898 46.5284Z" fill="#185229"/>
<path d="M4.30859 50.5885C5.53699 50.3944 8.77055 51.5009 10.8422 53.1078C11.0669 52.6866 11.2274 52.4032 11.6681 51.72" stroke="#185229" stroke-width="1.5"/>
<path d="M1.55461 55.3974C4.26386 54.4743 7.54129 56.1805 9.66566 57.397C9.76206 57.0021 9.99151 56.3441 10.1161 56.0545" stroke="#185229" stroke-width="1.5"/>
<path d="M17.0732 47.8633C15.8616 49.3818 16.7011 52.247 20.381 53.6623C16.5583 53.0354 16.606 54.4187 14.1733 55.4682C11.7406 56.5176 15.5819 49.6986 17.0732 47.8633Z" fill="#39763D"/>
<path d="M17.1447 47.7656C15.9331 49.2841 16.7726 52.1493 20.4525 53.5646" stroke="#185229" stroke-width="1.5"/>
<path d="M4.53687 61.0673C5.79022 61.7848 7.06357 61.9214 8.4049 62.479C12.328 64.1102 15.008 65.3689 19.5358 65.1096C27.8029 64.6345 31.6026 54.7974 26.209 48.3711C31.3245 63.0121 14.1147 62.479 4.53687 61.0673Z" fill="#39763D"/>
<path d="M11.6042 41.8008C11.7817 42.5896 12.4147 44.407 12.9354 45.0697" stroke="#185229" stroke-width="1.5"/>
<path fill-rule="evenodd" clip-rule="evenodd" d="M126.839 41.6896C126.397 40.6555 125.249 40.1412 124.105 40.4972C121.435 41.3287 119.321 42.0542 117.402 43.1456C115.472 44.2432 113.761 45.6977 111.858 47.964C106.215 54.6875 110.153 65.076 118.91 65.5792C123.577 65.8464 126.367 64.5348 130.276 62.9093C130.914 62.6441 131.528 62.4812 132.192 62.2814C132.835 62.0878 133.505 61.8637 134.176 61.4835C135.243 61.044 136.588 60.1163 137.266 58.964C137.617 58.3686 137.813 57.6701 137.64 56.9396C137.505 56.3704 137.159 55.8448 136.603 55.3702C137.39 54.4151 137.47 53.1065 136.822 52.086C136.167 51.0556 134.864 50.4356 133.072 50.6075L133.197 50.3067C133.391 49.8371 133.494 49.3705 133.549 48.9034L133.59 48.4357C133.694 46.7301 132.918 45.0109 131.521 44.003C130.798 43.4816 129.956 43.0825 129.279 42.6837L128.602 42.2843L128.166 42.004C128.022 41.9115 127.849 41.8074 127.654 41.7374C127.388 41.6426 127.121 41.6268 126.839 41.6896ZM125.634 44.8985C125.75 46.0876 126.756 47.0256 127.694 47.6427L127.471 48.0021C127.16 48.5038 127.018 49.0785 126.853 49.6534C125.736 49.4625 124.593 49.6056 123.498 49.255C122.735 49.0113 122.069 48.5302 121.537 47.9737L122.166 46.5284C123.376 46.4804 124.878 45.9749 125.634 44.8985Z" fill="#78BA68"/>
<path d="M126.839 41.6896L127.001 42.4217L126.393 42.5566L126.149 41.9843L126.839 41.6896ZM124.105 40.4972L123.882 39.7811L123.882 39.781L124.105 40.4972ZM117.402 43.1456L117.031 42.4937L117.031 42.4937L117.402 43.1456ZM111.858 47.964L111.284 47.4818L111.284 47.4817L111.858 47.964ZM118.91 65.5792L118.867 66.328L118.867 66.328L118.91 65.5792ZM130.276 62.9093L129.988 62.2168L129.988 62.2167L130.276 62.9093ZM132.192 62.2814L132.408 62.9995L132.408 62.9995L132.192 62.2814ZM134.176 61.4835L133.807 60.8308L133.848 60.8079L133.891 60.7901L134.176 61.4835ZM137.266 58.964L137.913 59.3446L137.913 59.3446L137.266 58.964ZM137.64 56.9396L138.37 56.7664L138.37 56.7666L137.64 56.9396ZM136.603 55.3702L136.116 55.9406L135.556 55.462L136.024 54.8933L136.603 55.3702ZM136.822 52.086L137.455 51.6839L137.455 51.6841L136.822 52.086ZM133.072 50.6075L133.144 51.3541L131.9 51.4734L132.379 50.3197L133.072 50.6075ZM133.197 50.3067L133.89 50.5931L133.89 50.5946L133.197 50.3067ZM133.549 48.9034L134.297 48.9689L134.296 48.9803L134.294 48.9916L133.549 48.9034ZM133.59 48.4357L134.339 48.4809L134.339 48.491L134.338 48.5012L133.59 48.4357ZM131.521 44.003L131.96 43.3948L131.96 43.3949L131.521 44.003ZM129.279 42.6837L128.898 43.3298L128.898 43.3296L129.279 42.6837ZM128.602 42.2843L128.221 42.9302L128.209 42.923L128.197 42.9154L128.602 42.2843ZM128.166 42.004L127.76 42.6351L127.76 42.6345L128.166 42.004ZM127.654 41.7374L127.906 41.0311L127.907 41.0313L127.654 41.7374ZM125.634 44.8985L125.021 44.4673L126.184 42.8116L126.381 44.8257L125.634 44.8985ZM127.694 47.6427L128.106 47.0161L128.716 47.4172L128.332 48.0377L127.694 47.6427ZM127.471 48.0021L128.109 48.3971L128.109 48.3971L127.471 48.0021ZM126.853 49.6534L127.574 49.8604L127.389 50.5058L126.727 50.3927L126.853 49.6534ZM123.498 49.255L123.726 48.5406L123.726 48.5407L123.498 49.255ZM121.537 47.9737L120.995 48.4919L120.65 48.1316L120.849 47.6745L121.537 47.9737ZM122.166 46.5284L121.478 46.2292L121.666 45.7977L122.136 45.779L122.166 46.5284ZM126.839 41.6896L126.149 41.9843C125.868 41.3263 125.129 40.9642 124.328 41.2133L124.105 40.4972L123.882 39.781C125.37 39.3182 126.926 39.9847 127.528 41.3948L126.839 41.6896ZM124.105 40.4972L124.328 41.2133C121.658 42.0446 119.614 42.7502 117.773 43.7976L117.402 43.1456L117.031 42.4937C119.028 41.3582 121.211 40.6128 123.882 39.7811L124.105 40.4972ZM117.402 43.1456L117.773 43.7975C115.936 44.8425 114.291 46.2333 112.432 48.4462L111.858 47.964L111.284 47.4817C113.231 45.1621 115.009 43.644 117.031 42.4937L117.402 43.1456ZM111.858 47.964L112.433 48.4461C107.138 54.7548 110.887 64.3669 118.953 64.8304L118.91 65.5792L118.867 66.328C109.42 65.7851 105.292 54.6202 111.284 47.4818L111.858 47.964ZM118.91 65.5792L118.953 64.8304C123.424 65.0864 126.06 63.85 129.988 62.2168L130.276 62.9093L130.564 63.6018C126.673 65.2197 123.731 66.6064 118.867 66.328L118.91 65.5792ZM130.276 62.9093L129.988 62.2167C130.672 61.9325 131.342 61.7541 131.976 61.5632L132.192 62.2814L132.408 62.9995C131.715 63.2083 131.156 63.3558 130.564 63.6018L130.276 62.9093ZM132.192 62.2814L131.976 61.5632C132.606 61.3735 133.21 61.1685 133.807 60.8308L134.176 61.4835L134.546 62.1362C133.799 62.5589 133.064 62.8021 132.408 62.9995L132.192 62.2814ZM134.176 61.4835L133.891 60.7901C134.863 60.3894 136.051 59.5498 136.62 58.5834L137.266 58.964L137.913 59.3446C137.124 60.6827 135.622 61.6986 134.462 62.1769L134.176 61.4835ZM137.266 58.964L136.62 58.5834C136.906 58.0984 137.026 57.5993 136.911 57.1125L137.64 56.9396L138.37 56.7666C138.601 57.7408 138.328 58.6388 137.913 59.3446L137.266 58.964ZM137.64 56.9396L136.911 57.1127C136.82 56.7323 136.581 56.3371 136.116 55.9406L136.603 55.3702L137.09 54.7999C137.737 55.3524 138.19 56.0084 138.37 56.7664L137.64 56.9396ZM136.603 55.3702L136.024 54.8933C136.608 54.1856 136.661 53.2314 136.189 52.488L136.822 52.086L137.455 51.6841C138.279 52.9816 138.173 54.6446 137.182 55.8472L136.603 55.3702ZM136.822 52.086L136.189 52.4882C135.722 51.7534 134.73 51.202 133.144 51.3541L133.072 50.6075L133 49.861C134.999 49.6693 136.613 50.3578 137.455 51.6839L136.822 52.086ZM133.072 50.6075L132.379 50.3197L132.504 50.0189L133.197 50.3067L133.89 50.5946L133.765 50.8954L133.072 50.6075ZM133.197 50.3067L132.504 50.0204C132.666 49.6279 132.756 49.2308 132.805 48.8153L133.549 48.9034L134.294 48.9916C134.233 49.5101 134.116 50.0462 133.89 50.5931L133.197 50.3067ZM133.549 48.9034L132.802 48.8379L132.843 48.3701L133.59 48.4357L134.338 48.5012L134.297 48.9689L133.549 48.9034ZM133.59 48.4357L132.842 48.3904C132.93 46.9305 132.262 45.4624 131.082 44.6112L131.521 44.003L131.96 43.3949C133.573 44.5594 134.457 46.5297 134.339 48.4809L133.59 48.4357ZM131.521 44.003L131.082 44.6113C130.392 44.1132 129.662 43.78 128.898 43.3298L129.279 42.6837L129.66 42.0376C130.249 42.3849 131.205 42.8501 131.96 43.3948L131.521 44.003ZM129.279 42.6837L128.898 43.3296L128.221 42.9302L128.602 42.2843L128.983 41.6384L129.66 42.0378L129.279 42.6837ZM128.602 42.2843L128.197 42.9154L127.76 42.6351L128.166 42.004L128.571 41.3729L129.007 41.6532L128.602 42.2843ZM128.166 42.004L127.76 42.6345C127.626 42.5484 127.513 42.4834 127.401 42.4436L127.654 41.7374L127.907 41.0313C128.186 41.1314 128.418 41.2745 128.572 41.3735L128.166 42.004ZM127.654 41.7374L127.402 42.4437C127.273 42.3977 127.149 42.3888 127.001 42.4217L126.839 41.6896L126.676 40.9574C127.093 40.8649 127.504 40.8874 127.906 41.0311L127.654 41.7374ZM125.634 44.8985L126.381 44.8257C126.461 45.6494 127.196 46.4175 128.106 47.0161L127.694 47.6427L127.282 48.2693C126.316 47.6338 125.04 46.5257 124.888 44.9714L125.634 44.8985ZM127.694 47.6427L128.332 48.0377L128.109 48.3971L127.471 48.0021L126.834 47.6071L127.056 47.2477L127.694 47.6427ZM127.471 48.0021L128.109 48.3971C127.866 48.7888 127.752 49.2393 127.574 49.8604L126.853 49.6534L126.132 49.4465C126.284 48.9176 126.455 48.2188 126.834 47.607L127.471 48.0021ZM126.853 49.6534L126.727 50.3927C126.223 50.3066 125.723 50.2968 125.125 50.2629C124.552 50.2304 123.912 50.1752 123.269 49.9693L123.498 49.255L123.726 48.5407C124.178 48.6854 124.658 48.734 125.21 48.7653C125.736 48.7951 126.366 48.8093 126.98 48.9141L126.853 49.6534ZM123.498 49.255L123.269 49.9694C122.358 49.6781 121.589 49.1136 120.995 48.4919L121.537 47.9737L122.079 47.4555C122.549 47.9468 123.113 48.3445 123.726 48.5406L123.498 49.255ZM121.537 47.9737L120.849 47.6745L121.478 46.2292L122.166 46.5284L122.853 46.8277L122.225 48.273L121.537 47.9737ZM122.166 46.5284L122.136 45.779C123.227 45.7358 124.453 45.2755 125.021 44.4673L125.634 44.8985L126.248 45.3298C125.303 46.6743 123.526 47.2251 122.195 47.2778L122.166 46.5284Z" fill="#185229"/>
<path d="M134.148 50.5885C132.919 50.3944 129.686 51.5009 127.614 53.1078C127.39 52.6866 127.229 52.4032 126.788 51.72" stroke="#185229" stroke-width="1.5"/>
<path d="M136.902 55.3974C134.192 54.4743 130.915 56.1805 128.791 57.397C128.694 57.0021 128.465 56.3441 128.34 56.0545" stroke="#185229" stroke-width="1.5"/>
<path d="M121.383 47.8633C122.595 49.3818 121.755 52.247 118.075 53.6623C121.898 53.0354 121.85 54.4187 124.283 55.4682C126.716 56.5176 122.874 49.6986 121.383 47.8633Z" fill="#39763D"/>
<path d="M121.311 47.7656C122.523 49.2841 121.684 52.1493 118.004 53.5646" stroke="#185229" stroke-width="1.5"/>
<path d="M133.919 61.0673C132.666 61.7848 131.393 61.9214 130.051 62.479C126.128 64.1102 123.448 65.3689 118.92 65.1096C110.653 64.6345 106.854 54.7974 112.247 48.3711C107.132 63.0121 124.342 62.479 133.919 61.0673Z" fill="#39763D"/>
<path d="M126.852 41.8008C126.674 42.5896 126.041 44.407 125.521 45.0697" stroke="#185229" stroke-width="1.5"/>
<path d="M59.7637 94.4593C60.3336 94.2691 74.62 91.3949 75.1846 91.4013L72.1262 70.283L57.7895 73.3106C57.0629 72.4821 56.358 71.8266 55.4637 71.1514C52.9933 69.2855 48.3941 69.1009 45.908 71.176C44.6561 72.2216 43.9963 74.0025 43.7502 75.6683C42.9301 81.2126 44.1408 87.0243 46.7719 91.9416C47.9863 94.211 49.919 95.6578 52.5139 95.8417C54.6585 95.994 57.7195 95.1417 59.7637 94.4593Z" fill="#39763D"/>
<path d="M75.169 92.7662C75.1794 91.8563 75.1897 90.9463 75.2001 90.0364C72.9956 90.3403 71.6748 90.6837 69.9306 91.0226C66.4079 91.7558 63.1169 92.4052 59.3733 93.2897C57.1226 94.0448 54.6969 94.7507 52.5968 94.6738C50.5277 94.5829 48.7631 93.326 47.7504 91.4179C45.174 86.6954 43.9704 81.1445 44.7084 75.8101C44.9197 74.2919 45.4855 72.7568 46.5015 71.8866C48.6801 70.0974 52.5911 70.1526 54.9571 71.8221C55.774 72.424 56.5043 73.0882 57.1776 73.8472L57.4841 74.2027L57.9576 74.1069C62.7281 73.0576 67.4985 72.0083 72.269 70.959L71.4425 70.3821C72.264 75.7377 73.0855 81.0933 73.907 86.4488C74.164 88.1241 74.421 89.7994 74.678 91.4747C75.0157 91.4257 75.3534 91.3768 75.6912 91.3279C75.4623 89.6486 75.2335 87.9692 75.0047 86.2899C74.2731 80.9213 73.5416 75.5526 72.81 70.184L72.6974 69.45L71.9835 69.607C67.1961 70.5761 62.4087 71.5452 57.6213 72.5144L58.4014 72.774C57.6827 71.9339 56.8498 71.1502 55.9701 70.4806C52.8003 68.2984 48.5596 68.0697 45.3146 70.4651C43.7164 71.8284 43.0924 73.7275 42.7919 75.5267C41.8951 81.3198 43.094 87.3066 45.7933 92.4652C46.9658 94.8741 49.598 96.8779 52.4311 97.0096C55.2972 97.1358 57.719 96.378 60.1542 95.629C63.3252 94.9608 67.0069 94.2659 70.4394 93.6179C72.0193 93.321 74.0435 92.9519 75.169 92.7662ZM75.2001 90.0364L75.169 92.7662L75.9121 92.7684L75.6912 91.3279L74.678 91.4747L75.2001 90.0364Z" fill="#185229"/>
<path d="M45.7462 87.3532C46.5857 89.0538 50.2425 92.5563 52.8171 90.3267C56.2757 87.3316 55.734 69.4033 49.1209 70.6538C42.576 71.8911 43.5722 82.3668 45.7462 87.3532Z" fill="#78BA68"/>
<ellipse cx="50.0132" cy="76.2021" rx="1.49802" ry="1.92545" transform="rotate(153.219 50.0132 76.2021)" fill="#9ECF84"/>
<path d="M79.9832 95.0983C78.0117 94.2406 75.6928 92.0683 74.1966 90.5172C73.9162 90.2265 68.1354 85.6593 62.6878 79.7745C60.0322 76.9057 57.8047 73.0073 57.8047 73.0073C57.8047 73.0073 64.5739 61.2797 74.7845 64.0166C77.1846 64.6599 80.8396 68.6206 80.8396 68.6206L85.7357 72.6842C86.7633 72.2861 87.6916 72.0313 88.7968 71.8468C91.8503 71.3363 96.0125 73.3014 97.2559 76.2916C97.8816 77.7979 97.6421 79.6819 97.0892 81.2725C95.2499 86.5667 91.4866 91.158 86.8783 94.2989C84.7514 95.7484 82.3685 96.1364 79.9832 95.0983Z" fill="#39763D"/>
<path d="M73.2142 91.4648C73.8691 90.8331 74.5241 90.2013 75.179 89.5695C76.387 90.8368 77.6691 92.0563 79.0228 93.0232C79.5149 93.3717 80.0214 93.6838 80.5045 93.9C82.3421 94.7552 84.4198 94.4686 86.1745 93.2662C90.6196 90.286 94.2337 85.9424 96.0334 80.9057C96.542 79.4836 96.738 77.8876 96.2606 76.705C95.2067 74.1982 91.742 72.4474 88.9614 72.831C87.9671 72.9857 87.0269 73.2331 86.0872 73.5914L85.563 73.7993L85.1144 73.4329C83.4929 72.0655 81.8715 70.6982 80.2501 69.3309L80.1613 69.2466C78.4997 67.5098 76.52 65.5477 74.5611 64.8499C68.1578 62.9093 61.855 67.8933 58.4119 73.3578L58.4135 72.6595C59.7806 75.0097 61.3417 77.3295 63.1542 79.3428C65.4568 81.8675 67.9042 84.2577 70.445 86.5597C71.7917 87.7848 73.1144 88.9057 74.565 90.1618C74.3194 90.3987 74.0738 90.6356 73.8282 90.8725C72.53 89.7972 71.0562 88.5758 69.7072 87.3878C67.1084 85.1063 64.5987 82.7319 62.2215 80.2062C60.2722 78.1036 58.6658 75.7903 57.196 73.3551L56.9964 72.9992L57.1976 72.6568C60.7471 66.8276 67.4407 61.1193 75.0079 63.1832C77.9081 64.2234 79.6181 66.1345 81.5179 67.9947L81.4291 67.9104C83.0718 69.2521 84.7144 70.5938 86.3571 71.9356L85.3842 71.777C86.4186 71.3621 87.5342 71.0495 88.6325 70.8625C92.5417 70.3941 96.4342 72.1649 98.251 75.8777C99.0571 77.8851 98.7181 79.884 98.145 81.6395C96.2432 87.2232 92.3873 91.9949 87.5822 95.3316C85.4017 96.9444 82.0726 97.513 79.4618 96.2965C78.7348 95.9834 78.1063 95.599 77.5125 95.1942C75.8987 94.076 74.5268 92.7957 73.2142 91.4648ZM75.179 89.5695L73.2142 91.4648L73.8282 90.8725L74.565 90.1618L75.179 89.5695Z" fill="#185229"/>
<path d="M83.2431 90.8186C85.1025 97.3482 99.7357 81.8611 96.4208 76.2253C91.3434 70.3901 82.122 86.8812 83.2431 90.8186Z" fill="#78BA68"/>
<ellipse cx="1.49802" cy="1.92545" rx="1.49802" ry="1.92545" transform="matrix(0.71074 0.703454 0.703454 -0.71074 89.8549 79.6055)" fill="#9ECF84"/>
<path d="M55.7133 72.4297C56.0412 72.7116 56.359 72.9869 56.6867 73.2721C62.5425 78.3838 68.3564 83.5123 74.1673 88.6738C74.4858 88.9567 74.8161 89.2514 75.132 89.5323C75.4029 89.7733 75.5604 90.1077 75.5619 90.4699C75.5639 90.8317 75.4098 91.1917 75.1414 91.4627C74.8731 91.7337 74.5146 91.8913 74.1528 91.8928C73.7906 91.8948 73.4546 91.7406 73.2111 91.4721C73.2111 91.4721 73.2111 91.4721 73.2111 91.4721C72.9278 91.1595 72.6301 90.833 72.3441 90.5183C67.1164 84.7816 61.8752 79.0677 56.5918 73.3702C56.2958 73.0524 56.0097 72.7445 55.7133 72.4297Z" fill="#185229"/>
</svg>
