<svg overflow="visible" width="164" height="132" viewBox="-15 -15 164 132" fill="none" xmlns="http://www.w3.org/2000/svg">
<path d="M50.7484 93.3264C50.8572 92.7356 55.2453 78.8392 55.5237 78.3481L35.5574 70.8195L31.2793 84.8341C30.2028 85.0697 29.2882 85.3701 28.2649 85.8267C25.4375 87.0877 23.0533 91.0249 23.6684 94.2043C23.9788 95.8056 25.219 97.2439 26.5585 98.2644C31.016 101.662 36.6891 103.411 42.2655 103.484C44.8392 103.517 47.0399 102.524 48.4549 100.341C49.6247 98.5375 50.3578 95.4458 50.7484 93.3264Z" fill="#39763D"/>
<path d="M56.8286 79.0879C55.9587 78.5947 55.0888 78.1015 54.2189 77.6082C53.3989 79.7346 53.0769 81.0259 52.5286 82.7247C51.4695 86.169 50.4549 89.346 49.4158 93.0808C48.9938 95.4084 48.4372 97.872 47.3754 99.6414C46.3158 101.377 44.4157 102.295 42.2814 102.264C36.9237 102.242 31.5011 100.624 27.2037 97.4178C25.9868 96.5097 24.9306 95.2838 24.6673 94.0107C24.1545 91.2994 26.0775 87.9122 28.6411 86.6703C29.5584 86.2471 30.4852 85.9303 31.4705 85.7077L31.9747 85.6022L32.1346 85.0952C33.5176 80.4105 34.9006 75.7259 36.2835 71.0412L35.2895 71.5299C40.3768 73.3948 45.464 75.2596 50.5513 77.1244C52.1426 77.7077 53.7339 78.2911 55.3253 78.8744C55.4576 78.5235 55.5899 78.1726 55.7222 77.8217C54.1419 77.2092 52.5616 76.5966 50.9813 75.984C45.9293 74.0257 40.8772 72.0674 35.8252 70.1091L35.0585 69.8281L34.8312 70.5979C33.3621 75.2562 31.893 79.9146 30.4239 84.573L31.088 83.9604C30.0006 84.1836 28.9043 84.5356 27.8885 84.9833C24.4048 86.7262 22.1398 90.3384 22.6694 94.3976C23.098 96.4926 24.4733 97.9679 25.9133 99.1111C30.5676 102.714 36.407 104.568 42.2496 104.703C44.9506 104.846 48.03 103.49 49.5345 101.041C51.0506 98.5612 51.5552 96.0736 52.081 93.5719C53.0242 90.5028 54.2025 86.9258 55.2956 83.6135C55.7971 82.0951 56.4679 80.1135 56.8286 79.0879ZM54.2189 77.6082L56.8286 79.0879L57.2254 78.3728L55.7222 77.8217L55.3253 78.8744L54.2189 77.6082Z" fill="#185229"/>
<path d="M37.7523 102.164C39.6468 102.251 44.4804 100.742 43.7727 97.4108C43.0651 94.0794 34.2139 89.0454 29.3356 89.1963C25.5511 89.661 25.2775 89.575 24.7635 91.1393C24.1664 94.0294 24.9633 94.8926 25.9404 96.5873C28.06 99.108 34.6185 101.871 37.7523 102.164Z" fill="#78BA68"/>
<ellipse cx="30.0279" cy="89.7318" rx="1.49802" ry="1.92545" transform="rotate(62.7594 30.0279 89.7318)" fill="#9ECF84"/>
<path d="M70.6026 92.9159C70.54 92.3185 67.803 79.9323 67.5635 79.421L87.9568 73.53L90.6728 85.9623C91.7278 86.2809 92.6162 86.6514 93.6009 87.1862C96.3217 88.6631 98.3928 92.7737 97.5325 95.8957C97.0986 97.468 95.7503 98.8056 94.3356 99.7189C89.6276 102.76 83.8357 104.062 78.2705 103.702C75.702 103.535 73.5851 102.374 72.344 100.088C71.318 98.1986 70.8273 95.0593 70.6026 92.9159Z" fill="#39763D"/>
<path d="M66.2051 80.0572C67.1107 79.6331 68.0163 79.209 68.9219 78.7849C69.5559 80.929 69.7394 82.1681 70.1247 83.8496C70.7576 86.8196 71.3702 89.5487 71.9625 92.7734C72.2012 95.126 72.5641 97.6253 73.4831 99.4695C74.4024 101.279 76.2212 102.341 78.3499 102.478C83.6915 102.875 89.2232 101.685 93.7578 98.8242C95.0418 98.014 96.1906 96.8744 96.5529 95.6253C97.2761 92.9614 95.6237 89.4336 93.1627 87.9935C92.281 87.4999 91.3813 87.1115 90.416 86.8125L89.9233 86.6688L89.8052 86.1518C88.9396 81.9991 88.074 77.8463 87.2084 73.6935L88.1694 74.266C82.9225 75.7273 77.6756 77.1886 72.4287 78.6499C70.859 79.0871 69.2893 79.5243 67.7196 79.9614C67.6155 79.6012 67.5115 79.2409 67.4074 78.8806C68.9684 78.4134 70.5294 77.9462 72.0905 77.4791C77.3084 75.9174 82.5263 74.3557 87.7442 72.794L88.5397 72.5725L88.7052 73.3665C89.6503 77.5019 90.5954 81.6373 91.5404 85.7727L90.9296 85.1121C91.9962 85.4186 93.0614 85.8542 94.0393 86.379C97.3754 88.3847 99.3543 92.1606 98.5123 96.1656C97.9229 98.2207 96.4376 99.5853 94.9133 100.614C89.9941 103.846 84.0281 105.243 78.1912 104.925C75.4856 104.859 72.5167 103.267 71.2049 100.706C69.884 98.1135 69.5736 95.5941 69.2428 93.0584C68.6894 90.4455 67.9616 87.3441 67.2903 84.4919C67.103 83.701 66.9138 82.9084 66.7222 82.1232C66.6255 81.7269 66.5301 81.34 66.4307 80.9471C66.3839 80.7628 66.3333 80.5654 66.2819 80.3716C66.2577 80.2809 66.2315 80.1844 66.2077 80.1007C66.1975 80.0651 66.1829 80.0148 66.1733 79.9844C66.1725 79.9727 66.1286 79.8757 66.2051 80.0572ZM68.9219 78.7849L66.2051 80.0572L65.8641 79.3105L67.4074 78.8806L67.7196 79.9614L68.9219 78.7849Z" fill="#185229"/>
<path d="M82.8689 102.735C80.9733 102.674 76.2716 100.795 77.236 97.5282C78.2004 94.2618 87.4161 89.9309 92.2679 90.4605C96.0049 91.2179 96.2842 91.1534 96.6752 92.7529C97.0458 95.6807 96.1843 96.4793 95.0784 98.093C92.7693 100.441 86.0159 102.686 82.8689 102.735Z" fill="#78BA68"/>
<ellipse cx="1.49802" cy="1.92545" rx="1.49802" ry="1.92545" transform="matrix(-0.525438 0.850832 0.850832 0.525438 90.6858 88.6533)" fill="#9ECF84"/>
<path d="M46.7656 78.9821L33.4721 79.2162C32.0788 79.2409 30.8026 79.1165 29.4665 78.8358C26.2955 78.1694 23.6936 76.1401 22.3046 73.212C21.5586 71.6386 21.2127 69.9918 21.0484 68.2481C20.8582 66.2287 20.7318 64.3356 20.7194 62.2915L20.6319 47.3965L20.7528 37.6169L21.1067 29.5191L21.765 21.0167C21.9206 19.0161 22.259 17.1624 22.8784 15.264C24.4159 10.5436 28.431 7.11323 33.3735 6.39456C42.9272 5.00575 67.6019 4.00024 77.3279 4.3466L83.4 4.56266C87.2884 4.70128 90.9147 6.49655 93.3077 9.58315C94.6382 11.2997 95.4598 13.2448 95.9909 15.3449C97.4295 21.0358 99.1781 37.5238 99.5786 43.7648L100.675 60.8473C100.775 62.4101 100.74 63.844 100.718 65.3833C100.701 66.5984 100.567 67.7344 100.305 68.9139C99.494 72.558 96.8761 75.4544 93.3047 76.5739C91.8788 77.0214 90.4984 77.24 88.9567 77.31L65.3897 78.383L46.7676 78.982L46.7656 78.9821Z" fill="#FFFDEA" stroke="#185229" stroke-width="2" stroke-linejoin="round"/>
<path d="M33.4746 79.2148L46.768 78.9808L46.7701 78.9807L65.3922 78.3817L88.9591 77.3087C90.5008 77.2387 91.8813 77.0201 93.3071 76.5726C96.8785 75.4531 99.4965 72.5567 100.307 68.9125C100.569 67.7331 100.703 66.5971 100.721 65.3819C100.752 63.1612 100.681 60.9524 100.604 58.734L98.3347 58.7974L84.2588 59.3013C70.5845 75.4129 38.6325 75.9646 22.3071 73.2107C23.696 76.1388 26.2979 78.1681 29.469 78.8345C30.8051 79.1152 32.0813 79.2395 33.4746 79.2148Z" fill="#E5E1BE"/>
<path d="M35.9917 67.4201C34.3304 67.5682 32.7339 67.3028 31.6561 65.9106C30.8774 64.9053 30.457 63.3365 30.2805 62.002L91.1197 59.8904C90.9999 61.2316 90.6023 62.8621 89.8862 63.8958C88.8647 65.3701 87.3254 65.7444 85.6473 65.7039L35.9917 67.4201Z" fill="#D6D2B2"/>
<path d="M30.2793 61.9668C30.2793 61.9668 30.2822 61.9886 30.2836 61.9996C30.4601 63.3341 30.8805 64.9029 31.6592 65.9082C32.737 67.3004 34.3335 67.5658 35.9948 67.4177L85.6504 65.7015C87.3285 65.742 88.8678 65.3677 89.8893 63.8934C90.6054 62.8597 91.003 61.2292 91.1228 59.888" stroke="#CAC5A0" stroke-width="2" stroke-linejoin="round"/>
<path d="M87.8484 63.3154C88.6842 62.0893 89.1367 60.6503 89.0179 59.122L31.9208 61.1006C31.9527 62.5814 32.4266 63.9513 33.2807 65.1455C33.4299 65.3008 33.6628 65.4377 33.8535 65.427C34.0237 65.417 34.2314 65.0663 34.2395 64.885L34.2809 63.9168L86.2276 62.1139C86.4728 62.1054 86.7406 62.1537 86.8496 62.2466C86.7902 62.6652 86.9521 63.6016 87.3444 63.5654C87.4765 63.5536 87.6858 63.427 87.8484 63.3154Z" fill="#185229"/>
<path d="M31.9206 61.1147L22.949 61.4261L20.6894 61.5045C20.7676 63.7575 20.834 66.0003 21.0457 68.2469C21.2099 69.9906 21.5558 71.6375 22.3018 73.2108C23.6907 76.1389 26.2927 78.1683 29.4637 78.8347C30.7998 79.1154 32.076 79.2397 33.4693 79.215L46.7627 78.9809L46.7648 78.9809L65.3869 78.3819L88.9539 77.3089C90.4956 77.2389 91.876 77.0203 93.3019 76.5728C96.8733 75.4533 99.4912 72.5569 100.302 68.9127C100.564 67.7333 100.698 66.5973 100.715 65.3821C100.747 63.1613 100.676 60.9526 100.599 58.7342L98.3294 58.7975L89.0176 59.1361L31.9207 61.1178" stroke="#185229" stroke-width="2" stroke-linejoin="round"/>
<path d="M98.6473 43.7371C98.2472 37.5098 96.4994 21.0584 95.0607 15.3803C98.6473 43.7371 97.0186 58.8517 77.3355 59.5349L99.5513 58.7638L98.6473 43.7371Z" fill="#E5E1BE"/>
<path d="M96.0234 15.3473C97.4621 21.0254 99.3559 37.4689 99.756 43.6962L100.66 58.7229L78.4441 59.4939" stroke="#185229" stroke-width="2" stroke-linejoin="round"/>
<path d="M20.6008 47.3088L21.5327 60.8915C21.5327 60.8915 26.3343 19.6188 26.8639 17.2368C27.3935 14.8547 29.7021 11.4632 33.4852 10.2516C47.5222 5.75621 73.3871 5.33405 76.1302 5.23885C60.7512 3.40575 42.9093 5.00959 33.3514 6.39621C28.4068 7.11374 24.3897 10.5369 22.8511 15.2471C22.2313 17.1413 21.8926 18.9909 21.7368 20.9871L21.0774 29.4708L20.7226 37.5508L20.6008 47.3088Z" fill="#E5E1BE"/>
<path d="M20.6931 62.1809L20.607 47.3187L20.7288 37.5608L21.0835 29.4807L21.7429 20.9971C21.8987 19.0009 22.2375 17.1513 22.8573 15.257C24.3959 10.5468 28.413 7.12368 33.3577 6.40615C43.4324 5.19133 57.8829 4.39139 77.0809 4.34971" stroke="#185229" stroke-width="2" stroke-linejoin="round"/>
<path d="M56.3735 56.0619C56.5594 56.0182 57.9987 56.4915 60.4339 56.5192C62.7904 56.4373 64.4376 55.3334 64.7086 55.5857C64.9794 55.838 63.0953 57.6608 60.2124 57.6861C57.3295 57.7113 56.1876 56.1057 56.3735 56.0619Z" fill="#D6D2B2"/>
<path d="M53.3582 52.138C50.1553 48.8684 48.9737 44.0392 49.5491 39.5717C49.6171 39.0431 49.9722 38.6185 50.2838 38.3892C50.7947 38.0145 51.2933 38.0813 51.8631 38.2492C57.6076 39.9475 62.273 39.5948 67.843 37.3592C68.6485 37.0358 69.6879 37.647 69.8342 38.5466C70.5931 43.215 69.4375 48.4002 66.174 51.9374C62.7273 55.6727 56.9083 55.7639 53.3582 52.1391L53.3582 52.138Z" fill="#185229"/>
<path d="M62.2888 48.0187C63.456 48.1115 65.5804 48.3711 66.4557 49.2885C65.6561 50.6215 64.6667 51.7049 63.3178 52.5064C60.466 54.1994 56.5068 53.5901 54.2763 51.0703C55.6099 48.8823 59.9924 47.8368 62.2888 48.0187Z" fill="#FEAAA4"/>
<path d="M65.7484 42.0955C62.7563 43.5359 57.9797 43.7335 54.7826 42.8208C53.3185 42.4028 52.2944 41.3142 52.1356 39.816C57.3896 41.3835 62.3656 41.0108 67.498 39.1043C67.4438 40.3247 66.9489 41.5174 65.7484 42.0955Z" fill="#FEFEFE"/>
<path d="M68.121 38.0744C68.2629 38.0175 68.478 38.0266 68.6998 38.1583C68.9058 38.2805 69.041 38.4649 69.0835 38.6495L69.0907 38.6863C69.8198 43.1714 68.6988 48.1112 65.6195 51.4487C62.4689 54.8631 57.1602 54.9507 53.9102 51.6514C53.9045 51.6452 53.8989 51.6391 53.893 51.6331C50.8837 48.561 49.7393 43.9776 50.292 39.6867L50.292 39.6866C50.3256 39.4245 50.5209 39.1639 50.7272 39.0122C50.858 38.9164 50.9638 38.8885 51.0756 38.8846C51.211 38.8798 51.3836 38.9099 51.6476 38.9876L51.6476 38.9877C57.5675 40.7378 62.407 40.3678 68.121 38.0744Z" stroke="#185229" stroke-width="1.50216" stroke-linejoin="round"/>
<mask id="mask0_831_95079" style="mask-type:alpha" maskUnits="userSpaceOnUse" x="65" y="14" width="25" height="26">
<path d="M73.2822 39.536C73.3125 39.6239 63.1743 33.0859 65.5067 24.5917C66.7894 14.7835 90.2049 3.9316 89.7427 34.4374C81.0604 32.3283 72.9221 38.4937 73.2822 39.536Z" fill="#FE1F1F"/>
</mask>
<g mask="url(#mask0_831_95079)">
<path d="M67.1203 28.7203C67.9035 34.809 73.374 39.1554 79.3392 38.4279C85.3044 37.7005 89.5053 32.1748 88.7222 26.0861C87.939 19.9973 82.4684 15.6511 76.5033 16.3784C70.538 17.1059 66.3371 22.6315 67.1203 28.7203Z" fill="#185229"/>
<path d="M68.0667 29.5802C68.7683 35.1761 73.5457 39.1861 78.7374 38.5368C83.9292 37.8874 87.5692 32.8247 86.8676 27.2287C86.1661 21.6328 81.3887 17.6228 76.1969 18.2721C71.0052 18.9215 67.3652 23.9842 68.0667 29.5802Z" fill="#FEFEFE"/>
<path d="M77.4131 38.2281C72.859 38.7977 68.6153 34.8574 67.9346 29.4272C67.2538 23.9969 70.3938 19.1332 74.9478 18.5636C79.5019 17.994 83.7456 21.9343 84.4264 27.3645C85.1071 32.7947 81.9672 37.6585 77.4131 38.2281Z" fill="#185229"/>
<path d="M70.2693 30.9652C70.7113 34.4906 73.8138 37.0053 77.199 36.582C80.5841 36.1585 82.97 32.9574 82.5281 29.432C82.0861 25.9065 78.9836 23.3918 75.5984 23.8153C72.2133 24.2387 69.8273 27.4398 70.2693 30.9652Z" fill="#57A053"/>
<path d="M69.5451 28.3403C69.9871 31.8656 73.0895 34.3804 76.4747 33.957C79.8599 33.5335 82.2457 30.3324 81.8037 26.807C81.3618 23.2815 78.2593 20.7668 74.8742 21.1903C71.4891 21.6137 69.1031 24.8148 69.5451 28.3403Z" fill="#185229"/>
<path d="M74.9257 20.667C74.8166 20.4065 74.4426 20.4195 74.3518 20.687L73.2726 23.8654C73.2453 23.9458 73.1858 24.0113 73.1083 24.0463L70.1052 25.4034C69.8554 25.5162 69.8678 25.8746 70.1249 25.9699L73.2149 27.1156C73.2946 27.1451 73.3584 27.2063 73.3913 27.2847L74.6882 30.3806C74.7973 30.6412 75.1714 30.6282 75.2622 30.3607L76.3413 27.1823C76.3687 27.1018 76.4281 27.0364 76.5055 27.0014L79.5087 25.6442C79.7586 25.5313 79.7461 25.173 79.4891 25.0777L76.399 23.9321C76.3194 23.9026 76.2555 23.8413 76.2227 23.763L74.9257 20.667Z" fill="#FEFEFE"/>
<path d="M80.1712 29.3388C80.1199 29.2165 79.9443 29.2226 79.9017 29.3482L79.3948 30.8409C79.382 30.8787 79.354 30.9094 79.3177 30.9259L77.9072 31.5633C77.7899 31.6163 77.7958 31.7846 77.9165 31.8294L79.3677 32.3675C79.4051 32.3812 79.4352 32.41 79.4505 32.4468L80.0597 33.9008C80.1109 34.0232 80.2866 34.0171 80.3292 33.8914L80.836 32.3988C80.8489 32.361 80.8768 32.3302 80.9132 32.3138L82.3237 31.6764C82.441 31.6234 82.4352 31.4551 82.3145 31.4103L80.8632 30.8722C80.8257 30.8584 80.7958 30.8297 80.7803 30.7929L80.1712 29.3388Z" fill="#FEFEFE"/>
<path d="M72.5521 31.427C72.5338 31.3835 72.4712 31.3856 72.4562 31.4304L72.1608 32.3003C72.1562 32.3138 72.1462 32.3247 72.1333 32.3306L71.3148 32.7003C71.2731 32.7192 71.2751 32.7792 71.3181 32.7951L72.1602 33.1074C72.1735 33.1122 72.1843 33.1225 72.1898 33.1356L72.5448 33.983C72.5629 34.0266 72.6255 34.0244 72.6407 33.9797L72.9361 33.1097C72.9406 33.0963 72.9505 33.0853 72.9635 33.0795L73.7819 32.7096C73.8237 32.6907 73.8216 32.6308 73.7786 32.6148L72.9365 32.3027C72.9232 32.2977 72.9126 32.2875 72.9071 32.2744L72.5521 31.427Z" fill="#9ECF84"/>
<path d="M82.0682 26.7503C82.05 26.7067 81.9874 26.7089 81.9722 26.7536L81.778 27.3258C81.7734 27.3392 81.7635 27.3502 81.7505 27.3561L81.2103 27.6002C81.1685 27.6191 81.1706 27.679 81.2136 27.695L81.7695 27.9011C81.7828 27.9059 81.7934 27.9162 81.7989 27.9293L82.0324 28.4866C82.0506 28.5302 82.1132 28.528 82.1284 28.4833L82.3226 27.9111C82.3272 27.8977 82.3371 27.8867 82.3502 27.8809L82.8903 27.6368C82.9321 27.6179 82.93 27.558 82.887 27.542L82.3312 27.336C82.3178 27.331 82.3072 27.3207 82.3017 27.3077L82.0682 26.7503Z" fill="#9ECF84"/>
<path d="M78.3336 35.1547C78.1293 35.1802 77.942 35.0285 77.9154 34.8157C77.8887 34.6029 78.0327 34.4097 78.237 34.3842C78.4413 34.3586 78.6286 34.5104 78.6552 34.7232C78.6819 34.9359 78.5379 35.1291 78.3336 35.1547Z" fill="#9ECF84"/>
<path d="M79.8022 22.7949C79.5487 22.9998 79.1696 22.9518 78.9556 22.6878C78.7416 22.4237 78.7736 22.0436 79.0272 21.8387C79.2808 21.6338 79.6598 21.6818 79.8738 21.9459C80.0879 22.2099 80.0558 22.5901 79.8022 22.7949Z" fill="#9ECF84"/>
</g>
<mask id="mask1_831_95079" style="mask-type:alpha" maskUnits="userSpaceOnUse" x="29" y="15" width="25" height="26">
<path d="M46.5629 40.463C46.5387 40.5528 56.1993 33.3277 53.2836 25.0156C51.324 15.3199 27.2124 6.11754 29.7885 36.5179C38.3037 33.8119 46.8498 39.3983 46.5629 40.463Z" fill="#FE1F1F"/>
</mask>
<g mask="url(#mask1_831_95079)">
<path d="M51.962 29.2457C51.6028 35.374 46.4468 40.0892 40.4454 39.777C34.4442 39.4649 29.8704 34.2438 30.2294 28.1155C30.5885 21.987 35.7447 17.2719 41.7459 17.584C47.7472 17.8962 52.3211 23.1172 51.962 29.2457Z" fill="#185229"/>
<path d="M51.0614 30.1697C50.7495 35.8009 46.2616 40.1325 41.0373 39.8446C35.8131 39.5568 31.8308 34.7585 32.1427 29.1274C32.4546 23.4963 36.9425 19.1647 42.1668 19.4526C47.3911 19.7404 51.3733 24.5386 51.0614 30.1697Z" fill="#FEFEFE"/>
<path d="M42.3383 39.4445C46.9209 39.697 50.8812 35.4719 51.1838 30.0076C51.4865 24.5433 48.0169 19.9089 43.4343 19.6564C38.8517 19.4039 34.8914 23.6289 34.5887 29.0933C34.2861 34.5576 37.7557 39.192 42.3383 39.4445Z" fill="#185229"/>
<path d="M48.9676 31.7044C48.7711 35.252 45.8504 37.9758 42.444 37.7881C39.0377 37.6004 36.4355 34.5724 36.632 31.0248C36.8285 27.4772 39.7493 24.7534 43.1556 24.9412C46.5619 25.1288 49.164 28.1569 48.9676 31.7044Z" fill="#57A053"/>
<path d="M49.4885 29.0365C49.292 32.5841 46.3713 35.3078 42.9649 35.1202C39.5586 34.9324 36.9565 31.9044 37.153 28.3569C37.3494 24.8092 40.2702 22.0855 43.6765 22.2732C47.0828 22.4609 49.685 25.4889 49.4885 29.0365Z" fill="#185229"/>
<path d="M43.5929 21.7544C43.6837 21.4869 44.0577 21.4739 44.1668 21.7344L45.4638 24.8304C45.4966 24.9087 45.5605 24.9699 45.6401 24.9995L48.7301 26.1451C48.9872 26.2404 48.9996 26.5987 48.7498 26.7116L45.7466 28.0688C45.6692 28.1038 45.6097 28.1692 45.5824 28.2497L44.5032 31.4281C44.4125 31.6956 44.0384 31.7086 43.9293 31.448L42.6324 28.352C42.5995 28.2737 42.5357 28.2125 42.456 28.183L39.366 27.0373C39.1089 26.942 39.0965 26.5836 39.3463 26.4707L42.3495 25.1137C42.4269 25.0787 42.4864 25.0131 42.5137 24.9328L43.5929 21.7544Z" fill="#FEFEFE"/>
<path d="M38.9868 30.7671C39.0295 30.6415 39.2051 30.6354 39.2563 30.7577L39.8655 32.2118C39.8808 32.2486 39.9108 32.2773 39.9483 32.2912L41.3995 32.8293C41.5203 32.874 41.5261 33.0423 41.4088 33.0953L39.9983 33.7328C39.9619 33.7491 39.934 33.7799 39.9212 33.8177L39.4143 35.3104C39.3717 35.4361 39.1961 35.4422 39.1448 35.3198L38.5357 33.8658C38.5203 33.829 38.4903 33.8002 38.4528 33.7864L37.0016 33.2483C36.8808 33.2036 36.875 33.0352 36.9923 32.9822L38.4028 32.3448C38.4392 32.3284 38.4671 32.2977 38.48 32.2599L38.9868 30.7671Z" fill="#FEFEFE"/>
<path d="M46.7098 32.323C46.725 32.2782 46.7876 32.276 46.8058 32.3196L47.1608 33.167C47.1663 33.1801 47.177 33.1903 47.1903 33.1953L48.0324 33.5074C48.0754 33.5234 48.0775 33.5833 48.0357 33.6022L47.2173 33.9721C47.2043 33.9778 47.1943 33.9889 47.1898 34.0022L46.8944 34.8723C46.8793 34.917 46.8167 34.9192 46.7984 34.8756L46.4434 34.0281C46.438 34.0151 46.4273 34.0048 46.414 33.9999L45.5719 33.6877C45.5289 33.6717 45.5269 33.6118 45.5686 33.5929L46.3871 33.2232C46.4 33.2173 46.4099 33.2064 46.4145 33.1929L46.7098 32.323Z" fill="#9ECF84"/>
<path d="M36.8899 28.3181C36.9051 28.2733 36.9677 28.2712 36.986 28.3147L37.2194 28.8721C37.2249 28.8853 37.2355 28.8954 37.2489 28.9004L37.8047 29.1065C37.8477 29.1224 37.8498 29.1824 37.808 29.2012L37.2678 29.4454C37.2548 29.4512 37.2449 29.4621 37.2404 29.4755L37.0461 30.0478C37.0309 30.0925 36.9683 30.0947 36.9501 30.0511L36.7166 29.4937C36.7111 29.4807 36.7004 29.4705 36.6871 29.4655L36.1313 29.2594C36.0883 29.2435 36.0862 29.1836 36.128 29.1647L36.6682 28.9206C36.6811 28.9147 36.6911 28.9038 36.6957 28.8903L36.8899 28.3181Z" fill="#9ECF84"/>
<path d="M41.208 36.4424C41.4135 36.4537 41.5898 36.2893 41.6017 36.0752C41.6135 35.8611 41.4565 35.6783 41.2509 35.667C41.0453 35.6557 40.869 35.8201 40.8572 36.0342C40.8453 36.2483 41.0024 36.431 41.208 36.4424Z" fill="#9ECF84"/>
<path d="M38.886 24.214C39.1532 24.4008 39.528 24.3267 39.7232 24.0484C39.9184 23.7702 39.86 23.3932 39.5929 23.2064C39.3257 23.0196 38.9509 23.0937 38.7557 23.372C38.5605 23.6502 38.6188 24.0272 38.886 24.214Z" fill="#9ECF84"/>
</g>
<path d="M85.7262 53.6092C80.4073 53.7938 75.9639 50.1554 75.8018 45.4827C75.6396 40.81 79.82 36.8724 85.1389 36.6878C90.4578 36.5032 94.9011 40.1415 95.0633 44.8142C95.2255 49.4869 91.0451 53.4246 85.7262 53.6092Z" fill="#FEAAA4"/>
<path d="M88.9307 41.0612C87.8577 40.5033 87.2539 39.541 87.5821 38.9119C87.9103 38.2827 89.0462 38.225 90.1192 38.7829C91.1923 39.3407 91.7961 40.303 91.4679 40.9321C91.1397 41.5613 90.0038 41.619 88.9307 41.0612Z" fill="#FFFDEA"/>
<path d="M73.2805 39.5079C73.3108 39.5957 73.5039 39.7074 73.8054 39.4294C79.0798 35.6632 84.2197 34.6009 89.403 34.6861C89.8646 34.6937 89.8729 34.4413 89.7411 34.4092C81.0587 32.3001 72.9205 38.4656 73.2805 39.5079Z" fill="#185229"/>
<path d="M34.8091 55.3762C40.128 55.1916 44.3084 51.254 44.1462 46.5813C43.9841 41.9085 39.5408 38.2702 34.2218 38.4548C28.9029 38.6394 24.7225 42.577 24.8847 47.2498C25.0469 51.9225 29.4902 55.5608 34.8091 55.3762Z" fill="#FEAAA4"/>
<path d="M30.7413 43.0812C31.7731 42.4503 32.3087 41.4485 31.9377 40.8436C31.5667 40.2388 30.4295 40.2599 29.3977 40.8908C28.366 41.5217 27.8303 42.5235 28.2013 43.1284C28.5724 43.7333 29.7096 43.7122 30.7413 43.0812Z" fill="#FFFDEA"/>
<path d="M46.5655 40.4349C46.5413 40.5245 46.3565 40.6494 46.0364 40.3929C40.5136 37.0015 35.3124 36.2981 30.1474 36.7425C29.6875 36.782 29.6617 36.5308 29.791 36.4897C38.3063 33.7837 46.8524 39.3702 46.5655 40.4349Z" fill="#185229"/>
<path d="M82.1374 13.556C81.7766 13.9368 80.0255 12.9165 79.1863 12.5671C75.4315 11.005 73.3595 12.9652 72.6232 11.7045C72.4124 11.3436 72.4708 10.8061 72.8409 10.4866C73.1641 10.2087 73.6339 9.97802 74.0991 9.88494C76.9876 9.30773 79.9901 10.2693 81.9567 12.4361C82.2355 12.7433 82.4585 13.2167 82.1373 13.555L82.1374 13.556Z" fill="#185229"/>
<path d="M43.7255 13.159C38.888 12.4601 36.6623 15.7346 35.7599 15.1351C34.7861 14.4878 38.3727 10.3127 43.4476 10.8956C43.9613 10.9547 44.4626 11.1578 44.8282 11.4518C45.269 11.8078 45.3775 12.477 44.9422 12.8695C44.6473 13.1362 44.1355 13.2186 43.7245 13.159L43.7255 13.159Z" fill="#185229"/>
<path d="M121.738 42.1422C120.911 41.8609 114.845 43.8153 113.924 43.8046C104.631 44.4257 99.2113 34.7659 105.124 27.3873L105.832 26.5282C106.656 25.6751 107.511 25.3329 108.286 24.505C109.267 23.4571 109.86 22.5439 110.882 21.5125C111.465 20.9247 112.147 20.4882 112.941 20.2401C114.697 19.6914 116.31 20.3279 117.161 21.9767C117.868 23.4005 116.646 25.025 115.724 26.4748C117.404 25.8298 119.402 24.9661 120.699 24.5652C122.831 23.7831 126.773 21.9637 127.875 24.8343C129.053 27.9025 123.824 28.9868 121.09 30.4335C124.208 30.3919 129.999 28.9774 130.673 32.1224C131.536 36.1503 123.962 35.8169 121.112 36.2018C123.34 37.2976 129.972 36.989 129.137 40.9877C128.031 43.472 124.151 42.9638 121.738 42.1422Z" fill="#78BA68"/>
<path d="M113.924 43.8046L113.874 43.0563L113.903 43.0543L113.932 43.0547L113.924 43.8046ZM121.738 42.1422L121.98 41.4322L121.98 41.4323L121.738 42.1422ZM115.724 26.4748L115.993 27.1749L113.873 27.9887L115.091 26.0724L115.724 26.4748ZM117.161 21.9767L117.827 21.6329L117.832 21.643L117.161 21.9767ZM112.941 20.2401L112.717 19.5243L112.717 19.5242L112.941 20.2401ZM110.882 21.5125L110.349 20.9847L110.349 20.9845L110.882 21.5125ZM108.286 24.505L107.738 23.9925L107.738 23.9924L108.286 24.505ZM105.832 26.5282L105.253 26.0515L105.272 26.0284L105.292 26.0069L105.832 26.5282ZM105.124 27.3873L104.539 26.9182L104.545 26.9106L105.124 27.3873ZM129.137 40.9877L129.871 41.1411L129.855 41.2196L129.822 41.2928L129.137 40.9877ZM121.112 36.2018L120.781 36.8748C120.485 36.7292 120.319 36.4071 120.372 36.0813C120.425 35.7555 120.684 35.5028 121.012 35.4586L121.112 36.2018ZM130.673 32.1224L131.406 31.9652V31.9652L130.673 32.1224ZM121.09 30.4335L121.1 31.1834C120.753 31.188 120.449 30.9547 120.363 30.619C120.277 30.2833 120.433 29.9325 120.739 29.7705L121.09 30.4335ZM120.699 24.5652L120.957 25.2694L120.939 25.276L120.92 25.2818L120.699 24.5652ZM113.924 43.8046L113.932 43.0547C113.929 43.0546 113.937 43.0548 113.959 43.0529C113.981 43.051 114.01 43.0476 114.048 43.0422C114.124 43.0313 114.221 43.014 114.341 42.9897C114.58 42.9411 114.884 42.8699 115.236 42.7821C115.942 42.606 116.8 42.3747 117.677 42.1462C118.545 41.9201 119.426 41.698 120.147 41.5501C120.506 41.4764 120.841 41.4178 121.123 41.3876C121.263 41.3725 121.403 41.3631 121.534 41.3647C121.653 41.3662 121.817 41.3769 121.98 41.4322L121.738 42.1422L121.497 42.8523C121.556 42.8724 121.576 42.8654 121.515 42.8646C121.465 42.864 121.389 42.8676 121.283 42.879C121.071 42.9018 120.789 42.9497 120.449 43.0195C119.77 43.1586 118.923 43.3717 118.055 43.5977C117.197 43.8213 116.314 44.059 115.599 44.2375C115.239 44.3271 114.911 44.4046 114.639 44.4597C114.39 44.5103 114.121 44.557 113.915 44.5546L113.924 43.8046ZM115.724 26.4748L115.091 26.0724C115.58 25.3041 116.064 24.6118 116.365 23.9173C116.66 23.2378 116.699 22.733 116.489 22.3104L117.161 21.9767L117.832 21.643C118.33 22.6442 118.111 23.6635 117.741 24.5147C117.378 25.3508 116.79 26.1957 116.357 26.8771L115.724 26.4748ZM117.161 21.9767L116.494 22.3205C116.141 21.637 115.653 21.2009 115.108 20.979C114.561 20.7564 113.899 20.7264 113.164 20.956L112.941 20.2401L112.717 19.5242C113.739 19.2051 114.762 19.219 115.673 19.5896C116.586 19.961 117.329 20.6675 117.827 21.6329L117.161 21.9767ZM112.941 20.2401L113.165 20.9559C112.498 21.1642 111.919 21.5312 111.415 22.0404L110.882 21.5125L110.349 20.9845C111.01 20.3181 111.796 19.8121 112.717 19.5243L112.941 20.2401ZM110.882 21.5125L111.415 22.0403C110.931 22.5288 110.546 22.9914 110.15 23.477C109.756 23.9592 109.345 24.4713 108.833 25.0176L108.286 24.505L107.738 23.9924C108.208 23.4909 108.584 23.0224 108.988 22.5281C109.389 22.0373 109.812 21.5275 110.349 20.9847L110.882 21.5125ZM108.286 24.505L108.833 25.0175C108.389 25.4927 107.924 25.8242 107.514 26.1173C107.096 26.4162 106.729 26.6787 106.371 27.0495L105.832 26.5282L105.292 26.0069C105.759 25.5246 106.232 25.1895 106.641 24.897C107.059 24.5987 107.408 24.3452 107.738 23.9925L108.286 24.505ZM105.124 27.3873L104.545 26.9106L105.253 26.0515L105.832 26.5282L106.411 27.0049L105.703 27.864L105.124 27.3873ZM105.124 27.3873L105.71 27.8563C102.939 31.3131 102.85 35.2466 104.48 38.2368C106.114 41.2336 109.512 43.3478 113.874 43.0563L113.924 43.8046L113.974 44.5529C109.042 44.8826 105.084 42.4773 103.163 38.9549C101.239 35.4258 101.396 30.8401 104.539 26.9183L105.124 27.3873ZM121.738 42.1422L121.98 41.4323C123.132 41.8246 124.604 42.1293 125.885 42.0559C127.176 41.9819 128.067 41.5477 128.452 40.6827L129.137 40.9877L129.822 41.2928C129.101 42.912 127.498 43.4659 125.97 43.5535C124.431 43.6417 122.757 43.2814 121.496 42.8522L121.738 42.1422ZM129.137 40.9877L128.403 40.8344C128.563 40.0678 128.369 39.595 128.013 39.2318C127.608 38.8188 126.937 38.4931 126.054 38.2234C125.182 37.9569 124.216 37.7763 123.274 37.5845C122.376 37.4019 121.441 37.1997 120.781 36.8748L121.112 36.2018L121.443 35.5288C121.896 35.7519 122.626 35.922 123.573 36.1147C124.475 36.2982 125.533 36.4957 126.492 36.7889C127.442 37.0789 128.411 37.4942 129.085 38.1823C129.807 38.9201 130.129 39.9083 129.871 41.1411L129.137 40.9877ZM130.673 32.1224L129.94 32.2795C129.83 31.7668 129.531 31.4391 129.022 31.2097C128.475 30.9633 127.712 30.8494 126.785 30.8328C125.869 30.8165 124.868 30.8951 123.875 30.9845C122.902 31.0721 121.916 31.1725 121.1 31.1834L121.09 30.4335L121.08 29.6835C121.823 29.6736 122.73 29.5816 123.741 29.4906C124.732 29.4013 125.806 29.3151 126.812 29.3331C127.806 29.3508 128.812 29.4703 129.638 29.8419C130.501 30.2306 131.179 30.9054 131.406 31.9652L130.673 32.1224ZM121.112 36.2018L121.012 35.4586C121.752 35.3586 122.809 35.3037 123.871 35.2207C124.962 35.1354 126.107 35.0181 127.125 34.7955C128.161 34.5689 128.967 34.2532 129.457 33.8348C129.69 33.635 129.839 33.4231 129.918 33.1938C129.997 32.9652 130.024 32.671 129.94 32.2795L130.673 32.1224L131.406 31.9652C131.538 32.5807 131.517 33.1572 131.336 33.6829C131.155 34.2078 130.831 34.6337 130.431 34.9751C129.654 35.6391 128.551 36.0192 127.445 36.2609C126.321 36.5066 125.092 36.6299 123.988 36.7162C122.855 36.8048 121.897 36.8526 121.212 36.9451L121.112 36.2018ZM121.09 30.4335L120.739 29.7705C121.462 29.3879 122.342 29.0332 123.183 28.6863C124.044 28.3314 124.878 27.9798 125.585 27.5865C126.303 27.1873 126.804 26.7905 127.071 26.3866C127.304 26.033 127.383 25.644 127.175 25.1031L127.875 24.8343L128.575 24.5655C128.957 25.5587 128.823 26.4558 128.322 27.2137C127.855 27.9212 127.098 28.4611 126.314 28.8974C125.519 29.3395 124.607 29.722 123.755 30.0731C122.884 30.4324 122.085 30.7556 121.441 31.0964L121.09 30.4335ZM127.875 24.8343L127.175 25.1031C126.971 24.5726 126.667 24.3088 126.313 24.1686C125.925 24.015 125.409 23.9847 124.777 24.0728C123.491 24.2521 122.086 24.8552 120.957 25.2694L120.699 24.5652L120.44 23.8611C121.444 23.4932 123.076 22.7955 124.57 22.5872C125.327 22.4816 126.137 22.4857 126.865 22.7739C127.626 23.0754 128.228 23.6607 128.575 24.5655L127.875 24.8343ZM120.699 24.5652L120.92 25.2818C119.654 25.6734 117.729 26.5087 115.993 27.1749L115.724 26.4748L115.455 25.7746C117.08 25.1509 119.151 24.2588 120.477 23.8487L120.699 24.5652Z" fill="#185229"/>
<path d="M105.851 27.6723C102.863 31.1554 102.583 35.2985 104.268 38.4017C106.402 42.3316 111.046 44.2023 115.28 43.0726C117.302 42.5332 119.382 42.0804 121.353 41.376C115.795 41.6181 108.429 43.2784 105.828 35.7962C104.069 33.1766 104.702 29.5499 105.851 27.6723Z" fill="#39763D"/>
<path d="M117.779 36.5393C117.94 33.8876 115.332 30.1626 113.71 29.6209" stroke="#185229" stroke-width="0.99774"/>
<path d="M110.694 43.1835C107.735 43.2736 104.548 40.9702 103.383 38.8342C101.919 36.1487 101.687 32.8303 103.123 29.6746C103.526 28.7893 105.006 28.1401 105.681 27.298C103.997 29.8458 102.77 32.6628 105.855 35.7884C104.776 38.2994 107.492 42.6032 110.694 43.1835Z" fill="#185229"/>
<path d="M-0.994789 49.1163C-0.201574 48.7501 6.03546 50.0597 6.95071 49.9528C16.2573 49.5991 20.6377 39.4257 13.9858 32.7056L13.1926 31.9251C12.2831 31.1629 11.3974 30.9119 10.5404 30.1696C9.45511 29.23 8.76933 28.3838 7.64547 27.4648C7.00461 26.9411 6.28016 26.5784 5.4651 26.4146C3.6609 26.0525 2.12331 26.8541 1.44997 28.5828C0.895249 30.0727 2.28063 31.5606 3.34874 32.906C1.61037 32.4402 -0.46715 31.7901 -1.79806 31.527C-4.00088 30.972 -8.11155 29.5747 -8.90736 32.5447C-9.75798 35.7192 -4.44457 36.251 -1.57378 37.4039C-4.67971 37.6885 -10.5865 36.8871 -10.9279 40.0853C-11.3652 44.1814 -3.86755 43.0581 -0.992818 43.143C-3.0943 44.4657 -9.72231 44.852 -8.4736 48.7415C-7.11383 51.0966 -3.30813 50.1856 -0.994789 49.1163Z" fill="#78BA68"/>
<path d="M6.95071 49.9528L6.92224 49.2033L6.89286 49.2044L6.86365 49.2078L6.95071 49.9528ZM-0.994789 49.1163L-1.30917 48.4354L-1.30947 48.4355L-0.994789 49.1163ZM3.34874 32.906L3.15463 33.6305L5.34803 34.2182L3.93615 32.4397L3.34874 32.906ZM1.44997 28.5828L0.751034 28.3105L0.747106 28.3211L1.44997 28.5828ZM5.4651 26.4146L5.61284 25.6793L5.61267 25.6793L5.4651 26.4146ZM7.64547 27.4648L8.12021 26.8842L8.12005 26.8841L7.64547 27.4648ZM10.5404 30.1696L11.0314 29.6027L11.0313 29.6026L10.5404 30.1696ZM13.1926 31.9251L13.7186 31.3905L13.6973 31.3695L13.6743 31.3503L13.1926 31.9251ZM13.9858 32.7056L14.5189 32.1779L14.5118 32.171L13.9858 32.7056ZM-8.4736 48.7415L-9.1877 48.9708L-9.16319 49.0471L-9.1231 49.1166L-8.4736 48.7415ZM-0.992818 43.143L-0.593304 43.7777C-0.313984 43.6019 -0.182421 43.2642 -0.269219 42.9458C-0.356017 42.6273 -0.640772 42.4031 -0.970671 42.3933L-0.992818 43.143ZM-10.9279 40.0853L-11.6737 40.0057V40.0057L-10.9279 40.0853ZM-1.57378 37.4039L-1.50534 38.1508C-1.1603 38.1192 -0.881828 37.8553 -0.831677 37.5125C-0.781525 37.1696 -0.972746 36.8371 -1.29427 36.708L-1.57378 37.4039ZM-1.79806 31.527L-1.98127 32.2542L-1.96252 32.259L-1.94355 32.2627L-1.79806 31.527ZM6.95071 49.9528L6.86365 49.2078C6.86703 49.2074 6.85933 49.2085 6.83665 49.2089C6.81503 49.2092 6.7857 49.209 6.74764 49.2075C6.67097 49.2046 6.57212 49.1976 6.45053 49.1859C6.20731 49.1627 5.8983 49.1235 5.53904 49.073C4.81803 48.9717 3.94056 48.8314 3.04441 48.6958C2.15793 48.5616 1.25795 48.4329 0.525745 48.3611C0.160774 48.3254 -0.178545 48.3021 -0.46151 48.3015C-0.602849 48.3012 -0.743156 48.3064 -0.872724 48.3217C-0.990729 48.3356 -1.15332 48.3634 -1.30917 48.4354L-0.994789 49.1163L-0.680411 49.7973C-0.737107 49.8234 -0.758015 49.8186 -0.697064 49.8114C-0.647678 49.8056 -0.571757 49.8013 -0.464851 49.8015C-0.251326 49.802 0.0339097 49.8201 0.379506 49.854C1.06844 49.9215 1.93364 50.0448 2.81999 50.1789C3.69665 50.3115 4.59963 50.4557 5.33027 50.5584C5.69683 50.6099 6.03144 50.6527 6.3076 50.6791C6.56093 50.7034 6.83355 50.7216 7.03777 50.6977L6.95071 49.9528ZM3.34874 32.906L3.93615 32.4397C3.37007 31.7267 2.81628 31.0888 2.44374 30.4296C2.07927 29.7847 1.9882 29.2866 2.15283 28.8445L1.44997 28.5828L0.747106 28.3211C0.357016 29.3688 0.681273 30.3597 1.13785 31.1676C1.58634 31.9612 2.2593 32.74 2.76134 33.3724L3.34874 32.906ZM1.44997 28.5828L2.14883 28.855C2.42793 28.1384 2.86791 27.6537 3.38717 27.376C3.90808 27.0974 4.56274 26.9985 5.31753 27.1499L5.4651 26.4146L5.61267 25.6793C4.56326 25.4687 3.54702 25.5895 2.67975 26.0533C1.81084 26.518 1.14535 27.2984 0.751113 28.3106L1.44997 28.5828ZM5.4651 26.4146L5.31736 27.1499C6.00161 27.2874 6.61575 27.5919 7.17089 28.0456L7.64547 27.4648L8.12005 26.8841C7.39346 26.2903 6.5587 25.8693 5.61284 25.6793L5.4651 26.4146ZM7.64547 27.4648L7.17072 28.0454C7.70308 28.4807 8.13411 28.9005 8.57928 29.342C9.02135 29.7804 9.48363 30.2467 10.0494 30.7366L10.5404 30.1696L11.0313 29.6026C10.5118 29.1528 10.0886 28.7263 9.63551 28.2769C9.18551 27.8306 8.71172 27.3679 8.12021 26.8842L7.64547 27.4648ZM10.5404 30.1696L10.0493 30.7365C10.5413 31.1626 11.0385 31.4437 11.4768 31.6923C11.9239 31.9459 12.3155 32.1687 12.7108 32.5L13.1926 31.9251L13.6743 31.3503C13.1602 30.9194 12.6542 30.6356 12.2168 30.3875C11.7706 30.1345 11.3965 29.9189 11.0314 29.6027L10.5404 30.1696ZM13.9858 32.7056L14.5118 32.171L13.7186 31.3905L13.1926 31.9251L12.6666 32.4598L13.4598 33.2402L13.9858 32.7056ZM13.9858 32.7056L13.4528 33.2332C16.5691 36.3815 17.0693 40.2841 15.7603 43.4283C14.4484 46.5796 11.2901 49.0373 6.92224 49.2033L6.95071 49.9528L6.97919 50.7022C11.9179 50.5146 15.6031 47.7088 17.1451 44.0049C18.69 40.2939 18.0544 35.7498 14.5189 32.178L13.9858 32.7056ZM-0.994789 49.1163L-1.30947 48.4355C-2.41416 48.9462 -3.84619 49.403 -5.12738 49.4639C-6.41996 49.5253 -7.3506 49.1866 -7.82409 48.3665L-8.4736 48.7415L-9.1231 49.1166C-8.23683 50.6515 -6.58473 51.0348 -5.05619 50.9622C-3.51625 50.889 -1.88876 50.3558 -0.680108 49.7971L-0.994789 49.1163ZM-8.4736 48.7415L-7.75949 48.5123C-7.99888 47.7666 -7.85506 47.2761 -7.53928 46.8777C-7.18025 46.4248 -6.54636 46.0306 -5.69665 45.6702C-4.85682 45.3139 -3.91525 45.0333 -2.99829 44.7441C-2.12466 44.4686 -1.21629 44.1699 -0.593304 43.7777L-0.992818 43.143L-1.39233 42.5083C-1.82009 42.7775 -2.52827 43.0231 -3.44942 43.3135C-4.32723 43.5904 -5.35864 43.8974 -6.28241 44.2893C-7.19629 44.6769 -8.11662 45.1913 -8.71481 45.946C-9.35625 46.7553 -9.57266 47.7717 -9.1877 48.9708L-8.4736 48.7415ZM-10.9279 40.0853L-10.1822 40.1649C-10.1265 39.6436 -9.86404 39.2864 -9.38138 39.0051C-8.86283 38.7028 -8.11588 38.5097 -7.19584 38.3964C-6.28662 38.2844 -5.2831 38.258 -4.28647 38.2431C-3.30971 38.2286 -2.31854 38.2253 -1.50534 38.1508L-1.57378 37.4039L-1.64222 36.6571C-2.38199 36.7248 -3.29388 36.7282 -4.30885 36.7433C-5.30396 36.7582 -6.38084 36.7847 -7.37923 36.9076C-8.36681 37.0293 -9.35469 37.2533 -10.1368 37.7092C-10.9547 38.1859 -11.5586 38.9279 -11.6737 40.0057L-10.9279 40.0853ZM-0.992818 43.143L-0.970671 42.3933C-1.71721 42.3713 -2.77497 42.4273 -3.83946 42.4557C-4.93355 42.4849 -6.08387 42.4878 -7.11968 42.3729C-8.17409 42.2559 -9.00873 42.0261 -9.53931 41.6612C-9.79265 41.487 -9.96229 41.2917 -10.0649 41.0719C-10.1672 40.8529 -10.2247 40.563 -10.1822 40.1649L-10.9279 40.0853L-11.6737 40.0057C-11.7405 40.6316 -11.6593 41.2027 -11.4241 41.7065C-11.1892 42.2096 -10.8223 42.5993 -10.3893 42.8971C-9.54725 43.4763 -8.40979 43.739 -7.28511 43.8638C-6.14181 43.9906 -4.90603 43.9847 -3.79944 43.9552C-2.66327 43.9248 -1.70579 43.8723 -1.01497 43.8927L-0.992818 43.143ZM-1.57378 37.4039L-1.29427 36.708C-2.05344 36.4031 -2.96569 36.1422 -3.83858 35.8852C-4.73186 35.6223 -5.59779 35.3597 -6.34201 35.0425C-7.0974 34.7205 -7.63732 34.3782 -7.94501 34.0044C-8.21442 33.6771 -8.33289 33.2985 -8.18292 32.7388L-8.90736 32.5447L-9.63181 32.3506C-9.90714 33.3781 -9.68042 34.2564 -9.10309 34.9578C-8.56405 35.6126 -7.75568 36.0705 -6.9302 36.4224C-6.09353 36.779 -5.14601 37.064 -4.26219 37.3242C-3.35798 37.5904 -2.52952 37.8283 -1.85329 38.0999L-1.57378 37.4039ZM-8.90736 32.5447L-8.18292 32.7388C-8.03586 32.19 -7.76077 31.8959 -7.42308 31.7193C-7.0534 31.526 -6.54372 31.442 -5.9057 31.4636C-4.60797 31.5075 -3.14782 31.9604 -1.98127 32.2542L-1.79806 31.527L-1.61485 30.7997C-2.65111 30.5386 -4.34772 30.0154 -5.85498 29.9644C-6.61945 29.9385 -7.42433 30.0273 -8.11806 30.39C-8.84379 30.7694 -9.38096 31.4144 -9.63181 32.3506L-8.90736 32.5447ZM-1.79806 31.527L-1.94355 32.2627C-0.643176 32.5199 1.35876 33.1493 3.15463 33.6305L3.34874 32.906L3.54286 32.1816C1.86197 31.7312 -0.291125 31.0604 -1.65256 30.7912L-1.79806 31.527Z" fill="#185229"/>
<path d="M13.2928 33.0645C16.629 36.2161 17.3396 40.3073 15.9883 43.5697C14.2771 47.7011 9.85446 50.0469 5.52536 49.366C3.45786 49.0409 1.34163 48.808 -0.691772 48.3135C4.86075 47.9734 12.3601 48.8545 14.1649 41.1415C15.6406 38.3524 14.6318 34.8117 13.2928 33.0645Z" fill="#39763D"/>
<path d="M2.3567 43.1302C1.91971 40.5098 4.12448 36.5326 5.68052 35.8244" stroke="#185229" stroke-width="0.99774"/>
<path d="M10.0983 48.9976C13.0497 48.7781 15.9789 46.1541 16.9139 43.9081C18.0895 41.0842 17.9733 37.7597 16.2155 34.7714C15.7224 33.9331 14.1819 33.4422 13.4228 32.6753C15.3638 35.0331 16.8788 37.7064 14.1377 41.1373C15.4724 43.5218 13.2216 48.0859 10.0983 48.9976Z" fill="#185229"/>
</svg>
