<svg overflow="visible" width="146" height="130" viewBox="-15 -15 146 130" fill="none" xmlns="http://www.w3.org/2000/svg">
<path d="M53.5432 91.1193C53.4615 90.5241 53.2751 75.9526 53.3857 75.3989L32.0659 74.5046L32.3937 89.1539C31.4452 89.715 30.6708 90.2867 29.8421 91.0409C27.5521 93.1242 26.5213 97.6102 28.1015 100.437C28.898 101.86 30.5264 102.838 32.1181 103.387C37.4156 105.217 43.351 105.1 48.6695 103.423C51.1241 102.648 52.903 101.016 53.563 98.4997C54.1087 96.4201 53.8364 93.2544 53.5432 91.1193Z" fill="#39763D"/>
<path d="M54.7242 75.6663C53.8319 75.488 52.9395 75.3098 52.0471 75.1316C51.9387 77.3543 52.0323 78.7158 52.0433 80.4926C52.1132 84.0901 52.1437 87.4444 52.3216 91.287C52.6481 93.6384 52.8939 96.1527 52.4305 98.2025C51.959 100.219 50.3978 101.721 48.3356 102.364C43.2185 104.024 37.5408 104.182 32.4344 102.472C30.9814 101.983 29.5771 101.144 28.9096 99.9847C27.5535 97.5132 28.33 93.6796 30.4077 91.6627C31.1501 90.971 31.9378 90.3759 32.8081 89.8543L33.2141 89.6187L33.2073 89.1357C33.0571 84.2535 32.9068 79.3713 32.7566 74.4891L32.0369 75.1949C37.4521 75.3766 42.8673 75.5582 48.2825 75.7399C49.9764 75.7967 51.6703 75.8535 53.3642 75.9104C53.3785 75.5694 53.3928 75.2285 53.4071 74.8875C51.7144 74.8023 50.0217 74.717 48.329 74.6318C42.9176 74.3593 37.5062 74.0868 32.0948 73.8143L31.3527 73.7894L31.3751 74.5201C31.4435 79.4041 31.5118 84.2881 31.5801 89.1721L31.9794 88.4534C31.0209 89.0046 30.0969 89.6784 29.2764 90.4193C26.5463 93.1316 25.5385 97.2571 27.2933 100.889C28.3381 102.711 30.0892 103.675 31.802 104.303C37.3298 106.254 43.435 106.181 49.0034 104.481C51.5874 103.774 54.0428 101.557 54.6955 98.7967C55.3489 96.0033 55.0513 93.4831 54.7649 90.9515C54.6938 87.7116 54.6908 83.9649 54.6879 80.4718C54.6878 78.8643 54.6989 76.8068 54.7242 75.6663ZM52.0471 75.1316L54.7242 75.6663L54.8637 74.9364L53.4071 74.8875L53.3642 75.9104L52.0471 75.1316Z" fill="#185229"/>
<path d="M43.9706 103.584C45.7969 103.073 49.9145 100.126 48.1988 97.1842C46.483 94.2421 36.5003 92.2345 31.9149 93.9062C28.4665 95.5331 28.1798 95.5371 28.1817 97.1837C28.5201 100.115 29.5473 100.685 31.0061 101.989C33.8088 103.718 40.9027 104.288 43.9706 103.584Z" fill="#78BA68"/>
<ellipse cx="32.7397" cy="94.1977" rx="1.49802" ry="1.92545" transform="rotate(44.502 32.7397 94.1977)" fill="#9ECF84"/>
<path d="M63.8244 91.1211C63.9062 90.526 64.2027 77.8445 64.0921 77.2909L85.302 76.4345L84.974 89.1558C85.9225 89.7168 86.6969 90.2886 87.5256 91.0428C89.8156 93.1261 90.8464 97.612 89.2662 100.439C88.4697 101.862 86.8413 102.839 85.2496 103.389C79.9521 105.219 74.0167 105.102 68.6981 103.425C66.2435 102.65 64.4647 101.018 63.8047 98.5016C63.259 96.4219 63.5313 93.2562 63.8244 91.1211Z" fill="#39763D"/>
<path d="M62.7535 77.5582C63.6459 77.38 64.5383 77.2017 65.4307 77.0235C65.5307 79.2013 65.4186 80.484 65.3922 82.2002C65.3013 85.2307 65.2463 88.0446 65.0571 91.2904C64.7298 93.6409 64.4836 96.155 64.9456 98.2022C65.4157 100.216 66.9733 101.717 69.034 102.36C74.1493 104.022 79.8262 104.182 84.9331 102.473C86.3862 101.985 87.7908 101.147 88.4591 99.9871C89.8165 97.5153 89.0417 93.6808 86.9631 91.6611C86.2207 90.969 85.4329 90.3734 84.5625 89.8513L84.1579 89.6167L84.1661 89.1349C84.3124 84.8955 84.4587 80.656 84.6051 76.4165L85.3301 77.131C79.8862 77.3033 74.4424 77.4755 68.9986 77.6477C67.37 77.6993 65.7414 77.7508 64.1128 77.8023C64.099 77.4613 64.0852 77.1204 64.0715 76.7794C65.6989 76.6995 67.3264 76.6195 68.9538 76.5396C74.3938 76.2724 79.8338 76.0052 85.2738 75.7379L86.0243 75.7142L85.9988 76.4525C85.9265 80.6938 85.8542 84.9352 85.7819 89.1766L85.3854 88.4602C86.3438 89.0108 87.2676 89.6841 88.0882 90.4246C90.8174 93.1341 91.8269 97.2587 90.0734 100.89C89.0294 102.712 87.2786 103.677 85.5659 104.305C80.0385 106.258 73.9326 106.188 68.3624 104.489C65.7768 103.782 63.3178 101.563 62.6638 98.8008C62.0091 96.0047 62.3061 93.4843 62.5917 90.9519C62.6825 88.2552 62.7165 85.0873 62.748 82.1525C62.7635 80.6122 62.7703 78.6096 62.7535 77.5582ZM65.4307 77.0235L62.7535 77.5582L62.6139 76.8256L64.0715 76.7794L64.1128 77.8023L65.4307 77.0235Z" fill="#185229"/>
<path d="M73.3956 103.584C71.5693 103.073 67.4517 100.126 69.1674 97.1842C70.8832 94.2421 80.8659 92.2345 85.4514 93.9062C88.8998 95.5331 89.1864 95.5371 89.1845 97.1837C88.8461 100.115 87.8189 100.685 86.3601 101.989C83.5574 103.718 76.4635 104.288 73.3956 103.584Z" fill="#78BA68"/>
<ellipse cx="1.49802" cy="1.92545" rx="1.49802" ry="1.92545" transform="matrix(-0.713227 0.700934 0.700934 0.713227 84.3453 91.7744)" fill="#9ECF84"/>
<path d="M43.4695 76.9463L30.176 76.7191C28.7827 76.6955 27.5115 76.5269 26.186 76.2001C23.04 75.4241 20.51 73.3057 19.2235 70.3312C18.5324 68.733 18.2439 67.0751 18.1402 65.3268C18.0201 63.3019 17.9595 61.4056 18.018 59.3623L18.4472 44.4732L18.9072 34.7038L19.5418 26.623L20.4946 18.1486C20.7195 16.1547 21.122 14.3138 21.8068 12.438C23.5072 7.77378 27.6389 4.48475 32.6033 3.93794C42.1994 2.88134 66.8942 2.73231 76.6023 3.41581L82.6633 3.84236C86.5444 4.11576 90.1063 6.03573 92.3909 9.20348C93.661 10.9652 94.4146 12.9376 94.8726 15.0549C96.1129 20.7922 97.2885 37.3309 97.4723 43.5821L97.9754 60.6923C98.0216 62.2577 97.9364 63.6894 97.8615 65.227C97.8019 66.4409 97.6284 67.5715 97.3255 68.7412C96.3891 72.355 93.6723 75.1589 90.0642 76.1538C88.6236 76.5516 87.2365 76.7222 85.6933 76.7387L62.1033 76.9936L43.4716 76.9463H43.4695Z" fill="#FFFDEA" stroke="#185229" stroke-width="2" stroke-linejoin="round"/>
<path d="M30.1785 76.9094L43.472 77.1365H43.4741L62.1058 77.1838L85.6957 76.9289C87.239 76.9125 88.6261 76.7418 90.0667 76.3441C93.6747 75.3491 96.3916 72.5452 97.328 68.9314C97.6309 67.7618 97.8044 66.6311 97.8639 65.4173C97.9721 63.1989 97.9779 60.989 97.9779 58.7693L95.7077 58.7539L81.6229 58.7693C67.3979 74.3969 35.446 73.84 19.226 70.5215C20.5125 73.496 23.0424 75.6143 26.1885 76.3903C27.514 76.7172 28.7851 76.8857 30.1785 76.9094Z" fill="#E5E1BE"/>
<path d="M33.1032 65.2106C31.4378 65.301 29.8514 64.9804 28.8226 63.5517C28.0792 62.52 27.7135 60.9375 27.5834 59.5977H88.4592C88.2929 60.9338 87.8391 62.5496 87.0875 63.5579C86.0155 64.9958 84.4641 65.3165 82.7884 65.2178L33.1032 65.2106Z" fill="#D6D2B2"/>
<path d="M27.5834 59.5625C27.5834 59.5625 27.5855 59.5844 27.5866 59.5954C27.7166 60.9353 28.0824 62.5177 28.8258 63.5494C29.8546 64.9781 31.4409 65.2988 33.1064 65.2083L82.7916 65.2155C84.4673 65.3142 86.0187 64.9935 87.0906 63.5556C87.8422 62.5473 88.2961 60.9316 88.4624 59.5954" stroke="#CAC5A0" stroke-width="2" stroke-linejoin="round"/>
<path d="M85.071 62.9073C85.9489 61.711 86.451 60.2884 86.3853 58.757L29.2539 58.7539C29.2344 60.235 29.6605 61.6205 30.4727 62.8436C30.6165 63.004 30.8444 63.1489 31.0354 63.1448C31.2058 63.1407 31.4255 62.7974 31.4399 62.6165L31.5149 61.6503H83.4929C83.7383 61.6503 84.0042 61.7079 84.11 61.8045C84.036 62.2208 84.1654 63.1622 84.5587 63.1396C84.6911 63.1324 84.9047 63.0132 85.071 62.9073Z" fill="#185229"/>
<path d="M29.2532 58.7662H20.2762H18.0153C18.0153 61.0206 18.0038 63.2643 18.1374 65.517C18.2411 67.2653 18.5297 68.9232 19.2207 70.5215C20.5072 73.496 23.0372 75.6143 26.1832 76.3903C27.5087 76.7172 28.7799 76.8857 30.1732 76.9094L43.4667 77.1365H43.4688L62.1005 77.1838L85.6905 76.9289C87.2337 76.9125 88.6208 76.7418 90.0614 76.3441C93.6695 75.3491 96.3863 72.5452 97.3227 68.9314C97.6256 67.7618 97.7991 66.6311 97.8587 65.4173C97.9668 63.1989 97.9726 60.989 97.9726 58.7693L95.7024 58.7539L86.3845 58.7693H29.2532" stroke="#185229" stroke-width="2" stroke-linejoin="round"/>
<path d="M96.6816 43.7142C96.4971 37.4768 95.3172 20.9746 94.0724 15.25C96.6816 43.7142 94.5227 58.7632 74.765 58.7632H97.065L96.6816 43.7142Z" fill="#E5E1BE"/>
<path d="M94.9258 15.25C96.1706 20.9746 97.4971 37.4739 97.6816 43.7113L98.065 58.7603H75.765" stroke="#185229" stroke-width="2" stroke-linejoin="round"/>
<path d="M18.4191 44.576L18.8793 58.1829C18.8793 58.1829 25.1096 17.1016 25.7215 14.7393C26.3334 12.3771 28.7583 9.06771 32.5811 7.98801C46.7656 3.98221 72.6296 4.45745 75.3743 4.45745C60.0681 2.09202 42.1814 3.07603 32.5811 4.1303C27.6146 4.67589 23.4812 7.95765 21.7801 12.6116C21.095 14.4832 20.6923 16.32 20.4674 18.3096L19.5141 26.7652L18.8793 34.8281L18.4191 44.576Z" fill="#E5E1BE"/>
<path d="M17.9955 59.4422L18.4249 44.586L18.885 34.8381L19.5199 26.7753L20.4731 18.3196C20.6981 16.33 21.1007 14.4933 21.7859 12.6216C23.4869 7.96769 27.6204 4.68592 32.587 4.14033C42.6977 3.27569 57.1674 2.97746 76.3553 3.60171" stroke="#185229" stroke-width="2" stroke-linejoin="round"/>
<ellipse cx="83.1703" cy="37.1362" rx="6.40532" ry="3.12054" fill="#FEAAA4"/>
<ellipse cx="32.5844" cy="37.1362" rx="6.40532" ry="3.12054" fill="#FEAAA4"/>
<path d="M53.8167 54.6745C54.004 54.6372 55.4262 55.161 57.8592 55.2734C60.2173 55.2733 61.902 54.2253 62.164 54.4874C62.426 54.7494 60.4795 56.5087 57.5973 56.4339C54.715 56.359 53.6294 54.7119 53.8167 54.6745Z" fill="#D6D2B2"/>
<path d="M51.5865 51.5389C44.9737 47.529 42.8859 37.9657 46.6173 35.9529L46.6202 35.9561C47.4565 35.503 48.7254 35.7446 49.6939 36.0627C55.4083 37.9479 60.6938 37.6493 66.4292 35.8541C67.4639 35.5582 68.5782 35.6866 69.0899 36.1497C72.4895 38.9576 70.1079 47.3831 63.8571 51.5396C60.6945 53.6427 55.9343 54.1753 51.5865 51.5389Z" fill="#185229"/>
<path d="M67.5671 36.8672C67.908 39.29 63.3812 40.5909 57.7394 40.5909C52.4876 40.5909 47.6047 39.2954 47.9114 36.8822C47.9451 36.8838 47.98 36.8854 48.0159 36.8883C48.4332 36.9217 48.8958 37.0336 49.3281 37.1755L49.3284 37.1753C55.2815 39.1388 60.7891 38.8284 66.6631 37.009C66.7192 36.9933 66.775 36.9771 66.8309 36.961C67.0826 36.8962 67.3356 36.8663 67.5671 36.8672Z" fill="#FEFEFE"/>
<path d="M51.1301 49.7703C53.6629 45.844 62.0206 45.9145 64.4805 49.5806C64.0784 49.9197 63.6546 50.2399 63.2094 50.5359C60.4122 52.3959 56.1459 52.8975 52.2067 50.5088C51.8323 50.2817 51.4733 50.0345 51.1301 49.7703Z" fill="#FEAAA4"/>
<path d="M48.9705 24.1269C48.469 29.6918 43.8032 33.8193 38.549 33.3458C33.2949 32.8723 29.4422 27.9771 29.9437 22.4122C30.4452 16.8472 35.1111 12.7197 40.3652 13.1932C45.6193 13.6667 49.4721 18.5619 48.9705 24.1269Z" fill="#185229"/>
<path d="M48.5693 24.9012C48.1084 30.0152 43.8948 33.8148 39.1579 33.3879C34.421 32.961 30.9546 28.4693 31.4155 23.3553C31.8764 18.2414 36.09 14.4418 40.8269 14.8687C45.5637 15.2956 49.0301 19.7873 48.5693 24.9012Z" fill="#FEFEFE"/>
<ellipse cx="41.1642" cy="24.1087" rx="7.55394" ry="9.0218" transform="rotate(5.14962 41.1642 24.1087)" fill="#185229"/>
<path d="M46.6067 26.2737C46.3163 29.4954 43.5772 31.8816 40.4886 31.6032C37.4001 31.3249 35.1317 28.4875 35.422 25.2657C35.7124 22.0439 38.4515 19.6578 41.5401 19.9361C44.6286 20.2145 46.897 23.0519 46.6067 26.2737Z" fill="#57A053"/>
<path d="M47.1731 23.8518C46.8827 27.0736 44.1436 29.4597 41.055 29.1814C37.9665 28.903 35.6981 26.0656 35.9884 22.8438C36.2788 19.622 39.0179 17.2359 42.1065 17.5143C45.195 17.7926 47.4634 20.63 47.1731 23.8518Z" fill="#185229"/>
<path d="M43.7171 17.4751C43.7522 17.4028 43.8581 17.4123 43.8797 17.4897L44.8578 21.0022C44.8643 21.0255 44.8802 21.045 44.9016 21.0562L48.0465 22.6942C48.1156 22.7302 48.1064 22.8318 48.032 22.8549L44.6449 23.9042C44.6218 23.9113 44.6028 23.9277 44.5922 23.9495L43.0019 27.2305C42.9668 27.3028 42.8609 27.2932 42.8393 27.2158L41.8612 23.7033C41.8547 23.6801 41.8388 23.6605 41.8174 23.6494L38.6725 22.0114C38.6034 21.9754 38.6126 21.8737 38.687 21.8507L42.0741 20.8014C42.0972 20.7942 42.1162 20.7778 42.1268 20.7561L43.7171 17.4751Z" fill="#FEFEFE"/>
<path d="M37.855 24.2804C37.8715 24.2464 37.9212 24.2509 37.9313 24.2873L38.3907 25.937C38.3938 25.9479 38.4012 25.9571 38.4113 25.9623L39.8883 26.7316C39.9207 26.7485 39.9164 26.7962 39.8815 26.8071L38.2907 27.2999C38.2799 27.3032 38.2709 27.3109 38.266 27.3211L37.5191 28.8621C37.5026 28.8961 37.4528 28.8916 37.4427 28.8552L36.9833 27.2055C36.9803 27.1946 36.9728 27.1854 36.9628 27.1802L35.4858 26.4109C35.4533 26.394 35.4576 26.3463 35.4926 26.3354L37.0833 25.8426C37.0942 25.8393 37.1031 25.8316 37.1081 25.8214L37.855 24.2804Z" fill="#FEFEFE"/>
<ellipse cx="38.0376" cy="29.4762" rx="0.338887" ry="0.353504" transform="rotate(5.14962 38.0376 29.4762)" fill="#9ECF84"/>
<path d="M66.6298 24.1269C67.1313 29.6918 71.7972 33.8193 77.0513 33.3458C82.3054 32.8723 86.1582 27.9771 85.6567 22.4122C85.1551 16.8472 80.4893 12.7197 75.2351 13.1932C69.981 13.6667 66.1283 18.5619 66.6298 24.1269Z" fill="#185229"/>
<path d="M67.0311 24.9012C67.492 30.0152 71.7056 33.8148 76.4424 33.3879C81.1793 32.961 84.6457 28.4693 84.1848 23.3553C83.724 18.2414 79.5104 14.4418 74.7735 14.8687C70.0366 15.2956 66.5702 19.7873 67.0311 24.9012Z" fill="#FEFEFE"/>
<ellipse cx="7.55394" cy="9.0218" rx="7.55394" ry="9.0218" transform="matrix(-0.995964 0.0897568 0.0897568 0.995964 81.1498 14.4453)" fill="#185229"/>
<path d="M68.9839 26.2737C69.2742 29.4954 72.0134 31.8816 75.102 31.6032C78.1905 31.3249 80.4589 28.4875 80.1686 25.2657C79.8782 22.0439 77.1391 19.6578 74.0505 19.9361C70.9619 20.2145 68.6935 23.0519 68.9839 26.2737Z" fill="#57A053"/>
<path d="M68.4175 23.8518C68.7078 27.0736 71.447 29.4597 74.5355 29.1814C77.6241 28.903 79.8925 26.0656 79.6022 22.8438C79.3118 19.622 76.5727 17.2359 73.4841 17.5143C70.3955 17.7926 68.1271 20.63 68.4175 23.8518Z" fill="#185229"/>
<path d="M71.8832 17.4751C71.8481 17.4028 71.7422 17.4123 71.7206 17.4897L70.7425 21.0022C70.736 21.0255 70.7202 21.045 70.6988 21.0562L67.5539 22.6942C67.4848 22.7302 67.4939 22.8318 67.5684 22.8549L70.9554 23.9042C70.9785 23.9113 70.9976 23.9277 71.0081 23.9495L72.5985 27.2305C72.6335 27.3028 72.7395 27.2932 72.761 27.2158L73.7392 23.7033C73.7457 23.6801 73.7615 23.6605 73.7829 23.6494L76.9278 22.0114C76.9969 21.9754 76.9878 21.8737 76.9133 21.8507L73.5263 20.8014C73.5032 20.7942 73.4841 20.7778 73.4736 20.7561L71.8832 17.4751Z" fill="#FEFEFE"/>
<path d="M77.7453 24.2804C77.7289 24.2464 77.6791 24.2509 77.669 24.2873L77.2096 25.937C77.2066 25.9479 77.1991 25.9571 77.1891 25.9623L75.7121 26.7316C75.6796 26.7485 75.6839 26.7962 75.7189 26.8071L77.3096 27.2999C77.3204 27.3032 77.3294 27.3109 77.3344 27.3211L78.0813 28.8621C78.0978 28.8961 78.1475 28.8916 78.1576 28.8552L78.617 27.2055C78.6201 27.1946 78.6275 27.1854 78.6376 27.1802L80.1146 26.4109C80.147 26.394 80.1427 26.3463 80.1078 26.3354L78.517 25.8426C78.5062 25.8393 78.4972 25.8316 78.4923 25.8214L77.7453 24.2804Z" fill="#FEFEFE"/>
<ellipse cx="0.338887" cy="0.353504" rx="0.338887" ry="0.353504" transform="matrix(-0.995964 0.0897568 0.0897568 0.995964 77.8783 29.0938)" fill="#9ECF84"/>
<path d="M77.7652 60.9805C80.2964 71.7782 81.3831 83.9395 81.5484 85.9141C81.5612 86.0676 81.4398 86.1914 81.2857 86.1914H36.5386C36.3899 86.1914 36.27 86.0773 36.2749 85.9287C36.3397 83.9911 36.8397 71.6886 39.3579 60.9805H77.7652Z" fill="#F0F2E4"/>
<path d="M77.7652 60.9805C80.2964 71.7782 81.3831 83.9395 81.5484 85.9141C81.5596 86.0486 81.4679 86.1599 81.3413 86.1855L81.2857 86.1914H36.5386L36.4839 86.1865C36.3617 86.1625 36.2706 86.0586 36.2749 85.9287C36.3378 84.0475 36.8102 72.3964 39.1421 61.9199L39.357 60.9805H41.8941C41.8539 61.1453 41.8122 61.3104 41.773 61.4766C39.7951 69.8522 39.0846 79.2989 38.8452 83.7266H78.8687C78.4222 79.2573 77.335 69.9174 75.3511 61.4785C75.3119 61.3117 75.2708 61.1459 75.231 60.9805H77.7652Z" fill="#57A053"/>
<path d="M79.697 60.9805C80.2077 63.2145 80.6582 65.4926 81.0505 67.7148C82.5683 76.3127 83.264 84.2196 83.3923 85.7715C83.5074 87.1645 82.3505 88.0408 81.2858 88.041H36.5388C35.5561 88.041 34.3817 87.2725 34.4274 85.8809L34.4616 84.9951C34.5782 82.2466 34.9859 74.9222 36.2351 67.1992C36.5682 65.14 36.9636 63.0395 37.4323 60.9805H39.3278C36.829 71.6927 36.3377 84.0406 36.2751 85.9414C36.2708 86.0713 36.3617 86.1658 36.4841 86.1875L36.5388 86.1924H81.2858L81.3425 86.1875C81.4686 86.1632 81.5606 86.0579 81.5495 85.9238C81.3884 83.9745 80.3094 71.7666 77.7985 60.9805H79.697Z" fill="#185229"/>
<path d="M70.3783 85.267C70.3783 82.928 71.1501 80.6544 72.5739 78.7988C73.9978 76.9432 75.9942 75.6093 78.2534 75.0039L81.0034 85.267H70.3783Z" fill="#57A053"/>
<path d="M46.8921 85.267C46.8921 82.928 46.1203 80.6544 44.6964 78.7988C43.2726 76.9432 41.2762 75.6093 39.0169 75.0039L36.267 85.267H46.8921Z" fill="#57A053"/>
<ellipse cx="59.4357" cy="74.759" rx="4.45784" ry="3.16525" fill="#57A053"/>
<path d="M67.6185 60.9297C67.2834 64.2242 63.4701 66.8221 58.8119 66.8223C54.1535 66.8223 50.3404 64.2242 50.0052 60.9297H67.6185Z" fill="#57A053"/>
<path d="M32.4974 60.9297L85.1751 60.9297L85.1751 62.778C85.1752 63.4586 84.6235 64.0103 83.9429 64.0103H33.7297C33.0491 64.0103 32.4974 63.4586 32.4974 62.778V60.9297Z" fill="#062616" fill-opacity="0.2"/>
<path fill-rule="evenodd" clip-rule="evenodd" d="M102 39.3477C98.9531 40.0482 96.5878 41.3181 95.8843 44.7527C95.8797 44.7548 95.8751 44.757 95.8705 44.7591C95.8041 44.8525 94.7247 46.3883 94.5617 47.7445C94.3936 49.1436 94.9125 50.4268 95.4018 51.0162L96.0946 51.8505L95.7152 52.7945C95.1948 54.3491 95.6281 56.3587 96.4485 57.6448C96.4517 57.6448 96.4552 57.6451 96.4584 57.6451L97.052 58.2557C96.8415 59.9526 97.4964 61.7641 98.8645 62.7682C100.724 64.1328 103.02 64.3245 105.234 64.1422C105.998 64.0791 107.096 63.7896 107.826 63.5182C110.304 62.5949 111.553 61.6141 113.107 59.5285C114.59 57.5397 115.246 54.8149 115.233 52.3606C115.228 51.6135 115.094 50.2879 114.921 49.5969L114.571 48.1947C114.301 47.1088 113.719 46.0457 113.272 45.3346C113.06 44.999 112.892 44.7036 112.662 44.3857C111.499 42.7765 110.005 41.4753 108.266 40.5166C107.775 40.2458 107.272 40.0696 106.743 39.87C105.22 39.2936 103.625 39.1099 102 39.3477Z" fill="#185229"/>
<path d="M98.8325 52.4397C98.6116 52.4543 98.2307 52.3297 98.073 52.4585C97.0278 53.3166 97.038 55.5597 98.3095 56.5299C99.9676 57.7947 101.777 57.5708 103.86 57.4444C102.923 58.5586 100.536 58.9147 99.0882 58.6224C98.684 59.6091 99.6503 60.9146 100.585 61.4137C101.694 62.0061 103.02 62.3416 104.306 62.207C106.443 61.9835 108.333 61.4717 109.964 60.034C115.276 55.3522 113.647 46.22 108.09 42.7278C106.197 41.5382 104.065 40.9144 101.823 41.2476C101.423 41.3073 101.037 41.4782 100.652 41.6154C99.5454 42.0086 98.5225 42.8399 97.9601 43.8295C97.9319 43.8794 97.9167 44.004 97.9264 44.0408C97.936 44.0775 98.0277 44.1009 98.0675 44.085L98.5903 43.8724C99.1851 43.6309 99.7677 43.5266 100.401 43.4044C101.683 43.1567 103.005 43.2285 104.164 44.0382L102.596 44.185C101.486 44.2891 99.9858 44.8358 98.9683 45.3675C98.2742 45.7301 97.6667 46.266 97.2496 46.9046C96.3672 48.2574 96.8593 50.3776 98.2303 50.756C99.9528 51.2314 101.16 51.1227 102.95 51.0225C102.937 51.4274 101.535 51.9571 101.234 52.0339C100.065 52.3323 100.058 52.3539 98.8313 52.4375L98.8325 52.4397Z" fill="#78BA68"/>
<path fill-rule="evenodd" clip-rule="evenodd" d="M102.713 41.2264C109.181 42.333 114.149 51.3461 111.027 57.701C110.146 59.4956 108.763 60.6494 107.076 61.6185C108.068 61.2819 108.992 60.7855 109.844 60.0342C115.156 55.3524 113.528 46.2198 107.971 42.7276C106.264 41.6552 104.364 41.045 102.363 41.1789C102.478 41.1909 102.595 41.2062 102.713 41.2264Z" fill="#39763D"/>
<path fill-rule="evenodd" clip-rule="evenodd" d="M13.2333 37.1915C16.28 37.8919 18.6453 39.1618 19.3487 42.5965C19.3533 42.5985 19.3579 42.6007 19.3625 42.6028C19.4313 42.6996 20.5075 44.2335 20.6704 45.588C20.8386 46.9873 20.3196 48.2703 19.8303 48.8598L19.1384 49.6942L19.5169 50.638C20.0372 52.1926 19.6039 54.2023 18.7836 55.4884C18.7809 55.4883 18.7782 55.489 18.7756 55.489L18.181 56.0995C18.3915 57.7962 17.7374 59.607 16.3696 60.6112C14.5098 61.9761 12.2141 62.1675 10.0001 61.9851C9.23606 61.9222 8.13783 61.6335 7.40826 61.3621C4.92998 60.4388 3.68058 59.458 2.12571 57.3723C0.642658 55.3835 -0.0130348 52.6586 0.000157032 50.2043C0.00455879 49.4572 0.139038 48.1317 0.312046 47.4406L0.663271 46.0386C0.933351 44.9525 1.51462 43.8886 1.96238 43.1775C2.17429 42.8421 2.34153 42.5471 2.57086 42.2295C3.73375 40.6203 5.22853 39.3191 6.96671 38.3604C7.45803 38.0896 7.96138 37.9133 8.49026 37.7138C10.0126 37.1373 11.6075 36.9537 13.2333 37.1915Z" fill="#185229"/>
<path d="M16.3988 50.2835C16.6197 50.2981 17.0006 50.1734 17.1583 50.3023C18.2035 51.1604 18.1933 53.4034 16.9218 54.3736C15.2637 55.6385 13.4539 55.4145 11.3709 55.2881C12.3078 56.4024 14.6955 56.7584 16.1431 56.4662C16.5473 57.4528 15.5811 58.7583 14.6466 59.2575C13.5373 59.8499 12.2114 60.1854 10.9254 60.0507C8.78805 59.8273 6.89881 59.3154 5.26756 57.8778C-0.0442636 53.1959 1.58399 44.0637 7.14092 40.5716C9.03476 39.382 11.166 38.7582 13.4078 39.0914C13.8083 39.151 14.1944 39.3219 14.5798 39.4591C15.686 39.8523 16.7088 40.6836 17.2712 41.6732C17.2994 41.7231 17.3146 41.8477 17.3049 41.8845C17.2953 41.9213 17.2037 41.9447 17.1639 41.9288L16.641 41.7161C16.0462 41.4747 15.4636 41.3703 14.8301 41.2482C13.5481 41.0004 12.2262 41.0723 11.0669 41.8819L12.6356 42.0288C13.7453 42.1329 15.2455 42.6795 16.263 43.2112C16.9571 43.5739 17.5647 44.1097 17.9817 44.7484C18.8642 46.1012 18.372 48.2213 17.0011 48.5998C15.2786 49.0752 14.0715 48.9665 12.2811 48.8662C12.2943 49.2712 13.6968 49.8009 13.9977 49.8776C15.1662 50.176 15.1731 50.1977 16.4001 50.2812L16.3988 50.2835Z" fill="#78BA68"/>
<path fill-rule="evenodd" clip-rule="evenodd" d="M12.5189 39.0702C6.04983 40.1767 1.08198 49.1899 4.20397 55.5448C5.08531 57.3385 6.46706 58.4921 8.15236 59.4608C7.1613 59.1243 6.23789 58.6286 5.38611 57.8779C0.0745019 53.196 1.70326 44.0636 7.26013 40.5715C8.96753 39.499 10.8677 38.8887 12.8681 39.0227C12.7534 39.0347 12.6369 39.05 12.5189 39.0702Z" fill="#39763D"/>
</svg>
