<svg width="256" height="334" viewBox="0 0 256 334" fill="none" xmlns="http://www.w3.org/2000/svg">
<path d="M139.025 22.7227C170.098 22.7227 192.525 29.8416 206.544 43.8604C220.605 57.921 227.682 77.0339 227.682 101.32C227.682 115.179 224.94 128.308 219.457 140.715C213.955 153.167 206.714 164.899 197.73 175.912C188.72 186.956 178.69 197.714 167.64 208.183C156.567 218.673 145.493 229.018 134.42 239.217C131.498 241.847 129.405 243.934 128.185 245.459L128.175 245.471L128.166 245.483C127.137 246.855 126.654 248.536 126.654 250.457C126.654 252.498 127.443 254.142 129.068 255.225C130.62 256.26 132.823 256.705 135.527 256.705H174.032C188.896 256.414 203.323 256.268 217.311 256.268C223.855 256.268 229.174 257.831 233.339 260.885C237.394 263.859 239.49 268.477 239.49 274.948C239.49 281.682 237.116 287.562 232.328 292.631L232.318 292.642L232.308 292.652C227.868 297.648 219.108 301.674 205.747 304.581C192.431 307.186 173.118 308.499 147.772 308.499C126.213 308.499 108.759 307.771 95.3977 306.318L95.387 306.317L95.3772 306.316L92.9045 306.09C80.7434 304.916 71.3225 303.109 64.6028 300.694C57.7259 297.826 53.1392 294.445 50.6682 290.622C48.435 286.419 47.3069 281.64 47.3069 276.261C47.3069 269.726 48.8665 263.323 52.0042 257.042C55.4508 250.436 60.3468 243.805 66.7102 237.152L66.7092 237.151C73.375 230.196 81.6481 222.794 91.5334 214.943C102.336 206.476 112.702 197.863 122.63 189.103L122.631 189.102C132.86 180.042 141.926 171.123 149.827 162.344C157.736 153.556 163.909 144.893 168.328 136.354C173.057 127.785 175.45 119.455 175.45 111.38C175.45 104.548 174.114 98.2838 171.427 92.6035C169.004 86.5692 164.773 81.7523 158.783 78.1582C152.738 74.5307 144.516 72.7676 134.214 72.7676C123.676 72.7676 115.113 73.7887 108.564 75.8691C102.124 77.6262 96.5431 79.5355 91.8274 81.5986L91.8167 81.6025L91.8059 81.6084C87.5831 83.5791 82.7739 84.5762 77.3586 84.5762C74.2945 84.5762 71.2222 84.0221 68.137 82.9072C65.4193 81.5382 63.0913 79.4917 61.1545 76.7393C59.5257 73.7286 58.678 69.8413 58.678 65.0205C58.678 57.7561 61.7406 51.0008 68.0071 44.7344L68.0227 44.7188C74.2894 38.1673 83.4583 32.8434 95.6067 28.7939C107.724 24.7548 122.19 22.7227 139.025 22.7227Z" fill="#8B8765" stroke="#D6D2B2" stroke-width="2"/>

</svg>