<svg width="256" height="334" viewBox="0 0 256 334" fill="none" xmlns="http://www.w3.org/2000/svg">
<path d="M182.434 247.619C182.352 247.024 182.165 232.453 182.276 231.899L160.956 231.005L161.284 245.654C160.336 246.215 159.561 246.787 158.732 247.541C156.442 249.624 155.412 254.11 156.992 256.937C157.788 258.36 159.417 259.338 161.009 259.887C166.306 261.717 172.241 261.6 177.56 259.923C180.015 259.148 181.793 257.516 182.453 255C182.999 252.92 182.727 249.754 182.434 247.619Z" fill="#39763D"/>
<path d="M183.615 232.166C182.722 231.988 181.83 231.81 180.937 231.632C180.829 233.854 180.923 235.216 180.934 236.993C181.004 240.59 181.034 243.944 181.212 247.787C181.539 250.138 181.784 252.653 181.321 254.703C180.849 256.719 179.288 258.221 177.226 258.864C172.109 260.524 166.431 260.682 161.325 258.972C159.872 258.483 158.468 257.644 157.8 256.485C156.444 254.013 157.22 250.18 159.298 248.163C160.04 247.471 160.828 246.876 161.698 246.354L162.104 246.119L162.098 245.636C161.947 240.754 161.797 235.871 161.647 230.989L160.927 231.695C166.342 231.877 171.758 232.058 177.173 232.24C178.867 232.297 180.561 232.354 182.255 232.41C182.269 232.069 182.283 231.728 182.298 231.388C180.605 231.302 178.912 231.217 177.219 231.132C171.808 230.859 166.397 230.587 160.985 230.314L160.243 230.289L160.266 231.02C160.334 235.904 160.402 240.788 160.47 245.672L160.87 244.953C159.911 245.505 158.987 246.178 158.167 246.919C155.437 249.632 154.429 253.757 156.184 257.389C157.228 259.211 158.98 260.175 160.692 260.803C166.22 262.754 172.325 262.681 177.894 260.981C180.478 260.274 182.933 258.057 183.586 255.297C184.239 252.503 183.942 249.983 183.655 247.452C183.584 244.212 183.581 240.465 183.578 236.972C183.578 235.364 183.589 233.307 183.615 232.166ZM180.937 231.632L183.615 232.166L183.754 231.436L182.298 231.388L182.255 232.41L180.937 231.632Z" fill="#185229"/>
<path d="M172.861 260.084C174.687 259.573 178.805 256.626 177.089 253.684C175.373 250.742 165.391 248.735 160.805 250.406C157.357 252.033 157.07 252.037 157.072 253.684C157.411 256.615 158.438 257.185 159.897 258.489C162.699 260.218 169.793 260.788 172.861 260.084Z" fill="#78BA68"/>
<ellipse cx="161.63" cy="250.698" rx="1.49802" ry="1.92545" transform="rotate(44.502 161.63 250.698)" fill="#9ECF84"/>
<path d="M192.715 247.621C192.797 247.026 193.093 234.345 192.982 233.791L214.192 232.934L213.864 245.656C214.813 246.217 215.587 246.789 216.416 247.543C218.706 249.626 219.737 254.112 218.157 256.939C217.36 258.362 215.732 259.339 214.14 259.889C208.842 261.719 202.907 261.602 197.589 259.925C195.134 259.15 193.355 257.518 192.695 255.002C192.149 252.922 192.422 249.756 192.715 247.621Z" fill="#39763D"/>
<path d="M191.644 234.058C192.536 233.88 193.429 233.702 194.321 233.524C194.421 235.701 194.309 236.984 194.283 238.7C194.192 241.731 194.137 244.545 193.948 247.79C193.62 250.141 193.374 252.655 193.836 254.702C194.306 256.716 195.864 258.217 197.924 258.86C203.04 260.522 208.717 260.682 213.824 258.973C215.277 258.485 216.681 257.647 217.349 256.487C218.707 254.015 217.932 250.181 215.853 248.161C215.111 247.469 214.323 246.873 213.453 246.351L213.048 246.117L213.056 245.635C213.203 241.395 213.349 237.156 213.495 232.917L214.22 233.631C208.777 233.803 203.333 233.976 197.889 234.148C196.26 234.199 194.632 234.251 193.003 234.302C192.989 233.961 192.976 233.62 192.962 233.279C194.589 233.199 196.217 233.12 197.844 233.04C203.284 232.772 208.724 232.505 214.164 232.238L214.915 232.214L214.889 232.952C214.817 237.194 214.745 241.435 214.672 245.677L214.276 244.96C215.234 245.511 216.158 246.184 216.979 246.925C219.708 249.634 220.717 253.759 218.964 257.39C217.92 259.212 216.169 260.177 214.456 260.805C208.929 262.758 202.823 262.688 197.253 260.989C194.667 260.282 192.208 258.063 191.554 255.301C190.899 252.505 191.197 249.984 191.482 247.452C191.573 244.755 191.607 241.587 191.638 238.653C191.654 237.112 191.661 235.11 191.644 234.058ZM194.321 233.524L191.644 234.058L191.504 233.326L192.962 233.279L193.003 234.302L194.321 233.524Z" fill="#185229"/>
<path d="M202.286 260.084C200.46 259.573 196.342 256.626 198.058 253.684C199.774 250.742 209.756 248.735 214.342 250.406C217.79 252.033 218.077 252.037 218.075 253.684C217.736 256.615 216.709 257.185 215.25 258.489C212.448 260.218 205.354 260.788 202.286 260.084Z" fill="#78BA68"/>
<ellipse cx="1.49802" cy="1.92545" rx="1.49802" ry="1.92545" transform="matrix(-0.713227 0.700934 0.700934 0.713227 213.236 248.274)" fill="#9ECF84"/>
<path d="M172.36 233.446L159.066 233.219C157.673 233.196 156.402 233.027 155.076 232.7C151.93 231.924 149.4 229.806 148.114 226.831C147.423 225.233 147.134 223.575 147.031 221.827C146.91 219.802 146.85 217.906 146.908 215.862L147.338 200.973L147.798 191.204L148.432 183.123L149.385 174.649C149.61 172.655 150.012 170.814 150.697 168.938C152.398 164.274 156.529 160.985 161.494 160.438C171.09 159.381 195.785 159.232 205.493 159.916L211.554 160.342C215.435 160.616 218.997 162.536 221.281 165.703C222.551 167.465 223.305 169.438 223.763 171.555C225.003 177.292 226.179 193.831 226.363 200.082L226.866 217.192C226.912 218.758 226.827 220.189 226.752 221.727C226.692 222.941 226.519 224.072 226.216 225.241C225.279 228.855 222.563 231.659 218.955 232.654C217.514 233.052 216.127 233.222 214.584 233.239L190.994 233.494L172.362 233.446H172.36Z" fill="#FFFDEA" stroke="#185229" stroke-width="2" stroke-linejoin="round"/>
<path d="M159.069 233.409L172.362 233.637H172.364L190.996 233.684L214.586 233.429C216.129 233.412 217.516 233.242 218.957 232.844C222.565 231.849 225.282 229.045 226.218 225.431C226.521 224.262 226.695 223.131 226.754 221.917C226.862 219.699 226.868 217.489 226.868 215.269L224.598 215.254L210.513 215.269C196.288 230.897 164.336 230.34 148.116 227.021C149.403 229.996 151.933 232.114 155.079 232.89C156.404 233.217 157.676 233.386 159.069 233.409Z" fill="#E5E1BE"/>
<path d="M161.994 221.711C160.328 221.801 158.742 221.48 157.713 220.052C156.97 219.02 156.604 217.438 156.474 216.098H217.35C217.183 217.434 216.729 219.05 215.978 220.058C214.906 221.496 213.354 221.816 211.679 221.718L161.994 221.711Z" fill="#D6D2B2"/>
<path d="M156.474 216.062C156.474 216.062 156.476 216.084 156.477 216.095C156.607 217.435 156.973 219.018 157.716 220.049C158.745 221.478 160.331 221.799 161.997 221.708L211.682 221.716C213.358 221.814 214.909 221.494 215.981 220.056C216.733 219.047 217.186 217.432 217.353 216.095" stroke="#CAC5A0" stroke-width="2" stroke-linejoin="round"/>
<path d="M213.961 219.407C214.839 218.211 215.341 216.788 215.276 215.257L158.144 215.254C158.125 216.735 158.551 218.121 159.363 219.344C159.507 219.504 159.735 219.649 159.926 219.645C160.096 219.641 160.316 219.297 160.33 219.116L160.405 218.15H212.383C212.629 218.15 212.895 218.208 213 218.304C212.926 218.721 213.056 219.662 213.449 219.64C213.581 219.632 213.795 219.513 213.961 219.407Z" fill="#185229"/>
<path d="M158.144 215.266H149.167H146.906C146.906 217.521 146.894 219.764 147.028 222.017C147.132 223.765 147.42 225.423 148.111 227.021C149.398 229.996 151.928 232.114 155.074 232.89C156.399 233.217 157.67 233.386 159.064 233.409L172.357 233.637H172.359L190.991 233.684L214.581 233.429C216.124 233.412 217.511 233.242 218.952 232.844C222.56 231.849 225.277 229.045 226.213 225.431C226.516 224.262 226.689 223.131 226.749 221.917C226.857 219.699 226.863 217.489 226.863 215.269L224.593 215.254L215.275 215.269H158.144" stroke="#185229" stroke-width="2" stroke-linejoin="round"/>
<path d="M225.572 200.214C225.387 193.977 224.208 177.475 222.963 171.75C225.572 200.214 223.413 215.263 203.655 215.263H225.955L225.572 200.214Z" fill="#E5E1BE"/>
<path d="M223.816 171.75C225.061 177.475 226.387 193.974 226.572 200.211L226.955 215.26H204.655" stroke="#185229" stroke-width="2" stroke-linejoin="round"/>
<path d="M147.309 201.076L147.77 214.683C147.77 214.683 154 173.602 154.612 171.239C155.224 168.877 157.649 165.568 161.471 164.488C175.656 160.482 201.52 160.957 204.265 160.957C188.958 158.592 171.072 159.576 161.471 160.63C156.505 161.176 152.372 164.458 150.671 169.112C149.985 170.983 149.583 172.82 149.358 174.81L148.405 183.265L147.77 191.328L147.309 201.076Z" fill="#E5E1BE"/>
<path d="M146.886 215.772L147.315 200.916L147.775 191.168L148.41 183.105L149.364 174.65C149.588 172.66 149.991 170.823 150.676 168.952C152.377 164.298 156.511 161.016 161.477 160.47C171.588 159.606 186.058 159.308 205.246 159.932" stroke="#185229" stroke-width="2" stroke-linejoin="round"/>
<ellipse cx="212.061" cy="193.636" rx="6.40532" ry="3.12054" fill="#FEAAA4"/>
<ellipse cx="161.475" cy="193.636" rx="6.40532" ry="3.12054" fill="#FEAAA4"/>
<path d="M182.707 211.175C182.894 211.137 184.317 211.661 186.75 211.773C189.108 211.773 190.792 210.725 191.054 210.987C191.316 211.249 189.37 213.009 186.488 212.934C183.605 212.859 182.52 211.212 182.707 211.175Z" fill="#D6D2B2"/>
<path d="M180.477 208.039C173.864 204.029 171.776 194.466 175.508 192.453L175.511 192.456C176.347 192.003 177.616 192.245 178.584 192.563C184.299 194.448 189.584 194.149 195.32 192.354C196.354 192.058 197.469 192.187 197.98 192.65C201.38 195.458 198.998 203.883 192.748 208.04C189.585 210.143 184.825 210.675 180.477 208.039Z" fill="#185229"/>
<path d="M196.457 193.367C196.798 195.79 192.272 197.091 186.63 197.091C181.378 197.091 176.495 195.795 176.802 193.382C176.835 193.384 176.87 193.385 176.906 193.388C177.324 193.422 177.786 193.534 178.218 193.676L178.219 193.675C184.172 195.639 189.679 195.328 195.554 193.509C195.61 193.493 195.665 193.477 195.721 193.461C195.973 193.396 196.226 193.366 196.457 193.367Z" fill="#FEFEFE"/>
<path d="M180.021 206.27C182.553 202.344 190.911 202.415 193.371 206.081C192.969 206.42 192.545 206.74 192.1 207.036C189.303 208.896 185.036 209.397 181.097 207.009C180.723 206.782 180.364 206.535 180.021 206.27Z" fill="#FEAAA4"/>
<path d="M177.861 180.627C177.359 186.192 172.693 190.319 167.439 189.846C162.185 189.372 158.332 184.477 158.834 178.912C159.335 173.347 164.001 169.22 169.255 169.693C174.51 170.167 178.362 175.062 177.861 180.627Z" fill="#185229"/>
<path d="M177.46 181.401C176.999 186.515 172.785 190.315 168.048 189.888C163.311 189.461 159.845 184.969 160.306 179.855C160.767 174.741 164.98 170.942 169.717 171.369C174.454 171.796 177.92 176.287 177.46 181.401Z" fill="#FEFEFE"/>
<ellipse cx="170.055" cy="180.609" rx="7.55394" ry="9.0218" transform="rotate(5.14962 170.055 180.609)" fill="#185229"/>
<path d="M175.498 182.774C175.208 185.995 172.468 188.382 169.38 188.103C166.291 187.825 164.023 184.987 164.313 181.766C164.604 178.544 167.343 176.158 170.431 176.436C173.52 176.714 175.788 179.552 175.498 182.774Z" fill="#57A053"/>
<path d="M176.064 180.352C175.774 183.574 173.035 185.96 169.946 185.681C166.858 185.403 164.589 182.566 164.88 179.344C165.17 176.122 167.909 173.736 170.998 174.014C174.086 174.293 176.355 177.13 176.064 180.352Z" fill="#185229"/>
<path d="M172.607 173.975C172.642 173.903 172.748 173.912 172.77 173.99L173.748 177.502C173.755 177.525 173.77 177.545 173.792 177.556L176.937 179.194C177.006 179.23 176.997 179.332 176.922 179.355L173.535 180.404C173.512 180.411 173.493 180.428 173.482 180.449L171.892 183.73C171.857 183.803 171.751 183.793 171.73 183.716L170.751 180.203C170.745 180.18 170.729 180.161 170.708 180.149L167.563 178.511C167.494 178.475 167.503 178.374 167.577 178.351L170.964 177.301C170.987 177.294 171.006 177.278 171.017 177.256L172.607 173.975Z" fill="#FEFEFE"/>
<path d="M166.745 180.78C166.762 180.746 166.811 180.751 166.822 180.787L167.281 182.437C167.284 182.448 167.291 182.457 167.302 182.462L168.779 183.232C168.811 183.248 168.807 183.296 168.772 183.307L167.181 183.8C167.17 183.803 167.161 183.811 167.156 183.821L166.409 185.362C166.393 185.396 166.343 185.392 166.333 185.355L165.874 183.706C165.871 183.695 165.863 183.685 165.853 183.68L164.376 182.911C164.344 182.894 164.348 182.846 164.383 182.835L165.974 182.343C165.984 182.339 165.993 182.332 165.998 182.321L166.745 180.78Z" fill="#FEFEFE"/>
<ellipse cx="166.928" cy="185.976" rx="0.338887" ry="0.353504" transform="rotate(5.14962 166.928 185.976)" fill="#9ECF84"/>
<path d="M195.52 180.627C196.022 186.192 200.688 190.319 205.942 189.846C211.196 189.372 215.049 184.477 214.547 178.912C214.046 173.347 209.38 169.22 204.126 169.693C198.872 170.167 195.019 175.062 195.52 180.627Z" fill="#185229"/>
<path d="M195.922 181.401C196.382 186.515 200.596 190.315 205.333 189.888C210.07 189.461 213.536 184.969 213.075 179.855C212.614 174.741 208.401 170.942 203.664 171.369C198.927 171.796 195.461 176.287 195.922 181.401Z" fill="#FEFEFE"/>
<ellipse cx="7.55394" cy="9.0218" rx="7.55394" ry="9.0218" transform="matrix(-0.995964 0.0897568 0.0897568 0.995964 210.04 170.945)" fill="#185229"/>
<path d="M197.873 182.774C198.164 185.995 200.903 188.382 203.991 188.103C207.08 187.825 209.348 184.987 209.058 181.766C208.768 178.544 206.029 176.158 202.94 176.436C199.851 176.714 197.583 179.552 197.873 182.774Z" fill="#57A053"/>
<path d="M197.307 180.352C197.597 183.574 200.337 185.96 203.425 185.681C206.514 185.403 208.782 182.566 208.492 179.344C208.201 176.122 205.462 173.736 202.374 174.014C199.285 174.293 197.017 177.13 197.307 180.352Z" fill="#185229"/>
<path d="M200.774 173.975C200.739 173.903 200.633 173.912 200.611 173.99L199.633 177.502C199.627 177.525 199.611 177.545 199.589 177.556L196.444 179.194C196.375 179.23 196.384 179.332 196.459 179.355L199.846 180.404C199.869 180.411 199.888 180.428 199.899 180.449L201.489 183.73C201.524 183.803 201.63 183.793 201.652 183.716L202.63 180.203C202.636 180.18 202.652 180.161 202.673 180.149L205.818 178.511C205.887 178.475 205.878 178.374 205.804 178.351L202.417 177.301C202.394 177.294 202.375 177.278 202.364 177.256L200.774 173.975Z" fill="#FEFEFE"/>
<path d="M206.636 180.78C206.619 180.746 206.57 180.751 206.56 180.787L206.1 182.437C206.097 182.448 206.09 182.457 206.08 182.462L204.603 183.232C204.57 183.248 204.574 183.296 204.609 183.307L206.2 183.8C206.211 183.803 206.22 183.811 206.225 183.821L206.972 185.362C206.988 185.396 207.038 185.392 207.048 185.355L207.508 183.706C207.511 183.695 207.518 183.685 207.528 183.68L209.005 182.911C209.038 182.894 209.033 182.846 208.998 182.835L207.408 182.343C207.397 182.339 207.388 182.332 207.383 182.321L206.636 180.78Z" fill="#FEFEFE"/>
<ellipse cx="0.338887" cy="0.353504" rx="0.338887" ry="0.353504" transform="matrix(-0.995964 0.0897568 0.0897568 0.995964 206.769 185.594)" fill="#9ECF84"/>
<path d="M206.656 217.48C209.187 228.278 210.274 240.44 210.439 242.414C210.452 242.568 210.33 242.691 210.176 242.691H165.429C165.28 242.691 165.16 242.577 165.165 242.429C165.23 240.491 165.73 228.189 168.248 217.48H206.656Z" fill="#F0F2E4"/>
<path d="M206.656 217.48C209.187 228.278 210.274 240.439 210.439 242.414C210.45 242.549 210.358 242.66 210.232 242.686L210.176 242.691H165.429L165.374 242.687C165.252 242.662 165.161 242.559 165.165 242.429C165.228 240.548 165.701 228.896 168.032 218.42L168.247 217.48H170.784C170.744 217.645 170.703 217.81 170.663 217.977C168.685 226.352 167.975 235.799 167.736 240.227H207.759C207.313 235.757 206.225 226.417 204.241 217.979C204.202 217.812 204.161 217.646 204.121 217.48H206.656Z" fill="#57A053"/>
<path d="M208.587 217.48C209.098 219.714 209.549 221.993 209.941 224.215C211.459 232.813 212.154 240.72 212.283 242.271C212.398 243.665 211.241 244.541 210.176 244.541H165.429C164.447 244.541 163.272 243.773 163.318 242.381L163.352 241.495C163.469 238.747 163.876 231.422 165.125 223.699C165.459 221.64 165.854 219.54 166.323 217.48H168.218C165.719 228.193 165.228 240.541 165.165 242.441C165.161 242.571 165.252 242.666 165.374 242.688L165.429 242.692H210.176L210.233 242.688C210.359 242.663 210.451 242.558 210.44 242.424C210.279 240.474 209.2 228.267 206.689 217.48H208.587Z" fill="#185229"/>
<path d="M199.269 241.767C199.269 239.428 200.04 237.154 201.464 235.299C202.888 233.443 204.885 232.109 207.144 231.504L209.894 241.767H199.269Z" fill="#57A053"/>
<path d="M175.782 241.767C175.782 239.428 175.011 237.154 173.587 235.299C172.163 233.443 170.167 232.109 167.907 231.504L165.157 241.767H175.782Z" fill="#57A053"/>
<ellipse cx="188.326" cy="231.259" rx="4.45784" ry="3.16525" fill="#57A053"/>
<path d="M196.509 217.43C196.174 220.724 192.361 223.322 187.702 223.322C183.044 223.322 179.231 220.724 178.896 217.43H196.509Z" fill="#57A053"/>
<path d="M161.388 217.43L214.066 217.43L214.066 219.278C214.066 219.959 213.514 220.51 212.833 220.51H162.62C161.94 220.51 161.388 219.959 161.388 219.278V217.43Z" fill="#062616" fill-opacity="0.2"/>
<path d="M230.89 195.848C227.843 196.548 225.478 197.818 224.775 201.253C224.77 201.255 224.766 201.257 224.761 201.259C224.695 201.352 223.615 202.888 223.452 204.244C223.284 205.644 223.803 206.927 224.292 207.516L224.985 208.351L224.606 209.294C224.085 210.849 224.519 212.859 225.339 214.145C225.342 214.145 225.346 214.145 225.349 214.145L225.942 214.756C225.732 216.453 226.387 218.264 227.755 219.268C229.615 220.633 231.911 220.825 234.124 220.642C234.889 220.579 235.987 220.29 236.716 220.018C239.194 219.095 240.443 218.114 241.998 216.029C243.481 214.04 244.136 211.315 244.123 208.861C244.119 208.113 243.984 206.788 243.811 206.097L243.461 204.695C243.191 203.609 242.61 202.546 242.162 201.835C241.95 201.499 241.782 201.204 241.553 200.886C240.39 199.277 238.895 197.975 237.157 197.017C236.665 196.746 236.162 196.57 235.633 196.37C234.111 195.794 232.516 195.61 230.89 195.848Z" fill="#185229"/>
<path d="M227.723 208.94C227.502 208.954 227.121 208.83 226.963 208.959C225.918 209.817 225.928 212.06 227.2 213.03C228.858 214.295 230.668 214.071 232.751 213.944C231.814 215.059 229.426 215.415 227.979 215.122C227.574 216.109 228.541 217.415 229.475 217.914C230.584 218.506 231.91 218.842 233.196 218.707C235.334 218.484 237.223 217.972 238.854 216.534C244.166 211.852 242.538 202.72 236.981 199.228C235.087 198.038 232.956 197.414 230.714 197.748C230.313 197.807 229.927 197.978 229.542 198.115C228.436 198.509 227.413 199.34 226.85 200.329C226.822 200.379 226.807 200.504 226.817 200.541C226.826 200.578 226.918 200.601 226.958 200.585L227.481 200.372C228.076 200.131 228.658 200.027 229.292 199.904C230.574 199.657 231.895 199.729 233.055 200.538L231.486 200.685C230.376 200.789 228.876 201.336 227.859 201.867C227.165 202.23 226.557 202.766 226.14 203.405C225.258 204.757 225.75 206.878 227.121 207.256C228.843 207.731 230.05 207.623 231.841 207.522C231.827 207.927 230.425 208.457 230.124 208.534C228.956 208.832 228.949 208.854 227.722 208.937L227.723 208.94Z" fill="#78BA68"/>
<path d="M231.603 197.726C238.072 198.833 243.04 207.846 239.918 214.201C239.036 215.996 237.653 217.149 235.967 218.118C236.959 217.782 237.882 217.285 238.735 216.534C244.047 211.852 242.419 202.72 236.862 199.228C235.154 198.155 233.254 197.545 231.254 197.679C231.368 197.691 231.485 197.706 231.603 197.726Z" fill="#39763D"/>
<path d="M142.124 193.691C145.17 194.392 147.536 195.662 148.239 199.096C148.244 199.099 148.248 199.101 148.253 199.103C148.322 199.2 149.398 200.734 149.561 202.088C149.729 203.487 149.21 204.77 148.721 205.36L148.029 206.194L148.407 207.138C148.928 208.693 148.494 210.702 147.674 211.988C147.671 211.988 147.669 211.989 147.666 211.989L147.071 212.599C147.282 214.296 146.628 216.107 145.26 217.111C143.4 218.476 141.104 218.667 138.89 218.485C138.126 218.422 137.028 218.134 136.299 217.862C133.82 216.939 132.571 215.958 131.016 213.872C129.533 211.883 128.877 209.159 128.891 206.704C128.895 205.957 129.029 204.632 129.202 203.941L129.554 202.539C129.824 201.453 130.405 200.389 130.853 199.678C131.065 199.342 131.232 199.047 131.461 198.729C132.624 197.12 134.119 195.819 135.857 194.86C136.348 194.59 136.852 194.413 137.381 194.214C138.903 193.637 140.498 193.454 142.124 193.691Z" fill="#185229"/>
<path d="M145.289 206.783C145.51 206.798 145.891 206.673 146.049 206.802C147.094 207.66 147.084 209.903 145.812 210.874C144.154 212.138 142.344 211.915 140.261 211.788C141.198 212.902 143.586 213.258 145.034 212.966C145.438 213.953 144.471 215.258 143.537 215.757C142.428 216.35 141.102 216.685 139.816 216.551C137.678 216.327 135.789 215.815 134.158 214.378C128.846 209.696 130.474 200.564 136.031 197.072C137.925 195.882 140.056 195.258 142.298 195.591C142.699 195.651 143.085 195.822 143.47 195.959C144.576 196.352 145.599 197.184 146.162 198.173C146.19 198.223 146.205 198.348 146.195 198.385C146.186 198.421 146.094 198.445 146.054 198.429L145.531 198.216C144.937 197.975 144.354 197.87 143.72 197.748C142.438 197.5 141.117 197.572 139.957 198.382L141.526 198.529C142.636 198.633 144.136 199.18 145.153 199.711C145.847 200.074 146.455 200.61 146.872 201.248C147.755 202.601 147.262 204.721 145.891 205.1C144.169 205.575 142.962 205.466 141.171 205.366C141.185 205.771 142.587 206.301 142.888 206.378C144.057 206.676 144.063 206.698 145.29 206.781L145.289 206.783Z" fill="#78BA68"/>
<path d="M141.409 195.57C134.94 196.677 129.972 205.69 133.094 212.045C133.976 213.839 135.357 214.992 137.043 215.961C136.052 215.624 135.128 215.129 134.276 214.378C128.965 209.696 130.594 200.564 136.151 197.071C137.858 195.999 139.758 195.389 141.758 195.523C141.644 195.535 141.527 195.55 141.409 195.57Z" fill="#39763D"/>

</svg>