<svg preserveAspectRatio="none" width="100%" height="100%" overflow="visible" style="display: block;" viewBox="0 0 35.0772 35.077" fill="none" xmlns="http://www.w3.org/2000/svg">
<g id="star 25%">
<g id="star 25%_2" filter="url(#filter0_d_0_532)">
<path d="M17.3998 8.30777C17.2328 8.31472 17.1007 8.40515 17.0589 8.54428L15.3824 13.6502L15.3338 13.8033L15.1877 13.8659L9.74782 16.1406C9.58782 16.2102 9.53217 16.3354 9.53913 16.4467C9.54608 16.558 9.61565 16.6832 9.7826 16.7388L15.0625 18.4223L15.2085 18.471L15.2711 18.617L17.678 24.0986C17.7406 24.2378 17.8798 24.3143 18.0537 24.3073C18.2206 24.3004 18.3528 24.203 18.3945 24.0639L20.1267 18.2414L20.1823 18.0675L20.3562 18.0118L25.2952 16.4049C25.4691 16.3493 25.5387 16.2171 25.5387 16.0989C25.5387 15.9806 25.4691 15.8554 25.2952 15.7928L20.3771 14.1998L20.231 14.1511L20.1684 14.005L17.7685 8.52341L17.7476 8.46776C17.678 8.35646 17.5528 8.30081 17.3998 8.31472V8.30777Z" fill="#FFD7B2"/>
<path d="M17.3805 7.84683C17.0611 7.86017 16.7281 8.04505 16.6178 8.4103L14.9596 13.4601L9.56994 15.715L9.56408 15.7169C9.22644 15.8637 9.05962 16.17 9.07873 16.4757C9.09695 16.7655 9.28265 17.0589 9.63635 17.1769L9.64221 17.1789L14.8668 18.8439L17.2555 24.2843L17.2574 24.2882C17.4115 24.6302 17.7469 24.7816 18.0719 24.7687H18.0729C18.4085 24.7547 18.7306 24.5494 18.8365 24.1964V24.1955L20.5514 18.4328L25.4362 16.8439C25.7619 16.7395 25.9491 16.4854 25.9908 16.215L26.0006 16.0988L25.9908 15.9787C25.9472 15.7042 25.7544 15.4676 25.4518 15.3585L25.4371 15.3537L20.5738 13.7785L18.194 8.3439L18.1793 8.30581L18.1393 8.2228C17.9847 7.97551 17.7313 7.86176 17.4762 7.85269C17.4448 7.84742 17.4127 7.84548 17.3805 7.84683Z" stroke="var(--stroke-0, #F98C4B)" stroke-width="0.923085" stroke-linejoin="round"/>
</g>
</g>
<defs>
<filter id="filter0_d_0_532" x="4.76837e-07" y="4.76837e-07" width="35.0772" height="35.077" filterUnits="userSpaceOnUse" color-interpolation-filters="sRGB">
<feFlood flood-opacity="0" result="BackgroundImageFix"/>
<feColorMatrix in="SourceAlpha" type="matrix" values="0 0 0 0 0 0 0 0 0 0 0 0 0 0 0 0 0 0 127 0" result="hardAlpha"/>
<feOffset dy="1.23078"/>
<feGaussianBlur stdDeviation="4.30773"/>
<feComposite in2="hardAlpha" operator="out"/>
<feColorMatrix type="matrix" values="0 0 0 0 0.792157 0 0 0 0 0.772549 0 0 0 0 0.627451 0 0 0 0.3 0"/>
<feBlend mode="normal" in2="BackgroundImageFix" result="effect1_dropShadow_0_532"/>
<feBlend mode="normal" in="SourceGraphic" in2="effect1_dropShadow_0_532" result="shape"/>
</filter>
</defs>
</svg>
