<svg width="36" height="36" viewBox="0 0 36 36" fill="none" xmlns="http://www.w3.org/2000/svg">
<g filter="url(#filter0_d_712_33242)">
<path d="M17.7542 8.38477C17.9211 8.39172 18.0533 8.48215 18.0951 8.62128L19.7715 13.7272L19.8202 13.8802L19.9663 13.9428L25.4061 16.2175C25.5661 16.2871 25.6217 16.4123 25.6148 16.5236C25.6078 16.6349 25.5383 16.7601 25.3713 16.8158L20.0915 18.4992L19.9454 18.5479L19.8828 18.694L17.4759 24.1755C17.4133 24.3146 17.2742 24.3911 17.1003 24.3842C16.9334 24.3772 16.8012 24.2798 16.7594 24.1407L15.0273 18.3183L14.9717 18.1444L14.7978 18.0888L9.85883 16.4819C9.68492 16.4262 9.61536 16.294 9.61536 16.1758C9.61536 16.0575 9.68492 15.9323 9.85883 15.8697L14.7769 14.2767L14.923 14.228L14.9856 14.082L17.3855 8.60041L17.4064 8.54476C17.4759 8.43346 17.6012 8.37781 17.7542 8.39172V8.38477Z" fill="#FEFEFE"/>
<path d="M17.7745 7.88477C18.1033 7.89846 18.4489 8.08842 18.5685 8.46484H18.5704L20.2257 13.5088L25.5988 15.7559L25.6056 15.7588C25.958 15.912 26.1335 16.2328 26.1134 16.5547C26.0944 16.8595 25.8989 17.1669 25.5294 17.29L25.5236 17.292L20.3146 18.9521L17.9337 24.377L17.9318 24.3809C17.7701 24.7399 17.4179 24.8973 17.0802 24.8838H17.0792C16.7297 24.8691 16.3916 24.6549 16.2804 24.2842V24.2832L14.5714 18.541L9.70618 16.957V16.958C9.36581 16.849 9.16901 16.582 9.12512 16.2979L9.11536 16.1758L9.12512 16.0498C9.17091 15.7609 9.37411 15.513 9.68958 15.3994L9.7052 15.3945L14.5529 13.8232L16.9249 8.40527L16.9386 8.36914L16.9825 8.2793C17.1491 8.01311 17.424 7.89471 17.6964 7.89062C17.7223 7.8876 17.7482 7.88369 17.7745 7.88477Z" stroke="#41C8BD" stroke-width="0.999991" stroke-linejoin="round"/>
</g>
<defs>
<filter id="filter0_d_712_33242" x="-2.76566e-05" y="0.0001508" width="35.2308" height="35.2308" filterUnits="userSpaceOnUse" color-interpolation-filters="sRGB">
<feFlood flood-opacity="0" result="BackgroundImageFix"/>
<feColorMatrix in="SourceAlpha" type="matrix" values="0 0 0 0 0 0 0 0 0 0 0 0 0 0 0 0 0 0 127 0" result="hardAlpha"/>
<feOffset dy="1.23077"/>
<feGaussianBlur stdDeviation="4.30769"/>
<feComposite in2="hardAlpha" operator="out"/>
<feColorMatrix type="matrix" values="0 0 0 0 0.792157 0 0 0 0 0.772549 0 0 0 0 0.627451 0 0 0 0.3 0"/>
<feBlend mode="normal" in2="BackgroundImageFix" result="effect1_dropShadow_712_33242"/>
<feBlend mode="normal" in="SourceGraphic" in2="effect1_dropShadow_712_33242" result="shape"/>
</filter>
</defs>
</svg>
