<svg width="135" height="34" viewBox="0 0 135 34" fill="none" xmlns="http://www.w3.org/2000/svg">
<path d="M22.0124 6.45352C22.3378 6.45352 22.6113 6.57164 22.8333 6.80839C23.07 7.02986 23.188 7.30379 23.188 7.62911C23.188 7.95446 23.0701 8.23557 22.8333 8.47233C22.6118 8.69431 22.3378 8.80535 22.0124 8.80535C21.6872 8.80534 21.4061 8.6943 21.1694 8.47233C20.9475 8.23557 20.8365 7.95445 20.8365 7.62911C20.8365 7.3038 20.9475 7.03037 21.1694 6.80839C21.4061 6.57165 21.6872 6.45354 22.0124 6.45352Z" fill="#333333"/>
<path fill-rule="evenodd" clip-rule="evenodd" d="M28.2642 32H0V0H28.2642V32ZM22.0124 4.87765C21.5095 4.87766 21.0507 5.00352 20.6369 5.25503C20.2225 5.50655 19.89 5.83952 19.6386 6.25344C19.3871 6.66788 19.2613 7.12609 19.2613 7.62911C19.2613 7.72983 19.2665 7.82881 19.2766 7.92598C19.0718 7.96211 18.8599 7.98913 18.6408 8.00596C18.2559 8.02073 17.9382 8.02834 17.6867 8.02834H7.9032C7.66647 8.02834 7.36299 8.02073 6.99338 8.00596C6.62377 7.97644 6.26124 7.9469 5.90638 7.91737C5.55156 7.88784 5.25579 7.85832 5.01907 7.82879V11.6224C5.31486 11.5928 5.72874 11.5705 6.26126 11.5557C6.80853 11.5262 7.35591 11.5114 7.9032 11.5114H17.6643C17.5751 12.103 17.4276 12.7318 17.2203 13.3972C17.0131 14.0479 16.7468 14.7064 16.4216 15.3718C16.0962 16.0225 15.6972 16.6438 15.2236 17.2353C14.6321 17.9599 13.9442 18.6553 13.1602 19.3208C12.3762 19.9721 11.4445 20.5559 10.3647 21.0738C9.28487 21.5911 7.99834 22.0203 6.50463 22.3603L9.433 25.5777C10.7348 25.1485 11.9399 24.6235 13.0493 24.0023C14.1733 23.3664 15.1865 22.6566 16.0887 21.8726C17.0061 21.0737 17.7972 20.2306 18.4625 19.3431C18.9356 18.6925 19.3499 18.0117 19.7048 17.302C20.075 16.577 20.3926 15.8595 20.6588 15.1498C20.9251 14.4253 21.1465 13.7374 21.3242 13.0867C21.5166 12.4213 21.6796 11.8296 21.8125 11.3118C21.8863 11.0603 21.9678 10.7645 22.0564 10.4244C22.0608 10.4094 22.0654 10.3945 22.0698 10.3796C22.5504 10.3704 22.99 10.2453 23.3882 10.0033C23.8027 9.75179 24.135 9.41882 24.3865 9.0049C24.6381 8.59045 24.7638 8.13215 24.7638 7.62911C24.7638 7.1261 24.638 6.66737 24.3865 6.25344C24.135 5.83901 23.8021 5.50655 23.3882 5.25503C22.9738 5.00351 22.5155 4.87765 22.0124 4.87765Z" fill="#333333"/>
<path d="M37.6876 26.6806C36.9922 26.6806 36.4362 26.5066 36.0193 26.1592C35.6023 25.8119 35.3237 25.2112 35.1853 24.3569C35.0463 23.1258 34.9471 21.8447 34.8874 20.5138C34.8279 19.1833 34.7983 17.9813 34.7983 16.909C34.7983 15.8367 34.8228 14.6204 34.8726 13.319C34.922 12.0187 35.0265 10.732 35.1853 9.46121C35.3045 8.8655 35.5228 8.4037 35.8405 8.07581C36.1577 7.74791 36.6745 7.52033 37.3897 7.3905C38.1045 7.26168 39.0774 7.19702 40.309 7.19702C41.957 7.19702 43.3473 7.43073 44.4796 7.8971C45.6113 8.36399 46.4651 9.0493 47.0414 9.95253C47.6173 10.8568 47.9054 11.9835 47.9054 13.3338C47.9054 14.6841 47.6223 15.8016 47.0562 16.745C46.49 17.6886 45.6805 18.409 44.6282 18.9049C43.5754 19.4013 42.3346 19.6498 40.9046 19.6498H40.0406C39.8023 19.6498 39.6431 19.7241 39.5642 19.8733C39.4846 20.0219 39.445 20.2159 39.445 20.4543C39.445 20.9115 39.4496 21.3284 39.4597 21.7052C39.4694 22.083 39.4846 22.4999 39.5046 22.9567C39.5239 23.4139 39.534 23.9796 39.534 24.6547C39.534 25.0121 39.4842 25.3503 39.385 25.6675C39.2851 25.9856 39.1019 26.2336 38.834 26.4123C38.5657 26.591 38.1834 26.6806 37.6871 26.6806H37.6876ZM39.862 16.2238C41.2122 16.2238 42.1953 16.0003 42.8113 15.5536C43.4268 15.1067 43.7348 14.4167 43.7348 13.483C43.7348 12.5492 43.437 11.9041 42.8413 11.5467C42.2456 11.1893 41.2722 11.0105 39.922 11.0105C39.7234 11.0105 39.5646 11.0355 39.4456 11.0849C39.3263 11.1348 39.2317 11.2488 39.1625 11.4275C39.0926 11.6063 39.0479 11.9092 39.0285 12.3364C39.0086 12.7635 38.9985 13.3445 38.9985 14.0792C38.9985 14.7345 39.0179 15.2161 39.058 15.5241C39.0977 15.8323 39.1773 16.0256 39.2963 16.105C39.4154 16.1846 39.6039 16.2243 39.8625 16.2243L39.862 16.2238Z" fill="#333333"/>
<path d="M57.2287 26.7398C55.4213 26.7398 53.9469 26.3778 52.805 25.6523C51.6626 24.9278 50.8287 23.8902 50.3027 22.5394C49.7764 21.1892 49.5132 19.59 49.5132 17.7432C49.5132 16.3532 49.528 15.0473 49.558 13.8258C49.5875 12.6044 49.6572 11.5321 49.7667 10.6085C49.8756 9.68494 50.0498 8.98486 50.288 8.50831C50.4667 8.09131 50.705 7.77819 51.0027 7.56994C51.3006 7.36119 51.6881 7.25732 52.1646 7.25732C52.8595 7.25732 53.3906 7.44622 53.7581 7.82349C54.1252 8.20079 54.3089 8.81685 54.3089 9.67069C54.3089 10.3855 54.2987 11.1554 54.2793 11.9797C54.2595 12.804 54.2392 13.7327 54.2198 14.7652C54.2 15.7983 54.1903 16.9897 54.1903 18.34C54.1903 19.6902 54.4586 20.704 54.9947 21.3786C55.5307 22.0542 56.2853 22.3912 57.2587 22.3912C58.2321 22.3912 58.9515 22.0537 59.478 21.3786C60.0038 20.7034 60.2675 19.6908 60.2675 18.34C60.2675 16.9892 60.2624 15.7978 60.2527 14.7652C60.2426 13.7327 60.2278 12.804 60.208 11.9797C60.1881 11.1559 60.178 10.386 60.178 9.67069C60.178 8.81685 60.3566 8.20129 60.714 7.82349C61.0713 7.44622 61.5973 7.25732 62.2927 7.25732C62.7096 7.25732 63.0716 7.35203 63.3803 7.54042C63.6876 7.72931 63.9209 8.01239 64.0803 8.38968C64.3583 8.9258 64.5466 9.65592 64.6464 10.5795C64.7456 11.5031 64.8103 12.5708 64.8398 13.7821C64.8693 14.9938 64.8846 16.3146 64.8846 17.7443C64.8846 19.5914 64.6163 21.1902 64.0803 22.5405C63.5441 23.8912 62.72 24.9289 61.608 25.6534C60.4956 26.3785 59.036 26.7409 57.2292 26.7409L57.2287 26.7398Z" fill="#333333"/>
<path d="M70.1574 26.6806C69.5022 26.6806 68.9554 26.5116 68.5191 26.1739C68.0823 25.8364 67.8043 25.2407 67.6853 24.3864C67.5259 23.1553 67.422 21.8692 67.3726 20.5286C67.3228 19.1879 67.2983 17.9813 67.2983 16.909C67.2983 15.8367 67.3177 14.6301 67.3579 13.3491C67.3976 12.0681 67.5166 10.7921 67.7153 9.52078C67.7942 8.90522 68.008 8.43324 68.3557 8.10585C68.703 7.77796 69.2391 7.54478 69.9645 7.40578C70.689 7.26728 71.6771 7.19702 72.9285 7.19702C74.716 7.19702 76.1456 7.41596 77.2183 7.8523C78.2905 8.28965 79.0653 8.91998 79.5419 9.74379C80.0183 10.5681 80.2566 11.5564 80.2566 12.7081C80.2566 13.7207 80.0377 14.5802 79.6014 15.2849C79.164 15.9901 78.628 16.5613 77.9926 16.9976C77.9133 17.077 77.8485 17.157 77.7991 17.2359C77.7493 17.3153 77.7248 17.405 77.7248 17.5043C77.7248 17.6636 77.7493 17.7975 77.7991 17.9064C77.8485 18.0159 77.9036 18.1203 77.9631 18.219C78.2206 18.5766 78.5293 19.019 78.8866 19.5449C79.244 20.0713 79.6014 20.6278 79.9588 21.2133C80.3162 21.7995 80.6339 22.3656 80.9123 22.9113C81.1903 23.4576 81.3594 23.9296 81.419 24.3263C81.538 25.0218 81.4042 25.5976 81.0166 26.0544C80.6293 26.511 80.0785 26.7396 79.3636 26.7396C78.7476 26.7396 78.2319 26.5559 77.8145 26.1887C77.397 25.8216 77.0594 25.3696 76.8019 24.8335C76.087 23.5427 75.5159 22.4999 75.0891 21.7052C74.662 20.9109 74.3194 20.275 74.0613 19.7984C73.8031 19.3219 73.5945 19.0138 73.4356 18.8749C73.2762 18.7364 73.0283 18.6661 72.6908 18.6661C72.3533 18.6661 72.1399 18.7455 72.0503 18.9044C71.9606 19.0638 71.9165 19.2719 71.9165 19.5301C71.9165 20.0861 71.926 20.5927 71.9459 21.0495C71.9653 21.5067 71.9857 22.0081 72.0056 22.5539C72.0248 23.1003 72.0351 23.8004 72.0351 24.6543C72.0351 25.1904 71.8808 25.6623 71.5733 26.0692C71.2653 26.4764 70.7939 26.6796 70.1585 26.6796L70.1574 26.6806ZM72.8685 15.5684C73.7222 15.5684 74.3774 15.4493 74.8346 15.211C75.2913 14.9727 75.6136 14.655 75.803 14.2579C75.9913 13.8608 76.086 13.4341 76.086 12.9769C76.086 12.1032 75.8426 11.4973 75.356 11.1597C74.8693 10.8222 74.05 10.6531 72.8985 10.6531C72.5411 10.6531 72.2728 10.6933 72.094 10.7723C71.9154 10.8517 71.7963 11.0508 71.7366 11.368C71.6771 11.6857 71.6476 12.1923 71.6476 12.8873C71.6476 13.7019 71.672 14.2976 71.7219 14.6749C71.7713 15.0527 71.8859 15.2961 72.0646 15.405C72.2433 15.5144 72.5116 15.569 72.869 15.569L72.8685 15.5684Z" fill="#333333"/>
<path d="M85.4696 26.6805C84.6153 26.6805 83.9998 26.3428 83.6225 25.6672C83.4835 25.3694 83.3695 24.8729 83.2799 24.1774C83.1908 23.4825 83.1256 22.5345 83.0864 21.3323C83.0462 20.1308 83.0269 18.6466 83.0269 16.8783C83.0269 15.11 83.0467 13.5968 83.0864 12.4543C83.1261 11.3123 83.1908 10.409 83.2799 9.74306C83.369 9.07812 83.483 8.59596 83.6225 8.29811C83.9998 7.60313 84.6153 7.25537 85.4696 7.25537C86.3238 7.25537 86.9292 7.60313 87.2865 8.29811C87.4455 8.59596 87.5645 9.07253 87.6439 9.72831C87.7233 10.3836 87.7824 11.2878 87.8227 12.4395C87.8624 13.5917 87.8822 15.0713 87.8822 16.8783C87.8822 18.6852 87.8624 20.2351 87.8227 21.4066C87.7824 22.5788 87.7229 23.4972 87.6439 24.1622C87.5645 24.8277 87.4358 25.3291 87.2565 25.6668C86.9384 26.3423 86.3427 26.6798 85.469 26.6798L85.4696 26.6805Z" fill="#333333"/>
<path d="M92.7063 26.6803C92.2299 26.6803 91.8277 26.5363 91.4998 26.2482C91.172 25.9605 90.9489 25.5185 90.8299 24.9223C90.6312 24.128 90.4969 23.0603 90.4275 21.7197C90.3579 20.3791 90.3232 18.7657 90.3232 16.8788C90.3232 15.1314 90.3629 13.6019 90.4423 12.2908C90.5212 10.9798 90.6511 9.92736 90.8299 9.13309C91.0874 8.41824 91.4851 7.91164 92.0211 7.61379C92.5572 7.31593 93.2822 7.16675 94.1955 7.16675C94.6919 7.16675 95.1588 7.2365 95.5955 7.3755C96.0323 7.5145 96.4448 7.82253 96.8317 8.2991C97.2191 8.77567 97.606 9.51596 97.9934 10.5185C98.3809 11.5215 98.7928 12.887 99.2295 14.6146C99.6068 16.0249 99.9 17.1319 100.108 17.9363C100.317 18.7408 100.481 19.3416 100.6 19.7386C100.719 20.1363 100.818 20.3842 100.898 20.4836C100.977 20.5833 101.057 20.6322 101.136 20.6322C101.235 20.6322 101.3 20.5777 101.33 20.4683C101.359 20.3593 101.374 20.1954 101.374 19.9769C101.374 19.262 101.369 18.5468 101.36 17.8319C101.35 17.1171 101.335 16.3722 101.315 15.5977C101.295 14.8233 101.28 13.9741 101.27 13.0505C101.26 12.1269 101.255 11.0989 101.255 9.96707C101.255 8.99409 101.434 8.29859 101.791 7.88159C102.149 7.46461 102.596 7.25586 103.132 7.25586C103.509 7.25586 103.856 7.35566 104.174 7.5537C104.492 7.75227 104.73 8.13973 104.889 8.71558C105.008 9.43043 105.108 10.4385 105.187 11.7394C105.267 13.0403 105.306 14.7536 105.306 16.8783C105.306 18.7651 105.266 20.4086 105.187 21.8088C105.108 23.2089 104.968 24.2568 104.77 24.9519C104.551 25.6071 104.189 26.074 103.683 26.352C103.176 26.63 102.496 26.7689 101.642 26.7689C101.205 26.7689 100.808 26.7094 100.45 26.5903C100.093 26.4711 99.7505 26.2328 99.4225 25.8754C99.0946 25.518 98.7672 25.0165 98.4394 24.3709C98.1115 23.7259 97.7791 22.8811 97.4415 21.8383C97.1035 20.7957 96.7268 19.51 96.3099 17.9805C95.9922 16.7891 95.7437 15.8503 95.5651 15.1655C95.3863 14.4802 95.2474 13.9741 95.148 13.6462C95.0483 13.3183 94.9694 13.11 94.9099 13.0204C94.8502 12.9308 94.7906 12.8865 94.7311 12.8865C94.6517 12.8865 94.5871 12.9267 94.5377 13.0057C94.4877 13.0851 94.4632 13.274 94.4632 13.5718C94.4632 14.4461 94.4729 15.4633 94.4928 16.6253C94.5126 17.7871 94.5274 18.9937 94.5377 20.2448C94.5474 21.4957 94.5525 22.7076 94.5525 23.8796C94.5525 24.8729 94.3885 25.5877 94.0606 26.0246C93.7328 26.462 93.2812 26.6799 92.7054 26.6799L92.7063 26.6803Z" fill="#333333"/>
<path d="M113.171 26.6802C112.694 26.6802 112.278 26.5905 111.92 26.4119C111.562 26.2331 111.279 25.9306 111.07 25.503C110.862 25.0763 110.758 24.4954 110.758 23.7602V22.1217C110.758 21.4466 110.762 20.7068 110.773 19.9023C110.782 19.0979 110.792 18.2837 110.802 17.4594C110.812 16.6357 110.821 15.8557 110.832 15.121C110.841 14.3862 110.846 13.7457 110.846 13.1994V12.0523C110.846 11.7545 110.802 11.5508 110.712 11.4418C110.623 11.3329 110.449 11.2779 110.191 11.2779H108.374C107.957 11.2779 107.58 11.1491 107.242 10.8904C106.904 10.6328 106.736 10.1359 106.736 9.40066C106.736 8.98368 106.81 8.63134 106.959 8.34317C107.109 8.05549 107.406 7.82689 107.853 7.65784C108.3 7.48932 108.95 7.37018 109.804 7.30043C110.658 7.23118 111.76 7.19604 113.111 7.19604C114.462 7.19604 115.618 7.23068 116.462 7.30043C117.306 7.37018 117.957 7.48932 118.414 7.65784C118.87 7.82689 119.173 8.05549 119.322 8.34317C119.472 8.63134 119.546 8.98368 119.546 9.40066C119.546 10.1359 119.382 10.6323 119.054 10.8904C118.726 11.1486 118.344 11.2779 117.907 11.2779H116.09C115.852 11.2779 115.673 11.3329 115.554 11.4418C115.435 11.5513 115.375 11.7545 115.375 12.0523C115.375 12.2712 115.38 12.6531 115.39 13.1994C115.4 13.7457 115.405 14.3862 115.405 15.121C115.405 15.8557 115.415 16.6357 115.434 17.4594C115.454 18.2837 115.464 19.0979 115.464 19.9023C115.464 20.7068 115.469 21.4466 115.479 22.1217C115.488 22.7974 115.494 23.3433 115.494 23.7602C115.494 24.4954 115.394 25.0763 115.196 25.503C114.997 25.9302 114.729 26.2331 114.391 26.4119C114.053 26.5905 113.646 26.6802 113.17 26.6802H113.171Z" fill="#333333"/>
<path d="M121.78 26.7399C121.244 26.7399 120.811 26.6356 120.484 26.4273C120.156 26.2185 119.918 25.9207 119.769 25.5338C119.621 25.1462 119.546 24.6652 119.546 24.0888C119.546 23.4335 119.62 22.599 119.769 21.5864C119.919 20.5732 120.127 19.4708 120.395 18.2795C120.663 17.0879 120.966 15.9062 121.304 14.7342C121.761 13.2648 122.192 12.0433 122.599 11.0698C123.006 10.0969 123.433 9.31736 123.88 8.73133C124.327 8.14582 124.814 7.7334 125.34 7.49513C125.866 7.25683 126.457 7.1377 127.113 7.1377C127.808 7.1377 128.413 7.26702 128.93 7.52516C129.446 7.7833 129.928 8.2059 130.375 8.79142C130.822 9.37745 131.233 10.1575 131.611 11.1299C131.988 12.1034 132.385 13.2948 132.802 14.7052C133.179 15.8965 133.507 17.0987 133.785 18.3099C134.063 19.5218 134.281 20.6388 134.44 21.6616C134.599 22.685 134.679 23.5139 134.679 24.1493C134.679 24.6855 134.604 25.1524 134.455 25.5495C134.306 25.9472 134.078 26.245 133.77 26.4432C133.462 26.6412 133.03 26.741 132.474 26.741C132.037 26.741 131.674 26.6615 131.387 26.5027C131.099 26.3438 130.87 26.1055 130.701 25.7878C130.532 25.4701 130.389 25.0928 130.269 24.6559C130.15 23.9015 130.035 23.3108 129.927 22.8836C129.817 22.457 129.728 22.1142 129.658 21.8556C129.589 21.5975 129.504 21.4087 129.405 21.2895C129.326 21.1704 129.231 21.0761 129.122 21.0064C129.013 20.9372 128.81 20.8873 128.512 20.8572C128.214 20.8276 127.737 20.8124 127.082 20.8124C126.466 20.8124 125.994 20.8272 125.667 20.8572C125.339 20.8867 125.126 20.9367 125.026 21.0064C124.927 21.0761 124.837 21.1902 124.758 21.349C124.658 21.5278 124.569 21.7315 124.49 21.9595C124.41 22.1881 124.331 22.5058 124.252 22.9127C124.172 23.3199 124.063 23.9008 123.924 24.6555C123.824 25.1127 123.685 25.4945 123.507 25.8025C123.328 26.1105 123.109 26.3438 122.851 26.5027C122.593 26.6615 122.236 26.741 121.779 26.741L121.78 26.7399ZM127.172 17.3853H127.872C128.08 17.3853 128.274 17.3756 128.453 17.3558C128.691 17.3364 128.855 17.2865 128.944 17.2067C129.034 17.1278 129.078 16.9882 129.078 16.7896C129.078 16.4719 129.013 16.0896 128.884 15.6425C128.755 15.1955 128.611 14.7042 128.453 14.168C128.214 13.3738 128.015 12.778 127.857 12.3804C127.698 11.9833 127.564 11.7205 127.455 11.5912C127.345 11.4624 127.211 11.3977 127.053 11.3977C126.933 11.3977 126.814 11.4675 126.695 11.6065C126.576 11.7455 126.447 12.0041 126.308 12.3809C126.169 12.7587 125.98 13.3447 125.742 14.1385C125.603 14.615 125.468 15.0972 125.339 15.5835C125.21 16.0702 125.146 16.4724 125.146 16.7901C125.146 16.9887 125.186 17.1282 125.265 17.2072C125.344 17.2865 125.513 17.3364 125.772 17.3564C126.029 17.3762 126.268 17.3858 126.487 17.3858H127.172V17.3853Z" fill="#333333"/>
</svg>
