<svg width="500" height="468" viewBox="0 0 500 468" fill="none" xmlns="http://www.w3.org/2000/svg">
<style>
  /* Idle mascot animations — breath (whole body), blink (eyes), and a
   * gentle sway on both arms. All three desync via different periods
   * + a small negative delay on the right eye so the blinks don't fire
   * in perfect lockstep. Honours prefers-reduced-motion. */
  @media (prefers-reduced-motion: no-preference) {
    .body  { animation: mascot-breathe 3.7s ease-in-out infinite; transform-box: view-box; transform-origin: 250px 220px; }
    .eye   { transform-box: view-box; }
    /* Both eyes share the SAME timing so they blink in sync. */
    .eye-l { animation: mascot-blink 5.1s ease-in-out infinite; transform-origin: 203px 156px; }
    .eye-r { animation: mascot-blink 5.1s ease-in-out infinite; transform-origin: 299px 158px; }
    .arm   { transform-box: view-box; }
    .arm-l { animation: mascot-arm-l 4.3s ease-in-out infinite; transform-origin: 130px 215px; }
    .arm-r { animation: mascot-arm-r 4.9s ease-in-out -0.7s infinite; transform-origin: 388px 215px; }
  }
  /* Breathe — uniform scale around the body centre. The mascot sits
   * tilted in the meadow (it's "lying back" against the floor), so a
   * vertical-only swell would read as bobbing; scaling proportionally
   * in both axes reads as inhaling / exhaling instead. */
  @keyframes mascot-breathe {
    0%, 100% { transform: scale(1); }
    50%      { transform: scale(1.018); }
  }
  @keyframes mascot-blink {
    0%, 92%, 100% { transform: scaleY(1); }
    95%, 97%      { transform: scaleY(0.08); }
  }
  @keyframes mascot-arm-l {
    0%, 100% { transform: rotate(-1.2deg); }
    50%      { transform: rotate(1.6deg); }
  }
  @keyframes mascot-arm-r {
    0%, 100% { transform: rotate(1.2deg); }
    50%      { transform: rotate(-1.6deg); }
  }
</style>
<g opacity="0.3">
<g filter="url(#filter0_f_734_31339)">
<ellipse cx="212.27" cy="340.703" rx="32.3594" ry="29.2539" transform="rotate(15.319 212.27 340.703)" fill="#144D26"/>
</g>
<g filter="url(#filter1_f_734_31339)">
<path d="M346.638 345.54C342.132 361.988 320.88 374.266 304.232 369.706C287.584 365.146 282.86 349.203 287.366 332.755C292.741 313.133 311.391 307.009 326.549 311.162C341.707 315.314 351.143 329.091 346.638 345.54Z" fill="#144D26"/>
</g>
<g filter="url(#filter2_f_734_31339)">
<circle cx="107.628" cy="229.795" r="25.1289" transform="rotate(15.319 107.628 229.795)" fill="#144D26"/>
</g>
<g filter="url(#filter3_f_734_31339)">
<circle cx="413.081" cy="240.412" r="25.1289" transform="rotate(15.319 413.081 240.412)" fill="#144D26"/>
</g>
<g filter="url(#filter4_f_734_31339)">
<path d="M225.688 332.504L187.136 331.845C183.096 331.777 179.41 331.288 175.565 330.34C166.442 328.089 159.105 321.946 155.374 313.32C153.37 308.685 152.533 303.877 152.233 298.807C151.884 292.935 151.709 287.436 151.878 281.51L153.123 238.332L154.457 210.001L156.297 186.566L159.06 161.991C159.713 156.208 160.88 150.87 162.866 145.43C167.797 131.904 179.779 122.365 194.176 120.78C209.796 119.06 239.21 118.169 266.991 118.069C288.705 117.991 309.421 118.396 321.773 119.265C338.903 120.471 356.409 120.589 367.56 136.05C371.243 141.159 373.428 146.879 374.756 153.019C378.353 169.657 381.763 217.619 382.296 235.748L383.755 285.367C383.889 289.907 383.642 294.059 383.424 298.518C383.252 302.038 382.748 305.317 381.87 308.709C379.154 319.189 371.276 327.32 360.812 330.206C356.635 331.359 352.612 331.854 348.137 331.902L279.726 332.641L267.003 332.609L225.694 332.504H225.688Z" fill="#144D26"/>
</g>
</g>
<g class="body">
<path d="M207.48 304.496L168.933 303.622C164.893 303.531 161.21 303.022 157.371 302.053C148.26 299.752 140.958 293.568 137.275 284.921C135.297 280.275 134.487 275.462 134.214 270.391C133.898 264.517 133.753 259.017 133.956 253.092L135.441 209.921L136.933 181.598L138.904 158.174L141.804 133.614C142.488 127.835 143.685 122.504 145.701 117.075C150.707 103.576 162.742 94.105 177.148 92.5994C192.777 90.9665 222.196 90.2396 249.977 90.2943C271.691 90.3371 292.405 90.8573 304.751 91.7956C321.875 93.0966 339.38 93.3118 350.444 108.835C354.099 113.964 356.252 119.696 357.546 125.843C361.05 142.501 364.193 190.482 364.625 208.613L365.808 258.24C365.916 262.78 365.646 266.931 365.404 271.389C365.212 274.908 364.69 278.184 363.793 281.571C361.019 292.036 353.095 300.123 342.616 302.95C338.432 304.08 334.406 304.553 329.931 304.575L261.517 304.934L248.794 304.831L207.486 304.496L207.48 304.496Z" fill="#FFFDEA" stroke="#185229" stroke-width="5.25026" stroke-linejoin="round"/>
<path d="M177.421 95.2106C192.899 93.5936 222.194 92.8653 249.973 92.92C271.672 92.9627 292.307 93.4826 304.553 94.4134C109.722 92.1391 167.097 108.612 136.581 253.182L138.064 210.06L139.552 181.781L141.517 158.432L144.411 133.923C145.075 128.323 146.229 123.198 148.163 117.99L148.164 117.988C152.827 105.414 164.021 96.6111 177.421 95.2106Z" fill="#E5E1BE"/>
<path d="M168.994 300.998C165.153 300.912 161.665 300.43 158.015 299.508C150.527 297.617 144.401 292.872 140.802 286.201C186.388 292.996 273.718 299.61 322.192 252.016L363.04 252.244L363.111 255.247L363.184 258.303C363.29 262.717 363.028 266.748 362.784 271.246C362.601 274.585 362.108 277.683 361.256 280.899C358.719 290.472 351.49 297.837 341.933 300.416L341.932 300.416C337.998 301.479 334.202 301.929 329.918 301.95L261.511 302.308L207.512 301.871L168.994 300.998Z" fill="#E5E1BE"/>
<path d="M354.977 126.385C358.426 142.783 361.568 190.547 362 208.677L362.987 250.096L320.055 249.738C357.688 240.341 362.273 189.729 354.977 126.385Z" fill="#E5E1BE"/>
<ellipse cx="323.253" cy="189.689" rx="18.5754" ry="9.04956" transform="rotate(0.319001 323.253 189.689)" fill="#FEAAA4"/>
<ellipse cx="176.556" cy="188.872" rx="18.5754" ry="9.04956" transform="rotate(0.319001 176.556 188.872)" fill="#FEAAA4"/>
<path d="M238.637 238.354C239.143 238.257 242.975 239.692 249.541 240.032C255.908 240.067 260.472 237.263 261.175 237.975C261.879 238.686 256.597 243.406 248.817 243.161C241.036 242.916 238.131 238.452 238.637 238.354Z" fill="#D6D2B2"/>
<path d="M232.662 229.86C214.869 218.935 209.377 193.085 219.481 187.707L219.488 187.716C221.753 186.505 225.175 187.177 227.785 188.05C243.184 193.226 257.458 192.499 272.969 187.738C275.767 186.955 278.774 187.318 280.148 188.576C289.284 196.208 282.728 218.919 265.79 230.047C257.22 235.677 244.36 237.044 232.662 229.86Z" fill="#185229"/>
<path d="M276.025 190.486C276.909 197.032 264.657 202.548 249.425 202.463C235.247 202.384 222.095 196.742 222.96 190.231C223.05 190.236 223.145 190.241 223.242 190.249C224.368 190.346 225.615 190.655 226.78 191.044L226.781 191.044C242.823 196.434 257.697 195.679 273.583 190.855C273.734 190.814 273.885 190.771 274.036 190.728C274.717 190.557 275.401 190.48 276.025 190.486Z" fill="#FEFEFE"/>
<path d="M229.184 224.263C227.672 202.984 271.747 203.444 269.781 223.913C268.553 224.937 267.258 225.903 265.9 226.796C257.363 232.404 244.382 233.857 232.445 226.527C231.31 225.83 230.223 225.073 229.184 224.263Z" fill="#FEAAA4"/>
<g class="eye eye-l">
<path d="M223.518 157.32C222.18 171.302 210.393 181.613 197.191 180.349C183.99 179.085 174.373 166.726 175.712 152.743C177.05 138.761 188.837 128.45 202.039 129.714C215.24 130.978 224.857 143.337 223.518 157.32Z" fill="#185229"/>
<path d="M222.499 159.258C221.269 172.107 210.624 181.6 198.722 180.46C186.82 179.321 178.169 167.981 179.399 155.132C180.629 142.283 191.275 132.79 203.177 133.929C215.078 135.069 223.729 146.409 222.499 159.258Z" fill="#FEFEFE"/>
<ellipse cx="203.896" cy="157.165" rx="18.9897" ry="22.6797" transform="rotate(5.46862 203.896 157.165)" fill="#185229"/>
<path d="M217.55 162.678C216.775 170.773 209.856 176.733 202.096 175.99C194.336 175.247 188.673 168.083 189.448 159.988C190.223 151.893 197.142 145.933 204.902 146.676C212.663 147.419 218.325 154.583 217.55 162.678Z" fill="#57A053"/>
<path d="M219.008 156.597C218.233 164.692 211.314 170.652 203.554 169.909C195.794 169.166 190.131 162.002 190.906 153.907C191.681 145.812 198.6 139.852 206.36 140.595C214.121 141.338 219.783 148.502 219.008 156.597Z" fill="#185229"/>
<path d="M210.405 140.526C210.494 140.345 210.76 140.37 210.814 140.565L213.223 149.409C213.239 149.467 213.279 149.517 213.332 149.545L221.215 153.707C221.389 153.798 221.364 154.054 221.177 154.111L212.647 156.701C212.589 156.719 212.541 156.759 212.514 156.814L208.47 165.04C208.381 165.221 208.115 165.195 208.062 165.001L205.652 156.157C205.636 156.098 205.597 156.049 205.543 156.021L197.66 151.859C197.487 151.768 197.511 151.512 197.699 151.455L206.228 148.865C206.286 148.847 206.334 148.806 206.361 148.752L210.405 140.526Z" fill="#FEFEFE"/>
<path d="M195.574 157.549C195.616 157.464 195.741 157.476 195.766 157.567L196.898 161.721C196.905 161.748 196.924 161.772 196.949 161.785L200.651 163.739C200.732 163.782 200.721 163.902 200.633 163.929L196.627 165.146C196.6 165.154 196.577 165.173 196.565 165.199L194.665 169.062C194.624 169.147 194.499 169.135 194.474 169.044L193.342 164.89C193.334 164.863 193.316 164.84 193.291 164.826L189.588 162.872C189.507 162.829 189.518 162.709 189.606 162.682L193.612 161.465C193.64 161.457 193.662 161.438 193.675 161.412L195.574 157.549Z" fill="#FEFEFE"/>
<ellipse cx="195.96" cy="170.61" rx="0.851921" ry="0.888666" transform="rotate(5.46862 195.96 170.61)" fill="#9ECF84"/>
</g>
<g class="eye eye-r">
<path d="M276.198 157.617C277.38 171.614 289.052 182.055 302.267 180.938C315.481 179.821 325.235 167.569 324.052 153.573C322.869 139.576 311.198 129.135 297.983 130.252C284.768 131.369 275.015 143.621 276.198 157.617Z" fill="#185229"/>
<path d="M277.195 159.567C278.281 172.429 288.821 182.039 300.734 181.033C312.648 180.026 321.425 168.783 320.338 155.921C319.251 143.059 308.712 133.448 296.798 134.455C284.884 135.462 276.108 146.705 277.195 159.567Z" fill="#FEFEFE"/>
<ellipse cx="18.9897" cy="22.6797" rx="18.9897" ry="22.6797" transform="matrix(-0.996448 0.0842103 0.0842103 0.996448 312.833 133.482)" fill="#185229"/>
<path d="M282.074 163.045C282.759 171.148 289.612 177.185 297.38 176.528C305.148 175.872 310.89 168.771 310.205 160.668C309.52 152.565 302.668 146.528 294.9 147.184C287.132 147.841 281.39 154.942 282.074 163.045Z" fill="#57A053"/>
<path d="M280.684 156.948C281.369 165.051 288.221 171.088 295.989 170.432C303.757 169.775 309.499 162.674 308.814 154.571C308.13 146.468 301.277 140.431 293.509 141.088C285.741 141.744 279.999 148.845 280.684 156.948Z" fill="#185229"/>
<path d="M289.497 140.971C289.41 140.788 289.143 140.811 289.088 141.005L286.58 149.821C286.563 149.88 286.523 149.929 286.469 149.956L278.54 154.03C278.366 154.12 278.388 154.375 278.575 154.434L287.074 157.119C287.132 157.138 287.18 157.179 287.206 157.234L291.158 165.504C291.245 165.686 291.512 165.664 291.567 165.47L294.075 156.653C294.092 156.595 294.132 156.546 294.186 156.518L302.115 152.445C302.289 152.355 302.267 152.1 302.08 152.041L293.581 149.355C293.523 149.337 293.475 149.296 293.449 149.241L289.497 140.971Z" fill="#FEFEFE"/>
<path d="M304.137 158.157C304.096 158.072 303.971 158.082 303.945 158.173L302.767 162.314C302.759 162.341 302.741 162.364 302.715 162.377L298.992 164.291C298.91 164.333 298.92 164.453 299.008 164.48L303 165.742C303.027 165.75 303.049 165.77 303.062 165.795L304.918 169.68C304.959 169.765 305.084 169.755 305.11 169.663L306.288 165.523C306.295 165.495 306.314 165.472 306.34 165.459L310.063 163.546C310.145 163.504 310.135 163.384 310.047 163.356L306.055 162.095C306.028 162.087 306.006 162.067 305.993 162.041L304.137 158.157Z" fill="#FEFEFE"/>
<ellipse cx="0.851921" cy="0.888666" rx="0.851921" ry="0.888666" transform="matrix(-0.996448 0.0842103 0.0842103 0.996448 304.405 170.257)" fill="#9ECF84"/>
</g>
<path d="M167.546 271.729C162.104 271.991 156.927 270.926 153.592 266.288C151.182 262.938 150.015 257.815 149.614 253.48L348.602 254.588C348.034 258.906 346.417 264.121 343.944 267.367C340.416 271.997 335.342 273.006 329.869 272.656L167.546 271.729Z" fill="#D6D2B2"/>
<path d="M149.673 253.48C149.647 258.196 151.24 262.816 153.648 266.309C156.981 271.147 162.155 272.258 167.595 271.983L329.838 272.911C335.308 273.274 340.38 272.22 343.907 267.389C346.261 264.166 348.354 257.994 348.372 254.589" stroke="#CAC5A0" stroke-width="4.14286" stroke-linejoin="round"/>
<path d="M156.81 253.526C156.787 257.487 159.141 266.553 162.525 266.498C164.195 266.471 164.004 263.185 164.097 262.173L331.851 263.107C332.643 263.111 333.398 263.115 333.892 263.118C333.821 265.369 334.161 267.513 335.43 267.455C339.225 267.476 341.281 257.208 341.295 254.55" stroke="#F0EDD4" stroke-width="2.07143"/>
<path d="M162.526 266.498C158.945 266.555 156.329 256.22 156.859 251.661L249.052 252.179L341.247 252.686C341.727 257.25 338.996 267.556 335.416 267.459C333.746 267.413 333.974 264.129 333.892 263.116L249.005 262.644L164.098 262.172C164.005 263.184 164.197 266.471 162.526 266.498Z" fill="#185229"/>
<path d="M166.55 250.993L140.517 250.848L133.96 250.811C133.924 257.349 133.855 263.855 134.206 270.39C134.478 275.462 135.288 280.274 137.266 284.92C140.949 293.567 148.252 299.751 157.362 302.052C161.201 303.021 164.885 303.531 168.925 303.622L207.472 304.495L207.478 304.495L261.508 304.933L329.922 304.575C334.398 304.552 338.423 304.08 342.607 302.949C353.086 300.122 361.01 292.035 363.784 281.57C364.682 278.183 365.203 274.907 365.395 271.388C365.745 264.957 365.797 258.548 365.833 252.111L359.25 252.03L332.228 251.924L166.55 251.002" stroke="#185229" stroke-width="5.25026" stroke-linejoin="round"/>
<ellipse cx="200.895" cy="317.888" rx="32.3594" ry="29.2539" transform="rotate(15.319 200.895 317.888)" fill="#39763D" stroke="#185229" stroke-width="4.5" stroke-linecap="round"/>
<path d="M171.373 309.801C175.343 295.307 191.692 286.85 208.161 291.361C215.665 293.417 221.776 297.777 225.83 303.285C202.091 287.717 172.383 306.113 171.373 309.801Z" fill="#78BA68"/>
<ellipse cx="4.15133" cy="5.34448" rx="4.15133" ry="5.34448" transform="matrix(0.192616 0.981274 -0.959016 0.283352 196.711 293.474)" fill="#9ECF84"/>
<path d="M335.263 322.724C330.757 339.172 309.505 351.451 292.857 346.891C276.209 342.33 271.485 326.387 275.991 309.939C281.366 290.318 300.016 284.194 315.174 288.346C330.332 292.498 339.768 306.276 335.263 322.724Z" fill="#39763D" stroke="#185229" stroke-width="4.5" stroke-linecap="round"/>
<path d="M286.109 296.215C293.879 289.147 304.984 287.37 314.709 290.033C326.406 293.238 334.39 302.414 334.631 314.063C326.078 294.298 295.375 289.315 286.109 296.215C285.579 296.697 285.064 297.204 284.566 297.736C284.979 297.177 285.497 296.67 286.109 296.215Z" fill="#78BA68"/>
<ellipse cx="4.15133" cy="5.34448" rx="4.15133" ry="5.34448" transform="matrix(-0.417071 0.908874 -0.94383 -0.33043 311.45 293.628)" fill="#9ECF84"/>
<g class="arm arm-r">
<path d="M388.671 193.012C387.327 193.258 386.164 193.618 384.94 194.196C368.716 201.85 369.932 225.4 382.439 235.609C396.744 247.284 412.121 244.324 423.508 230.826C442.412 227.252 436.738 206.473 422.412 211.861C431.9 207.694 447.401 198.206 439.494 187.299C432.68 177.899 418.786 191.003 412.925 195.164C415.915 187.023 426.37 170.398 413.821 165.448C400.682 160.265 396.529 186.655 388.671 193.012Z" fill="#78BA68"/>
<path d="M401.277 217.203C402.768 217.305 404.052 217.078 405.467 216.531C405.781 216.415 406.506 215.999 406.829 215.805C408.931 214.402 410.183 212.369 410.606 209.88C410.665 209.421 410.767 208.393 410.709 207.947C410.427 205.386 409.437 203.135 407.892 201.128C405.198 197.545 401.536 194.94 397.242 193.638C395.332 193.04 393.499 192.84 391.422 192.805C390.766 192.82 389.297 192.883 388.671 193.012C387.327 193.258 386.164 193.618 384.94 194.196C368.716 201.85 369.932 225.4 382.439 235.609C396.744 247.284 412.121 244.324 423.508 230.826M422.412 211.861C408.439 215.82 407.098 230.971 423.508 230.826C442.412 227.252 436.738 206.473 422.412 211.861ZM422.412 211.861C431.9 207.694 447.401 198.206 439.494 187.299C432.68 177.899 418.786 191.003 412.925 195.164C415.915 187.023 426.37 170.398 413.821 165.448C400.682 160.265 396.529 186.655 388.671 193.012M388.318 210.572C390.022 210.231 391.659 211.724 392.873 212.932C394.885 214.935 397.287 216.4 400.066 217.028L401.277 217.203M395.639 226.159C398.884 224.352 400.846 220.787 401.277 217.203" stroke="#185229" stroke-width="4"/>
<path d="M400.777 242.878C394.727 242.865 388.487 240.545 382.439 235.608C370.073 225.515 368.744 202.383 384.392 194.463C368.186 219.715 389.421 239.715 400.777 242.878Z" fill="#39763D"/>
<path d="M400.777 242.878C394.727 242.865 388.487 240.545 382.439 235.608C370.073 225.515 368.744 202.383 384.392 194.463" stroke="#185229" stroke-width="3"/>
</g>
<g class="arm arm-l">
<path d="M65.3346 213.758C67.793 214.033 81.0538 226.44 83.2096 227.634C106.273 240.42 131.946 221.994 125.683 195.963L124.905 192.91C123.82 189.73 122.042 187.824 121.054 184.769C119.802 180.902 119.382 177.846 118.006 173.973C117.221 171.764 115.998 169.824 114.264 168.232C110.424 164.71 105.524 164.398 101.358 167.599C97.8305 170.395 99.0054 176.03 99.6206 180.855C96.0921 177.178 92.0123 172.558 89.174 169.969C84.6511 165.396 76.7414 155.985 70.4596 162.013C63.7452 168.456 75.8375 177.534 81.1019 184.535C73.1605 180.672 60.026 170.071 54.5105 177.318C47.4464 186.6 67.2564 194.87 74.096 199.29C67.0661 199.414 50.4433 190.633 47.7664 201.886C47.6081 209.584 58.1629 212.957 65.3346 213.758Z" fill="#78BA68"/>
<path d="M83.2096 227.634L84.1794 225.885L84.1787 225.884L83.2096 227.634ZM65.3346 213.758L65.5574 211.77L65.5566 211.77L65.3346 213.758ZM99.6206 180.855L98.1775 182.24L102.37 186.609L101.604 180.602L99.6206 180.855ZM101.358 167.599L100.14 166.013L100.128 166.022L100.116 166.031L101.358 167.599ZM114.264 168.232L115.616 166.759L115.616 166.758L114.264 168.232ZM118.006 173.973L119.891 173.303L119.891 173.303L118.006 173.973ZM121.054 184.769L122.957 184.153L122.957 184.153L121.054 184.769ZM124.905 192.91L126.844 192.416L126.824 192.339L126.798 192.263L124.905 192.91ZM125.683 195.963L127.627 195.495L127.624 195.483L127.621 195.47L125.683 195.963ZM47.7664 201.886L45.8207 201.423L45.7712 201.631L45.7668 201.845L47.7664 201.886ZM74.096 199.29L74.1312 201.29C75.0112 201.274 75.7776 200.685 76.0192 199.839C76.2608 198.993 75.9207 198.088 75.1815 197.61L74.096 199.29ZM54.5105 177.318L56.102 178.529L54.5105 177.318ZM81.1019 184.535L80.2269 186.334C81.0578 186.738 82.0574 186.52 82.6451 185.807C83.2328 185.095 83.2557 184.072 82.7004 183.333L81.1019 184.535ZM89.174 169.969L87.7519 171.376L87.7882 171.412L87.8263 171.447L89.174 169.969ZM83.2096 227.634L84.1787 225.884C84.0744 225.826 83.7543 225.604 83.1646 225.138C82.6155 224.703 81.9299 224.135 81.1416 223.471C79.4869 222.077 77.7161 220.545 75.6757 218.823C73.7263 217.177 71.7345 215.533 70.0638 214.276C69.2311 213.649 68.4446 213.094 67.763 212.677C67.4226 212.469 67.0788 212.278 66.7478 212.127C66.4456 211.989 66.0233 211.822 65.5574 211.77L65.3346 213.758L65.1117 215.745C64.9532 215.727 64.9226 215.69 65.0858 215.765C65.2202 215.826 65.4155 215.931 65.6772 216.091C66.1998 216.41 66.8694 216.878 67.6593 217.472C69.2339 218.657 71.1529 220.24 73.0955 221.88C74.9471 223.443 77.0494 225.254 78.5642 226.53C79.3607 227.201 80.0839 227.801 80.6823 228.274C81.24 228.716 81.8059 229.143 82.2406 229.383L83.2096 227.634ZM99.6206 180.855L101.604 180.602C101.28 178.054 100.871 175.681 100.935 173.526C100.998 171.414 101.512 170.029 102.601 169.166L101.358 167.599L100.116 166.031C97.677 167.964 97.0146 170.795 96.9367 173.406C96.8602 175.974 97.3464 178.832 97.6366 181.108L99.6206 180.855ZM101.358 167.599L102.577 169.184C104.324 167.842 106.129 167.301 107.827 167.391C109.53 167.482 111.287 168.216 112.912 169.706L114.264 168.232L115.616 166.758C113.4 164.726 110.788 163.543 108.039 163.397C105.286 163.251 102.558 164.155 100.14 166.013L101.358 167.599ZM114.264 168.232L112.911 169.706C114.384 171.057 115.436 172.712 116.122 174.642L118.006 173.973L119.891 173.303C119.007 170.817 117.612 168.591 115.616 166.759L114.264 168.232ZM118.006 173.973L116.121 174.642C116.775 176.483 117.205 178.136 117.636 179.859C118.065 181.57 118.5 183.373 119.151 185.385L121.054 184.769L122.957 184.153C122.356 182.297 121.955 180.639 121.517 178.887C121.081 177.147 120.613 175.336 119.891 173.303L118.006 173.973ZM121.054 184.769L119.151 185.384C119.714 187.125 120.5 188.525 121.198 189.77C121.909 191.039 122.537 192.162 123.013 193.556L124.905 192.91L126.798 192.263C126.188 190.478 125.384 189.058 124.688 187.815C123.978 186.548 123.382 185.468 122.957 184.153L121.054 184.769ZM125.683 195.963L127.621 195.47L126.844 192.416L124.905 192.91L122.967 193.403L123.745 196.457L125.683 195.963ZM125.683 195.963L123.738 196.431C126.683 208.669 122.125 218.962 114.259 224.744C106.379 230.536 95.0373 231.904 84.1794 225.885L83.2096 227.634L82.2399 229.383C94.4457 236.15 107.472 234.698 116.628 227.966C125.8 221.224 130.946 209.289 127.627 195.495L125.683 195.963ZM65.3346 213.758L65.5566 211.77C62.1225 211.386 57.9666 210.391 54.7548 208.65C51.5164 206.895 49.7095 204.676 49.766 201.927L47.7664 201.886L45.7668 201.845C45.6651 206.795 49.0564 210.111 52.8487 212.167C56.6677 214.237 61.375 215.328 65.1126 215.745L65.3346 213.758ZM47.7664 201.886L49.7121 202.349C50.2344 200.153 51.3294 199.142 52.719 198.625C54.2825 198.043 56.4213 198.021 59.0138 198.394C61.578 198.763 64.2778 199.466 66.9198 200.109C69.4441 200.723 72.0662 201.326 74.1312 201.29L74.096 199.29L74.0609 197.29C72.6109 197.316 70.519 196.868 67.8656 196.222C65.33 195.605 62.3887 194.839 59.5839 194.435C56.8074 194.035 53.8491 193.936 51.3234 194.876C48.6236 195.881 46.6369 197.992 45.8207 201.423L47.7664 201.886ZM54.5105 177.318L56.102 178.529C57.029 177.311 58.2289 176.818 59.8426 176.845C61.567 176.873 63.6779 177.509 66.078 178.585C68.4516 179.65 70.9265 181.06 73.3625 182.485C75.7529 183.883 78.1532 185.325 80.2269 186.334L81.1019 184.535L81.9769 182.737C80.0799 181.814 77.8604 180.482 75.3821 179.032C72.9496 177.609 70.3071 176.098 67.715 174.935C65.1493 173.785 62.4461 172.887 59.9084 172.845C57.2599 172.802 54.7497 173.701 52.919 176.107L54.5105 177.318ZM74.096 199.29L75.1815 197.61C73.4092 196.465 70.7719 195.054 68.1464 193.559C65.4522 192.026 62.655 190.343 60.3072 188.541C57.9197 186.708 56.2147 184.913 55.4515 183.222C55.0858 182.412 54.9555 181.669 55.0318 180.96C55.1079 180.254 55.4039 179.447 56.102 178.529L54.5105 177.318L52.919 176.107C51.851 177.51 51.2208 178.992 51.0548 180.532C50.8892 182.069 51.201 183.529 51.8059 184.869C52.9841 187.478 55.3345 189.766 57.8715 191.714C60.4481 193.692 63.4444 195.485 66.1675 197.036C68.9592 198.625 71.363 199.905 73.0105 200.97L74.096 199.29ZM81.1019 184.535L82.7004 183.333C81.3127 181.488 79.4901 179.524 77.7504 177.62C75.9725 175.674 74.2548 173.763 72.9122 171.897C71.5506 170.004 70.7304 168.364 70.5286 166.978C70.35 165.75 70.6317 164.62 71.8444 163.456L70.4596 162.013L69.0748 160.57C66.9302 162.628 66.2056 165.048 66.5703 167.554C66.912 169.901 68.1849 172.175 69.6652 174.233C71.1644 176.317 73.0372 178.391 74.7974 180.318C76.5958 182.286 78.2589 184.082 79.5034 185.737L81.1019 184.535ZM70.4596 162.013L71.8444 163.456C73.029 162.319 74.1601 161.996 75.273 162.066C76.482 162.141 77.8609 162.697 79.3836 163.691C82.4775 165.709 85.3645 168.962 87.7519 171.376L89.174 169.969L90.5961 168.563C88.4606 166.404 85.1312 162.664 81.5691 160.34C79.7638 159.163 77.7048 158.21 75.5226 158.074C73.2443 157.931 71.031 158.693 69.0748 160.57L70.4596 162.013ZM89.174 169.969L87.8263 171.447C90.6033 173.98 94.5392 178.449 98.1775 182.24L99.6206 180.855L101.064 179.47C97.6451 175.908 93.4214 171.136 90.5217 168.492L89.174 169.969Z" fill="#185229"/>
<path d="M83.2066 227.633C81.0928 226.462 68.3027 214.512 65.4874 213.787C65.4354 213.777 65.3834 213.767 65.3315 213.757C65.3795 213.762 65.4315 213.772 65.4874 213.787C80.3963 216.654 104.422 226.956 113.284 216.808C118.41 214.102 122.567 206.613 125.68 195.962C131.943 221.993 106.27 240.419 83.2066 227.633Z" fill="#39763D"/>
<path d="M125.68 195.962C131.943 221.993 106.27 240.419 83.2066 227.633C81.0508 226.439 67.79 214.032 65.3315 213.757" stroke="#185229" stroke-width="4"/>
<path d="M82.2327 204.164C85.0155 197.176 96.1871 190.773 100.995 191.338" stroke="#185229" stroke-width="4"/>
<path d="M114.508 217.815C114.508 217.815 113.62 227.115 106.897 230.63C115.533 227.198 124.638 215.251 126.587 206.223C125.466 213.799 114.508 217.815 114.508 217.815Z" fill="#185229"/>
<path d="M114.508 217.815C114.508 217.815 113.62 227.115 106.897 230.63C115.533 227.198 124.638 215.251 126.587 206.223C125.466 213.799 114.508 217.815 114.508 217.815Z" stroke="#185229" stroke-width="4"/>
</g>
</g>
<defs>
<filter id="filter0_f_734_31339" x="170.11" y="301.214" width="84.3193" height="78.9785" filterUnits="userSpaceOnUse" color-interpolation-filters="sRGB">
<feFlood flood-opacity="0" result="BackgroundImageFix"/>
<feBlend mode="normal" in="SourceGraphic" in2="BackgroundImageFix" result="shape"/>
<feGaussianBlur stdDeviation="5" result="effect1_foregroundBlur_734_31339"/>
</filter>
<filter id="filter1_f_734_31339" x="275.753" y="299.929" width="82.0146" height="80.7373" filterUnits="userSpaceOnUse" color-interpolation-filters="sRGB">
<feFlood flood-opacity="0" result="BackgroundImageFix"/>
<feBlend mode="normal" in="SourceGraphic" in2="BackgroundImageFix" result="shape"/>
<feGaussianBlur stdDeviation="5" result="effect1_foregroundBlur_734_31339"/>
</filter>
<filter id="filter2_f_734_31339" x="72.4927" y="194.659" width="70.2705" height="70.2705" filterUnits="userSpaceOnUse" color-interpolation-filters="sRGB">
<feFlood flood-opacity="0" result="BackgroundImageFix"/>
<feBlend mode="normal" in="SourceGraphic" in2="BackgroundImageFix" result="shape"/>
<feGaussianBlur stdDeviation="5" result="effect1_foregroundBlur_734_31339"/>
</filter>
<filter id="filter3_f_734_31339" x="377.945" y="205.276" width="70.2705" height="70.2705" filterUnits="userSpaceOnUse" color-interpolation-filters="sRGB">
<feFlood flood-opacity="0" result="BackgroundImageFix"/>
<feBlend mode="normal" in="SourceGraphic" in2="BackgroundImageFix" result="shape"/>
<feGaussianBlur stdDeviation="5" result="effect1_foregroundBlur_734_31339"/>
</filter>
<filter id="filter4_f_734_31339" x="141.813" y="108.06" width="251.98" height="234.581" filterUnits="userSpaceOnUse" color-interpolation-filters="sRGB">
<feFlood flood-opacity="0" result="BackgroundImageFix"/>
<feBlend mode="normal" in="SourceGraphic" in2="BackgroundImageFix" result="shape"/>
<feGaussianBlur stdDeviation="5" result="effect1_foregroundBlur_734_31339"/>
</filter>
</defs>
</svg>
