<svg width="500" height="468" viewBox="0 0 500 468" fill="none" xmlns="http://www.w3.org/2000/svg">
<g opacity="0.3">
<g filter="url(#filter0_f_734_31339)">
<ellipse cx="212.27" cy="340.703" rx="32.3594" ry="29.2539" transform="rotate(15.319 212.27 340.703)" fill="#144D26"/>
</g>
<g filter="url(#filter1_f_734_31339)">
<path d="M346.637 345.539C342.131 361.987 320.879 374.265 304.231 369.705C287.583 365.145 282.859 349.202 287.365 332.754C292.74 313.132 311.39 307.008 326.548 311.161C341.706 315.313 351.142 329.091 346.637 345.539Z" fill="#144D26"/>
</g>
<g filter="url(#filter2_f_734_31339)">
<circle cx="107.628" cy="229.793" r="25.1289" transform="rotate(15.319 107.628 229.793)" fill="#144D26"/>
</g>
<g filter="url(#filter3_f_734_31339)">
<circle cx="413.082" cy="240.41" r="25.1289" transform="rotate(15.319 413.082 240.41)" fill="#144D26"/>
</g>
<g filter="url(#filter4_f_734_31339)">
<path d="M225.687 332.503L187.136 331.844C183.095 331.776 179.409 331.287 175.565 330.339C166.442 328.088 159.105 321.945 155.374 313.319C153.37 308.684 152.533 303.876 152.232 298.806C151.884 292.934 151.708 287.435 151.878 281.509L153.123 238.331L154.457 210L156.297 186.565L159.06 161.99C159.712 156.207 160.879 150.869 162.865 145.429C167.796 131.903 179.778 122.364 194.175 120.779C209.795 119.059 239.209 118.168 266.99 118.068C288.705 117.99 309.421 118.395 321.772 119.264C338.903 120.47 356.409 120.588 367.559 136.049C371.242 141.158 373.428 146.878 374.756 153.018C378.353 169.656 381.762 217.618 382.295 235.747L383.754 285.366C383.888 289.906 383.641 294.058 383.424 298.517C383.251 302.037 382.748 305.316 381.87 308.708C379.154 319.188 371.275 327.319 360.812 330.205C356.634 331.358 352.611 331.853 348.136 331.901L279.725 332.64L267.002 332.608L225.693 332.503H225.687Z" fill="#144D26"/>
</g>
</g>
<path d="M207.477 304.495L168.93 303.621C164.889 303.53 161.206 303.021 157.367 302.052C148.256 299.751 140.954 293.567 137.271 284.92C135.293 280.274 134.483 275.461 134.21 270.39C133.895 264.516 133.75 259.016 133.952 253.091L135.437 209.92L136.929 181.597L138.9 158.173L141.8 133.613C142.484 127.834 143.681 122.503 145.697 117.074C150.703 103.575 162.738 94.104 177.144 92.5984C192.773 90.9656 222.192 90.2386 249.973 90.2933C271.687 90.3361 292.401 90.8563 304.747 91.7947C321.871 93.0956 339.376 93.3109 350.44 108.834C354.095 113.963 356.248 119.695 357.542 125.842C361.047 142.5 364.189 190.481 364.621 208.612L365.804 258.239C365.912 262.779 365.642 266.93 365.4 271.388C365.208 274.907 364.686 278.183 363.789 281.57C361.015 292.035 353.091 300.122 342.612 302.949C338.428 304.079 334.402 304.552 329.927 304.574L261.513 304.933L248.79 304.83L207.483 304.495L207.477 304.495Z" fill="#FFFDEA" stroke="#185229" stroke-width="5.25026" stroke-linejoin="round"/>
<path d="M177.414 95.2096C192.891 93.5926 222.186 92.8643 249.965 92.919C271.664 92.9617 292.299 93.4816 304.545 94.4124C109.715 92.1382 167.089 108.612 136.573 253.181L138.056 210.059L139.545 181.78L141.509 158.431L144.404 133.922C145.067 128.322 146.221 123.197 148.155 117.989L148.156 117.987C152.819 105.413 164.013 96.6101 177.414 95.2096Z" fill="#E5E1BE"/>
<path d="M168.986 300.997C165.145 300.911 161.657 300.429 158.007 299.507C150.519 297.616 144.393 292.871 140.794 286.2C186.38 292.995 273.71 299.609 322.184 252.015L363.032 252.243L363.103 255.246L363.176 258.302C363.282 262.716 363.02 266.747 362.776 271.245C362.593 274.584 362.1 277.682 361.248 280.898C358.711 290.471 351.482 297.837 341.925 300.415L341.924 300.415C337.991 301.478 334.194 301.928 329.91 301.95L261.503 302.308L207.504 301.87L168.986 300.997Z" fill="#E5E1BE"/>
<path d="M354.976 126.384C358.425 142.782 361.567 190.546 361.999 208.676L362.986 250.095L320.054 249.737C357.687 240.34 362.272 189.728 354.976 126.384Z" fill="#E5E1BE"/>
<ellipse cx="323.251" cy="189.688" rx="18.5754" ry="9.04956" transform="rotate(0.319001 323.251 189.688)" fill="#FEAAA4"/>
<ellipse cx="176.556" cy="188.872" rx="18.5754" ry="9.04956" transform="rotate(0.319001 176.556 188.872)" fill="#FEAAA4"/>
<path d="M238.63 238.354C239.136 238.256 242.968 239.691 249.535 240.031C255.901 240.066 260.465 237.262 261.168 237.974C261.872 238.685 256.59 243.406 248.81 243.16C241.03 242.915 238.124 238.451 238.63 238.354Z" fill="#D6D2B2"/>
<path d="M232.661 229.859C214.868 218.933 209.376 193.083 219.48 187.705L219.487 187.714C221.752 186.504 225.174 187.175 227.784 188.048C243.183 193.224 257.457 192.497 272.968 187.736C275.766 186.953 278.773 187.316 280.147 188.575C289.283 196.206 282.727 218.917 265.789 230.045C257.219 235.675 244.359 237.042 232.661 229.859Z" fill="#185229"/>
<path d="M276.024 190.485C276.908 197.031 264.656 202.547 249.425 202.462C235.246 202.383 222.094 196.741 222.959 190.23C223.049 190.235 223.144 190.24 223.241 190.248C224.367 190.345 225.614 190.654 226.779 191.043L226.78 191.043C242.822 196.433 257.696 195.678 273.582 190.854C273.733 190.813 273.884 190.77 274.035 190.727C274.716 190.556 275.4 190.479 276.024 190.485Z" fill="#FEFEFE"/>
<path d="M229.182 224.263C227.67 202.984 271.745 203.444 269.779 223.913C268.551 224.937 267.256 225.903 265.898 226.796C257.361 232.404 244.38 233.857 232.443 226.527C231.308 225.83 230.221 225.073 229.182 224.263Z" fill="#FEAAA4"/>
<path d="M223.514 157.32C222.175 171.302 210.388 181.613 197.187 180.349C183.985 179.085 174.369 166.726 175.707 152.743C177.046 138.761 188.833 128.45 202.034 129.714C215.236 130.978 224.852 143.337 223.514 157.32Z" fill="#185229"/>
<path d="M222.498 159.258C221.268 172.107 210.623 181.6 198.721 180.46C186.819 179.321 178.168 167.981 179.398 155.132C180.628 142.283 191.274 132.79 203.176 133.929C215.077 135.069 223.728 146.409 222.498 159.258Z" fill="#FEFEFE"/>
<ellipse cx="203.89" cy="157.166" rx="18.9897" ry="22.6797" transform="rotate(5.46862 203.89 157.166)" fill="#185229"/>
<path d="M217.551 162.679C216.776 170.774 209.857 176.734 202.097 175.991C194.337 175.248 188.674 168.084 189.449 159.989C190.224 151.894 197.143 145.934 204.903 146.677C212.664 147.42 218.326 154.584 217.551 162.679Z" fill="#57A053"/>
<path d="M219.004 156.597C218.229 164.692 211.31 170.652 203.55 169.909C195.79 169.166 190.127 162.002 190.902 153.907C191.677 145.812 198.596 139.852 206.357 140.595C214.117 141.338 219.779 148.502 219.004 156.597Z" fill="#185229"/>
<path d="M210.399 140.527C210.488 140.346 210.755 140.371 210.808 140.566L213.217 149.41C213.233 149.468 213.273 149.518 213.327 149.546L221.209 153.708C221.383 153.799 221.358 154.055 221.171 154.111L212.642 156.702C212.583 156.72 212.535 156.76 212.508 156.815L208.465 165.041C208.375 165.222 208.109 165.196 208.056 165.002L205.646 156.158C205.63 156.099 205.591 156.05 205.537 156.022L197.654 151.86C197.481 151.769 197.506 151.513 197.693 151.456L206.222 148.866C206.28 148.848 206.329 148.807 206.355 148.753L210.399 140.527Z" fill="#FEFEFE"/>
<path d="M195.57 157.549C195.612 157.464 195.737 157.476 195.762 157.567L196.894 161.721C196.901 161.748 196.92 161.772 196.945 161.785L200.647 163.739C200.729 163.782 200.717 163.902 200.629 163.929L196.623 165.146C196.596 165.154 196.573 165.173 196.561 165.199L194.661 169.062C194.62 169.147 194.495 169.135 194.47 169.044L193.338 164.89C193.33 164.863 193.312 164.84 193.287 164.826L189.584 162.872C189.503 162.829 189.515 162.709 189.603 162.682L193.608 161.465C193.636 161.457 193.658 161.438 193.671 161.412L195.57 157.549Z" fill="#FEFEFE"/>
<ellipse cx="195.959" cy="170.61" rx="0.851921" ry="0.888666" transform="rotate(5.46862 195.959 170.61)" fill="#9ECF84"/>
<path d="M276.195 157.616C277.378 171.613 289.049 182.054 302.264 180.937C315.478 179.82 325.232 167.568 324.049 153.572C322.866 139.575 311.195 129.134 297.98 130.251C284.766 131.368 275.012 143.62 276.195 157.616Z" fill="#185229"/>
<path d="M277.189 159.566C278.276 172.428 288.815 182.038 300.729 181.032C312.642 180.025 321.419 168.782 320.332 155.92C319.245 143.058 308.706 133.447 296.792 134.454C284.878 135.461 276.102 146.704 277.189 159.566Z" fill="#FEFEFE"/>
<ellipse cx="18.9897" cy="22.6797" rx="18.9897" ry="22.6797" transform="matrix(-0.996448 0.0842103 0.0842103 0.996448 312.828 133.482)" fill="#185229"/>
<path d="M282.075 163.045C282.76 171.148 289.613 177.185 297.381 176.528C305.149 175.872 310.891 168.771 310.206 160.668C309.521 152.565 302.669 146.528 294.901 147.184C287.133 147.841 281.391 154.942 282.075 163.045Z" fill="#57A053"/>
<path d="M280.685 156.949C281.37 165.052 288.222 171.089 295.99 170.433C303.758 169.776 309.5 162.675 308.815 154.572C308.13 146.469 301.278 140.432 293.51 141.089C285.742 141.745 280 148.846 280.685 156.949Z" fill="#185229"/>
<path d="M289.497 140.97C289.41 140.787 289.143 140.81 289.088 141.004L286.58 149.82C286.563 149.879 286.523 149.928 286.469 149.955L278.54 154.029C278.366 154.119 278.388 154.374 278.575 154.433L287.074 157.118C287.132 157.137 287.18 157.178 287.206 157.233L291.158 165.503C291.245 165.685 291.512 165.663 291.567 165.469L294.075 156.652C294.092 156.594 294.132 156.545 294.186 156.517L302.115 152.444C302.289 152.354 302.267 152.099 302.08 152.04L293.581 149.354C293.523 149.336 293.475 149.295 293.449 149.24L289.497 140.97Z" fill="#FEFEFE"/>
<path d="M304.132 158.156C304.091 158.071 303.966 158.081 303.94 158.173L302.762 162.313C302.755 162.34 302.736 162.363 302.71 162.376L298.987 164.29C298.905 164.332 298.915 164.452 299.003 164.479L302.995 165.741C303.022 165.749 303.044 165.769 303.057 165.794L304.913 169.679C304.954 169.764 305.079 169.754 305.105 169.662L306.283 165.522C306.29 165.494 306.309 165.471 306.335 165.458L310.058 163.545C310.14 163.503 310.13 163.383 310.042 163.355L306.05 162.094C306.023 162.086 306.001 162.066 305.988 162.04L304.132 158.156Z" fill="#FEFEFE"/>
<ellipse cx="0.851921" cy="0.888666" rx="0.851921" ry="0.888666" transform="matrix(-0.996448 0.0842103 0.0842103 0.996448 304.398 170.256)" fill="#9ECF84"/>
<path d="M167.549 271.729C162.107 271.991 156.93 270.926 153.595 266.288C151.184 262.938 150.018 257.815 149.617 253.48L348.605 254.588C348.037 258.906 346.42 264.121 343.947 267.367C340.419 271.997 335.344 273.006 329.872 272.656L167.549 271.729Z" fill="#D6D2B2"/>
<path d="M149.672 253.48C149.646 258.196 151.239 262.816 153.647 266.309C156.98 271.147 162.154 272.258 167.594 271.983L329.837 272.911C335.307 273.274 340.379 272.22 343.906 267.389C346.26 264.166 348.353 257.994 348.371 254.589" stroke="#CAC5A0" stroke-width="4.14286" stroke-linejoin="round"/>
<path d="M156.812 253.525C156.79 257.486 159.144 266.552 162.528 266.497C164.198 266.47 164.007 263.184 164.1 262.172L331.854 263.106C332.646 263.11 333.401 263.114 333.895 263.117C333.824 265.368 334.164 267.513 335.433 267.454C339.228 267.475 341.283 257.207 341.298 254.549" stroke="#F0EDD4" stroke-width="2.07143"/>
<path d="M162.525 266.497C158.944 266.554 156.328 256.219 156.858 251.66L249.051 252.178L341.246 252.685C341.726 257.249 338.995 267.555 335.415 267.458C333.745 267.412 333.973 264.128 333.891 263.115L249.004 262.643L164.097 262.171C164.004 263.183 164.196 266.47 162.525 266.497Z" fill="#185229"/>
<path d="M166.551 250.993L140.518 250.848L133.961 250.811C133.925 257.349 133.856 263.855 134.207 270.39C134.479 275.462 135.289 280.274 137.267 284.92C140.95 293.567 148.253 299.751 157.363 302.052C161.202 303.021 164.886 303.531 168.926 303.622L207.473 304.495L207.479 304.495L261.509 304.933L329.923 304.575C334.399 304.552 338.424 304.08 342.608 302.949C353.087 300.122 361.011 292.035 363.785 281.57C364.683 278.183 365.204 274.907 365.396 271.388C365.746 264.957 365.798 258.548 365.834 252.111L359.251 252.03L332.229 251.924L166.551 251.002" stroke="#185229" stroke-width="5.25026" stroke-linejoin="round"/>
<ellipse cx="200.895" cy="317.889" rx="32.3594" ry="29.2539" transform="rotate(15.319 200.895 317.889)" fill="#39763D" stroke="#185229" stroke-width="4.5" stroke-linecap="round"/>
<path d="M171.374 309.802C175.345 295.308 191.694 286.851 208.162 291.362C215.667 293.418 221.778 297.778 225.831 303.286C202.092 287.718 172.385 306.114 171.374 309.802Z" fill="#78BA68"/>
<ellipse cx="4.15133" cy="5.34448" rx="4.15133" ry="5.34448" transform="matrix(0.192616 0.981274 -0.959016 0.283352 196.711 293.475)" fill="#9ECF84"/>
<path d="M335.262 322.724C330.756 339.172 309.504 351.451 292.856 346.891C276.208 342.33 271.484 326.387 275.99 309.939C281.365 290.318 300.015 284.194 315.173 288.346C330.331 292.498 339.767 306.276 335.262 322.724Z" fill="#39763D" stroke="#185229" stroke-width="4.5" stroke-linecap="round"/>
<path d="M286.109 296.215C293.879 289.147 304.984 287.37 314.709 290.033C326.406 293.238 334.39 302.414 334.631 314.063C326.078 294.298 295.375 289.315 286.109 296.215C285.579 296.697 285.064 297.204 284.566 297.736C284.979 297.177 285.497 296.67 286.109 296.215Z" fill="#78BA68"/>
<ellipse cx="4.15133" cy="5.34448" rx="4.15133" ry="5.34448" transform="matrix(-0.417071 0.908874 -0.94383 -0.33043 311.453 293.629)" fill="#9ECF84"/>
<path d="M423.26 226.848C423.043 228.197 422.709 229.368 422.158 230.605C414.866 246.994 391.294 246.3 380.811 234.021C368.822 219.979 371.441 204.54 384.683 192.857C387.838 173.879 408.737 179.091 403.668 193.533C407.624 183.955 416.766 168.248 427.845 175.911C437.395 182.515 424.601 196.696 420.571 202.647C428.643 199.478 445.033 188.657 450.26 201.093C455.733 214.114 429.441 218.851 423.26 226.848Z" fill="#78BA68"/>
<path d="M398.796 214.78C398.66 213.292 398.859 212.004 399.374 210.577C399.483 210.26 399.883 209.526 400.07 209.199C401.426 207.066 403.431 205.77 405.91 205.292C406.367 205.223 407.393 205.097 407.84 205.146C410.407 205.371 412.679 206.311 414.72 207.812C418.362 210.425 421.047 214.029 422.444 218.293C423.084 220.19 423.325 222.017 423.405 224.093C423.405 224.749 423.375 226.219 423.26 226.848C423.043 228.197 422.709 229.368 422.158 230.605C414.866 246.994 391.294 246.3 380.811 234.021C368.822 219.979 371.441 204.54 384.683 192.857M403.668 193.533C400.019 207.59 384.902 209.266 384.683 192.857C387.838 173.879 408.737 179.091 403.668 193.533ZM403.668 193.533C407.624 183.955 416.766 168.248 427.845 175.911C437.395 182.515 424.601 196.696 420.571 202.647C428.643 199.478 445.033 188.657 450.26 201.093C455.733 214.114 429.441 218.851 423.26 226.848M405.712 227.59C406.015 225.879 404.486 224.275 403.251 223.088C401.204 221.121 399.686 218.752 398.997 215.987L398.796 214.78M389.966 220.616C391.701 217.331 395.221 215.291 398.796 214.78" stroke="#185229" stroke-width="4"/>
<path d="M373.14 215.849C373.287 221.897 375.745 228.084 380.814 234.022C391.178 246.161 414.335 246.977 421.906 231.158C397.019 247.919 376.554 227.132 373.14 215.849Z" fill="#39763D"/>
<path d="M373.14 215.849C373.287 221.897 375.745 228.084 380.814 234.022C391.178 246.161 414.335 246.977 421.906 231.158" stroke="#185229" stroke-width="3"/>
<path d="M65.3346 213.758C67.793 214.033 81.0538 226.44 83.2096 227.634C106.273 240.42 131.946 221.994 125.683 195.963L124.905 192.91C123.82 189.73 122.042 187.824 121.054 184.769C119.802 180.902 119.382 177.846 118.006 173.973C117.221 171.764 115.998 169.824 114.264 168.232C110.424 164.71 105.524 164.398 101.358 167.599C97.8305 170.395 99.0054 176.03 99.6206 180.855C96.0921 177.178 92.0123 172.558 89.174 169.969C84.6511 165.396 76.7414 155.985 70.4596 162.013C63.7452 168.456 75.8375 177.534 81.1019 184.535C73.1605 180.672 60.026 170.071 54.5105 177.318C47.4464 186.6 67.2564 194.87 74.096 199.29C67.0661 199.414 50.4433 190.633 47.7664 201.886C47.6081 209.584 58.1629 212.957 65.3346 213.758Z" fill="#78BA68"/>
<path d="M83.2096 227.634L84.1794 225.885L84.1787 225.884L83.2096 227.634ZM65.3346 213.758L65.5574 211.77L65.5566 211.77L65.3346 213.758ZM99.6206 180.855L98.1775 182.24L102.37 186.609L101.604 180.602L99.6206 180.855ZM101.358 167.599L100.14 166.013L100.128 166.022L100.116 166.031L101.358 167.599ZM114.264 168.232L115.616 166.759L115.616 166.758L114.264 168.232ZM118.006 173.973L119.891 173.303L119.891 173.303L118.006 173.973ZM121.054 184.769L122.957 184.153L122.957 184.153L121.054 184.769ZM124.905 192.91L126.844 192.416L126.824 192.339L126.798 192.263L124.905 192.91ZM125.683 195.963L127.627 195.495L127.624 195.483L127.621 195.47L125.683 195.963ZM47.7664 201.886L45.8207 201.423L45.7712 201.631L45.7668 201.845L47.7664 201.886ZM74.096 199.29L74.1312 201.29C75.0112 201.274 75.7776 200.685 76.0192 199.839C76.2608 198.993 75.9207 198.088 75.1815 197.61L74.096 199.29ZM54.5105 177.318L56.102 178.529L54.5105 177.318ZM81.1019 184.535L80.2269 186.334C81.0578 186.738 82.0574 186.52 82.6451 185.807C83.2328 185.095 83.2557 184.072 82.7004 183.333L81.1019 184.535ZM89.174 169.969L87.7519 171.376L87.7882 171.412L87.8263 171.447L89.174 169.969ZM83.2096 227.634L84.1787 225.884C84.0744 225.826 83.7543 225.604 83.1646 225.138C82.6155 224.703 81.9299 224.135 81.1416 223.471C79.4869 222.077 77.7161 220.545 75.6757 218.823C73.7263 217.177 71.7345 215.533 70.0638 214.276C69.2311 213.649 68.4446 213.094 67.763 212.677C67.4226 212.469 67.0788 212.278 66.7478 212.127C66.4456 211.989 66.0233 211.822 65.5574 211.77L65.3346 213.758L65.1117 215.745C64.9532 215.727 64.9226 215.69 65.0858 215.765C65.2202 215.826 65.4155 215.931 65.6772 216.091C66.1998 216.41 66.8694 216.878 67.6593 217.472C69.2339 218.657 71.1529 220.24 73.0955 221.88C74.9471 223.443 77.0494 225.254 78.5642 226.53C79.3607 227.201 80.0839 227.801 80.6823 228.274C81.24 228.716 81.8059 229.143 82.2406 229.383L83.2096 227.634ZM99.6206 180.855L101.604 180.602C101.28 178.054 100.871 175.681 100.935 173.526C100.998 171.414 101.512 170.029 102.601 169.166L101.358 167.599L100.116 166.031C97.677 167.964 97.0146 170.795 96.9367 173.406C96.8602 175.974 97.3464 178.832 97.6366 181.108L99.6206 180.855ZM101.358 167.599L102.577 169.184C104.324 167.842 106.129 167.301 107.827 167.391C109.53 167.482 111.287 168.216 112.912 169.706L114.264 168.232L115.616 166.758C113.4 164.726 110.788 163.543 108.039 163.397C105.286 163.251 102.558 164.155 100.14 166.013L101.358 167.599ZM114.264 168.232L112.911 169.706C114.384 171.057 115.436 172.712 116.122 174.642L118.006 173.973L119.891 173.303C119.007 170.817 117.612 168.591 115.616 166.759L114.264 168.232ZM118.006 173.973L116.121 174.642C116.775 176.483 117.205 178.136 117.636 179.859C118.065 181.57 118.5 183.373 119.151 185.385L121.054 184.769L122.957 184.153C122.356 182.297 121.955 180.639 121.517 178.887C121.081 177.147 120.613 175.336 119.891 173.303L118.006 173.973ZM121.054 184.769L119.151 185.384C119.714 187.125 120.5 188.525 121.198 189.77C121.909 191.039 122.537 192.162 123.013 193.556L124.905 192.91L126.798 192.263C126.188 190.478 125.384 189.058 124.688 187.815C123.978 186.548 123.382 185.468 122.957 184.153L121.054 184.769ZM125.683 195.963L127.621 195.47L126.844 192.416L124.905 192.91L122.967 193.403L123.745 196.457L125.683 195.963ZM125.683 195.963L123.738 196.431C126.683 208.669 122.125 218.962 114.259 224.744C106.379 230.536 95.0373 231.904 84.1794 225.885L83.2096 227.634L82.2399 229.383C94.4457 236.15 107.472 234.698 116.628 227.966C125.8 221.224 130.946 209.289 127.627 195.495L125.683 195.963ZM65.3346 213.758L65.5566 211.77C62.1225 211.386 57.9666 210.391 54.7548 208.65C51.5164 206.895 49.7095 204.676 49.766 201.927L47.7664 201.886L45.7668 201.845C45.6651 206.795 49.0564 210.111 52.8487 212.167C56.6677 214.237 61.375 215.328 65.1126 215.745L65.3346 213.758ZM47.7664 201.886L49.7121 202.349C50.2344 200.153 51.3294 199.142 52.719 198.625C54.2825 198.043 56.4213 198.021 59.0138 198.394C61.578 198.763 64.2778 199.466 66.9198 200.109C69.4441 200.723 72.0662 201.326 74.1312 201.29L74.096 199.29L74.0609 197.29C72.6109 197.316 70.519 196.868 67.8656 196.222C65.33 195.605 62.3887 194.839 59.5839 194.435C56.8074 194.035 53.8491 193.936 51.3234 194.876C48.6236 195.881 46.6369 197.992 45.8207 201.423L47.7664 201.886ZM54.5105 177.318L56.102 178.529C57.029 177.311 58.2289 176.818 59.8426 176.845C61.567 176.873 63.6779 177.509 66.078 178.585C68.4516 179.65 70.9265 181.06 73.3625 182.485C75.7529 183.883 78.1532 185.325 80.2269 186.334L81.1019 184.535L81.9769 182.737C80.0799 181.814 77.8604 180.482 75.3821 179.032C72.9496 177.609 70.3071 176.098 67.715 174.935C65.1493 173.785 62.4461 172.887 59.9084 172.845C57.2599 172.802 54.7497 173.701 52.919 176.107L54.5105 177.318ZM74.096 199.29L75.1815 197.61C73.4092 196.465 70.7719 195.054 68.1464 193.559C65.4522 192.026 62.655 190.343 60.3072 188.541C57.9197 186.708 56.2147 184.913 55.4515 183.222C55.0858 182.412 54.9555 181.669 55.0318 180.96C55.1079 180.254 55.4039 179.447 56.102 178.529L54.5105 177.318L52.919 176.107C51.851 177.51 51.2208 178.992 51.0548 180.532C50.8892 182.069 51.201 183.529 51.8059 184.869C52.9841 187.478 55.3345 189.766 57.8715 191.714C60.4481 193.692 63.4444 195.485 66.1675 197.036C68.9592 198.625 71.363 199.905 73.0105 200.97L74.096 199.29ZM81.1019 184.535L82.7004 183.333C81.3127 181.488 79.4901 179.524 77.7504 177.62C75.9725 175.674 74.2548 173.763 72.9122 171.897C71.5506 170.004 70.7304 168.364 70.5286 166.978C70.35 165.75 70.6317 164.62 71.8444 163.456L70.4596 162.013L69.0748 160.57C66.9302 162.628 66.2056 165.048 66.5703 167.554C66.912 169.901 68.1849 172.175 69.6652 174.233C71.1644 176.317 73.0372 178.391 74.7974 180.318C76.5958 182.286 78.2589 184.082 79.5034 185.737L81.1019 184.535ZM70.4596 162.013L71.8444 163.456C73.029 162.319 74.1601 161.996 75.273 162.066C76.482 162.141 77.8609 162.697 79.3836 163.691C82.4775 165.709 85.3645 168.962 87.7519 171.376L89.174 169.969L90.5961 168.563C88.4606 166.404 85.1312 162.664 81.5691 160.34C79.7638 159.163 77.7048 158.21 75.5226 158.074C73.2443 157.931 71.031 158.693 69.0748 160.57L70.4596 162.013ZM89.174 169.969L87.8263 171.447C90.6033 173.98 94.5392 178.449 98.1775 182.24L99.6206 180.855L101.064 179.47C97.6451 175.908 93.4214 171.136 90.5217 168.492L89.174 169.969Z" fill="#185229"/>
<path d="M83.2032 227.634C81.0894 226.463 68.2993 214.513 65.484 213.788C65.4319 213.778 65.38 213.768 65.3281 213.758C65.376 213.763 65.4281 213.773 65.484 213.788C80.3929 216.654 104.419 226.957 113.28 216.809C118.406 214.103 122.563 206.614 125.677 195.963C131.94 221.994 106.267 240.42 83.2032 227.634Z" fill="#39763D"/>
<path d="M125.677 195.963C131.94 221.994 106.267 240.42 83.2032 227.634C81.0474 226.44 67.7866 214.033 65.3281 213.758" stroke="#185229" stroke-width="4"/>
<path d="M82.2346 204.164C85.0174 197.176 96.189 190.773 100.997 191.338" stroke="#185229" stroke-width="4"/>
<path d="M114.505 217.814C114.505 217.814 113.617 227.114 106.895 230.63C115.53 227.197 124.635 215.25 126.585 206.222C125.463 213.798 114.505 217.814 114.505 217.814Z" fill="#185229"/>
<path d="M114.505 217.814C114.505 217.814 113.617 227.114 106.895 230.63C115.53 227.197 124.635 215.25 126.585 206.222C125.463 213.798 114.505 217.814 114.505 217.814Z" stroke="#185229" stroke-width="4"/>
<defs>
<filter id="filter0_f_734_31339" x="170.109" y="301.215" width="84.3203" height="78.9766" filterUnits="userSpaceOnUse" color-interpolation-filters="sRGB">
<feFlood flood-opacity="0" result="BackgroundImageFix"/>
<feBlend mode="normal" in="SourceGraphic" in2="BackgroundImageFix" result="shape"/>
<feGaussianBlur stdDeviation="5" result="effect1_foregroundBlur_734_31339"/>
</filter>
<filter id="filter1_f_734_31339" x="275.75" y="299.928" width="82.0156" height="80.7383" filterUnits="userSpaceOnUse" color-interpolation-filters="sRGB">
<feFlood flood-opacity="0" result="BackgroundImageFix"/>
<feBlend mode="normal" in="SourceGraphic" in2="BackgroundImageFix" result="shape"/>
<feGaussianBlur stdDeviation="5" result="effect1_foregroundBlur_734_31339"/>
</filter>
<filter id="filter2_f_734_31339" x="72.4922" y="194.658" width="70.2734" height="70.2695" filterUnits="userSpaceOnUse" color-interpolation-filters="sRGB">
<feFlood flood-opacity="0" result="BackgroundImageFix"/>
<feBlend mode="normal" in="SourceGraphic" in2="BackgroundImageFix" result="shape"/>
<feGaussianBlur stdDeviation="5" result="effect1_foregroundBlur_734_31339"/>
</filter>
<filter id="filter3_f_734_31339" x="377.945" y="205.275" width="70.2734" height="70.2695" filterUnits="userSpaceOnUse" color-interpolation-filters="sRGB">
<feFlood flood-opacity="0" result="BackgroundImageFix"/>
<feBlend mode="normal" in="SourceGraphic" in2="BackgroundImageFix" result="shape"/>
<feGaussianBlur stdDeviation="5" result="effect1_foregroundBlur_734_31339"/>
</filter>
<filter id="filter4_f_734_31339" x="141.812" y="108.059" width="251.977" height="234.582" filterUnits="userSpaceOnUse" color-interpolation-filters="sRGB">
<feFlood flood-opacity="0" result="BackgroundImageFix"/>
<feBlend mode="normal" in="SourceGraphic" in2="BackgroundImageFix" result="shape"/>
<feGaussianBlur stdDeviation="5" result="effect1_foregroundBlur_734_31339"/>
</filter>
</defs>
</svg>
